<?xml version="1.0" encoding="utf-8"?>
<!-- Generator: Adobe Illustrator 28.3.0, SVG Export Plug-In . SVG Version: 6.00 Build 0)  -->
<svg version="1.1" id="Layer_1" xmlns="http://www.w3.org/2000/svg" xmlns:xlink="http://www.w3.org/1999/xlink" x="0px" y="0px"
	 viewBox="0 0 169 169" style="enable-background:new 0 0 169 169;" xml:space="preserve">
<style type="text/css">
	.st0{fill:url(#SVGID_1_);}
	.st1{opacity:0.15;fill:#FFFFFF;enable-background:new    ;}
	.st2{fill:#FFFFFF;}
</style>
<linearGradient id="SVGID_1_" gradientUnits="userSpaceOnUse" x1="25.3636" y1="939.6185" x2="153.0236" y2="1060.1285" gradientTransform="matrix(1 0 0 1 -15.52 -925.51)">
	<stop  offset="0" style="stop-color:#7F8EFF"/>
	<stop  offset="1" style="stop-color:#4C2AFF"/>
</linearGradient>
<path class="st0" d="M168.8,92.3c-0.2,5.2-0.6,10.4-1.2,15.6c-0.6,5.2-1.3,10.4-2.3,15.6c0,0.1,0,0.2,0,0.2
	c-1,5.4-2.8,10.5-5.4,15.3c-1.4,2.6-3.1,5.1-4.9,7.5c-2.3,3-5,5.7-7.9,8.1c-6.8,5.6-14.9,9.3-23.5,10.9c-25.9,4.8-52.4,4.8-78.3-0.1
	c-8.6-1.6-16.7-5.3-23.5-10.8c-5.3-4.3-9.7-9.6-12.9-15.6c-2.6-4.8-4.4-10-5.4-15.3v-0.2c-0.9-5.2-1.7-10.4-2.3-15.6
	S0.3,97.5,0.1,92.3C0,89.1,0,85.8,0,82.6c0-2,0.1-4,0.1-5.9c0.2-5.2,0.6-10.4,1.2-15.6C1.8,57,2.3,53,3,48.9c0-0.3,0.1-0.6,0.2-0.9
	c0.1-0.8,0.3-1.6,0.4-2.4v-0.2c0.6-3.3,1.5-6.6,2.8-9.7C13,19,27.7,6.9,45.4,3.6c25.9-4.8,52.4-4.8,78.3,0.1
	c12.4,2.3,23.5,9,31.4,18.8c1.9,2.4,3.6,4.9,5,7.5c1,1.8,1.8,3.6,2.6,5.5c1.3,3.2,2.2,6.5,2.9,9.9c0,0.1,0,0.2,0.1,0.2l0.4,2.2
	c0.1,0.3,0.1,0.6,0.1,0.9c0.7,4.1,1.2,8.3,1.7,12.4c0.6,5.2,0.9,10.4,1.1,15.6c0.1,1.9,0.1,3.8,0.1,5.7
	C169,85.7,168.9,89,168.8,92.3z"/>
<path class="st1" d="M166,48.8C141.5,64,113.2,72,84.4,71.9c-28.8,0-56.9-7.9-81.4-23c0-0.3,0.1-0.6,0.2-0.9
	c0.1-0.8,0.3-1.6,0.4-2.4v-0.2c0.6-3.3,1.5-6.6,2.8-9.7C13,19,27.7,6.9,45.3,3.6c25.9-4.8,52.4-4.8,78.3,0.1
	c12.4,2.3,23.6,9,31.4,18.8c1.9,2.4,3.6,4.9,5,7.5c1,1.8,1.8,3.6,2.6,5.5c1.3,3.2,2.2,6.5,2.9,9.9c0,0.1,0,0.2,0.1,0.2l0.4,2.2
	C165.9,48.1,165.9,48.5,166,48.8z"/>
<g>
	<g>
		<path class="st2" d="M51.8,104.4L29.4,82l5.5-5.5l9,9V58.4C44,50.4,50.4,44,58.4,44h47.1v7.8H58.4c-3.6,0-6.5,2.9-6.5,6.5V104.4z"
			/>
	</g>
	<g>
		<path class="st2" d="M110.6,125H63.6v-7.8h47.1c3.6,0,6.5-2.9,6.5-6.5V64.6L139.6,87l-5.5,5.5l-9-9v27.1
			C125,118.6,118.6,125,110.6,125z"/>
	</g>
	<g>
		<rect x="63.6" y="80.6" class="st2" width="31.4" height="7.8"/>
	</g>
	<g>
		<rect x="63.6" y="64.9" class="st2" width="41.8" height="7.8"/>
	</g>
	<g>
		<rect x="63.6" y="96.3" class="st2" width="36.6" height="7.8"/>
	</g>
</g>
</svg>
