<svg width="65" height="65" fill="none" xmlns="http://www.w3.org/2000/svg"><circle cx="32" cy="32" r="30" fill="#6528F5"/><path d="M64.535 32.267C64.535 14.45 50.092 0 32.267 0 14.443 0 0 14.443 0 32.267c0 17.825 14.443 32.268 32.267 32.268 17.825 0 32.268-14.45 32.268-32.268zm-59.662 0c0-15.165 12.283-27.394 27.394-27.394 15.165 0 27.394 12.283 27.394 27.394 0 15.165-12.282 27.394-27.394 27.394-15.165 0-27.394-12.29-27.394-27.394z" fill="#fff"/><path d="M32.267 45.05c7.06 0 12.783-5.723 12.783-12.783s-5.723-12.782-12.783-12.782-12.782 5.723-12.782 12.782c0 7.06 5.723 12.783 12.782 12.783z" fill="#fff"/></svg>