<svg width="276" height="276" viewBox="0 0 276 276" fill="none" xmlns="http://www.w3.org/2000/svg">
<g clip-path="url(#clip0_9_889)">
<path d="M237.996 175.734H255.316C255.316 175.734 267.623 175.918 267.623 163.702V134.69C267.623 134.69 268.609 123.99 255.225 122.292C241.84 120.594 201.976 117.71 201.976 117.71L187.96 94.6486C187.96 94.6486 178.166 78.0886 155.525 78.0886H60.6499C39.8906 78.0886 30.8074 93.2578 30.8074 93.2578L15.2177 117.71C15.2177 117.71 8.89453 126.712 8.89453 134.69V163.713C8.89453 175.928 21.2013 175.734 21.2013 175.734H38.5268" fill="#EFE8FA"/>
<path d="M262.162 176.025H15.2178L8.87299 161.918H267.639L262.162 176.025Z" fill="#767C93"/>
<path d="M147.822 117.71H175.066C183.691 117.71 180.931 109.451 180.931 109.451C180.931 109.451 178.909 103.964 176.349 97.8991C175.664 96.1753 174.553 94.6532 173.12 93.4749C171.687 92.2965 169.979 91.5004 168.155 91.1609H55.5235C53.7005 91.5008 51.9934 92.2971 50.5615 93.4754C49.1296 94.6538 48.0196 96.1757 47.3351 97.8991C44.7961 103.964 42.7746 109.43 42.7746 109.43C42.7746 109.43 40.0146 117.688 48.6396 117.688H147.827L147.822 117.71Z" fill="#B9DDFC"/>
<g opacity="0.3">
<path d="M11.482 155.444C11.482 155.444 7.54689 167.929 28.3439 167.929H257.095C257.095 167.929 267.774 168.888 266.647 161.686C266.647 161.686 271.709 175.61 258.782 175.61H25.53C25.53 175.61 1.36384 176.57 11.482 155.444Z" fill="#3F456B"/>
</g>
<g opacity="0.3">
<path d="M42.2787 114.281C42.2787 114.281 39.5834 124.647 54.192 124.647H170.403C170.403 124.647 183.341 125.726 181.087 114.405C181.087 114.405 179.4 117.101 174.338 117.101H49.6908C49.6908 117.101 43.3029 116.847 42.2787 114.281Z" fill="white"/>
</g>
<path d="M267.634 134.372H254.82C253.682 134.342 252.578 134.763 251.748 135.543C250.919 136.324 250.433 137.401 250.395 138.539V146.145C250.427 147.287 250.911 148.37 251.741 149.155C252.571 149.94 253.678 150.364 254.82 150.334H267.526C267.564 145.746 267.165 138.981 267.634 134.372Z" fill="#DAE1EA"/>
<g opacity="0.5">
<path d="M266.911 150.593C263.095 150.593 260.006 145.347 260.006 141.531C260.005 140.624 260.183 139.725 260.53 138.887C260.877 138.048 261.385 137.286 262.027 136.645C262.668 136.003 263.429 135.494 264.268 135.146C265.106 134.799 266.004 134.62 266.911 134.62" fill="white"/>
</g>
<path d="M10.2422 132.453H16.021C17.4685 132.439 18.863 132.997 19.9002 134.007C20.9374 135.017 21.533 136.396 21.5571 137.844V147.008C21.533 148.455 20.9374 149.834 19.9002 150.844C18.863 151.854 17.4685 152.413 16.021 152.398H8.88377C8.84064 146.469 8.88377 138.323 10.2422 132.453Z" fill="#DAE1EA"/>
<path d="M81.7704 175.734C81.7704 180.011 80.5023 184.191 78.1265 187.747C75.7506 191.302 72.3738 194.074 68.4229 195.71C64.472 197.347 60.1246 197.775 55.9304 196.941C51.7362 196.106 47.8835 194.047 44.8597 191.023C41.8358 187.999 39.7765 184.147 38.9423 179.953C38.108 175.758 38.5362 171.411 40.1727 167.46C41.8092 163.509 44.5805 160.132 48.1362 157.756C51.6919 155.381 55.8722 154.113 60.1486 154.113C65.8831 154.113 71.3826 156.391 75.4375 160.445C79.4924 164.5 81.7704 170 81.7704 175.734Z" fill="#767C93"/>
<path d="M66.9354 175.734C66.9365 177.077 66.5393 178.39 65.7942 179.506C65.0492 180.623 63.9896 181.494 62.7495 182.008C61.5095 182.523 60.1447 182.658 58.8279 182.397C57.511 182.136 56.3012 181.49 55.3515 180.541C54.4018 179.592 53.7549 178.382 53.4926 177.066C53.2303 175.749 53.3644 174.384 53.8779 173.144C54.3914 171.903 55.2613 170.843 56.3775 170.097C57.4937 169.351 58.8061 168.953 60.1486 168.953C61.9472 168.954 63.6718 169.669 64.9441 170.94C66.2164 172.212 66.9326 173.936 66.9354 175.734Z" fill="#DAE1EA"/>
<g opacity="0.25">
<path d="M40.71 176.025C40.71 176.025 42.3596 190.828 60.057 190.828C77.7544 190.828 79.8136 176.419 79.8136 176.419C79.8136 176.419 80.6384 197 60.057 197C39.4756 197 40.71 176.025 40.71 176.025Z" fill="#3F456B"/>
</g>
<g opacity="0.2">
<path d="M79.7813 175.616C79.7813 175.616 78.1641 160.797 60.4397 160.797C42.7153 160.797 40.7046 175.195 40.7046 175.195C40.7046 175.195 39.8907 154.625 60.4613 154.625C81.0319 154.625 79.7813 175.616 79.7813 175.616Z" fill="white"/>
</g>
<path d="M235.538 175.734C235.538 180.011 234.27 184.191 231.894 187.747C229.518 191.302 226.141 194.074 222.19 195.71C218.24 197.347 213.892 197.775 209.698 196.941C205.504 196.106 201.651 194.047 198.627 191.023C195.603 187.999 193.544 184.147 192.71 179.953C191.876 175.758 192.304 171.411 193.94 167.46C195.577 163.509 198.348 160.132 201.904 157.756C205.459 155.381 209.64 154.113 213.916 154.113C219.651 154.113 225.15 156.391 229.205 160.445C233.26 164.5 235.538 170 235.538 175.734Z" fill="#767C93"/>
<path d="M220.703 175.734C220.704 177.077 220.307 178.39 219.562 179.506C218.817 180.623 217.757 181.494 216.517 182.008C215.277 182.523 213.912 182.658 212.595 182.397C211.279 182.136 210.069 181.49 209.119 180.541C208.169 179.592 207.523 178.382 207.26 177.066C206.998 175.749 207.132 174.384 207.646 173.144C208.159 171.903 209.029 170.843 210.145 170.097C211.261 169.351 212.574 168.953 213.916 168.953C215.715 168.954 217.439 169.669 218.712 170.94C219.984 172.212 220.7 173.936 220.703 175.734Z" fill="#DAE1EA"/>
<g opacity="0.25">
<path d="M194.478 176.025C194.478 176.025 196.127 190.828 213.825 190.828C231.522 190.828 233.581 176.419 233.581 176.419C233.581 176.419 234.406 197 213.825 197C193.243 197 194.478 176.025 194.478 176.025Z" fill="#3F456B"/>
</g>
<g opacity="0.2">
<path d="M233.57 175.616C233.57 175.616 231.926 160.797 214.229 160.797C196.531 160.797 194.472 175.195 194.472 175.195C194.472 175.195 193.647 154.619 214.229 154.619C234.81 154.619 233.57 175.616 233.57 175.616Z" fill="white"/>
</g>
<g opacity="0.3">
<path d="M176.344 98.1309H47.3459L51.1301 91.1662H169.939L176.344 98.1309Z" fill="white"/>
</g>
<g opacity="0.3">
<path d="M178.451 85.0587H38.7694L51.1301 78.094H164.145L178.451 85.0587Z" fill="white"/>
</g>
<g opacity="0.3">
<path d="M110.508 90.6973L128.518 91.9263L102.109 118.34L42.3541 115.559L51.1301 91.1662L110.508 90.6973Z" fill="white"/>
</g>
<g opacity="0.3">
<path d="M265.483 131.725L206.461 126.065C206.461 126.065 199.453 125.267 202.148 117.311L254.357 122.2C254.357 122.2 267.515 122.076 265.483 131.725Z" fill="white"/>
</g>
<path d="M267.639 153.051H253.834C250.448 153.051 247.699 149.962 247.699 146.167V138.539C247.699 134.766 250.448 131.655 253.834 131.655H267.639C268.354 131.655 269.04 131.939 269.545 132.445C270.05 132.95 270.334 133.636 270.334 134.351C270.334 135.065 270.05 135.751 269.545 136.256C269.04 136.762 268.354 137.046 267.639 137.046H253.834C253.64 137.046 253.09 137.558 253.09 138.539V146.145C253.09 147.126 253.629 147.638 253.834 147.638H267.639C268.354 147.638 269.04 147.922 269.545 148.428C270.05 148.933 270.334 149.619 270.334 150.334C270.334 151.049 270.05 151.734 269.545 152.24C269.04 152.745 268.354 153.029 267.639 153.029V153.051Z" fill="#3F456B"/>
<path d="M17.25 155.094H8.88373C8.16889 155.094 7.48332 154.81 6.97785 154.304C6.47239 153.799 6.18842 153.113 6.18842 152.398C6.18842 151.684 6.47239 150.998 6.97785 150.493C7.48332 149.987 8.16889 149.703 8.88373 149.703H17.25C17.9939 149.703 18.8672 148.523 18.8672 147.008V137.844C18.8672 136.324 18.0047 135.148 17.25 135.148H9.42279C8.70795 135.148 8.02239 134.864 7.51692 134.359C7.01145 133.853 6.72748 133.168 6.72748 132.453C6.72748 131.738 7.01145 131.053 7.51692 130.547C8.02239 130.042 8.70795 129.758 9.42279 129.758H17.25C21.1097 129.758 24.2578 133.38 24.2578 137.844V147.008C24.2578 151.477 21.1151 155.094 17.25 155.094Z" fill="#3F456B"/>
<path d="M60.1486 200.068C55.3383 200.069 50.6357 198.643 46.6354 195.972C42.6351 193.3 39.5168 189.503 37.6747 185.059C35.8327 180.616 35.3496 175.726 36.2866 171.007C37.2236 166.289 39.5386 161.955 42.9389 158.552C46.3391 155.15 50.672 152.832 55.3895 151.892C60.1071 150.952 64.9974 151.431 69.4423 153.27C73.8871 155.11 77.6869 158.225 80.361 162.224C83.0351 166.222 84.4636 170.924 84.4657 175.734C84.4628 182.184 81.9005 188.369 77.3412 192.932C72.7819 197.494 66.5985 200.061 60.1486 200.068ZM60.1486 156.819C56.4033 156.818 52.7418 157.927 49.6274 160.008C46.5131 162.088 44.0857 165.045 42.6524 168.506C41.2192 171.966 40.8444 175.773 41.5756 179.447C42.3068 183.12 44.1111 186.494 46.7602 189.141C49.4092 191.789 52.7841 193.591 56.4577 194.32C60.1313 195.049 63.9387 194.672 67.3981 193.237C70.8574 191.802 73.8134 189.373 75.892 186.257C77.9705 183.142 79.0783 179.48 79.0751 175.734C79.0665 170.718 77.0694 165.91 73.5215 162.365C69.9737 158.819 65.1646 156.824 60.1486 156.819Z" fill="#3F456B"/>
<path d="M60.1485 185.233C58.2739 185.233 56.4412 184.677 54.8823 183.636C53.3233 182.595 52.1079 181.115 51.3898 179.383C50.6716 177.651 50.4829 175.746 50.8475 173.907C51.212 172.068 52.1135 170.378 53.438 169.051C54.7625 167.725 56.4505 166.82 58.2888 166.453C60.1271 166.085 62.0331 166.27 63.766 166.986C65.4989 167.701 66.9809 168.914 68.0248 170.471C69.0686 172.028 69.6275 173.86 69.6307 175.734C69.6307 178.251 68.6322 180.664 66.8544 182.445C65.0766 184.226 62.6648 185.228 60.1485 185.233ZM60.1485 171.659C59.3391 171.659 58.5478 171.899 57.8749 172.349C57.2019 172.799 56.6775 173.438 56.368 174.186C56.0585 174.934 55.9778 175.757 56.1361 176.551C56.2944 177.345 56.6846 178.074 57.2573 178.646C57.8301 179.218 58.5596 179.607 59.3536 179.764C60.1477 179.921 60.9705 179.84 61.718 179.529C62.4656 179.219 63.1042 178.693 63.5531 178.02C64.002 177.346 64.2411 176.555 64.24 175.745C64.2386 174.661 63.8069 173.622 63.0398 172.856C62.2726 172.089 61.2327 171.659 60.1485 171.659Z" fill="#3F456B"/>
<path d="M213.916 200.068C209.106 200.069 204.403 198.643 200.403 195.972C196.403 193.3 193.284 189.503 191.442 185.059C189.6 180.616 189.117 175.726 190.054 171.007C190.991 166.289 193.306 161.955 196.706 158.552C200.107 155.15 204.44 152.832 209.157 151.892C213.875 150.952 218.765 151.431 223.21 153.27C227.655 155.11 231.454 158.225 234.129 162.224C236.803 166.222 238.231 170.924 238.233 175.734C238.23 182.184 235.668 188.369 231.109 192.932C226.55 197.494 220.366 200.061 213.916 200.068ZM213.916 156.819C210.171 156.818 206.509 157.927 203.395 160.008C200.281 162.088 197.853 165.045 196.42 168.506C194.987 171.966 194.612 175.773 195.343 179.447C196.074 183.12 197.879 186.494 200.528 189.141C203.177 191.789 206.552 193.591 210.225 194.32C213.899 195.049 217.706 194.672 221.166 193.237C224.625 191.802 227.581 189.373 229.66 186.257C231.738 183.142 232.846 179.48 232.843 175.734C232.834 170.718 230.837 165.91 227.289 162.365C223.741 158.819 218.932 156.824 213.916 156.819Z" fill="#3F456B"/>
<path d="M213.916 185.233C212.041 185.233 210.209 184.677 208.65 183.636C207.091 182.595 205.876 181.115 205.157 179.383C204.439 177.651 204.251 175.746 204.615 173.907C204.98 172.068 205.881 170.378 207.206 169.051C208.53 167.725 210.218 166.82 212.056 166.453C213.895 166.085 215.801 166.27 217.534 166.986C219.267 167.701 220.749 168.914 221.792 170.471C222.836 172.028 223.395 173.86 223.398 175.734C223.398 178.251 222.4 180.664 220.622 182.445C218.844 184.226 216.432 185.228 213.916 185.233ZM213.916 171.659C213.107 171.659 212.315 171.899 211.642 172.349C210.97 172.799 210.445 173.438 210.136 174.186C209.826 174.934 209.745 175.757 209.904 176.551C210.062 177.345 210.452 178.074 211.025 178.646C211.598 179.218 212.327 179.607 213.121 179.764C213.915 179.921 214.738 179.84 215.486 179.529C216.233 179.219 216.872 178.693 217.321 178.02C217.77 177.346 218.009 176.555 218.008 175.745C218.006 174.661 217.575 173.622 216.807 172.856C216.04 172.089 215 171.659 213.916 171.659Z" fill="#3F456B"/>
<path d="M192.294 178.43H81.7866C81.0717 178.43 80.3862 178.146 79.8807 177.64C79.3752 177.135 79.0912 176.449 79.0912 175.734C79.0912 175.02 79.3752 174.334 79.8807 173.829C80.3862 173.323 81.0717 173.039 81.7866 173.039H192.294C193.009 173.039 193.695 173.323 194.2 173.829C194.706 174.334 194.99 175.02 194.99 175.734C194.99 176.449 194.706 177.135 194.2 177.64C193.695 178.146 193.009 178.43 192.294 178.43Z" fill="#3F456B"/>
<path d="M21.1476 178.43C20.4684 178.43 14.3932 178.3 10.1669 174.117C7.54706 171.562 6.1994 168.047 6.1994 163.713V134.69C6.1994 126.2 12.3771 117.074 12.9754 116.216L28.5166 91.8562C29.1796 90.7781 38.9367 75.3933 60.6447 75.3933H155.52C179.422 75.3933 189.842 92.5462 190.273 93.274L203.561 115.122C210.811 115.661 243.452 118.082 255.564 119.618C263.65 120.648 267.267 124.712 268.858 127.936C269.907 130.055 270.409 132.403 270.318 134.766V163.713C270.318 168.026 268.987 171.562 266.351 174.155C261.952 178.494 255.57 178.467 255.273 178.44H237.996C237.281 178.44 236.596 178.157 236.09 177.651C235.585 177.146 235.301 176.46 235.301 175.745C235.301 175.03 235.585 174.345 236.09 173.839C236.596 173.334 237.281 173.05 237.996 173.05H255.316C255.359 173.05 259.823 173.05 262.594 170.29C264.141 168.748 264.928 166.516 264.928 163.713V134.69C264.928 134.609 264.928 134.528 264.928 134.448C264.987 133.634 265.23 126.281 254.874 124.965C241.646 123.289 202.17 120.427 201.771 120.4C201.343 120.368 200.928 120.235 200.561 120.011C200.194 119.787 199.887 119.478 199.664 119.111L185.648 96.0502C185.26 95.4033 176.252 80.7839 155.514 80.7839H60.6393C41.632 80.7839 33.1957 94.5192 33.1148 94.6594L33.0717 94.7241L17.4874 119.16L17.4227 119.262C17.3634 119.343 11.59 127.677 11.59 134.69V163.713C11.59 166.538 12.3771 168.748 13.9242 170.29C16.7111 173.039 21.1584 173.039 21.1746 173.039H38.527C39.2418 173.039 39.9274 173.323 40.4329 173.829C40.9383 174.334 41.2223 175.02 41.2223 175.734C41.2223 176.449 40.9383 177.135 40.4329 177.64C39.9274 178.146 39.2418 178.43 38.527 178.43H21.1476Z" fill="#3F456B"/>
<path d="M175.066 120.405H48.6396C44.3271 120.405 42.1709 118.648 41.0927 117.171C38.5969 113.699 40.0146 109.085 40.1979 108.6V108.519C40.1979 108.465 42.2733 102.907 44.8284 96.8534C45.6976 94.6924 47.1047 92.7894 48.9161 91.3251C50.7276 89.8609 52.8832 88.8839 55.1784 88.4871C55.2862 88.4871 55.3941 88.4871 55.4965 88.4871H168.107C168.214 88.4871 168.322 88.4871 168.43 88.4871C170.725 88.8839 172.881 89.8609 174.692 91.3251C176.504 92.7894 177.911 94.6924 178.78 96.8534C181.335 102.907 183.389 108.465 183.411 108.519C183.417 108.546 183.426 108.573 183.438 108.6C183.61 109.112 185.055 113.699 182.543 117.171C181.524 118.648 179.357 120.405 175.066 120.405ZM45.3244 110.335C45.0764 111.133 44.7853 113.063 45.4969 114.028C46.0898 114.847 47.5345 115.014 48.6396 115.014H175.066C176.176 115.014 177.621 114.842 178.214 114.017C178.985 112.939 178.548 110.869 178.381 110.341C178.214 109.812 176.225 104.594 173.864 98.9503C173.361 97.6853 172.558 96.5611 171.526 95.6739C170.493 94.7867 169.261 94.163 167.934 93.8562H55.7606C54.432 94.1579 53.1972 94.7797 52.1637 95.6675C51.1303 96.5554 50.3294 97.6823 49.8309 98.9503C47.4645 104.578 45.5346 109.769 45.3244 110.335Z" fill="#3F456B"/>
<path d="M132.609 120.405C131.895 120.405 131.209 120.121 130.703 119.616C130.198 119.11 129.914 118.425 129.914 117.71V91.1609C129.914 90.446 130.198 89.7605 130.703 89.255C131.209 88.7495 131.895 88.4655 132.609 88.4655C133.324 88.4655 134.01 88.7495 134.515 89.255C135.021 89.7605 135.305 90.446 135.305 91.1609V117.71C135.305 118.425 135.021 119.11 134.515 119.616C134.01 120.121 133.324 120.405 132.609 120.405Z" fill="#3F456B"/>
<path d="M87.0586 120.405C86.3437 120.405 85.6582 120.121 85.1527 119.616C84.6472 119.11 84.3633 118.425 84.3633 117.71V91.1609C84.3633 90.446 84.6472 89.7605 85.1527 89.255C85.6582 88.7495 86.3437 88.4655 87.0586 88.4655C87.7734 88.4655 88.459 88.7495 88.9644 89.255C89.4699 89.7605 89.7539 90.446 89.7539 91.1609V117.71C89.7539 118.425 89.4699 119.11 88.9644 119.616C88.459 120.121 87.7734 120.405 87.0586 120.405Z" fill="#3F456B"/>
<path d="M138.27 134.227H129.645C128.93 134.227 128.244 133.943 127.739 133.437C127.233 132.932 126.949 132.246 126.949 131.531C126.949 130.816 127.233 130.131 127.739 129.625C128.244 129.12 128.93 128.836 129.645 128.836H138.27C138.984 128.836 139.67 129.12 140.175 129.625C140.681 130.131 140.965 130.816 140.965 131.531C140.965 132.246 140.681 132.932 140.175 133.437C139.67 133.943 138.984 134.227 138.27 134.227Z" fill="#3F456B"/>
<path d="M85.2635 134.227H76.6385C75.9236 134.227 75.2381 133.943 74.7326 133.437C74.2271 132.932 73.9432 132.246 73.9432 131.531C73.9432 130.816 74.2271 130.131 74.7326 129.625C75.2381 129.12 75.9236 128.836 76.6385 128.836H85.2635C85.9783 128.836 86.6639 129.12 87.1694 129.625C87.6748 130.131 87.9588 130.816 87.9588 131.531C87.9588 132.246 87.6748 132.932 87.1694 133.437C86.6639 133.943 85.9783 134.227 85.2635 134.227Z" fill="#3F456B"/>
<path d="M43.3945 164.608H8.89453C8.17969 164.608 7.49413 164.324 6.98866 163.819C6.48319 163.313 6.19922 162.628 6.19922 161.913C6.19922 161.198 6.48319 160.512 6.98866 160.007C7.49413 159.501 8.17969 159.217 8.89453 159.217H43.3945C44.1094 159.217 44.7949 159.501 45.3004 160.007C45.8059 160.512 46.0898 161.198 46.0898 161.913C46.0898 162.628 45.8059 163.313 45.3004 163.819C44.7949 164.324 44.1094 164.608 43.3945 164.608Z" fill="#3F456B"/>
<path d="M267.623 164.608H230.853C230.139 164.608 229.453 164.324 228.948 163.819C228.442 163.313 228.158 162.628 228.158 161.913C228.158 161.198 228.442 160.512 228.948 160.007C229.453 159.501 230.139 159.217 230.853 159.217H267.623C268.338 159.217 269.023 159.501 269.529 160.007C270.034 160.512 270.318 161.198 270.318 161.913C270.318 162.628 270.034 163.313 269.529 163.819C269.023 164.324 268.338 164.608 267.623 164.608Z" fill="#3F456B"/>
<path d="M196.623 164.608H76.6385C75.9236 164.608 75.2381 164.324 74.7326 163.819C74.2271 163.313 73.9432 162.628 73.9432 161.913C73.9432 161.198 74.2271 160.512 74.7326 160.007C75.2381 159.501 75.9236 159.217 76.6385 159.217H196.623C197.338 159.217 198.023 159.501 198.529 160.007C199.034 160.512 199.318 161.198 199.318 161.913C199.318 162.628 199.034 163.313 198.529 163.819C198.023 164.324 197.338 164.608 196.623 164.608Z" fill="#3F456B"/>
</g>
<defs>
<clipPath id="clip0_9_889">
<rect width="276" height="276" fill="white"/>
</clipPath>
</defs>
</svg>
