<svg width="276" height="276" viewBox="0 0 276 276" fill="none" xmlns="http://www.w3.org/2000/svg">
<g clip-path="url(#clip0_9_969)">
<path d="M189.75 85.8101H86.25V94.4351H189.75V85.8101Z" fill="#EEEEEE"/>
<path d="M264.123 206.862L250.806 120.31H245.813C245.813 105.268 237.239 92.253 224.729 85.8101H229.244L226.626 72.7044C225.69 68.034 221.072 64.2476 216.306 64.2476H199.056C194.295 64.2476 189.672 68.034 188.737 72.7044L186.119 85.8101H189.271C185.041 87.9879 181.276 90.9247 178.128 94.4351H97.8679C94.7241 90.9247 90.9549 87.9879 86.7287 85.8101H91.2439L88.6262 72.7044C87.6904 68.034 83.0717 64.2476 78.3064 64.2476H61.0564C56.2954 64.2476 51.6724 68.034 50.7366 72.7044L48.1189 85.8101H51.2713C38.7608 92.253 30.1875 105.268 30.1875 120.31H26.5564L13.2394 206.862C11.0745 220.929 20.7906 234.35 34.8278 236.692L35.535 236.808C49.5722 239.145 65.9597 230.503 71.9498 217.592L93.0896 172.06H184.269L205.409 217.592C211.403 230.499 227.786 239.145 241.823 236.808L242.531 236.692C256.572 234.35 266.288 220.925 264.123 206.862Z" fill="#EFE8FA"/>
<path d="M69 159.123C90.4356 159.123 107.812 141.746 107.812 120.31C107.812 98.8746 90.4356 81.4976 69 81.4976C47.5644 81.4976 30.1875 98.8746 30.1875 120.31C30.1875 141.746 47.5644 159.123 69 159.123Z" fill="white"/>
<path d="M207 159.123C228.436 159.123 245.812 141.746 245.812 120.31C245.812 98.8746 228.436 81.4976 207 81.4976C185.564 81.4976 168.188 98.8746 168.188 120.31C168.188 141.746 185.564 159.123 207 159.123Z" fill="white"/>
<path d="M69.5 79C47.3004 79 29.2069 97.3772 28 120.5C29.2069 143.623 47.3004 162 69.5 162C91.7042 162 109.793 143.623 111 120.5C109.793 97.3772 91.7042 79 69.5 79Z" fill="#EEEEEE"/>
<path d="M207.295 79.8101C185.898 79.8101 168.459 97.5231 167.295 119.81C168.459 142.097 185.898 159.81 207.295 159.81C228.697 159.81 246.132 142.097 247.295 119.81C246.132 97.5231 228.697 79.8101 207.295 79.8101Z" fill="#EEEEEE"/>
<path d="M185.438 128.935C190.201 128.935 194.063 125.074 194.063 120.31C194.063 115.547 190.201 111.685 185.438 111.685C180.674 111.685 176.813 115.547 176.813 120.31C176.813 125.074 180.674 128.935 185.438 128.935Z" fill="#FFEB3B"/>
<path d="M207 107.373C211.763 107.373 215.625 103.511 215.625 98.7476C215.625 93.9842 211.763 90.1226 207 90.1226C202.237 90.1226 198.375 93.9842 198.375 98.7476C198.375 103.511 202.237 107.373 207 107.373Z" fill="#1DE9B6"/>
<path d="M207 150.498C211.763 150.498 215.625 146.636 215.625 141.873C215.625 137.109 211.763 133.248 207 133.248C202.237 133.248 198.375 137.109 198.375 141.873C198.375 146.636 202.237 150.498 207 150.498Z" fill="#80DEEA"/>
<path d="M228.563 128.935C233.326 128.935 237.188 125.074 237.188 120.31C237.188 115.547 233.326 111.685 228.563 111.685C223.799 111.685 219.938 115.547 219.938 120.31C219.938 125.074 223.799 128.935 228.563 128.935Z" fill="#FF8A80"/>
<path d="M69 152.654C63.0531 152.654 58.2188 147.815 58.2188 141.873V131.091H47.4375C41.4906 131.091 36.6562 126.253 36.6562 120.31C36.6562 114.368 41.4906 109.529 47.4375 109.529H58.2188V98.7476C58.2188 92.805 63.0531 87.9664 69 87.9664C74.9469 87.9664 79.7812 92.805 79.7812 98.7476V109.529H90.5625C96.5094 109.529 101.344 114.368 101.344 120.31C101.344 126.253 96.5094 131.091 90.5625 131.091H79.7812V141.873C79.7812 147.815 74.9469 152.654 69 152.654Z" fill="#EFE8FA"/>
<path d="M129.375 159.123C129.375 171.038 119.693 180.685 107.812 180.685C95.9316 180.685 86.25 171.038 86.25 159.123C86.25 147.207 95.9316 137.56 107.812 137.56C119.693 137.56 129.375 147.207 129.375 159.123Z" fill="#EEEEEE"/>
<path d="M189.75 159.123C189.75 171.038 180.068 180.685 168.188 180.685C156.307 180.685 146.625 171.038 146.625 159.123C146.625 147.207 156.307 137.56 168.188 137.56C180.068 137.56 189.75 147.207 189.75 159.123Z" fill="#EEEEEE"/>
<path d="M107.812 172.06C114.958 172.06 120.75 166.268 120.75 159.123C120.75 151.977 114.958 146.185 107.812 146.185C100.667 146.185 94.875 151.977 94.875 159.123C94.875 166.268 100.667 172.06 107.812 172.06Z" fill="#FBC02D"/>
<path d="M168.188 172.06C175.333 172.06 181.125 166.268 181.125 159.123C181.125 151.977 175.333 146.185 168.188 146.185C161.042 146.185 155.25 151.977 155.25 159.123C155.25 166.268 161.042 172.06 168.188 172.06Z" fill="#FBC02D"/>
<path d="M107.812 148.341C113.759 148.341 118.594 153.167 118.594 159.123C118.594 165.078 113.759 169.904 107.812 169.904C101.866 169.904 97.0312 165.078 97.0312 159.123C97.0312 153.167 101.866 148.341 107.812 148.341ZM107.812 144.029C99.4894 144.029 92.7188 150.799 92.7188 159.123C92.7188 167.446 99.4894 174.216 107.812 174.216C116.136 174.216 122.906 167.446 122.906 159.123C122.906 150.799 116.136 144.029 107.812 144.029Z" fill="#37474F"/>
<path d="M168.188 148.341C174.134 148.341 178.969 153.167 178.969 159.123C178.969 165.078 174.134 169.904 168.188 169.904C162.241 169.904 157.406 165.078 157.406 159.123C157.406 153.167 162.241 148.341 168.188 148.341ZM168.188 144.029C159.864 144.029 153.094 150.799 153.094 159.123C153.094 167.446 159.864 174.216 168.188 174.216C176.511 174.216 183.281 167.446 183.281 159.123C183.281 150.799 176.511 144.029 168.188 144.029Z" fill="#37474F"/>
<path d="M268.384 206.207L255.119 119.974C255.002 103.582 246.39 88.4192 232.452 79.8675L230.852 71.8592C229.511 65.1748 223.124 59.9351 216.306 59.9351H199.056C192.238 59.9351 185.847 65.1705 184.51 71.8592L182.91 79.8761C182.108 80.3721 181.302 80.9111 180.482 81.4933H96.8889C96.0696 80.9111 95.2588 80.3721 94.461 79.8761L92.8567 71.8549C91.5156 65.1705 85.1288 59.9308 78.3107 59.9308H61.0607C54.2426 59.9308 47.8515 65.1662 46.5146 71.8549L44.9147 79.8632C30.981 88.4106 22.3646 103.573 22.2482 119.965L8.97863 206.202C6.4515 222.629 17.7287 238.21 34.1205 240.939L34.8278 241.056C36.5786 241.353 38.4028 241.5 40.2442 241.5C54.9412 241.5 69.9186 232.211 75.8655 219.407L91.9468 184.773C96.6949 187.727 102.163 189.31 107.817 189.31C117.675 189.31 126.938 184.411 132.553 176.373H143.451C149.07 184.411 158.329 189.31 168.188 189.31C174.316 189.31 180.15 187.495 185.114 184.109L201.502 219.407C207.444 232.211 222.422 241.5 237.119 241.5C238.96 241.5 240.784 241.353 242.535 241.06L243.242 240.944C259.634 238.21 270.911 222.629 268.384 206.207ZM192.967 73.5497C193.498 70.8889 196.344 68.5601 199.056 68.5601H216.306C219.019 68.5601 221.865 70.8932 222.396 73.5497L223.806 80.5963C218.639 78.4012 212.956 77.1851 207 77.1851C201.596 77.1851 196.439 78.2288 191.665 80.0529L192.967 73.5497ZM207 81.4976C228.437 81.4976 245.813 98.877 245.813 120.31C245.813 141.743 228.437 159.123 207 159.123C202.399 159.123 198.026 158.226 193.942 156.734C192.803 144.344 182.932 134.503 170.577 133.368C169.085 129.28 168.188 124.912 168.188 120.31C168.188 98.877 185.567 81.4976 207 81.4976ZM168.188 137.56C180.068 137.56 189.75 147.207 189.75 159.123C189.75 171.038 180.068 180.685 168.188 180.685C156.307 180.685 146.625 171.038 146.625 159.123C146.625 147.207 156.307 137.56 168.188 137.56ZM54.9671 73.5497C55.4976 70.8889 58.3438 68.5601 61.0564 68.5601H78.3064C81.0189 68.5601 83.8652 70.8932 84.3956 73.5497L85.8058 80.5963C80.6394 78.4012 74.9556 77.1851 69 77.1851C63.5921 77.1851 58.4387 78.2288 53.6648 80.0529L54.9671 73.5497ZM69 81.4976C90.4374 81.4976 107.813 98.877 107.813 120.31C107.813 124.899 106.976 129.284 105.505 133.364C106.269 133.295 107.032 133.248 107.813 133.248C94.323 133.248 83.2269 143.624 82.0539 156.815C77.9743 158.286 73.5885 159.123 69 159.123C47.5669 159.123 30.1875 141.743 30.1875 120.31C30.1875 98.877 47.5669 81.4976 69 81.4976ZM68.0383 215.776C63.5145 225.522 51.5646 232.875 40.2442 232.875C38.8815 232.875 37.5317 232.767 36.2423 232.552L35.535 232.435C23.7791 230.473 15.6889 219.299 17.5001 207.518L28.6134 135.296C34.7199 151.701 50.4907 163.435 68.9957 163.435C73.4419 163.435 77.7199 162.762 81.8944 161.434C81.9332 161.451 81.9375 161.486 81.9375 161.503C81.9375 161.52 82.0712 161.538 82.1143 161.555C82.5714 166.428 84.3396 170.93 87.1384 174.643L68.0383 215.776ZM107.813 180.685C95.9316 180.685 86.25 171.038 86.25 159.123C86.25 147.207 95.9316 137.56 107.813 137.56C119.693 137.56 129.375 147.207 129.375 159.123C129.375 171.038 119.693 180.685 107.813 180.685ZM132.178 167.748C132.174 167.756 132.17 167.761 132.17 167.769C133.136 165.061 133.688 162.159 133.688 159.123C133.688 145.659 123.355 134.58 110.206 133.368C110.167 133.364 110.137 133.351 110.102 133.347C111.452 129.146 112.129 124.782 112.129 120.31C112.129 108.563 107.394 97.9067 99.7481 90.1226H176.261C168.614 97.9067 163.879 108.563 163.879 120.31C163.879 124.787 164.556 129.146 165.906 133.347V133.36C152.71 134.524 142.313 145.599 142.313 159.123C142.313 162.154 142.86 165.048 143.822 167.748H132.178ZM241.828 232.435L241.121 232.552C239.831 232.767 238.486 232.875 237.119 232.875C225.798 232.875 213.848 225.522 209.324 215.776L189.69 173.496C191.449 170.87 192.73 167.903 193.437 164.72C193.442 164.69 193.45 164.664 193.459 164.634C193.679 163.629 193.843 162.599 193.937 161.551C193.942 161.503 193.955 161.46 193.959 161.408C198.159 162.754 202.519 163.431 206.996 163.431C226.553 163.431 243.087 150.329 248.353 132.45L259.858 207.513C261.674 219.299 253.584 230.473 241.828 232.435Z" fill="#37474F"/>
<path d="M228.563 107.373C221.417 107.373 215.625 113.16 215.625 120.31C215.625 127.46 221.417 133.248 228.563 133.248C235.708 133.248 241.5 127.46 241.5 120.31C241.5 113.16 235.708 107.373 228.563 107.373ZM228.563 128.935C223.802 128.935 219.938 125.071 219.938 120.31C219.938 115.549 223.802 111.685 228.563 111.685C233.324 111.685 237.188 115.549 237.188 120.31C237.188 125.071 233.324 128.935 228.563 128.935Z" fill="#37474F"/>
<path d="M185.438 107.373C178.292 107.373 172.5 113.16 172.5 120.31C172.5 127.46 178.292 133.248 185.438 133.248C192.583 133.248 198.375 127.46 198.375 120.31C198.375 113.16 192.583 107.373 185.438 107.373ZM185.438 128.935C180.677 128.935 176.813 125.071 176.813 120.31C176.813 115.549 180.677 111.685 185.438 111.685C190.199 111.685 194.063 115.549 194.063 120.31C194.063 125.071 190.199 128.935 185.438 128.935Z" fill="#37474F"/>
<path d="M207 85.8101C199.854 85.8101 194.063 91.5975 194.063 98.7476C194.063 105.898 199.854 111.685 207 111.685C214.146 111.685 219.938 105.898 219.938 98.7476C219.938 91.5975 214.146 85.8101 207 85.8101ZM207 107.373C202.239 107.373 198.375 103.509 198.375 98.7476C198.375 93.9866 202.239 90.1226 207 90.1226C211.761 90.1226 215.625 93.9866 215.625 98.7476C215.625 103.509 211.761 107.373 207 107.373Z" fill="#37474F"/>
<path d="M207 128.935C199.854 128.935 194.063 134.722 194.063 141.873C194.063 149.023 199.854 154.81 207 154.81C214.146 154.81 219.938 149.023 219.938 141.873C219.938 134.722 214.146 128.935 207 128.935ZM207 150.498C202.239 150.498 198.375 146.634 198.375 141.873C198.375 137.112 202.239 133.248 207 133.248C211.761 133.248 215.625 137.112 215.625 141.873C215.625 146.634 211.761 150.498 207 150.498Z" fill="#37474F"/>
<path d="M69 90.1226C73.7438 90.1226 77.625 94.0039 77.625 98.7476V111.685H90.5625C95.3063 111.685 99.1875 115.566 99.1875 120.31C99.1875 125.054 95.3063 128.935 90.5625 128.935H77.625V141.873C77.625 146.616 73.7438 150.498 69 150.498C64.2562 150.498 60.375 146.616 60.375 141.873V128.935H47.4375C42.6937 128.935 38.8125 125.054 38.8125 120.31C38.8125 115.566 42.6937 111.685 47.4375 111.685H60.375V98.7476C60.375 94.0039 64.2562 90.1226 69 90.1226ZM69 85.8101C61.8671 85.8101 56.0625 91.6148 56.0625 98.7476V107.373H47.4375C40.3046 107.373 34.5 113.177 34.5 120.31C34.5 127.443 40.3046 133.248 47.4375 133.248H56.0625V141.873C56.0625 149.006 61.8671 154.81 69 154.81C76.1329 154.81 81.9375 149.006 81.9375 141.873V133.248H90.5625C97.6954 133.248 103.5 127.443 103.5 120.31C103.5 113.177 97.6954 107.373 90.5625 107.373H81.9375V98.7476C81.9375 91.6148 76.1329 85.8101 69 85.8101Z" fill="#37474F"/>
</g>
<defs>
<clipPath id="clip0_9_969">
<rect width="276" height="276" fill="white"/>
</clipPath>
</defs>
</svg>
