<svg width="276" height="276" viewBox="0 0 276 276" fill="none" xmlns="http://www.w3.org/2000/svg">
<g clip-path="url(#clip0_1_20)">
<path d="M254.438 245.812H21.5625C16.8015 245.812 12.9375 241.948 12.9375 237.188V228.562H263.062V237.188C263.062 241.948 259.198 245.812 254.438 245.812Z" fill="#E0E0E0"/>
<path d="M112.125 235.031L110.598 234.402L106.92 230.719H12.9375L11.2125 227.269L37.0875 192.769L38.8125 191.906H237.188L238.913 192.769L264.788 227.269L263.063 230.719H169.08L165.402 234.402L163.875 235.031H112.125Z" fill="#EEEEEE"/>
<path d="M38.8125 194.062V56.0625C38.8125 51.3015 42.6765 47.4375 47.4375 47.4375H228.562C233.323 47.4375 237.188 51.3015 237.188 56.0625V194.062H38.8125Z" fill="#E0E0E0"/>
<path d="M226.406 58.2188H49.5938V178.969H226.406V58.2188Z" fill="#EFE8FA"/>
<path d="M228.562 181.125H47.4375V185.438H228.562V181.125Z" fill="white"/>
<path d="M93.7969 194.062L168.188 51.75H43.125V194.062H93.7969Z" fill="url(#paint0_linear_1_20)"/>
<path d="M43.125 217.781L52.8281 204.844H223.172L232.875 217.781H43.125Z" fill="#9E9E9E"/>
<path d="M224.25 60.375V176.812H51.75V60.375H224.25ZM228.562 56.0625H47.4375V181.125H228.562V56.0625Z" fill="#37474F"/>
<path d="M241.5 192.626V56.0625C241.5 48.9296 235.695 43.125 228.562 43.125H47.4375C40.3046 43.125 34.5 48.9296 34.5 56.0625V192.626L8.625 227.126V237.188C8.625 244.32 14.4296 250.125 21.5625 250.125H254.438C261.57 250.125 267.375 244.32 267.375 237.188V227.126L241.5 192.626ZM47.4375 51.75H228.562C230.943 51.75 232.875 53.6863 232.875 56.0625V194.062H43.125V56.0625C43.125 53.6863 45.057 51.75 47.4375 51.75ZM40.9688 198.375H235.031L257.672 228.562H168.188L163.875 232.875H112.125L107.812 228.562H18.3281L40.9688 198.375ZM254.438 241.5H21.5625C19.182 241.5 17.25 239.564 17.25 237.188V232.875H106.027L109.076 235.924L112.125 237.188H163.875L166.924 235.924L169.973 232.875H258.75V237.188C258.75 239.564 256.818 241.5 254.438 241.5Z" fill="#37474F"/>
<path d="M222.094 207L228.563 215.625H47.4375L53.9063 207H222.094ZM224.25 202.688H51.75L41.4 216.488C39.9726 218.394 40.7402 219.938 43.125 219.938H232.875C235.26 219.938 236.027 218.394 234.6 216.488L224.25 202.688Z" fill="#37474F"/>
</g>
<defs>
<linearGradient id="paint0_linear_1_20" x1="59.2128" y1="42.4639" x2="133.502" y2="171.137" gradientUnits="userSpaceOnUse">
<stop stop-color="white" stop-opacity="0.5"/>
<stop offset="1" stop-color="white" stop-opacity="0"/>
</linearGradient>
<clipPath id="clip0_1_20">
<rect width="276" height="276" fill="white"/>
</clipPath>
</defs>
</svg>
