<svg width="276" height="276" viewBox="0 0 276 276" fill="none" xmlns="http://www.w3.org/2000/svg">
<g clip-path="url(#clip0_9_744)">
<path d="M202.688 245.812C202.688 257.672 192.984 267.375 181.125 267.375H94.875C83.0156 267.375 73.3125 257.672 73.3125 245.812V38.8125C73.3125 26.9531 83.0156 17.25 94.875 17.25H181.125C192.984 17.25 202.688 26.9531 202.688 38.8125V245.812Z" fill="#EEEEEE"/>
<path d="M191.906 45.2812H84.0938V235.031H191.906V45.2812Z" fill="#EFE8FA"/>
<path d="M138 256.594C141.573 256.594 144.469 253.698 144.469 250.125C144.469 246.552 141.573 243.656 138 243.656C134.427 243.656 131.531 246.552 131.531 250.125C131.531 253.698 134.427 256.594 138 256.594Z" fill="white"/>
<path d="M194.062 17.25H86.25C79.7079 17.25 73.3125 23.6454 73.3125 30.1875V254.438L194.062 17.25Z" fill="url(#paint0_linear_9_744)"/>
<path d="M125.062 30.1875H120.75V34.5H125.062V30.1875Z" fill="#37474F"/>
<path d="M138 245.812C140.376 245.812 142.312 247.749 142.312 250.125C142.312 252.501 140.376 254.438 138 254.438C135.624 254.438 133.688 252.501 133.688 250.125C133.688 247.749 135.624 245.812 138 245.812ZM138 241.5C133.239 241.5 129.375 245.364 129.375 250.125C129.375 254.886 133.239 258.75 138 258.75C142.761 258.75 146.625 254.886 146.625 250.125C146.625 245.364 142.761 241.5 138 241.5Z" fill="#37474F"/>
<path d="M189.75 47.4375V232.875H86.25V47.4375H189.75ZM194.062 43.125H81.9375V237.188H194.062V43.125Z" fill="#37474F"/>
<path d="M181.125 271.688H94.875C80.6049 271.688 69 260.083 69 245.812V38.8125C69 24.5424 80.6049 12.9375 94.875 12.9375H181.125C195.395 12.9375 207 24.5424 207 38.8125V245.812C207 260.083 195.395 271.688 181.125 271.688ZM94.875 21.5625C85.3659 21.5625 77.625 29.2991 77.625 38.8125V245.812C77.625 255.326 85.3659 263.062 94.875 263.062H181.125C190.634 263.062 198.375 255.326 198.375 245.812V38.8125C198.375 29.2991 190.634 21.5625 181.125 21.5625H94.875Z" fill="#37474F"/>
<path d="M146.625 30.1875H129.375V34.5H146.625V30.1875Z" fill="#37474F"/>
</g>
<defs>
<linearGradient id="paint0_linear_9_744" x1="194.062" y1="135.844" x2="73.3125" y2="135.844" gradientUnits="userSpaceOnUse">
<stop stop-color="white" stop-opacity="0.2"/>
<stop offset="1" stop-color="white" stop-opacity="0"/>
</linearGradient>
<clipPath id="clip0_9_744">
<rect width="276" height="276" fill="white"/>
</clipPath>
</defs>
</svg>
