<svg width="276" height="276" viewBox="0 0 276 276" fill="none" xmlns="http://www.w3.org/2000/svg">
<g clip-path="url(#clip0_9_793)">
<g clip-path="url(#clip1_9_793)">
<mask id="mask0_9_793" style="mask-type:luminance" maskUnits="userSpaceOnUse" x="0" y="0" width="276" height="276">
<path d="M0 0V276H276V0H0Z" fill="white"/>
</mask>
<g mask="url(#mask0_9_793)">
<path d="M250.125 51.75C257.241 51.75 263.062 57.5719 263.062 64.6875V211.312C263.062 218.428 257.241 224.25 250.125 224.25H25.875C18.7594 224.25 12.9375 218.428 12.9375 211.312V64.6875C12.9375 57.5719 18.7594 51.75 25.875 51.75H250.125Z" fill="#EEEEEE"/>
<path d="M40.9688 62.5312V213.469H232.875V62.5312H40.9688Z" fill="#EFE8FA"/>
<path d="M252.281 138C252.281 134.428 249.385 131.531 245.812 131.531C242.24 131.531 239.344 134.428 239.344 138C239.344 141.572 242.24 144.469 245.812 144.469C249.385 144.469 252.281 141.572 252.281 138Z" fill="white"/>
<path d="M12.9375 94.875V211.312C12.9375 217.855 19.3329 224.25 25.875 224.25H254.438L12.9375 94.875Z" fill="url(#paint0_linear_9_793)"/>
<path d="M43.125 64.6875H228.562V211.312H43.125V64.6875ZM38.8125 60.375V215.625H232.875V60.375H38.8125Z" fill="#37474F"/>
<path d="M250.125 51.75C257.241 51.75 263.062 57.5719 263.062 64.6875V211.312C263.062 218.428 257.241 224.25 250.125 224.25H25.875C18.7594 224.25 12.9375 218.428 12.9375 211.312V64.6875C12.9375 57.5719 18.7594 51.75 25.875 51.75H250.125Z" stroke="#37474F" stroke-width="9" stroke-miterlimit="10" stroke-linecap="round"/>
<path d="M254.438 138C254.438 142.761 250.569 146.625 245.812 146.625C241.056 146.625 237.188 142.761 237.188 138C237.188 133.239 241.056 129.375 245.812 129.375C250.569 129.375 254.438 133.239 254.438 138ZM241.5 138C241.5 140.376 243.436 142.312 245.812 142.312C248.189 142.312 250.125 140.376 250.125 138C250.125 135.624 248.189 133.688 245.812 133.688C243.436 133.688 241.5 135.624 241.5 138Z" fill="#37474F"/>
<path d="M25.875 133.688V142.312H30.1875V133.688H25.875Z" fill="#37474F"/>
</g>
</g>
</g>
<defs>
<linearGradient id="paint0_linear_9_793" x1="133.687" y1="94.875" x2="133.687" y2="224.25" gradientUnits="userSpaceOnUse">
<stop stop-color="white" stop-opacity="0.2"/>
<stop offset="1" stop-color="white" stop-opacity="0"/>
</linearGradient>
<clipPath id="clip0_9_793">
<rect width="276" height="276" fill="white"/>
</clipPath>
<clipPath id="clip1_9_793">
<rect width="276" height="276" fill="white"/>
</clipPath>
</defs>
</svg>
