<svg width="276" height="276" viewBox="0 0 276 276" fill="none" xmlns="http://www.w3.org/2000/svg">
<path d="M229.678 229.796H46.322C35.972 229.796 27.6 221.423 27.6 211.119V89.1735C27.6 78.8235 35.972 70.4515 46.322 70.4515H229.724C240.074 70.4515 248.446 78.8235 248.446 89.1735V211.119C248.4 221.423 240.028 229.796 229.678 229.796Z" fill="#EEEEEE"/>
<path d="M229.678 234.395H46.322C33.442 234.395 23 223.953 23 211.119V89.1735C23 76.3395 33.442 65.8515 46.322 65.8515H229.724C242.558 65.8515 253.046 76.2935 253.046 89.1735V211.119C253 223.953 242.558 234.395 229.678 234.395ZM46.322 75.0515C38.548 75.0515 32.2 81.3995 32.2 89.1735V211.119C32.2 218.893 38.548 225.241 46.322 225.241H229.724C237.498 225.241 243.846 218.893 243.846 211.119V89.1735C243.846 81.3995 237.498 75.0515 229.724 75.0515H46.322Z" fill="#37474F"/>
<path d="M205.893 209.109H68.1063C56.4203 209.109 47 201.783 47 192.799V107.42C47 98.3895 56.4799 91.1095 68.1063 91.1095H205.893C217.579 91.1095 227 98.4355 227 107.42V192.799C227.059 201.83 217.579 209.109 205.893 209.109Z" fill="#EFE8FA"/>
<path d="M206.062 213.109H68.9381C54.1044 213.109 42 203.726 42 192.226V106.993C42 95.493 54.1044 86.1095 68.9381 86.1095H206.062C220.895 86.1095 233 95.493 233 106.993V192.226C233.059 203.726 220.955 213.109 206.062 213.109ZM68.9381 95.3091C60.6312 95.3091 53.867 100.553 53.867 106.993V192.226C53.867 198.666 60.6312 203.91 68.9381 203.91H206.062C214.369 203.91 221.133 198.666 221.133 192.226V106.993C221.133 100.553 214.369 95.3091 206.062 95.3091H68.9381Z" fill="#37474F"/>
<path d="M138 75.0515C136.804 75.0515 135.654 74.5915 134.734 73.7175L109.848 48.8315C108.054 47.0375 108.054 44.1395 109.848 42.3455C111.642 40.5515 114.54 40.5515 116.334 42.3455L141.22 67.2315C143.014 69.0255 143.014 71.9235 141.22 73.7175C140.346 74.5915 139.196 75.0515 138 75.0515Z" fill="#37474F"/>
<path d="M138 75.0515C136.804 75.0515 135.654 74.5915 134.734 73.7175C132.94 71.9235 132.94 69.0255 134.734 67.2315L159.62 42.3455C161.414 40.5515 164.312 40.5515 166.106 42.3455C167.9 44.1395 167.9 47.0375 166.106 48.8315L141.22 73.7175C140.346 74.5915 139.196 75.0515 138 75.0515Z" fill="#37474F"/>
</svg>
