<svg width="276" height="276" viewBox="0 0 276 276" fill="none" xmlns="http://www.w3.org/2000/svg">
<g clip-path="url(#clip0_9_1024)">
<path d="M94.875 213.469C81.7995 213.469 71.1562 202.83 71.1562 189.75V86.25C71.1562 73.1702 81.7995 62.5312 94.875 62.5312H181.125C194.201 62.5312 204.844 73.1702 204.844 86.25V189.75C204.844 202.83 194.201 213.469 181.125 213.469H94.875Z" fill="#EFEFEF"/>
<path d="M88.4062 62.5312V61.1038C91.218 56.8689 95.2631 42.2582 100.43 17.6036C100.71 16.2624 102.146 15.0938 103.5 15.0938H172.5C173.854 15.0938 175.29 16.2624 175.571 17.5993C180.737 42.2582 184.782 56.8689 187.594 61.1038V62.5312H88.4062Z" fill="#EFEFEF"/>
<path d="M103.5 260.906C102.318 260.906 100.736 259.341 100.43 257.862C95.3753 233.759 91.4897 219.196 88.8763 214.564L88.4062 213.732V213.469H187.594V214.064L187.326 214.491C183.997 219.894 179.094 241.056 175.566 257.857C175.264 259.341 173.682 260.906 172.5 260.906H103.5Z" fill="#EFEFEF"/>
<path d="M94.875 204.844C86.5519 204.844 79.7812 198.073 79.7812 189.75V86.25C79.7812 77.9269 86.5519 71.1562 94.875 71.1562H181.125C189.448 71.1562 196.219 77.9269 196.219 86.25V189.75C196.219 198.073 189.448 204.844 181.125 204.844H94.875Z" fill="#F1EAFB"/>
<path d="M215.625 120.75C215.625 123.122 213.684 125.062 211.312 125.062C208.941 125.062 207 123.122 207 120.75V99.1875C207 96.8156 208.941 94.875 211.312 94.875C213.684 94.875 215.625 96.8156 215.625 99.1875V120.75Z" fill="#EFEFEF"/>
<path d="M176.812 30.1875H99.1875V34.5H176.812V30.1875Z" fill="#EFEFEF"/>
<path d="M176.812 17.25H99.1875V21.5625H176.812V17.25Z" fill="#EFEFEF"/>
<path d="M185.438 215.625H90.5625V224.25H185.438V215.625Z" fill="#EFEFEF"/>
<path d="M185.438 51.75H90.5625V60.375H185.438V51.75Z" fill="#EFEFEF"/>
<path d="M181.125 250.125H94.875V254.438H181.125V250.125Z" fill="#EFEFEF"/>
<path d="M181.125 237.188H94.875V241.5H181.125V237.188Z" fill="#EFEFEF"/>
<path d="M176.812 64.6875H86.25C76.7237 64.6875 69 72.4112 69 81.9375V194.062C69 203.589 77.8967 211.312 83.5547 211.312H89.4844L176.812 64.6875Z" fill="url(#paint0_linear_9_1024)"/>
<path d="M181.125 73.3125C188.258 73.3125 194.062 79.1171 194.062 86.25V189.75C194.062 196.883 188.258 202.688 181.125 202.688H94.875C87.7421 202.688 81.9375 196.883 81.9375 189.75V86.25C81.9375 79.1171 87.7421 73.3125 94.875 73.3125H181.125ZM181.125 69H94.875C85.3875 69 77.625 76.7625 77.625 86.25V189.75C77.625 199.238 85.3875 207 94.875 207H181.125C190.613 207 198.375 199.238 198.375 189.75V86.25C198.375 76.7625 190.613 69 181.125 69Z" fill="#37474F"/>
<path d="M211.312 86.25C211.312 74.1578 204.137 63.7646 193.838 58.9691C193.623 58.4042 193.338 57.8694 192.907 57.4425C191.272 55.2862 187.236 41.7234 181.901 16.284C180.996 11.9198 176.95 8.625 172.5 8.625H103.5C99.0495 8.625 95.0044 11.9197 94.0987 16.2754C88.7642 41.7234 84.7234 55.2863 83.2011 57.3261L81.3122 59.4219C71.4883 64.4029 64.6875 74.5028 64.6875 86.25V189.75C64.6875 202.222 72.3034 212.921 83.1148 217.514C83.697 218.333 86.7158 223.974 94.0944 259.181C94.9181 263.119 98.7433 267.375 103.5 267.375H172.5C177.257 267.375 181.082 263.119 181.901 259.186C189.478 223.051 192.583 218.182 192.799 217.868L193.377 217.229C203.908 212.511 211.312 202.019 211.312 189.75V133.688C218.445 133.688 224.25 127.883 224.25 120.75V99.1875C224.25 92.0546 218.445 86.25 211.312 86.25ZM178.124 38.8125H97.8765C98.5061 36.2336 99.1832 33.3529 99.8991 30.1875H176.101C176.817 33.3529 177.494 36.2336 178.124 38.8125ZM103.5 17.25H172.5C172.832 17.25 173.388 17.7071 173.462 18.0478C174.048 20.8423 174.604 23.4212 175.144 25.875H100.861C101.4 23.4169 101.96 20.838 102.547 18.0392C102.612 17.7071 103.168 17.25 103.5 17.25ZM96.7941 43.125H179.202C181.707 52.8454 183.471 57.7746 184.704 60.375H91.2913C92.5204 57.7746 94.2842 52.8454 96.7941 43.125ZM98.0361 237.188H177.981C177.339 239.84 176.666 242.751 175.98 245.812H100.028C99.3169 242.63 98.6571 239.762 98.0361 237.188ZM172.5 258.75L103.638 258.763C103.319 258.664 102.65 257.965 102.538 257.413C101.991 254.813 101.477 252.419 100.982 250.125H175.018C174.51 252.458 173.992 254.877 173.457 257.422C173.345 257.965 172.681 258.664 172.5 258.75ZM179.055 232.875H96.9881C94.4437 222.706 92.805 217.997 91.7959 215.625H184.351C182.863 219.045 181.086 224.867 179.055 232.875ZM202.688 189.75C202.688 201.64 193.015 211.312 181.125 211.312H94.875C82.9854 211.312 73.3125 201.64 73.3125 189.75V86.25C73.3125 74.3604 82.9854 64.6875 94.875 64.6875H181.125C193.015 64.6875 202.688 74.3604 202.688 86.25V189.75ZM215.625 120.75C215.625 123.122 213.684 125.062 211.312 125.062C208.941 125.062 207 123.122 207 120.75V99.1875C207 97.9886 207.5 96.9019 208.302 96.1213C208.307 96.1515 208.324 96.1774 208.333 96.2076C209.096 95.4054 210.127 94.875 211.312 94.875C213.684 94.875 215.625 96.8156 215.625 99.1875V120.75Z" fill="#37474F"/>
</g>
<defs>
<linearGradient id="paint0_linear_9_1024" x1="83.6306" y1="63.5274" x2="149.087" y2="176.9" gradientUnits="userSpaceOnUse">
<stop stop-color="white" stop-opacity="0.5"/>
<stop offset="1" stop-color="white" stop-opacity="0"/>
</linearGradient>
<clipPath id="clip0_9_1024">
<rect width="276" height="276" fill="white"/>
</clipPath>
</defs>
</svg>
