<svg width="244" height="110" viewBox="0 0 244 110" fill="none" xmlns="http://www.w3.org/2000/svg">
<path d="M155.792 95.2931C155.792 97.2066 155.757 100.159 155.803 101.955C155.833 103.109 156.214 103.523 157.449 103.491C160.43 103.414 163.43 103.547 166.378 102.977C167.767 102.708 168.855 103.463 168.741 104.72C168.679 105.418 168.776 106.094 168.781 106.781C168.788 107.679 168.622 107.889 167.675 107.845C164.012 107.673 160.339 107.646 156.674 107.776C155.286 107.825 150.569 108.999 150.784 106.892C150.858 106.171 150.77 105.433 150.718 104.705C150.141 96.6296 150.002 88.3454 150.036 80.2555C150.039 79.4509 150.456 79.0957 151.273 79.2745C154.229 79.9226 157.316 79.7583 160.322 79.5699C162.813 79.4137 166.108 79.7005 168.494 79.0055C169.252 78.7845 169.857 79.3422 169.558 80.0065C169.207 80.7867 169.292 81.5071 169.39 82.2972C169.557 83.6394 169.058 84.0122 167.575 83.9334C164.287 83.7589 160.998 83.6876 157.718 84.0254C157.215 84.0771 156.719 84.1774 156.22 84.2536C155.822 84.3144 155.504 84.4907 155.621 84.8925C156.161 86.7612 153.597 91.4963 157.266 91.0105C160.353 90.6018 163.442 91.0439 166.523 90.7969C168.037 90.6755 168.365 91.0764 168.217 92.5038C168.175 92.9164 168.122 93.3409 168.182 93.747C168.29 94.4867 167.976 94.8558 167.184 95.0096C166.631 95.1166 166.1 95.2172 165.534 95.1332C163.012 94.759 160.491 94.834 157.969 95.1423C157.335 95.2196 156.812 95.7394 155.792 95.2931Z" fill="#666666"/>
<path d="M93.6816 108.061C90.4397 108.221 86.9093 107.278 84.8115 105.509C83.9142 104.752 83.8146 104.455 84.5302 103.558C84.9473 103.034 85.087 102.446 85.3081 101.862C85.7034 100.817 86.1587 100.654 87.0095 101.37C88.6464 102.743 93.6461 102.791 95.1728 101.153C97.3575 98.8106 93.9705 95.9705 92.1874 94.481C89.7142 92.4148 86.7756 90.4052 86.2919 87.1475C85.9107 84.5792 87.414 81.9383 89.7592 80.47C92.1045 79.0017 95.1593 78.6385 97.9423 79.1814C100.452 79.6709 101.492 80.9097 103.159 82.4892C103.664 82.9676 103.358 83.6998 102.93 84.2152C102.698 84.4928 102.367 84.6813 102.126 84.9524C101.036 86.1802 100.422 86.3624 99.1621 85.3203C96.429 83.0592 89.299 84.0693 92.2612 88.328C93.9364 90.7364 97.0867 92.7349 99.3306 94.714C99.9548 95.2645 100.582 95.8177 101.106 96.4488C104.023 99.9624 102.355 104.267 98.631 106.659C97.2888 107.519 95.5321 107.97 93.6816 108.061Z" fill="#666666"/>
<path d="M117.13 87.5718C116.833 87.7584 116.77 87.7751 116.751 87.8143C115.56 90.229 115.182 92.911 114.356 95.4462C114.215 95.88 114.469 96.1132 114.939 96.0718C116.096 95.9702 117.254 95.87 118.413 95.7956C118.845 95.768 119.073 95.6302 119.008 95.1451C118.668 92.5915 117.763 90.1969 117.13 87.5718ZM125.205 108.184C123.176 108.271 122.598 108.746 121.972 105.774C121.685 104.415 121.227 103.095 120.915 101.74C120.764 101.089 120.451 100.679 119.813 100.666C117.787 100.624 115.756 100.462 113.733 100.77C112.842 100.907 112.266 101.303 112.002 102.243C111.526 103.931 110.681 105.491 110.295 107.217C110.171 107.774 109.749 108.002 109.251 108.231C107.916 108.847 106.639 108.226 105.346 108.117C104.669 108.059 104.73 107.401 104.829 106.878C105.118 105.349 105.715 103.915 106.214 102.454C107.931 97.4267 109.807 92.455 111.063 87.2713C111.524 85.3654 112.142 83.4993 112.688 81.6146C112.759 81.3674 112.839 81.1207 112.884 80.868C113.159 79.3309 113.747 78.7651 115.228 79.0128C116.701 79.2587 118.151 79.1983 119.619 79.1404C120.743 79.096 120.944 79.2772 120.988 80.4408C121.013 81.1269 121.162 81.7785 121.336 82.4216C122.689 87.4565 123.68 92.5891 125.262 97.5613C125.904 99.5772 126.53 101.601 127.254 103.586C127.63 104.619 127.738 105.701 128.04 106.741C128.218 107.352 127.947 107.688 127.378 107.922C126.639 108.227 125.875 108.101 125.205 108.184Z" fill="#666666"/>
<path d="M131.938 94.309C132.141 90.5315 132.301 86.7531 132.267 82.9691C132.26 82.1961 132.275 81.4333 132.075 80.6615C131.809 79.6351 132.298 79.0345 133.338 79.1422C134.195 79.2309 135.006 79.3673 135.887 79.149C136.589 78.9749 137.108 79.5826 137.173 80.5271C137.291 82.231 137.37 83.9354 137.233 85.6497C136.947 89.2553 136.873 92.8671 136.998 96.4859C137.056 98.1409 136.928 99.8012 136.93 101.458C136.93 102.603 137.152 102.909 138.266 102.792C140.663 102.538 143.015 103.079 145.396 103.053C146.842 103.037 147.293 103.609 147.075 105.047C146.964 105.764 146.792 106.469 146.693 107.187C146.589 107.95 146.149 108.245 145.446 108.25C141.386 108.282 137.326 108.325 133.265 108.336C132.251 108.34 131.633 107.577 131.658 106.385C131.739 102.67 131.844 98.9567 131.938 95.2421C131.945 94.9312 131.938 94.6201 131.938 94.309Z" fill="#666666"/>
<path d="M81.9326 0.104881C76.4971 -1.10439 66.1633 7.9381 55.1249 38.0976C50.0199 52.0452 40.3253 67.8875 23.9047 69.4608C13.4794 70.4596 1.98549 65.716 0.326752 54.5484C0.499308 55.7102 0.118528 57.069 0.2663 58.2897C0.626003 61.2624 1.93245 64.038 3.98192 66.2323C9.99959 72.6754 20.8269 74.2623 29.0208 71.9534C35.797 70.0439 41.6144 65.5459 46.1258 60.1718C51.2727 54.0409 55.7341 46.4653 58.2787 38.8808C62.2211 27.1305 73.8509 2.25878 78.9759 3.43353C84.101 4.60944 47.6838 70.5087 71.7812 73.4464C71.7812 73.4464 72.086 57.1078 77.6947 40.5454C80.3557 32.6874 90.4087 1.98955 81.9326 0.104881Z" fill="#666666"/>
<path d="M31.0776 29.2849C30.6315 28.8402 46.4787 38.1955 61.1706 39.9581C74.026 41.5003 78.7708 40.7721 81.9751 39.7633C82.4328 39.6191 82.6865 39.5705 83.1948 39.5063C83.1948 39.5063 83.0522 39.7236 82.3817 40.1856C79.9718 41.8454 72.7825 45.3682 60.2587 42.9936C44.2496 39.9581 34.3199 32.5162 31.0776 29.2849Z" fill="#666666"/>
<path d="M82.2886 39.6714C81.6612 40.0887 80.1081 41.1915 80.3667 41.2503C80.5595 41.2942 82.7875 40.3936 83.0339 41.0545C84.8857 46.0219 76.6523 69.1084 84.8855 70.1768C91.2916 71.0081 93.4811 50.5771 97.4134 51.4775C98.7224 51.7772 92.6423 66.627 102.637 67.1934C106.206 67.3955 111.949 52.5233 115.004 44.4466C115.605 42.859 114.979 40.4792 114.979 40.4792C114.979 40.4792 105.792 63.7068 104.02 63.3045C102.248 62.9021 108.274 43.3159 104.545 42.0101C103.214 41.5441 101.373 40.752 100.198 41.7896C94.6967 46.651 89.5118 64.1669 87.8879 64.3103C86.0375 64.4739 92.3414 43.3297 86.8216 40.0659C86.384 39.8073 84.7279 38.8636 82.2886 39.6714Z" fill="#666666"/>
<path d="M127.862 5.2701C128.102 8.91631 117.958 26.5487 114.002 44.3864C111.769 54.4572 111.401 73.0595 117.554 73.2946C123.944 73.5388 127.804 59.6471 127.804 59.6471C127.804 59.6471 126.277 57.346 125.389 59.9776C124.065 63.9082 121.338 69.6642 120.265 69.5614C118.343 69.3778 119.444 50.5798 122.9 39.6599C125.845 30.3559 131.868 14.6232 132.343 12.4417C132.818 10.2602 127.862 5.2701 127.862 5.2701Z" fill="#666666"/>
<path d="M95.3408 25.0227C102.276 26.906 111.397 28.0205 122.066 28.166C132.736 28.3115 152.621 26.8203 152.621 26.8203C152.621 26.8203 134.701 31.3166 121.349 31.0196C113.172 30.8377 98.801 28.8449 95.3408 25.0227Z" fill="#666666"/>
<path d="M125.463 59.8552C125.463 59.8552 131.27 36.888 139.852 37.3581C146.495 37.722 139.343 61.2555 141.707 61.1087C144.073 60.9618 152.522 40.6504 153.461 39.8111C154.562 38.8269 159.662 39.1941 160.852 41.0597C161.336 41.8169 158.258 61.887 159.514 61.887C160.478 61.887 166.684 51.581 168.015 46.1464C168.291 45.0191 168.163 51.385 168.163 51.385C168.163 51.385 161.682 66.489 157.895 66.3963C147.688 66.1464 154.717 45.9066 153.387 45.8332C152.056 45.7598 145.995 65.6619 140.451 65.7353C129 65.8869 137.297 42.0085 136.385 41.9409C134.999 41.8379 131.499 49.1819 127.508 60.6384C126.916 60.7855 125.463 59.8552 125.463 59.8552Z" fill="#666666"/>
<path d="M167.8 42.9692C168.557 45.0204 166.174 63.7526 166.839 64.0464C167.505 64.3401 168.318 65.0745 168.836 65.0745C169.353 65.0745 170.627 46.8809 170.429 45.0695C170.228 43.2095 167.8 42.9692 167.8 42.9692Z" fill="#666666"/>
<path d="M168.343 62.1859C168.393 61.3535 174.371 42.6136 176.301 41.8676C178.659 40.9568 182.356 40.8833 184.043 42.8907C184.807 43.7987 183.87 58.411 185.017 61.1282C185.017 61.1282 178.759 60.5407 178.174 58.0244C177.733 56.1232 177.78 45.9801 176.991 45.9312C176.203 45.8823 168.836 65.0745 168.836 65.0745L168.343 62.1859Z" fill="#666666"/>
<path d="M183.547 54.0586C183.547 54.0586 191.455 31.8799 195.373 31.2924C199.291 30.7049 202.099 31.5861 202.912 33.9362C203.727 36.2863 196.876 69.0066 198.767 69.8186C201.501 70.9937 209.016 51.3363 210.396 45.3142C210.579 44.5148 210.84 50.6509 210.84 50.6509C210.84 50.6509 203.209 73.238 198.618 73.1234C183.908 72.7563 198.109 36.3597 195.891 36.2129C194.709 36.1345 185.066 58.3498 185.042 60.9815C185.029 62.3113 183.547 54.0586 183.547 54.0586Z" fill="#666666"/>
<path d="M209.262 37.1869C209.779 38.5048 211.486 49.9602 210.673 66.2877C210.6 67.7666 213.697 67.5277 213.697 67.5277C213.697 67.5277 213.771 42.5596 211.628 38.2397C211.277 37.5319 209.262 37.1869 209.262 37.1869Z" fill="#666666"/>
<path d="M213.697 67.5276C214.873 62.9046 219.463 45.8248 221.909 46.069C224.57 46.3347 220.283 67.5325 228.045 66.8147C233.8 66.2823 240.65 57.597 243.345 53.0321C244.285 51.4418 243.937 50.1607 243.937 50.1607C243.937 50.1607 234.616 61.4862 232.62 61.402C229.22 61.2585 230.274 46.0715 229.367 42.8817C228.843 41.0342 222.287 40.4436 220.283 42.2644C217.393 44.8916 212.515 61.1149 212.515 61.402C212.515 61.6892 213.697 67.5276 213.697 67.5276Z" fill="#666666"/>
<path d="M155.559 96.3289C155.559 98.2423 155.524 101.195 155.571 102.991C155.601 104.145 155.982 104.559 157.216 104.527C160.197 104.45 163.198 104.583 166.145 104.013C167.535 103.743 168.622 104.499 168.509 105.756C168.446 106.454 168.544 107.129 168.548 107.816C168.555 108.715 168.39 108.924 167.442 108.881C163.779 108.709 160.107 108.682 156.442 108.812C155.053 108.861 150.336 110.035 150.552 107.928C150.626 107.207 150.538 106.469 150.486 105.741C149.909 97.6659 149.77 89.3812 149.804 81.2913C149.807 80.4867 150.224 80.1315 151.04 80.3103C153.997 80.9584 157.083 80.7941 160.09 80.6056C162.581 80.4495 165.875 80.7362 168.261 80.0413C169.02 79.8202 169.624 80.3779 169.325 81.0423C168.975 81.8225 169.059 82.5429 169.158 83.333C169.324 84.6751 168.825 85.0479 167.343 84.9691C164.055 84.7947 160.766 84.7234 157.485 85.0612C156.983 85.1128 156.487 85.2132 155.988 85.2893C155.589 85.3502 155.272 85.5265 155.389 85.9283C155.929 87.7969 153.365 92.5321 157.033 92.0463C160.121 91.6376 163.21 92.0796 166.29 91.8326C167.805 91.7112 168.133 92.1122 167.984 93.5395C167.943 93.9521 167.889 94.3767 167.95 94.7827C168.057 95.5224 167.744 95.8916 166.951 96.0454C166.399 96.1524 165.867 96.253 165.301 96.169C162.78 95.7948 160.259 95.8698 157.736 96.178C157.103 96.2554 156.58 96.7752 155.559 96.3289Z" fill="white"/>
<path d="M93.4501 109.097C90.2083 109.257 86.6778 108.313 84.5801 106.545C83.6828 105.788 83.5832 105.491 84.2988 104.593C84.7158 104.07 84.8556 103.482 85.0767 102.897C85.4719 101.853 85.9273 101.689 86.778 102.405C88.415 103.779 93.4147 103.826 94.9414 102.189C97.126 99.8461 93.7391 97.006 91.956 95.5164C89.4827 93.4503 86.5442 91.4407 86.0605 88.1829C85.6792 85.6147 87.1825 82.9737 89.5278 81.5055C91.873 80.0372 94.9279 79.674 97.7109 80.2168C100.22 80.7064 101.261 81.9451 102.927 83.5246C103.432 84.0031 103.127 84.7353 102.698 85.2506C102.467 85.5283 102.135 85.7167 101.894 85.9878C100.805 87.2156 100.19 87.3979 98.9307 86.3558C96.1976 84.0946 89.0676 85.1047 92.0297 89.3634C93.7049 91.7718 96.8553 93.7704 99.0992 95.7494C99.7234 96.3 100.35 96.8532 100.874 97.4839C103.791 100.998 102.124 105.302 98.3996 107.694C97.0574 108.555 95.3006 109.006 93.4501 109.097Z" fill="white"/>
<path d="M116.899 88.607C116.602 88.7936 116.538 88.8103 116.52 88.8496C115.328 91.2642 114.951 93.9462 114.125 96.4814C113.984 96.9152 114.237 97.1479 114.707 97.107C115.864 97.0054 117.022 96.9052 118.182 96.8308C118.614 96.8032 118.842 96.6654 118.777 96.1803C118.436 93.6267 117.532 91.2321 116.899 88.607ZM124.974 109.219C122.945 109.306 122.367 109.781 121.74 106.809C121.453 105.451 120.996 104.13 120.683 102.775C120.533 102.124 120.22 101.715 119.582 101.701C117.555 101.659 115.525 101.497 113.502 101.806C112.61 101.942 112.035 102.338 111.77 103.278C111.294 104.966 110.449 106.526 110.063 108.252C109.94 108.809 109.518 109.037 109.02 109.266C107.685 109.883 106.407 109.261 105.115 109.152C104.437 109.095 104.499 108.436 104.597 107.913C104.887 106.384 105.483 104.95 105.982 103.489C107.7 98.4619 109.576 93.4902 110.831 88.3065C111.292 86.4006 111.911 84.5345 112.456 82.6498C112.528 82.4026 112.608 82.1559 112.653 81.9032C112.927 80.3661 113.516 79.8003 114.997 80.048C116.47 80.2939 117.92 80.2335 119.387 80.1756C120.512 80.1312 120.712 80.3124 120.756 81.476C120.782 82.1621 120.931 82.8137 121.105 83.4569C122.457 88.4917 123.449 93.6243 125.031 98.5965C125.672 100.612 126.299 102.636 127.023 104.621C127.399 105.654 127.507 106.736 127.809 107.776C127.986 108.387 127.715 108.723 127.146 108.958C126.408 109.262 125.643 109.136 124.974 109.219Z" fill="white"/>
<path d="M131.707 95.3448C131.909 91.5673 132.069 87.7889 132.036 84.0049C132.029 83.2318 132.044 82.4691 131.843 81.6973C131.577 80.6708 132.067 80.0702 133.107 80.1779C133.964 80.2666 134.775 80.4031 135.656 80.1847C136.358 80.0106 136.877 80.6184 136.941 81.5629C137.059 83.2668 137.138 84.9712 137.002 86.6854C136.716 90.291 136.641 93.9029 136.767 97.5221C136.824 99.1767 136.697 100.837 136.698 102.494C136.698 103.639 136.921 103.945 138.035 103.827C140.432 103.574 142.784 104.115 145.165 104.089C146.61 104.072 147.062 104.644 146.843 106.083C146.733 106.799 146.56 107.505 146.462 108.223C146.358 108.985 145.918 109.281 145.215 109.286C141.155 109.318 137.094 109.361 133.034 109.372C132.019 109.376 131.401 108.613 131.427 107.421C131.508 103.705 131.613 99.9925 131.707 96.2779C131.714 95.967 131.707 95.6559 131.707 95.3448Z" fill="white"/>
<path d="M81.7011 1.14065C76.2656 -0.0686188 65.9319 8.97386 54.8934 39.1333C49.7884 53.081 40.0938 68.9232 23.6732 70.4965C13.248 71.4954 1.75404 66.7517 0.0953068 55.5842C0.267862 56.746 -0.112918 58.1048 0.0348547 59.3255C0.394558 62.2981 1.701 65.0738 3.75047 67.2681C9.76815 73.7112 20.5955 75.2981 28.7893 72.9892C35.5656 71.0797 41.383 66.5817 45.8943 61.2076C51.0413 55.0767 55.5027 47.5011 58.0472 39.9165C61.9896 28.1663 73.6194 3.29455 78.7444 4.4693C83.8696 5.6452 47.4523 71.5445 71.5498 74.4822C71.5498 74.4822 71.8546 58.1436 77.4632 41.5812C80.1243 33.7231 90.1772 3.02531 81.7011 1.14065Z" fill="white"/>
<path d="M30.8461 30.3206C30.4 29.8759 46.2472 39.2313 60.9391 40.9939C73.7945 42.5361 78.5393 41.8079 81.7437 40.7991C82.2013 40.6549 82.4551 40.6062 82.9634 40.542C82.9634 40.542 82.8208 40.7594 82.1503 41.2213C79.7404 42.8812 72.5511 46.4039 60.0272 44.0293C44.0181 40.9939 34.0884 33.552 30.8461 30.3206Z" fill="white"/>
<path d="M82.0562 40.7072C81.4288 41.1245 79.8756 42.2273 80.1342 42.2861C80.3271 42.3299 82.5551 41.4294 82.8014 42.0903C84.6532 47.0577 76.4199 70.1442 84.6531 71.2126C91.0592 72.0439 93.2487 51.6129 97.181 52.5132C98.49 52.813 92.4099 67.6628 102.405 68.2291C105.973 68.4313 111.716 53.5591 114.771 45.4823C115.372 43.8947 114.747 41.515 114.747 41.515C114.747 41.515 105.56 64.7426 103.788 64.3402C102.016 63.9379 108.041 44.3516 104.312 43.0458C102.982 42.5799 101.14 41.7878 99.9656 42.8254C94.4642 47.6867 89.2793 65.2026 87.6555 65.3461C85.8051 65.5097 92.109 44.3655 86.5892 41.1017C86.1516 40.843 84.4955 39.8993 82.0562 40.7072Z" fill="white"/>
<path d="M127.631 6.30556C127.87 9.95177 117.727 27.5842 113.771 45.4219C111.538 55.4926 111.169 74.095 117.322 74.3301C123.713 74.5742 127.573 60.6826 127.573 60.6826C127.573 60.6826 126.045 58.3814 125.158 61.013C123.833 64.9437 121.107 70.6996 120.033 70.5969C118.111 70.4132 119.212 51.6153 122.668 40.6954C125.613 31.3914 131.636 15.6587 132.111 13.4772C132.586 11.2957 127.631 6.30556 127.631 6.30556Z" fill="white"/>
<path d="M95.1094 26.0585C102.044 27.9418 111.165 29.0562 121.835 29.2018C132.504 29.3472 152.39 27.8561 152.39 27.8561C152.39 27.8561 134.47 32.3523 121.118 32.0554C112.941 31.8735 98.5695 29.8806 95.1094 26.0585Z" fill="white"/>
<path d="M125.231 60.891C125.231 60.891 131.038 37.9237 139.621 38.3939C146.264 38.7578 139.111 62.2912 141.476 62.1444C143.842 61.9976 152.29 41.6862 153.229 40.8469C154.331 39.8627 159.431 40.2299 160.62 42.0954C161.104 42.8526 158.026 62.9228 159.283 62.9228C160.246 62.9228 166.453 52.6167 167.783 47.1822C168.06 46.0548 167.931 52.4208 167.931 52.4208C167.931 52.4208 161.451 67.5248 157.664 67.4321C147.456 67.1822 154.486 46.9424 153.155 46.869C151.825 46.7956 145.763 66.6977 140.219 66.7711C128.768 66.9227 137.066 43.0443 136.153 42.9767C134.767 42.8737 131.267 50.2177 127.277 61.6742C126.685 61.8212 125.231 60.891 125.231 60.891Z" fill="white"/>
<path d="M167.57 44.0046C168.326 46.0559 165.944 64.7881 166.609 65.0818C167.275 65.3756 168.088 66.11 168.605 66.11C169.123 66.11 170.397 47.9164 170.199 46.1049C169.997 44.245 167.57 44.0046 167.57 44.0046Z" fill="white"/>
<path d="M168.111 63.2213C168.161 62.389 174.139 43.6491 176.07 42.9031C178.428 41.9923 182.124 41.9187 183.812 43.9262C184.576 44.8342 183.639 59.4465 184.786 62.1637C184.786 62.1637 178.527 61.5762 177.942 59.0599C177.501 57.1586 177.549 47.0156 176.76 46.9667C175.971 46.9178 168.605 66.11 168.605 66.11L168.111 63.2213Z" fill="white"/>
<path d="M183.315 55.0941C183.315 55.0941 191.224 32.9153 195.142 32.3278C199.06 31.7403 201.868 32.6216 202.681 34.9716C203.495 37.3217 196.645 70.0421 198.535 70.854C201.269 72.0291 208.784 52.3718 210.165 46.3497C210.348 45.5503 210.608 51.6864 210.608 51.6864C210.608 51.6864 202.977 74.2735 198.387 74.1589C183.677 73.7917 197.877 37.3951 195.66 37.2483C194.477 37.17 184.835 59.3853 184.811 62.0169C184.798 63.3468 183.315 55.0941 183.315 55.0941Z" fill="white"/>
<path d="M209.03 38.2224C209.548 39.5402 211.255 50.9956 210.442 67.3232C210.369 68.802 213.466 68.5632 213.466 68.5632C213.466 68.5632 213.54 43.595 211.396 39.2751C211.045 38.5674 209.03 38.2224 209.03 38.2224Z" fill="white"/>
<path d="M213.466 68.5631C214.641 63.9402 219.232 46.8603 221.678 47.1045C224.339 47.3702 220.052 68.5681 227.813 67.8502C233.569 67.3178 240.419 58.6325 243.114 54.0676C244.053 52.4773 243.706 51.1962 243.706 51.1962C243.706 51.1962 234.384 62.5217 232.389 62.4375C228.989 62.294 230.043 47.107 229.136 43.9173C228.611 42.0698 222.055 41.4792 220.052 43.3C217.161 45.9271 212.283 62.1504 212.283 62.4375C212.283 62.7247 213.466 68.5631 213.466 68.5631Z" fill="white"/>
</svg>
