<?xml version="1.0" encoding="utf-8"?>
<!-- Generator: Adobe Illustrator 26.0.3, SVG Export Plug-In . SVG Version: 6.00 Build 0)  -->
<svg version="1.1" id="Layer_1" xmlns="http://www.w3.org/2000/svg" xmlns:xlink="http://www.w3.org/1999/xlink" x="0px" y="0px"
	 viewBox="0 0 182 26" style="enable-background:new 0 0 182 26;" xml:space="preserve">
<style type="text/css">
	.st0{fill:#136EF8;}
	.st1{fill:#60D0FF;}
	.st2{fill:#2D7FFF;}
	.st3{fill:#0047D8;}
	.st4{fill:#0A2540;}
</style>
<path class="st0" d="M20,25.8c-0.4,0-0.8,0-1.3,0c-3.1,0-7.2,0-9.9,0l9-23.6C18.3,0.9,19.6,0,21.1,0H28c1.2,0,2.1,1.2,1.6,2.4
	l-7.9,22.2c0,0,0,0.1,0,0.1c-0.2,0.4-0.5,0.8-1,1c0,0-0.1,0-0.1,0.1c0,0-0.1,0-0.1,0c0,0,0,0-0.1,0c-0.1,0-0.1,0-0.2,0L20,25.8z"/>
<path class="st1" d="M17.7,25.8c-3.1,0-7.2,0-9.9,0H6.4c-0.7,0-1.2-0.4-1.5-1l-0.1-0.3L0.1,11c-0.5-1.1,0.4-2.4,1.6-2.4h6.6
	c1.5,0,2.8,0.9,3.4,2.3l5.7,13.7c0.3,0.6,0.8,1.2,1.5,1.2L17.7,25.8L17.7,25.8z"/>
<path class="st2" d="M17.4,24.7c0.2,0.6,0.8,1.2,1.5,1.2h-1.1c-3.1,0-6.2,0-8.9,0l4.3-11.4L17.4,24.7z"/>
<path class="st3" d="M19,25.8h-0.2c-0.7,0-1.2-0.6-1.4-1.2l-4.2-10.2l1.9-5.1L18,23.7c0,0,0.1,1.7,1.6,2.1c0,0-0.1,0-0.1,0
	c0,0-0.1,0-0.1,0c-0.1,0-0.1,0-0.2,0L19,25.8z"/>
<path class="st4" d="M39.5,25.9c-3.2,0-5.5-2.1-5.5-5.1c0-3,2-5.2,5.3-5.7l5.9-1.1l0-0.1c-0.2-1.7-1.8-2.5-3.3-2.5
	c-2.3,0-3.8,1.6-4.1,2L35,10.5c0.4-0.5,3-3.4,7.3-3.4c4.5,0,7.7,3,7.7,7.2v11.2h-4.8v-2.2h-0.4l0,0C44.8,23.3,43,25.9,39.5,25.9z
	 M41,18c-1.3,0.2-2.1,1-2.1,2c0,1.2,0.9,2,2.3,2c2.3,0,4-1.8,4-4.2v-0.5L41,18z"/>
<path class="st4" d="M61.3,25.8c-5.3,0-9.6-4.2-9.6-9.4c0-5.2,4.3-9.4,9.6-9.4c2,0,3.9,0.6,5.4,1.7l-2,4c-0.7-0.6-1.9-1.2-3.4-1.2
	c-2.7,0-4.8,2.1-4.8,5c0,2.8,2,5,4.8,5c1.5,0,2.6-0.6,3.4-1.2l2,4C65.2,25.3,63.3,25.8,61.3,25.8z"/>
<path class="st4" d="M76.7,25.8c-5.3,0-9.6-4.2-9.6-9.4c0-5.2,4.3-9.4,9.6-9.4c2,0,3.9,0.6,5.4,1.7l-2,4c-0.7-0.6-1.9-1.2-3.4-1.2
	c-2.7,0-4.8,2.1-4.8,5c0,2.8,2,5,4.8,5c1.5,0,2.7-0.6,3.4-1.2l2,4C80.6,25.3,78.7,25.8,76.7,25.8z"/>
<path class="st4" d="M92.3,25.8c-5.3,0-9.6-4.2-9.6-9.4c0-2.5,1-4.8,2.8-6.6c1.8-1.8,4.1-2.8,6.6-2.8c5,0,9,4,9,9
	c0,1-0.1,1.9-0.2,2.1H87.7l0,0.1c0.7,2.1,2.5,3.2,4.9,3.2c1.7,0,3-0.6,3.7-1.1l3.4,2.6C99.2,23.7,96.5,25.8,92.3,25.8z M91.9,11.3
	c-2.3,0-3.7,1.7-4.2,3.2l0,0.1h8.5l0-0.1C95.6,13.1,94.2,11.3,91.9,11.3z"/>
<path class="st4" d="M172.3,25.8c-5.3,0-9.6-4.2-9.6-9.4c0-2.5,1-4.8,2.8-6.6c1.8-1.8,4.1-2.8,6.6-2.8c5,0,9,4,9,9
	c0,1-0.1,1.9-0.2,2.1h-13.3l0,0.1c0.7,2.1,2.5,3.2,4.9,3.2c1.7,0,3-0.6,3.7-1.1l3.4,2.6C179.1,23.7,176.5,25.8,172.3,25.8z
	 M171.9,11.3c-2.3,0-3.7,1.7-4.2,3.2l0,0.1h8.5l0-0.1C175.6,13.1,174.2,11.3,171.9,11.3z"/>
<path class="st4" d="M134.9,25.8V7.1h4.8v18.7H134.9z"/>
<path class="st4" d="M143.5,25.8c-0.4,0-0.8-0.3-0.8-0.8V0.8c0-0.4,0.4-0.8,0.8-0.8h7.8c2.5,0,4.6,0.7,6.1,2
	c1.4,1.2,2.2,2.9,2.2,4.8c0,4-3.4,5.3-3.5,5.3l-0.3,0.1l0.3,0.1c0,0,4.8,1.3,4.8,6.2c0,4.3-3.6,7.3-8.8,7.3L143.5,25.8L143.5,25.8z
	 M147.7,21.2h4.1c2.2,0,3.6-1.3,3.6-3.3s-1.4-3.3-3.6-3.3h-4.1V21.2z M147.7,10.1h3.4c1.8,0,3.1-1.1,3.1-2.7s-1.2-2.7-3.1-2.7h-3.4
	V10.1z"/>
<path class="st4" d="M109.9,25.8c-1.9,0-3.4-0.4-4.7-1.2c-1.2-0.8-1.8-1.7-2.2-2.5l4-1.8c0.5,1,1.5,1.6,2.9,1.6
	c1.3,0,2.2-0.6,2.2-1.6c0-0.9-0.6-1.5-1.8-1.7l-2.3-0.5c-3.2-0.7-5-2.5-5-5.2c0-3.3,2.9-5.8,6.7-5.8c1.9,0,3.5,0.5,4.8,1.4
	c1.1,0.8,1.7,1.9,1.9,2.6l-4,1.7c-0.2-0.6-0.7-1.9-2.7-1.9c-1.2,0-2.1,0.7-2.1,1.6c0,1,1,1.5,1.5,1.6l2.5,0.5
	c3.4,0.7,5.3,2.7,5.3,5.3C116.8,22.8,114.7,25.8,109.9,25.8z"/>
<path class="st4" d="M125.1,25.8c-1.9,0-3.4-0.4-4.7-1.2c-1.2-0.8-1.8-1.7-2.2-2.5l4-1.8c0.5,1,1.5,1.6,2.9,1.6
	c1.4,0,2.2-0.6,2.2-1.6c0-0.9-0.6-1.5-1.8-1.7l-2.3-0.5c-3.2-0.7-5-2.5-5-5.2c0-3.3,2.9-5.8,6.7-5.8c1.9,0,3.5,0.5,4.8,1.4
	c1.1,0.8,1.7,1.9,1.9,2.6l-4,1.7c-0.2-0.6-0.7-1.9-2.7-1.9c-1.2,0-2.1,0.7-2.1,1.6c0,1,1,1.5,1.5,1.6l2.5,0.5
	c3.4,0.7,5.3,2.7,5.3,5.3C132.1,22.8,129.9,25.8,125.1,25.8z"/>
<path class="st4" d="M134.6,2.7c0,1.5,1.3,2.7,2.8,2.7c1.5,0,2.8-1.2,2.8-2.7c0-1.5-1.3-2.7-2.8-2.7C135.9,0,134.6,1.2,134.6,2.7z"
	/>
</svg>
