<svg xmlns="http://www.w3.org/2000/svg" width="90" height="64" fill="none" xmlns:v="https://vecta.io/nano"><rect x=".6" y=".6" width="88.8" height="62.8" rx="1.4" fill="#fff"/><rect x=".6" y=".6" width="88.8" height="62.8" rx="1.4" stroke="#8796a1" stroke-width="1.2"/><path d="M52.1 37.4l-9.3 9.9-4.6-4-14.4 13H68c.3 0 .6-.1.8-.2L52.1 37.4zM68 24.3H22c-1.1 0-2 .9-2 2v28c0 .8.5 1.5 1.2 1.8l16.9-15.3 4.6 4 9.5-10.1L70 54.6V26.3c0-1.1-.9-2-2-2zM28.1 36c-1.9 0-3.3-1.5-3.3-3.3a3.33 3.33 0 0 1 3.3-3.3c1.9 0 3.3 1.5 3.3 3.3a3.33 3.33 0 0 1-3.3 3.3zm27.2-25.8H34.7c-.7 0-1.2-.6-1.2-1.2 0-.7.6-1.2 1.2-1.2h20.5c.7 0 1.2.6 1.2 1.2.1.6-.4 1.2-1.1 1.2zm13.1 4.1H21.6a.65.65 0 0 1-.6-.6.65.65 0 0 1 .6-.6h46.8a.65.65 0 0 1 .6.6.65.65 0 0 1-.6.6zm0 3H21.6a.65.65 0 0 1-.6-.6.65.65 0 0 1 .6-.6h46.8a.65.65 0 0 1 .6.6c0 .4-.3.6-.6.6zm-9.6 3.1H31.2a.65.65 0 0 1-.6-.6.65.65 0 0 1 .6-.6h27.6a.65.65 0 0 1 .6.6.65.65 0 0 1-.6.6z" fill="#718491"/></svg>