<svg xmlns="http://www.w3.org/2000/svg" width="90" height="64" fill="none" xmlns:v="https://vecta.io/nano"><rect x=".6" y=".6" width="88.8" height="62.8" rx="1.4" fill="#fff"/><rect x=".6" y=".6" width="88.8" height="62.8" rx="1.4" stroke="#8796a1" stroke-width="1.2"/><path d="M52.1 29.1L42.8 39l-4.6-4-14.5 13H68c.3 0 .6-.1.8-.2L52.1 29.1zM68 16H22c-1.1 0-2 .9-2 2v28c0 .8.5 1.5 1.2 1.8l16.9-15.3 4.6 4 9.5-10.1L70 46.3V18c0-1.1-.9-2-2-2zM28.1 27.7c-1.9 0-3.3-1.5-3.3-3.3a3.33 3.33 0 0 1 3.3-3.3c1.9 0 3.3 1.5 3.3 3.3a3.33 3.33 0 0 1-3.3 3.3z" fill="#718491"/></svg>