<svg xmlns="http://www.w3.org/2000/svg" xmlns:xlink="http://www.w3.org/1999/xlink" width="90" height="64" fill="none"><g clip-path="url(#A)"><path d="M52.1 29.1L42.8 39l-4.6-4-14.5 13H68c.3 0 .6-.1.8-.2L52.1 29.1zM68 16H22c-1.1 0-2 .9-2 2v28c0 .8.5 1.5 1.2 1.8l16.9-15.3 4.6 4 9.5-10.1L70 46.3V18c0-1.1-.9-2-2-2zM28.1 27.7c-1.9 0-3.3-1.5-3.3-3.3a3.33 3.33 0 0 1 3.3-3.3c1.9 0 3.3 1.5 3.3 3.3a3.33 3.33 0 0 1-3.3 3.3z" fill="#8796a1"/><path opacity=".65" d="M90 0H0V64H90V0Z" fill="#171d21"/><g fill="#fff"><path d="M54.8 28.2H35.2c-.7 0-1.2-.6-1.2-1.2 0-.7.6-1.2 1.2-1.2h19.6c.7 0 1.2.6 1.2 1.2s-.5 1.2-1.2 1.2z"/><use xlink:href="#B"/><path d="M67.4 35.3H22.6a.65.65 0 0 1-.6-.6.65.65 0 0 1 .6-.6h44.8a.65.65 0 0 1 .6.6.65.65 0 0 1-.6.6zm-9.2 3H31.8a.65.65 0 0 1-.6-.6.65.65 0 0 1 .6-.6h26.4a.65.65 0 0 1 .6.6c0 .4-.3.6-.6.6z"/></g></g><rect x=".5" y=".5" width="89" height="63" rx="2.5" stroke="#b6c0c6"/><defs><clipPath id="A"><rect width="90" height="64" rx="3" fill="#fff"/></clipPath><path id="B" d="M67.4 32.3H22.6a.65.65 0 0 1-.6-.6.65.65 0 0 1 .6-.6h44.8a.65.65 0 0 1 .6.6.65.65 0 0 1-.6.6z"/></defs></svg>