<svg xmlns="http://www.w3.org/2000/svg" width="90" height="64" fill="none"><rect x=".5" y=".5" width="89" height="63" rx="2.5" stroke="#b6c0c6"/><path d="M68.5 29.7l-7.4 7.9-3.7-3.2-11.6 10.4h35.4c.2 0 .5 0 .7-.1l-13.4-15zm12.8-10.5H44.5a1.58 1.58 0 0 0-1.6 1.6v22.4c0 .7.4 1.2 1 1.5l13.5-12.2 3.7 3.2 7.6-8.1 14.2 15.9V20.8a1.58 1.58 0 0 0-1.6-1.6zm-31.9 9.4a2.69 2.69 0 0 1-2.7-2.7c0-1.4 1.2-2.7 2.7-2.7a2.69 2.69 0 0 1 2.7 2.7c-.1 1.5-1.3 2.7-2.7 2.7zm-10.2-3.1H17.7c-.7 0-1.2-.6-1.2-1.2 0-.7.6-1.2 1.2-1.2h21.5c.7 0 1.2.6 1.2 1.2s-.5 1.2-1.2 1.2z" fill="#8796a1"/><path d="M39.8 29.6H7.7a.65.65 0 0 1-.6-.6.65.65 0 0 1 .6-.6h32.1a.65.65 0 0 1 .6.6c0 .3-.2.6-.6.6zm0 3H7.7a.65.65 0 0 1-.6-.6.65.65 0 0 1 .6-.6h32.1a.65.65 0 0 1 .6.6c0 .3-.2.6-.6.6zm0 3H20.4a.65.65 0 0 1-.6-.6.65.65 0 0 1 .6-.6h19.4a.65.65 0 0 1 .6.6c0 .3-.2.6-.6.6z" fill="#bac2c6"/></svg>