<svg xmlns="http://www.w3.org/2000/svg" width="90" height="64" fill="none" xmlns:v="https://vecta.io/nano"><rect x=".6" y=".6" width="88.8" height="62.8" rx="1.4" fill="#fff"/><rect x=".6" y=".6" width="88.8" height="62.8" rx="1.4" stroke="#8796a1" stroke-width="1.2"/><g fill="#718491"><path d="M52.1 20.9l-9.3 9.9-4.6-4-14.4 13H68c.3 0 .6-.1.8-.2L52.1 20.9zM68 7.8H22c-1.1 0-2 .9-2 2v28c0 .8.5 1.5 1.2 1.8l16.9-15.3 4.6 4 9.5-10.1L70 38.1V9.8c0-1.1-.9-2-2-2zM28.1 19.5c-1.9 0-3.3-1.5-3.3-3.3a3.33 3.33 0 0 1 3.3-3.3c1.9 0 3.3 1.5 3.3 3.3a3.33 3.33 0 0 1-3.3 3.3zm27.2 26.6H34.7c-.7 0-1.2-.6-1.2-1.2 0-.7.6-1.2 1.2-1.2h20.5c.7 0 1.2.6 1.2 1.2.1.6-.4 1.2-1.1 1.2z"/><use href="#B"/><use href="#B" y="3"/><path d="M58.8 56.2H31.2a.65.65 0 0 1-.6-.6.65.65 0 0 1 .6-.6h27.6a.65.65 0 0 1 .6.6c0 .4-.3.6-.6.6z"/></g><defs ><path id="B" d="M68.4 50.2H21.6a.65.65 0 0 1-.6-.6.65.65 0 0 1 .6-.6h46.8a.65.65 0 0 1 .6.6.65.65 0 0 1-.6.6z"/></defs></svg>