<svg width="24" height="24" viewBox="0 0 24 24" fill="none" xmlns="http://www.w3.org/2000/svg">
<path d="M12.1587 23.9997L12.1475 18.3696" stroke="#979FEF" stroke-width="1.11494"/>
<path d="M12.1477 18.3703C12.1452 18.4328 12.1615 18.4303 12.1965 18.3628" stroke="#ACB8EE" stroke-width="1.11494"/>
<path d="M12.1968 18.3623C20.4824 18.0995 20.533 6.11625 12.1387 5.75098" stroke="#A0B3E9" stroke-width="1.11494"/>
<path d="M12.1384 5.7512L12.1328 0" stroke="#979FEF" stroke-width="1.11494"/>
<path d="M12.1387 5.75098C12.1412 5.75848 12.143 5.76598 12.1443 5.77348" stroke="#BECEED" stroke-width="1.11494"/>
<path d="M12.1442 5.77344C4.62915 6.35117 3.48353 16.208 10.6892 18.1778C10.8942 18.2338 11.3804 18.2977 12.1479 18.3698" stroke="#CAD3F2" stroke-width="1.11494"/>
<path d="M12.1966 18.3624L12.1572 15.5669" stroke="#D2E7EC" stroke-width="1.11494"/>
<path d="M12.1572 15.5673C13.431 15.5052 14.4072 14.9741 15.086 13.9739C15.6954 13.0794 14.5441 12.2873 13.9516 13.1483C13.5354 13.7509 12.9479 14.0758 12.1891 14.123" stroke="#A0B3E9" stroke-width="1.11494"/>
<path d="M12.189 14.1225C12.1078 12.7558 12.1103 11.3891 12.1965 10.0225" stroke="#D2E7EC" stroke-width="1.11494"/>
<path d="M12.1969 10.0224C12.7907 10.0286 13.2382 10.2025 13.5394 10.5442C13.8207 10.861 14.2557 11.53 14.7694 11.3344C15.3732 11.1051 15.3807 10.5833 15.0394 10.1081C14.3669 9.17005 13.4088 8.65941 12.165 8.57617" stroke="#A0B3E9" stroke-width="1.11494"/>
<path d="M12.1652 8.57636L12.1445 5.77344" stroke="#D2E7EC" stroke-width="1.11494"/>
<path d="M12.1649 8.57617C12.1587 8.58742 12.1499 8.5943 12.1387 8.5968" stroke="#ACB8EE" stroke-width="1.11494"/>
<path d="M12.138 8.59668C7.58929 8.78304 7.42804 15.1623 12.1249 15.563" stroke="#CAD3F2" stroke-width="1.11494"/>
<path d="M12.1257 15.5635C12.077 15.4835 12.0876 15.4847 12.1576 15.5672" stroke="#ACB8EE" stroke-width="1.11494"/>
<path d="M12.1387 8.59668L12.1443 9.97764" stroke="#979FEF" stroke-width="1.11494"/>
<path d="M12.1444 9.97803C9.3525 10.3116 9.375 13.9569 12.1894 14.1228" stroke="#CAD3F2" stroke-width="1.11494"/>
<path d="M12.1888 14.1226L12.125 15.5632" stroke="#979FEF" stroke-width="1.11494"/>
<path d="M12.197 10.0228C12.1883 9.99031 12.1708 9.97531 12.1445 9.97781" stroke="#ACB8EE" stroke-width="1.11494"/>
<path d="M12.1055 0.145364H12.4092C14.063 1.32567 15.8761 2.14692 17.8486 2.6091C18.6717 2.80106 19.6523 2.81783 20.558 2.9371C21.0755 3.00606 21.3305 3.27069 21.3323 3.77947C21.3398 6.35378 21.3198 8.92747 21.2723 11.5005C21.1598 17.3803 17.8748 21.9668 12.3661 24H12.1598L12.1486 18.3699C12.1461 18.4321 12.1623 18.4296 12.1973 18.3625C20.483 18.0997 20.5336 6.11648 12.1392 5.7512L12.1336 0C12.1236 0.0484547 12.1142 0.0969095 12.1055 0.145364Z" fill="#878787"/>
<path d="M12.1336 0L12.1392 5.7512C12.1417 5.75866 12.1436 5.76611 12.1449 5.77357C4.62987 6.3513 3.48424 16.2081 10.6899 18.178C10.8949 18.2339 11.3811 18.2979 12.1486 18.3699L12.1599 24H12.053C7.83549 22.5029 5.03112 19.6975 3.63987 15.5838C3.12049 14.0407 3.01924 12.4417 3.00987 10.5911C2.99737 8.30502 2.99674 6.01895 3.00799 3.73288C3.00987 3.08992 3.41487 2.95201 4.00549 2.92965C6.90424 2.82404 9.61362 1.84749 12.1336 0Z" fill="#B9B9B9"/>
<path d="M12.1394 5.75098C20.5337 6.11625 20.4831 18.0995 12.1975 18.3623L12.1581 15.5668C13.4319 15.5047 14.4081 14.9735 15.0869 13.9734C15.6962 13.0788 14.545 12.2868 13.9525 13.1478C13.5362 13.7504 12.9487 14.0753 12.19 14.1225C12.1087 12.7558 12.1112 11.3891 12.1975 10.0224C12.7912 10.0287 13.2387 10.2026 13.54 10.5443C13.8212 10.8611 14.2562 11.5301 14.77 11.3345C15.3737 11.1052 15.3812 10.5834 15.04 10.1082C14.3675 9.17014 13.4094 8.6595 12.1656 8.57626L12.145 5.77334C12.1437 5.76589 12.1419 5.75843 12.1394 5.75098Z" fill="#A6A6A6"/>
<path d="M12.1442 5.77344L12.1648 8.57636C12.1585 8.58754 12.1498 8.59437 12.1385 8.59686C7.58978 8.78322 7.42853 15.1625 12.1254 15.5632C12.0767 15.4836 12.0873 15.4849 12.1573 15.5669L12.1967 18.3624C12.1617 18.4294 12.1454 18.4319 12.1479 18.3698C11.3804 18.2977 10.8942 18.2338 10.6892 18.1778C3.48353 16.208 4.62915 6.35117 12.1442 5.77344Z" fill="#D3D3D3"/>
<path d="M12.139 8.59668L12.1446 9.97764C9.35277 10.3112 9.37527 13.9565 12.1896 14.1224L12.1259 15.563C7.42902 15.1623 7.59027 8.78304 12.139 8.59668Z" fill="white"/>
<path d="M12.1659 8.57617C13.4096 8.65941 14.3678 9.17005 15.0403 10.1081C15.3815 10.5833 15.374 11.1051 14.7703 11.3344C14.2565 11.53 13.8215 10.861 13.5403 10.5442C13.239 10.2025 12.7915 10.0286 12.1978 10.0224C12.189 9.99006 12.1715 9.97515 12.1453 9.97763L12.1396 8.59667C12.1509 8.59419 12.1596 8.58735 12.1659 8.57617Z" fill="white"/>
<path d="M12.1454 9.97781C12.1716 9.97532 12.1891 9.99023 12.1979 10.0225C12.1116 11.3892 12.1091 12.7559 12.1903 14.1225C9.37597 13.9567 9.35347 10.3114 12.1454 9.97781Z" fill="#D3D3D3"/>
<path d="M12.1576 15.5668C12.0876 15.4848 12.077 15.4836 12.1257 15.5631L12.1895 14.1225C12.9482 14.0753 13.5357 13.7504 13.952 13.1478C14.5445 12.2868 15.6957 13.0789 15.0863 13.9734C14.4076 14.9736 13.4313 15.5047 12.1576 15.5668Z" fill="white"/>
</svg>
