<svg width="24" height="24" viewBox="0 0 24 24" fill="none" xmlns="http://www.w3.org/2000/svg">
<g clip-path="url(#clip0_4174_130)">
<g clip-path="url(#clip1_4174_130)">
<path d="M3.5 6C3.5 5.72386 3.72386 5.5 4 5.5H13C13.2761 5.5 13.5 5.72386 13.5 6V12V18C13.5 18.2761 13.2761 18.5 13 18.5H4C3.72386 18.5 3.5 18.2761 3.5 18V6Z" stroke="#6C3BFF"/>
<path fill-rule="evenodd" clip-rule="evenodd" d="M3.5 15C3.5 14.7239 3.72386 14.5 4 14.5H13C13.2761 14.5 13.5 14.7239 13.5 15C13.5 15.2761 13.2761 15.5 13 15.5H4C3.72386 15.5 3.5 15.2761 3.5 15Z" fill="#6C3BFF"/>
<path d="M7.31813 7.96012L7.31813 7.96012C7.35257 8.00592 7.38968 8.04998 7.42939 8.09201L7.79289 7.7487L7.42939 8.09201C7.7082 8.38722 8.09265 8.55882 8.5 8.55882C8.90735 8.55882 9.2918 8.38722 9.57061 8.09201L9.20711 7.7487L9.57061 8.09201C9.61032 8.04998 9.64743 8.00591 9.68187 7.96012C9.75468 7.86331 9.84432 7.78179 9.92332 7.73781C9.97007 7.71178 9.99468 7.70798 10.0031 7.70781L11 8.05964L11 8.97059C10.4477 8.97059 10 9.4183 10 9.97059V12.5H7V9.97059C7 9.4183 6.55229 8.97059 6 8.97059L6 8.05964L6.99686 7.70781C7.00532 7.70798 7.02993 7.71178 7.07668 7.73781C7.15568 7.78179 7.24532 7.86331 7.31813 7.96012ZM10.0066 7.70811C10.0065 7.70821 10.0056 7.70821 10.0037 7.7078C10.0057 7.7078 10.0066 7.70801 10.0066 7.70811ZM6.99343 7.70811C6.99339 7.70801 6.99431 7.7078 6.99627 7.7078C6.99444 7.70821 6.99346 7.70821 6.99343 7.70811Z" stroke="#6C3BFF" stroke-linecap="round" stroke-linejoin="round"/>
<path fill-rule="evenodd" clip-rule="evenodd" d="M15.5 6C15.5 5.72386 15.7239 5.5 16 5.5H21C21.2761 5.5 21.5 5.72386 21.5 6C21.5 6.27614 21.2761 6.5 21 6.5H16C15.7239 6.5 15.5 6.27614 15.5 6Z" fill="#6C3BFF"/>
<path fill-rule="evenodd" clip-rule="evenodd" d="M15.5 9C15.5 8.72386 15.7239 8.5 16 8.5H21C21.2761 8.5 21.5 8.72386 21.5 9C21.5 9.27614 21.2761 9.5 21 9.5H16C15.7239 9.5 15.5 9.27614 15.5 9Z" fill="#6C3BFF"/>
<path fill-rule="evenodd" clip-rule="evenodd" d="M15.5 12C15.5 11.7239 15.7239 11.5 16 11.5H21C21.2761 11.5 21.5 11.7239 21.5 12C21.5 12.2761 21.2761 12.5 21 12.5H16C15.7239 12.5 15.5 12.2761 15.5 12Z" fill="#6C3BFF"/>
<path fill-rule="evenodd" clip-rule="evenodd" d="M15.5 15C15.5 14.7239 15.7239 14.5 16 14.5H19.5C19.7761 14.5 20 14.7239 20 15C20 15.2761 19.7761 15.5 19.5 15.5H16C15.7239 15.5 15.5 15.2761 15.5 15Z" fill="#6C3BFF"/>
</g>
</g>
<defs>
<clipPath id="clip0_4174_130">
<rect width="24" height="24" fill="white"/>
</clipPath>
<clipPath id="clip1_4174_130">
<rect width="24" height="24" fill="white"/>
</clipPath>
</defs>
</svg>
