<svg width="16" height="17" fill="none" xmlns="http://www.w3.org/2000/svg"><path d="M13.015 9.185c.03-.218.044-.444.044-.685 0-.233-.015-.467-.051-.685l1.48-1.153a.358.358 0 0 0 .088-.444l-1.4-2.421c-.088-.16-.27-.212-.43-.16l-1.743.7A5.15 5.15 0 0 0 9.82 3.65L9.56 1.799a.353.353 0 0 0-.35-.299h-2.8a.345.345 0 0 0-.343.299l-.262 1.852c-.43.175-.824.416-1.182.685l-1.742-.7a.348.348 0 0 0-.43.16L1.057 6.219c-.088.153-.058.342.087.444l1.48 1.153a4.28 4.28 0 0 0-.065.685c0 .226.015.467.051.685l-1.48 1.152a.358.358 0 0 0-.088.445l1.4 2.421c.088.16.27.212.43.16l1.743-.7c.365.278.751.511 1.181.686l.263 1.852a.358.358 0 0 0 .35.299h2.8a.34.34 0 0 0 .343-.299l.262-1.852a5 5 0 0 0 1.181-.685l1.743.7c.16.058.343 0 .43-.16l1.4-2.422c.088-.16.051-.342-.087-.444l-1.466-1.153Zm-5.206 1.94A2.633 2.633 0 0 1 5.184 8.5a2.633 2.633 0 0 1 2.625-2.625A2.633 2.633 0 0 1 10.434 8.5a2.633 2.633 0 0 1-2.625 2.625Z" stroke="#4672FF" stroke-width="1.5"/></svg>