<?xml version="1.0" encoding="utf-8"?>
<!-- Generator: Adobe Illustrator 26.0.2, SVG Export Plug-In . SVG Version: 6.00 Build 0)  -->
<svg version="1.1" id="Layer_1" xmlns="http://www.w3.org/2000/svg" xmlns:xlink="http://www.w3.org/1999/xlink" x="0px" y="0px"
	 width="59.1px" height="32.4px" viewBox="0 0 59.1 32.4" style="enable-background:new 0 0 59.1 32.4;" xml:space="preserve">
<style type="text/css">
	.st0{fill:#FCE1AE;}
	.st1{enable-background:new    ;}
	.st2{fill:#222222;}
</style>
<g>
	<path id="Rectangle_142" class="st0" d="M16.7,5.8h25c5.2,0,9.5,4.3,9.5,9.5l0,0c0,5.2-4.3,9.5-9.5,9.5h-25c-5.2,0-9.5-4.3-9.5-9.5
		l0,0C7.2,10,11.5,5.8,16.7,5.8z"/>
	<g class="st1">
		<path class="st2" d="M19.3,11.2c0.2,0,0.4,0,0.6,0c0.2,0,0.4,0,0.6,0c0.2,0,0.4,0.1,0.6,0.1c0.2,0,0.3,0.1,0.5,0.2
			c0.3,0.2,0.5,0.4,0.7,0.7c0.2,0.3,0.3,0.7,0.3,1.1c0,0.5-0.1,0.8-0.3,1.2c-0.2,0.3-0.5,0.6-0.9,0.7v0c0.5,0.1,0.9,0.4,1.2,0.7
			c0.3,0.4,0.4,0.8,0.4,1.3c0,0.3-0.1,0.6-0.2,0.9c-0.1,0.3-0.3,0.6-0.5,0.8c-0.2,0.2-0.5,0.4-0.8,0.6c-0.3,0.1-0.7,0.2-1.1,0.2
			h-4.1v-8.6H19.3z M19.6,14.9c0.6,0,1.1-0.1,1.4-0.3c0.3-0.2,0.4-0.6,0.4-1c0-0.3,0-0.5-0.1-0.7c-0.1-0.2-0.2-0.3-0.4-0.4
			s-0.4-0.2-0.6-0.2c-0.2,0-0.5,0-0.7,0h-2.3v2.7H19.6z M20.2,18.8c0.5,0,0.9-0.1,1.2-0.4c0.3-0.3,0.4-0.6,0.4-1.1
			c0-0.3-0.1-0.5-0.2-0.7c-0.1-0.2-0.2-0.3-0.4-0.4c-0.2-0.1-0.4-0.2-0.6-0.2c-0.2,0-0.5-0.1-0.7-0.1h-2.6v3H20.2z"/>
		<path class="st2" d="M30.3,11.2v1h-4.8v2.7H30v1h-4.5v3h4.8v1h-6v-8.6H30.3z"/>
		<path class="st2" d="M30.8,12.2v-1h6.9v1h-2.9v7.6h-1.1v-7.6H30.8z"/>
		<path class="st2" d="M41.1,11.2l3.3,8.6h-1.3l-0.9-2.6h-3.6l-1,2.6h-1.2l3.3-8.6H41.1z M41.9,16.2l-1.4-4h0l-1.5,4H41.9z"/>
	</g>
</g>
</svg>
