<svg width="24" height="24" viewBox="0 0 24 24" fill="none" xmlns="http://www.w3.org/2000/svg">
<path d="M19.7013 3H11.5455H3.41558C3.18182 3 3 3.18182 3 3.41558V20.5844C3 20.8182 3.18182 21 3.41558 21H11.1558H11.5714H11.987H19.7273C19.961 21 20.1429 20.8182 20.1429 20.5844V3.46753C20.1169 3.28571 19.9351 3 19.7013 3ZM8.48052 20.1688H3.80519V3.85714H11.1558V7.44156H7.96104C7.72727 7.44156 7.54545 7.62338 7.54545 7.85714V15.6753C7.54545 15.9091 7.72727 16.0909 7.96104 16.0909H11.1299V20.1948H8.48052V20.1688ZM11.961 14.1688C12.013 14.1688 12.0649 14.2208 12.1429 14.2208C12.2468 14.2208 12.3247 14.1688 12.3766 14.1169L14.9221 11.5714L16.8961 13.5455V15.3896H11.9091V14.1688H11.961ZM15.2078 10.8701C15.1558 10.8182 15.026 10.7662 14.974 10.7662C14.8701 10.7662 14.7922 10.8182 14.7403 10.8701L12.1429 13.4156L11.961 13.2338V8.1948H16.9221V12.5844L15.2078 10.8701ZM11.1558 15.4416H8.27273V14.5844V13.5974V10.2727V8.14286H11.1558V15.4416ZM19.3117 4.16883V8.68831V14.1688V15.7792V20.1688H11.961V16.0649H17.2338C17.4675 16.0649 17.6494 15.8831 17.6494 15.6493V7.90909C17.6494 7.67532 17.4675 7.49351 17.2338 7.49351H11.961V3.93506H13.4675H19.3117V4.16883Z" fill="#1F1F1F"/>
<path d="M13.3311 9.03467C12.8956 9.03467 12.5811 9.34918 12.5811 9.78467C12.5811 10.2202 12.8956 10.5347 13.3311 10.5347C13.7665 10.5347 14.0811 10.2202 14.0811 9.78467C14.0811 9.34918 13.7665 9.03467 13.3311 9.03467Z" fill="#1F1F1F"/>
</svg>
