<svg width="24" height="24" viewBox="0 0 24 24" fill="none" xmlns="http://www.w3.org/2000/svg">
<path d="M19.6187 3H4.83489C4.37442 3 4 3.47315 4 4.0546V19.9454C4 20.5267 4.37457 21 4.83489 21H19.6187C20.0792 21 20.4536 20.5265 20.4536 19.9454V19.3389V17.3552V4.0546C20.4534 3.47315 20.079 3 19.6187 3ZM19.8971 19.9456C19.8971 20.1393 19.7722 20.2971 19.6187 20.2971H4.83489C4.6814 20.2971 4.55649 20.1393 4.55649 19.9456V4.0546C4.55649 3.86072 4.6814 3.70313 4.83489 3.70313H19.6187C19.7722 3.70313 19.8971 3.86091 19.8971 4.0546V17.3552V19.3389V19.9456Z" fill="#1F1F1F"/>
<path d="M11.7722 6.36523H6.71901C6.59697 6.36523 6.49792 6.49016 6.49792 6.6445V7.76137C6.49792 7.91552 6.59697 8.04063 6.71901 8.04063H11.6211C11.7432 8.04063 11.9934 7.91552 11.9934 7.76137V6.6445C11.9933 6.49035 11.8942 6.36523 11.7722 6.36523ZM11.5513 7.4821H6.94009V6.92376H11.5513V7.4821Z" fill="#1F1F1F"/>
<path d="M17.7344 6.36523H12.9835C12.8613 6.36523 12.7625 6.49016 12.7625 6.6445V7.76137C12.7625 7.91552 12.8613 8.04063 12.9835 8.04063H17.7344C17.8565 8.04063 17.9554 7.91552 17.9554 7.76137V6.6445C17.9554 6.49035 17.8565 6.36523 17.7344 6.36523ZM17.5134 7.4821H13.2046V6.92376H17.5134V7.4821Z" fill="#1F1F1F"/>
<path d="M17.7344 8.84985H6.71901C6.59697 8.84985 6.49792 8.97497 6.49792 9.12912V10.246C6.49792 10.4003 6.59697 10.5253 6.71901 10.5253H17.7344C17.8564 10.5253 17.9553 10.4003 17.9553 10.246V9.12912C17.9553 8.97497 17.8564 8.84985 17.7344 8.84985ZM17.5133 9.96672H6.94009V9.40819H17.5133V9.96672Z" fill="#1F1F1F"/>
<path d="M10.9295 16.4226H6.71901C6.59697 16.4226 6.49792 16.5475 6.49792 16.7019V18.0098C6.49792 18.1643 6.59697 18.2892 6.71901 18.2892H10.9295C11.0515 18.2892 11.1504 18.1643 11.1504 18.0098V16.7019C11.1504 16.5477 11.0515 16.4226 10.9295 16.4226ZM10.7084 17.7307H6.94009V16.9811H10.7084V17.7307Z" fill="#1F1F1F"/>
<path d="M17.7344 11.3818H6.71901C6.59697 11.3818 6.49792 11.5068 6.49792 11.6611V15.0119C6.49792 15.1661 6.59697 15.2912 6.71901 15.2912H17.7344C17.8564 15.2912 17.9553 15.1661 17.9553 15.0119V11.6611C17.9553 11.5068 17.8564 11.3818 17.7344 11.3818ZM17.5133 14.7328H6.94009V11.9404H17.5133V14.7328Z" fill="#1F1F1F"/>
</svg>
