<svg width="25" height="24" viewBox="0 0 25 24" fill="none" xmlns="http://www.w3.org/2000/svg">
<path d="M12.1665 5.39481V3.16474M16.3934 6.58915L18.0513 5.09763M9.86426 2.6062H14.4688M12.0537 13.4549H16.7744M20.1718 13.3883C20.1718 17.8095 16.5877 21.3936 12.1664 21.3936C7.74523 21.3936 4.16113 17.8095 4.16113 13.3883C4.16113 8.9671 7.74523 5.383 12.1664 5.383C16.5877 5.383 20.1718 8.9671 20.1718 13.3883ZM12.4935 13.3883C12.4935 13.2078 12.3472 13.0615 12.1667 13.0615C11.9862 13.0615 11.8398 13.2078 11.8398 13.3883C11.8398 13.5688 11.9862 13.7151 12.1667 13.7151C12.3472 13.7151 12.4935 13.5688 12.4935 13.3883Z" stroke="#1F1F1F" stroke-linecap="round" stroke-linejoin="round"/>
</svg>
