<svg width="24" height="24" viewBox="0 0 24 24" fill="none" xmlns="http://www.w3.org/2000/svg">
<path d="M9.00012 9C9.50012 8 10.5002 7 12.0002 7C13.5003 7 15.0002 8.5 15.0002 10C15.0002 11.4553 14.0589 12.4399 13.0844 12.8686C13.0249 12.8948 12.962 12.9116 12.8993 12.9285C12.4002 13.0627 12.0002 13.4804 12.0002 14M12.0002 17H12.0102M21.0002 12C21.0002 16.9706 16.9707 21 12.0002 21C10.5125 21 9.10916 20.6391 7.87292 20C7.19362 19.6488 3.56472 21.5054 3.00006 21C2.43684 20.4959 4.93754 17.6302 4.51567 17C3.55839 15.5699 3.00012 13.8501 3.00012 12C3.00012 7.02944 7.02956 3 12.0002 3C16.9707 3 21.0002 7.02944 21.0002 12Z" stroke="#1F1F1F" stroke-linecap="round" stroke-linejoin="round"/>
</svg>
