<svg width="24" height="24" viewBox="0 0 24 24" fill="none" xmlns="http://www.w3.org/2000/svg">
<path d="M4 5H8.8C9.64869 5 10.4626 5.33714 11.0627 5.93726C11.6629 6.53737 12 7.35131 12 8.2V19.4C12 18.7635 11.7471 18.153 11.2971 17.7029C10.847 17.2529 10.2365 17 9.6 17H4V5Z" stroke="#1F1F1F" stroke-linecap="round" stroke-linejoin="round"/>
<path d="M20 5H15.2C14.3513 5 13.5374 5.33714 12.9373 5.93726C12.3371 6.53737 12 7.35131 12 8.2V19.4C12 18.7635 12.2529 18.153 12.7029 17.7029C13.153 17.2529 13.7635 17 14.4 17H20V5Z" stroke="#1F1F1F" stroke-linecap="round" stroke-linejoin="round"/>
</svg>
