<svg width="26" height="24" viewBox="0 0 26 24" fill="none" xmlns="http://www.w3.org/2000/svg">
<mask id="mask0_635_2" style="mask-type:luminance" maskUnits="userSpaceOnUse" x="5" y="4" width="16" height="16">
<path d="M21 4H5V19.2381H21V4Z" fill="white"/>
</mask>
<g mask="url(#mask0_635_2)">
<path d="M7.078 6.11239C7.078 5.902 7.20593 5.73145 7.36374 5.73145H13.65C13.8078 5.73145 13.9357 5.902 13.9357 6.11239C13.9357 6.32279 13.8078 6.49334 13.65 6.49334H7.36374C7.20593 6.49334 7.078 6.32279 7.078 6.11239Z" fill="#1F1F1F"/>
<path fill-rule="evenodd" clip-rule="evenodd" d="M5 5.03896C5 4.46514 5.46514 4 6.03896 4H19.8918C20.4656 4 20.9307 4.46514 20.9307 5.03896V7.11688C20.9307 7.6907 20.4656 8.15585 19.8918 8.15585H6.03896C5.46514 8.15585 5 7.6907 5 7.11688V5.03896ZM5.69264 5.03896C5.69264 4.84769 5.84769 4.69264 6.03896 4.69264H19.1991C19.3904 4.69264 19.5454 4.84769 19.5454 5.03896V7.11688C19.5454 7.30815 19.3904 7.4632 19.1991 7.4632H6.03896C5.84769 7.4632 5.69264 7.30815 5.69264 7.11688V5.03896Z" fill="#1F1F1F"/>
<path d="M7.078 11.6537C7.078 11.4433 7.24856 11.2727 7.45896 11.2727H13.5542C13.7646 11.2727 13.9351 11.4433 13.9351 11.6537C13.9351 11.8641 13.7646 12.0346 13.5542 12.0346H7.45896C7.24856 12.0346 7.078 11.8641 7.078 11.6537Z" fill="#1F1F1F"/>
<path fill-rule="evenodd" clip-rule="evenodd" d="M5 10.58C5 10.0062 5.46514 9.54102 6.03896 9.54102H19.8918C20.4656 9.54102 20.9307 10.0062 20.9307 10.58V12.6579C20.9307 13.2317 20.4656 13.6969 19.8918 13.6969H6.03896C5.46514 13.6969 5 13.2317 5 12.6579V10.58ZM6.03896 13.0042H19.1991C19.3904 13.0042 19.5454 12.8492 19.5454 12.6579V10.58C19.5454 10.3887 19.3904 10.2337 19.1991 10.2337H6.03896C5.84769 10.2337 5.69264 10.3887 5.69264 10.58V12.6579C5.69264 12.8492 5.84769 13.0042 6.03896 13.0042Z" fill="#1F1F1F"/>
<path fill-rule="evenodd" clip-rule="evenodd" d="M5 16.1212C5 15.5474 5.46514 15.0823 6.03896 15.0823H19.8918C20.4656 15.0823 20.9307 15.5474 20.9307 16.1212V18.1992C20.9307 18.773 20.4656 19.2381 19.8918 19.2381H6.03896C5.46514 19.2381 5 18.773 5 18.1992V16.1212ZM9.50217 17.1602C9.50217 16.9689 9.65722 16.8139 9.84848 16.8139H16.0822C17.1905 16.8139 16.4286 16.9689 16.4286 17.1602C16.4286 17.3515 16.2735 17.5065 16.0822 17.5065H9.84848C9.65722 17.5065 9.50217 17.3515 9.50217 17.1602Z" fill="#1F1F1F"/>
</g>
</svg>
