<svg width="24" height="24" viewBox="0 0 24 24" fill="none" xmlns="http://www.w3.org/2000/svg">
<path d="M11.1111 5.77783H20M11.1111 12.0001H20M11.1111 18.2223H20" stroke="#1F1F1F" stroke-linecap="round"/>
<path d="M7.55556 5.77778C7.55556 6.75962 6.75962 7.55556 5.77778 7.55556C4.79594 7.55556 4 6.75962 4 5.77778C4 4.79594 4.79594 4 5.77778 4C6.75962 4 7.55556 4.79594 7.55556 5.77778Z" stroke="#1F1F1F" stroke-linecap="round"/>
<path d="M7.55556 11.9999C7.55556 12.9818 6.75962 13.7777 5.77778 13.7777C4.79594 13.7777 4 12.9818 4 11.9999C4 11.0181 4.79594 10.2222 5.77778 10.2222C6.75962 10.2222 7.55556 11.0181 7.55556 11.9999Z" stroke="#1F1F1F" stroke-linecap="round"/>
<path d="M7.55556 18.2221C7.55556 19.204 6.75962 19.9999 5.77778 19.9999C4.79594 19.9999 4 19.204 4 18.2221C4 17.2402 4.79594 16.4443 5.77778 16.4443C6.75962 16.4443 7.55556 17.2402 7.55556 18.2221Z" stroke="#1F1F1F" stroke-linecap="round"/>
</svg>
