<svg width="23" height="24" viewBox="0 0 23 24" fill="none" xmlns="http://www.w3.org/2000/svg">
<path d="M9.18193 11.7332C9.7395 11.7332 10.1759 11.2969 10.1759 10.7393C10.1759 10.1817 9.7395 9.74536 9.18193 9.74536C8.62435 9.74536 8.18799 10.1817 8.18799 10.7393C8.18799 11.2726 8.62435 11.7332 9.18193 11.7332Z" fill="#1F1F1F"/>
<path d="M18.1273 14.8121C17.6424 14.3273 16.9636 14.0364 16.3091 13.9394H16.2606V6.03636C16.2606 5.47879 16.0424 4.99394 15.6545 4.60606C15.2424 4.21818 14.7576 4 14.2 4H5.03636C4.47879 4 3.99394 4.21818 3.60606 4.60606C3.21818 4.99394 3 5.47879 3 6.03636V17.3576C3 17.9152 3.21818 18.4 3.60606 18.7879C3.99394 19.1758 4.47879 19.3939 5.03636 19.3939H13.8606C14.4667 19.8788 15.1212 20.1212 15.8485 20.1212C16.6727 20.1212 17.4485 19.7818 18.0545 19.1758C18.6606 18.5697 19 17.7939 19 16.9697C19 16.1939 18.6606 15.3697 18.1273 14.8121ZM3.60606 6.03636C3.60606 5.64848 3.77576 5.30909 4.04242 5.04242C4.30909 4.77576 4.64848 4.60606 5.03636 4.60606H14.1515C14.5394 4.60606 14.8788 4.77576 15.1455 5.04242C15.4121 5.30909 15.5818 5.64848 15.5818 6.03636V13.2121L13.2061 10.8364C13.1576 10.7879 13.0364 10.7152 12.9879 10.7152C12.8667 10.7152 12.8182 10.7636 12.7697 10.8364L9.2303 14.3273L6.58788 11.9515C6.53939 11.903 6.41818 11.8303 6.3697 11.8303C6.24848 11.8303 6.2 11.8788 6.15152 11.9515L3.60606 14.5455V6.03636ZM5.03636 18.7879L4.93939 18.7394C4.6 18.7394 4.28485 18.5697 3.99394 18.303C3.70303 18.0364 3.60606 17.697 3.60606 17.3091V15.4424L6.3697 12.6303L9.01212 15.0061C9.06061 15.0545 9.13333 15.1273 9.2303 15.1273C9.35152 15.1273 9.4 15.0788 9.44849 15.0061L12.9394 11.5152L15.3152 13.8909L15.0485 14.0121C15 14.0121 14.9273 14.0606 14.8303 14.0606H14.7818C14.7333 14.0606 14.7333 14.0606 14.6606 14.1091C14.6121 14.1091 14.6121 14.1091 14.5394 14.1576L14.4909 14.2061C14.4424 14.2061 14.4424 14.2061 14.3697 14.2545L14.0303 14.4727H13.9818C13.8606 14.5939 13.7636 14.6424 13.6424 14.8121C13.0364 15.4182 12.697 16.1939 12.697 17.0182C12.697 17.2364 12.697 17.4061 12.7455 17.6727L12.7939 17.8424C12.8424 18.0121 12.9152 18.1091 12.9636 18.2788L13.0121 18.3273C13.0606 18.4485 13.1333 18.5455 13.1818 18.5939L13.303 18.7636C13.3273 18.7879 5.03636 18.7879 5.03636 18.7879ZM17.6182 18.7879C17.1818 19.2242 16.503 19.5152 15.8485 19.5152C15.1939 19.5152 14.5879 19.2485 14.1273 18.7879C14.0788 18.7879 14.0788 18.7394 14.0061 18.7394C13.9576 18.6909 13.9576 18.6909 13.8848 18.6182L13.8364 18.5697L13.7879 18.5212C13.7394 18.4727 13.6667 18.3515 13.6182 18.2545C13.6182 18.2061 13.5697 18.2061 13.5697 18.2061C13.5697 18.1576 13.5212 18.1576 13.5212 18.0848C13.4727 17.9636 13.4727 17.9152 13.4727 17.8182C13.4727 17.7697 13.4727 17.7697 13.4242 17.697C13.4242 17.6485 13.4242 17.6485 13.3758 17.5758C13.3273 17.4061 13.3273 17.2364 13.3273 17.0909C13.3273 16.4364 13.5939 15.8303 14.0545 15.3212C14.4909 14.8848 15.1697 14.5939 15.8242 14.5939C16.4788 14.5939 17.0848 14.8606 17.5939 15.3212C18.0303 15.7576 18.3212 16.4364 18.3212 17.0909C18.3455 17.6727 18.1273 18.2788 17.6182 18.7879Z" fill="#1F1F1F"/>
<path d="M16.7938 16.6788H16.1393V16.0242C16.1393 15.8545 15.9696 15.6848 15.7999 15.6848C15.6302 15.6848 15.4605 15.8545 15.4605 16.0242V16.6788H14.8059C14.6363 16.6788 14.4666 16.8485 14.4666 17.0181C14.4666 17.1878 14.6363 17.3575 14.8059 17.3575H15.4605V18.0121C15.4605 18.1818 15.6302 18.3515 15.7999 18.3515C15.9696 18.3515 16.1393 18.1818 16.1393 18.0121V17.3575H16.7938C16.9635 17.3575 17.1332 17.1878 17.1332 17.0181C17.1332 16.8485 17.012 16.6788 16.7938 16.6788Z" fill="#1F1F1F"/>
</svg>
