<svg width="24" height="24" viewBox="0 0 24 24" fill="none" xmlns="http://www.w3.org/2000/svg">
<path d="M18.2222 4H5.77778C4.79594 4 4 4.79594 4 5.77778V18.2222C4 19.2041 4.79594 20 5.77778 20H18.2222C19.2041 20 20 19.2041 20 18.2222V5.77778C20 4.79594 19.2041 4 18.2222 4Z" stroke="black" stroke-linecap="round" stroke-linejoin="round"/>
<path d="M8.889 10.2223C9.62538 10.2223 10.2223 9.62538 10.2223 8.889C10.2223 8.15262 9.62538 7.55566 8.889 7.55566C8.15262 7.55566 7.55566 8.15262 7.55566 8.889C7.55566 9.62538 8.15262 10.2223 8.889 10.2223Z" stroke="black" stroke-linecap="round" stroke-linejoin="round"/>
<path d="M20.0001 14.6666L15.5556 10.2222L5.77783 19.9999" stroke="black" stroke-linecap="round" stroke-linejoin="round"/>
</svg>
