<svg width="24" height="24" viewBox="0 0 24 24" fill="none" xmlns="http://www.w3.org/2000/svg">
<path d="M3 8.5V5C3 3.89543 3.89543 3 5 3H8.5C9.60457 3 10.5 3.89543 10.5 5V8.5M3 8.5C3 9.60457 3.89543 10.5 5 10.5H8.5C9.60457 10.5 10.5 9.60457 10.5 8.5M3 8.5L4.94679 6.87767C5.58153 6.34873 6.47618 6.26455 7.19844 6.6658L10.5 8.5M13.5 8.5V5C13.5 3.89543 14.3954 3 15.5 3H19C20.1046 3 21 3.89543 21 5V8.5M13.5 8.5C13.5 9.60457 14.3954 10.5 15.5 10.5H19C20.1046 10.5 21 9.60457 21 8.5M13.5 8.5L15.4468 6.87767C16.0815 6.34873 16.9762 6.26455 17.6984 6.6658L21 8.5M3 19V15.5C3 14.3954 3.89543 13.5 5 13.5H8.5C9.60457 13.5 10.5 14.3954 10.5 15.5V19M3 19C3 20.1046 3.89543 21 5 21H8.5C9.60457 21 10.5 20.1046 10.5 19M3 19L4.94679 17.3777C5.58153 16.8487 6.47618 16.7645 7.19844 17.1658L10.5 19M13.5 19V15.5C13.5 14.3954 14.3954 13.5 15.5 13.5H19C20.1046 13.5 21 14.3954 21 15.5V19M13.5 19C13.5 20.1046 14.3954 21 15.5 21H19C20.1046 21 21 20.1046 21 19M13.5 19L15.4468 17.3777C16.0815 16.8487 16.9762 16.7645 17.6984 17.1658L21 19" stroke="#1F1F1F"/>
</svg>
