<svg width="24" height="24" viewBox="0 0 24 24" fill="none" xmlns="http://www.w3.org/2000/svg">
<path d="M5.901 7.25275L6.19352 7.22369C6.2104 7.32213 6.24696 7.39432 6.3004 7.44026C6.35384 7.4862 6.42603 7.5087 6.51791 7.5087C6.61447 7.5087 6.6876 7.48808 6.73635 7.44682C6.7851 7.40557 6.81041 7.35776 6.81041 7.30338C6.81041 7.26776 6.8001 7.23869 6.77947 7.21338C6.75885 7.18807 6.72322 7.16744 6.67166 7.14869C6.63697 7.1365 6.55634 7.11494 6.43165 7.084C6.2704 7.04463 6.1579 6.99494 6.09319 6.93681C6.00132 6.85525 5.95632 6.75493 5.95632 6.63774C5.95632 6.5618 5.97788 6.49148 6.021 6.42492C6.06413 6.35929 6.12601 6.30866 6.20664 6.27398C6.28726 6.23929 6.38477 6.22241 6.49916 6.22241C6.68572 6.22241 6.82636 6.26366 6.92104 6.34523C7.01479 6.42773 7.06448 6.53649 7.06917 6.67337L6.76916 6.68649C6.75604 6.60961 6.72885 6.55524 6.68666 6.52149C6.64447 6.48774 6.58072 6.47086 6.49634 6.47086C6.40915 6.47086 6.34071 6.48867 6.29102 6.5243C6.25915 6.5468 6.24321 6.57774 6.24321 6.61618C6.24321 6.6518 6.25821 6.6818 6.28821 6.70618C6.32571 6.73805 6.41759 6.77087 6.56383 6.80556C6.71009 6.84024 6.8179 6.87587 6.88823 6.91243C6.95854 6.94993 7.01292 6.99962 7.05229 7.06338C7.09167 7.12713 7.11136 7.20682 7.11136 7.30057C7.11136 7.38589 7.08792 7.46558 7.04011 7.53964C6.99229 7.6137 6.92573 7.66902 6.83947 7.70558C6.75322 7.74215 6.64447 7.75996 6.51602 7.75996C6.32757 7.75996 6.1832 7.71683 6.08288 7.62964C5.98256 7.54245 5.92162 7.41589 5.90287 7.24995L5.901 7.25275ZM7.74231 7.73651L7.21074 6.2496H7.53701L7.91296 7.35025L8.27765 6.2496H8.5964L8.06387 7.73651H7.74231ZM9.44017 7.18995V6.93962H10.0871V7.53215C10.0242 7.59309 9.9333 7.64652 9.81331 7.6934C9.69424 7.73934 9.5733 7.76278 9.45049 7.76278C9.29486 7.76278 9.15893 7.72997 9.0436 7.66528C8.92829 7.59965 8.8411 7.50683 8.78298 7.38495C8.72485 7.26307 8.69579 7.13181 8.69579 6.98932C8.69579 6.83463 8.7286 6.6968 8.79329 6.57586C8.85798 6.45586 8.95361 6.36304 9.0783 6.2993C9.17393 6.24961 9.29206 6.22524 9.43457 6.22524C9.61926 6.22524 9.76364 6.26368 9.86677 6.34149C9.97084 6.41931 10.0374 6.52618 10.0674 6.66305L9.76927 6.71837C9.7477 6.64524 9.70833 6.58711 9.65114 6.54492C9.59301 6.50274 9.52176 6.48117 9.43457 6.48117C9.30331 6.48117 9.19925 6.52243 9.12143 6.60586C9.04362 6.68931 9.00518 6.81212 9.00518 6.97619C9.00518 7.15245 9.04456 7.28465 9.12331 7.37369C9.20113 7.46182 9.30425 7.50589 9.43177 7.50589C9.49458 7.50589 9.5574 7.4937 9.62115 7.46838C9.68396 7.44401 9.73834 7.41401 9.78428 7.37838V7.18994L9.44017 7.18995Z" fill="black"/>
<path d="M10.5315 13.4431L10.885 13.4122C10.9018 13.5538 10.9403 13.67 11.0012 13.761C11.0621 13.8519 11.1568 13.925 11.2853 13.9813C11.4137 14.0375 11.559 14.0647 11.7194 14.0647C11.8619 14.0647 11.9884 14.0441 12.0972 14.0019C12.2069 13.9588 12.2884 13.9016 12.3419 13.8275C12.3953 13.7535 12.4225 13.6728 12.4225 13.5847C12.4225 13.4956 12.3972 13.4188 12.3447 13.3522C12.2931 13.2856 12.2087 13.2303 12.0906 13.1853C12.0147 13.1553 11.8469 13.1094 11.5871 13.0466C11.3274 12.9838 11.1456 12.9256 11.0415 12.8703C10.9065 12.8 10.8053 12.7119 10.7396 12.6069C10.674 12.5019 10.6412 12.3847 10.6412 12.2543C10.6412 12.1118 10.6815 11.9787 10.7621 11.8549C10.8428 11.7303 10.9618 11.6365 11.1175 11.5718C11.274 11.5081 11.4465 11.4752 11.6369 11.4752C11.8469 11.4752 12.0315 11.509 12.1919 11.5765C12.3522 11.644 12.475 11.7434 12.5613 11.8746C12.6466 12.0059 12.6935 12.155 12.7 12.3209L12.3409 12.3481C12.3213 12.17 12.2556 12.034 12.145 11.9431C12.0334 11.8512 11.8694 11.8062 11.6528 11.8062C11.4259 11.8062 11.2618 11.8475 11.1578 11.9309C11.0547 12.0143 11.0022 12.1137 11.0022 12.2309C11.0022 12.3331 11.0387 12.4165 11.1118 12.4822C11.184 12.5478 11.3725 12.6153 11.6762 12.6837C11.9809 12.7531 12.1891 12.8131 12.3025 12.8637C12.4675 12.9397 12.5894 13.0362 12.6672 13.1525C12.746 13.2687 12.7844 13.4038 12.7844 13.5547C12.7844 13.7056 12.7413 13.8472 12.655 13.9803C12.5688 14.1134 12.445 14.2166 12.2838 14.2916C12.1225 14.3657 11.9406 14.4022 11.7391 14.4022C11.4831 14.4022 11.2684 14.3657 11.0959 14.2907C10.9225 14.2166 10.7875 14.1041 10.6881 13.9541C10.5897 13.805 10.5381 13.6344 10.5334 13.4459L10.5315 13.4431ZM14.1026 14.3516L13.0066 11.5231H13.4125L14.1476 13.5782C14.2066 13.7432 14.2563 13.8979 14.2957 14.0413C14.3398 13.8876 14.3904 13.7329 14.4485 13.5782L15.2126 11.5231H15.5942L14.486 14.3516H14.1016H14.1026ZM17.2546 13.2416V12.9106L18.4527 12.9088V13.9579C18.269 14.1051 18.0796 14.2147 17.8837 14.2888C17.6877 14.3629 17.4871 14.3994 17.2818 14.3994C17.0043 14.3994 16.7511 14.3404 16.5243 14.2213C16.2974 14.1032 16.1258 13.9297 16.0096 13.7057C15.8933 13.4807 15.8361 13.2285 15.8361 12.951C15.8361 12.6754 15.8942 12.4184 16.0096 12.1803C16.1239 11.9413 16.2899 11.7641 16.5064 11.6478C16.7221 11.5325 16.9715 11.4744 17.2537 11.4744C17.458 11.4744 17.6427 11.5072 17.8087 11.5737C17.9737 11.6394 18.104 11.7322 18.1968 11.8503C18.2906 11.9684 18.3618 12.1231 18.4115 12.3134L18.074 12.4063C18.0309 12.2619 17.9784 12.1484 17.9156 12.0659C17.8528 11.9834 17.7618 11.9178 17.6446 11.8681C17.5284 11.8184 17.3981 11.794 17.2555 11.794C17.084 11.794 16.9359 11.8203 16.8121 11.8728C16.6874 11.9244 16.5871 11.9937 16.5102 12.0781C16.4343 12.1634 16.3743 12.2562 16.3321 12.3584C16.2599 12.5328 16.2243 12.7231 16.2243 12.9275C16.2243 13.1797 16.2674 13.3907 16.3546 13.5604C16.4418 13.73 16.5683 13.8557 16.7343 13.9382C16.9002 14.0207 17.0765 14.0619 17.2621 14.0619C17.4252 14.0619 17.5827 14.03 17.7374 13.9682C17.8921 13.9063 18.0084 13.8397 18.088 13.7685V13.2416L17.2546 13.2416Z" fill="black"/>
<path d="M10.0559 16.5024C9.95279 16.5024 9.86841 16.5868 9.86841 16.6899C9.86841 16.7931 9.95279 16.8775 10.0559 16.8775H18.7497C18.8528 16.8775 18.9372 16.7931 18.9372 16.6899C18.9372 16.5868 18.8528 16.5024 18.7497 16.5024H10.0559Z" fill="black"/>
<path d="M10.0559 17.8213C9.95279 17.8213 9.86841 17.9057 9.86841 18.0088C9.86841 18.1119 9.95279 18.1963 10.0559 18.1963H18.7497C18.8528 18.1963 18.9372 18.1119 18.9372 18.0088C18.9372 17.9057 18.8528 17.8213 18.7497 17.8213H10.0559Z" fill="black"/>
<path d="M10.0559 19.1404C9.95279 19.1404 9.86841 19.2248 9.86841 19.3279C9.86841 19.431 9.95279 19.5154 10.0559 19.5154H18.7497C18.8528 19.5154 18.9372 19.431 18.9372 19.3279C18.9372 19.2248 18.8528 19.1404 18.7497 19.1404H10.0559Z" fill="black"/>
<path d="M7.99366 3H18.5175C18.5812 3 18.6384 3.03188 18.6722 3.08156L20.9551 5.76388C20.9869 5.80138 20.9972 5.83795 21.0001 5.8867V20.8139C21.0001 20.9171 20.9157 21.0014 20.8126 21.0014H7.99378C7.89065 21.0014 7.80627 20.9171 7.80627 20.8139V8.62326H8.18129V20.6265H20.6252V5.95318L18.4323 3.37599H8.18136V5.39166H7.80635V3.18847C7.80635 3.08534 7.89072 3.00096 7.99385 3.00096L7.99366 3Z" fill="black"/>
<path d="M20.7653 6.07234C20.8684 6.07234 20.9528 5.98797 20.9528 5.88484C20.9528 5.78171 20.8684 5.69733 20.7653 5.69733H18.7046V3.23438C18.7046 3.13125 18.6202 3.04688 18.5171 3.04688C18.414 3.04688 18.3296 3.13125 18.3296 3.23438V5.88478C18.3296 5.98791 18.414 6.07228 18.5171 6.07228L20.7653 6.07234Z" fill="black"/>
<path d="M4.78904 5.20337H12.4251C12.7354 5.20337 12.9886 5.4565 12.9886 5.76683V8.22042C12.9886 8.53075 12.7354 8.78389 12.4251 8.78389H4.78904C4.29683 8.78389 3.84869 8.58232 3.52526 8.25794C2.82491 7.5576 2.82491 6.43069 3.52526 5.72946C3.84965 5.40507 4.29683 5.20337 4.78904 5.20337ZM12.4251 5.57838H4.78904C4.39996 5.57838 4.0465 5.73776 3.78962 5.99371C3.23554 6.54779 3.23554 7.4375 3.78962 7.99158C4.0465 8.24846 4.39996 8.40691 4.78904 8.40691H12.4251C12.5282 8.40691 12.6135 8.32159 12.6135 8.21847V5.76488C12.6135 5.66175 12.5282 5.57643 12.4251 5.57643V5.57838Z" fill="black"/>
</svg>
