<svg width="24" height="24" viewBox="0 0 24 24" fill="none" xmlns="http://www.w3.org/2000/svg">
<path d="M4 3V6M4 6C2.89543 6 2 6.89543 2 8C2 9.10457 2.89543 10 4 10M4 6C5.10457 6 6 6.89543 6 8C6 9.10457 5.10457 10 4 10M4 10V14M4 14C2.89543 14 2 14.8954 2 16C2 17.1046 2.89543 18 4 18M4 14C5.10457 14 6 14.8954 6 16C6 17.1046 5.10457 18 4 18M4 18V21M11 18H19C20.1046 18 21 17.1046 21 16C21 14.8954 20.1046 14 19 14H11C9.89543 14 9 14.8954 9 16C9 17.1046 9.89543 18 11 18ZM11 10H19C20.1046 10 21 9.10457 21 8C21 6.89543 20.1046 6 19 6H11C9.89543 6 9 6.89543 9 8C9 9.10457 9.89543 10 11 10Z" stroke="#1F1F1F" stroke-linecap="round"/>
</svg>
