<svg width="24" height="24" viewBox="0 0 24 24" fill="none" xmlns="http://www.w3.org/2000/svg">
<path d="M11 5H21M11 12H21M11 19H21" stroke="#1F1F1F" stroke-width="1.4" stroke-linecap="round"/>
<path d="M7 5C7 6.10457 6.10457 7 5 7C3.89543 7 3 6.10457 3 5C3 3.89543 3.89543 3 5 3C6.10457 3 7 3.89543 7 5Z" stroke="#1F1F1F" stroke-width="1.4" stroke-linecap="round"/>
<path d="M7 12C7 13.1046 6.10457 14 5 14C3.89543 14 3 13.1046 3 12C3 10.8954 3.89543 10 5 10C6.10457 10 7 10.8954 7 12Z" stroke="#1F1F1F" stroke-width="1.4" stroke-linecap="round"/>
<path d="M7 19C7 20.1046 6.10457 21 5 21C3.89543 21 3 20.1046 3 19C3 17.8954 3.89543 17 5 17C6.10457 17 7 17.8954 7 19Z" stroke="#1F1F1F" stroke-width="1.4" stroke-linecap="round"/>
</svg>
