<svg width="24" height="24" viewBox="0 0 24 24" fill="none" xmlns="http://www.w3.org/2000/svg">
<path d="M17.7472 5.05554C17.5824 4.84998 17.3481 4.68976 17.074 4.59515C16.8912 4.53203 16.696 4.5 16.5 4.5M16.5 4.5C16.4022 4.5 16.3042 4.50797 16.2074 4.52402C15.9164 4.57225 15.6491 4.6913 15.4393 4.86612C15.2296 5.04093 15.0867 5.26366 15.0288 5.50614C14.9709 5.74861 15.0006 5.99995 15.1142 6.22835C15.2277 6.45676 15.42 6.65199 15.6666 6.78934C15.9133 6.92669 16.2033 7 16.5 7C16.7967 7 17.0867 7.07331 17.3334 7.21066C17.58 7.34802 17.7723 7.54324 17.8858 7.77165C17.9994 8.00005 18.0291 8.25139 17.9712 8.49386C17.9133 8.73634 17.7704 8.95907 17.5607 9.13388C17.3509 9.3087 17.0836 9.42775 16.7926 9.47598C16.6958 9.49203 16.5978 9.5 16.5 9.5M16.5 4.5V4M16.5 9.5C16.304 9.5 16.1088 9.46797 15.926 9.40485C15.6519 9.31024 15.4176 9.15003 15.2528 8.94446M16.5 9.5V10" stroke="#1F1F1F" stroke-linecap="round"/>
<path d="M17.7472 15.0555C17.5824 14.85 17.3481 14.6898 17.074 14.5952C16.8912 14.532 16.696 14.5 16.5 14.5M16.5 14.5C16.4022 14.5 16.3042 14.508 16.2074 14.524C15.9164 14.5723 15.6491 14.6913 15.4393 14.8661C15.2296 15.0409 15.0867 15.2637 15.0288 15.5061C14.9709 15.7486 15.0006 15.9999 15.1142 16.2284C15.2277 16.4568 15.42 16.652 15.6666 16.7893C15.9133 16.9267 16.2033 17 16.5 17C16.7967 17 17.0867 17.0733 17.3334 17.2107C17.58 17.348 17.7723 17.5432 17.8858 17.7716C17.9994 18.0001 18.0291 18.2514 17.9712 18.4939C17.9133 18.7363 17.7704 18.9591 17.5607 19.1339C17.3509 19.3087 17.0836 19.4278 16.7926 19.476C16.6958 19.492 16.5978 19.5 16.5 19.5M16.5 14.5V14M16.5 19.5C16.304 19.5 16.1088 19.468 15.926 19.4049C15.6519 19.3102 15.4176 19.15 15.2528 18.9445M16.5 19.5V20" stroke="#1F1F1F" stroke-linecap="round"/>
<path d="M6 5H12M6 15H12M6 8H9M6 18H9" stroke="#1F1F1F" stroke-linecap="round"/>
<path d="M3 3C3 1.89543 3.89543 1 5 1H19C20.1046 1 21 1.89543 21 3V21C21 22.1046 20.1046 23 19 23H5C3.89543 23 3 22.1046 3 21V3Z" stroke="#1F1F1F" stroke-linecap="round"/>
</svg>
