<svg width="24" height="24" viewBox="0 0 24 24" fill="none" xmlns="http://www.w3.org/2000/svg">
<path d="M9.06787 18.2733H15.9236V5.71436H9.06787V18.2733ZM9.53744 6.27336H15.454V17.7143H9.53744V6.27336Z" fill="#1F1F1F"/>
<path d="M18.6157 11.2672C18.5531 11.1926 18.5218 11.1182 18.5218 11.0063H18.0522C18.0522 11.2672 18.1461 11.4908 18.3027 11.6771C18.3965 11.7889 18.5218 11.8635 18.6783 11.9007V12.3479H19.1479V11.9007C19.2731 11.8635 19.3983 11.7889 19.5235 11.6771C19.68 11.4908 19.7739 11.2672 19.7739 11.0063C19.7739 10.7454 19.68 10.5218 19.5235 10.3355C19.367 10.1864 19.1479 10.0746 18.9287 10.0746C18.8035 10.0746 18.7096 10.0374 18.647 9.96283C18.5844 9.8883 18.5531 9.81377 18.5531 9.70196C18.5531 9.62743 18.5844 9.51563 18.647 9.4411C18.8035 9.29203 19.0852 9.29203 19.2105 9.4411C19.2731 9.51563 19.3044 9.59016 19.3044 9.70196H19.7739C19.7739 9.4411 19.68 9.2175 19.5235 9.03116C19.4296 8.91936 19.3044 8.84483 19.1479 8.80755V8.36035H18.6783V8.80755C18.5531 8.84483 18.4278 8.91936 18.3027 9.03116C18.1461 9.2175 18.0522 9.4411 18.0522 9.70196C18.0522 9.96283 18.1461 10.1864 18.3027 10.3727C18.4592 10.5218 18.6783 10.6336 18.8975 10.6336C19.0226 10.6336 19.1166 10.6709 19.1791 10.7454C19.2418 10.8199 19.2731 10.8945 19.2731 11.0063C19.2731 11.0808 19.2418 11.1926 19.1791 11.2672C19.054 11.4163 18.7722 11.4163 18.6157 11.2672Z" fill="#1F1F1F"/>
<path d="M16.6748 17.0435H21.12V6.98145H16.6748V17.0435ZM17.1444 7.54045H20.6504V16.4845H17.1444V7.54045Z" fill="#1F1F1F"/>
<path d="M19.9931 14.9194H17.8018V15.4784H19.9931V14.9194Z" fill="#1F1F1F"/>
<path d="M19.9931 13.5779H17.8018V14.1369H19.9931V13.5779Z" fill="#1F1F1F"/>
<path d="M5.74964 11.2672C5.68703 11.1926 5.65572 11.1182 5.65572 11.0063H5.18616C5.18616 11.2672 5.28008 11.4908 5.43659 11.6771C5.53051 11.7889 5.65572 11.8635 5.81225 11.9007V12.3479H6.28182V11.9007C6.40703 11.8635 6.53225 11.7889 6.65746 11.6771C6.81399 11.4908 6.9079 11.2672 6.9079 11.0063C6.9079 10.7454 6.81399 10.5218 6.65746 10.3355C6.50095 10.1864 6.28182 10.0746 6.06268 10.0746C5.96877 10.0746 5.84355 10.0374 5.78095 9.96283C5.71834 9.8883 5.68703 9.81377 5.68703 9.70196C5.68703 9.62743 5.71834 9.51563 5.78095 9.4411C5.93746 9.29203 6.2192 9.29203 6.34442 9.4411C6.40703 9.51563 6.43833 9.59016 6.43833 9.70196H6.9079C6.9079 9.4411 6.81399 9.2175 6.65746 9.03116C6.56355 8.91936 6.43833 8.84483 6.28182 8.80755V8.36035H5.81225V8.80755C5.68703 8.84483 5.56181 8.91936 5.43659 9.03116C5.28008 9.2175 5.18616 9.4411 5.18616 9.70196C5.18616 9.96283 5.28008 10.1864 5.43659 10.3727C5.59312 10.5218 5.81225 10.6336 6.03138 10.6336C6.15659 10.6336 6.25051 10.6709 6.31312 10.7454C6.37573 10.8199 6.40703 10.8945 6.40703 11.0063C6.40703 11.0808 6.37573 11.1926 6.31312 11.2672C6.1879 11.4163 5.90616 11.4163 5.74964 11.2672Z" fill="#1F1F1F"/>
<path d="M3.83997 17.0435H8.28519V6.98145H3.83997V17.0435ZM4.30953 7.54045H7.81562V16.4845H4.30953V7.54045Z" fill="#1F1F1F"/>
<path d="M7.15823 14.9194H4.96692V15.4784H7.15823V14.9194Z" fill="#1F1F1F"/>
<path d="M7.15823 13.5779H4.96692V14.1369H7.15823V13.5779Z" fill="#1F1F1F"/>
<path d="M11.8225 11.9755C11.666 11.8265 11.6033 11.6401 11.6033 11.4538H11.1338C11.1338 11.8265 11.259 12.1619 11.5094 12.4227C11.6972 12.609 11.9164 12.7209 12.1668 12.7954V13.6525H12.6363V12.7954C12.8868 12.7581 13.106 12.609 13.2938 12.4227C13.5442 12.1619 13.6694 11.8265 13.6694 11.4538C13.6694 11.0811 13.5442 10.7457 13.2938 10.4848C13.0433 10.2239 12.7303 10.1122 12.4172 10.1122C12.1981 10.1122 12.0103 10.0376 11.8537 9.88856C11.6972 9.73948 11.6346 9.55314 11.6346 9.36681C11.6346 9.18047 11.7285 8.99414 11.8537 8.84507C12.1668 8.54693 12.699 8.54693 13.012 8.84507C13.1685 8.99414 13.2311 9.18047 13.2311 9.36681H13.7007C13.7007 8.99414 13.5755 8.65874 13.325 8.39787C13.1372 8.21153 12.9181 8.09973 12.6677 8.06247V7.20532H12.1981V8.06247C11.9476 8.09973 11.7285 8.21153 11.5407 8.39787C11.2903 8.65874 11.1651 8.99414 11.1651 9.36681C11.1651 9.73948 11.2903 10.0748 11.5407 10.3357C11.7911 10.5966 12.1042 10.7084 12.4172 10.7084C12.6363 10.7084 12.8555 10.7829 12.9807 10.932C13.1372 11.0811 13.1999 11.2675 13.1999 11.4538C13.1999 11.6401 13.106 11.8265 12.9807 11.9755C12.6677 12.2737 12.1042 12.2737 11.8225 11.9755Z" fill="#1F1F1F"/>
<path d="M14.4835 16.2612H10.2887V16.8202H14.4835V16.2612Z" fill="#1F1F1F"/>
<path d="M14.4835 14.9194H10.2887V15.4784H14.4835V14.9194Z" fill="#1F1F1F"/>
</svg>
