<svg width="24" height="24" viewBox="0 0 24 24" fill="none" xmlns="http://www.w3.org/2000/svg">
<path d="M9 12C9 13.1046 8.10457 14 7 14C5.89543 14 5 13.1046 5 12C5 10.8954 5.89543 10 7 10C8.10457 10 9 10.8954 9 12Z" stroke="#1F1F1F" stroke-width="1.4"/>
<path d="M19 6C19 7.10457 18.1046 8 17 8C15.8954 8 15 7.10457 15 6C15 4.89543 15.8954 4 17 4C18.1046 4 19 4.89543 19 6Z" stroke="#1F1F1F" stroke-width="1.4"/>
<path d="M19 18C19 19.1046 18.1046 20 17 20C15.8954 20 15 19.1046 15 18C15 16.8954 15.8954 16 17 16C18.1046 16 19 16.8954 19 18Z" stroke="#1F1F1F" stroke-width="1.4"/>
<path d="M9 10.5L15 7M9 13.5L15 17" stroke="#1F1F1F" stroke-width="1.4"/>
</svg>
