<svg width="24" height="24" viewBox="0 0 24 24" fill="none" xmlns="http://www.w3.org/2000/svg">
<path d="M11.103 7.81696C11.4698 7.07371 12.5297 7.07371 12.8965 7.81696L13.8243 9.69697C13.97 9.99211 14.2516 10.1967 14.5773 10.244L16.652 10.5455C17.4722 10.6647 17.7997 11.6726 17.2062 12.2512L15.7049 13.7146C15.4692 13.9443 15.3617 14.2753 15.4173 14.5997L15.7717 16.666C15.9118 17.4829 15.0544 18.1059 14.3208 17.7202L12.4651 16.7446C12.1738 16.5915 11.8257 16.5915 11.5344 16.7446L9.67874 17.7202C8.94511 18.1059 8.08768 17.4829 8.22779 16.666L8.58219 14.5997C8.63783 14.2753 8.53028 13.9443 8.29459 13.7146L6.79332 12.2512C6.1998 11.6726 6.52731 10.6647 7.34753 10.5455L9.42225 10.244C9.74796 10.1967 10.0295 9.99211 10.1752 9.69697L11.103 7.81696Z" stroke="#1F1F1F"/>
<path d="M18.4424 14.106L20.1846 14.8943C21.0283 15.2761 21.9613 14.5667 21.7842 13.6782L21.6155 12.8313C21.5377 12.4411 21.6806 12.0403 21.99 11.7808L22.6034 11.2662C23.3499 10.6399 22.9822 9.44941 22.0043 9.32712L20.8958 9.18848C20.5373 9.14365 20.2219 8.93603 20.0458 8.62895L19.4377 7.56859C19.003 6.81047 17.8817 6.81047 17.447 7.56859L16.559 9.11719M5.55765 14.106L3.8154 14.8943C2.97172 15.2761 2.0387 14.5667 2.21577 13.6782L2.38454 12.8313C2.46229 12.4411 2.3194 12.0403 2.01002 11.7808L1.39664 11.2662C0.650071 10.6399 1.01784 9.44941 1.99569 9.32712L3.1042 9.18848C3.46273 9.14365 3.77814 8.93603 3.95423 8.62895L4.56227 7.56859C4.997 6.81047 6.11829 6.81047 6.55302 7.56859L7.44104 9.11719" stroke="#1F1F1F" stroke-linecap="round"/>
</svg>
