<svg width="24" height="24" viewBox="0 0 24 24" fill="none" xmlns="http://www.w3.org/2000/svg">
<path d="M22.4032 5.6001H11.2032H1.5968C0.7164 5.6001 0 6.3165 0 7.1969V16.8033C0 17.6837 0.7164 18.4001 1.5968 18.4001H11.2032H22.4032C23.2836 18.4001 24 17.6837 24 16.8033V7.1969C24 6.3165 23.2836 5.6001 22.4032 5.6001ZM1.5968 17.6001C1.1576 17.6001 0.8 17.2425 0.8 16.8033V7.1969C0.8 6.7577 1.1576 6.4001 1.5968 6.4001H11.2032C11.6424 6.4001 12 6.7577 12 7.1969V16.8033C12 17.2425 11.6424 17.6001 11.2032 17.6001H1.5968ZM23.2 16.8033C23.2 17.2425 22.8424 17.6001 22.4032 17.6001H12.5788C12.7156 17.3645 12.8 17.0949 12.8 16.8033V7.1969C12.8 6.9053 12.7156 6.6357 12.5788 6.4001H22.4032C22.8424 6.4001 23.2 6.7577 23.2 7.1969V16.8033Z" fill="#1F1F1F"/>
<path d="M5.20005 10.3999C4.97925 10.3999 4.80005 10.5787 4.80005 10.7999V13.1999C4.80005 13.4211 4.97925 13.5999 5.20005 13.5999C5.42085 13.5999 5.60005 13.4211 5.60005 13.1999V10.7999C5.60005 10.5787 5.42085 10.3999 5.20005 10.3999Z" fill="#1F1F1F"/>
<path d="M6.4 10.3999C6.1792 10.3999 6 10.5787 6 10.7999V13.1999C6 13.4211 6.1792 13.5999 6.4 13.5999C6.6208 13.5999 6.8 13.4211 6.8 13.1999V10.7999C6.8 10.5787 6.6208 10.3999 6.4 10.3999Z" fill="#1F1F1F"/>
<path d="M7.59995 10.3999C7.37915 10.3999 7.19995 10.5787 7.19995 10.7999V13.1999C7.19995 13.4211 7.37915 13.5999 7.59995 13.5999C7.82075 13.5999 7.99995 13.4211 7.99995 13.1999V10.7999C7.99995 10.5787 7.82075 10.3999 7.59995 10.3999Z" fill="#1F1F1F"/>
</svg>
