<svg width="24" height="24" viewBox="0 0 24 24" fill="none" xmlns="http://www.w3.org/2000/svg">
<path d="M20.2034 2.19979L2.7642 9.45802C2.7642 9.45802 1.9397 9.75773 2.00352 10.3105C2.06906 10.8642 2.74187 11.1176 2.74187 11.1176L7.12994 12.6841C7.12994 12.6841 8.45444 17.2919 8.71511 18.1687C8.97579 19.043 9.18492 19.0636 9.18492 19.0636C9.42768 19.1755 9.64835 18.9973 9.64835 18.9973L12.4834 16.2558L16.9019 19.8498C18.0971 20.4028 18.532 19.2506 18.532 19.2506L21.6369 2.63843C21.6369 1.5319 20.2034 2.19979 20.2034 2.19979ZM17.116 17.9146L12.3889 14.0707L10.922 15.4887L11.2446 12.4718L17.5455 6.5L8.95665 11.5991L5.14687 10.2393L19.6823 4.18924L17.116 17.9146Z" fill="#1F1F1F"/>
</svg>
