<svg width="24" height="24" viewBox="0 0 24 24" fill="none" xmlns="http://www.w3.org/2000/svg">
<path d="M15.5 9.42857C15.5 10.2175 14.903 10.8571 14.1667 10.8571C13.4303 10.8571 12.8333 10.2175 12.8333 9.42857C12.8333 8.63959 13.4303 8 14.1667 8C14.903 8 15.5 8.63959 15.5 9.42857ZM15.5 9.42857C15.5 9.42857 15.5 11.5714 13.5 13M11.1667 9.42857C11.1667 10.2175 10.5697 10.8571 9.83333 10.8571C9.09695 10.8571 8.5 10.2175 8.5 9.42857C8.5 8.63959 9.09695 8 9.83333 8C10.5697 8 11.1667 8.63959 11.1667 9.42857ZM11.1667 9.42857C11.1667 9.42857 11.1667 11.5714 9.16667 13M12 21L14.4142 18.5858C14.7893 18.2107 15.298 18 15.8284 18H19C20.1046 18 21 17.1046 21 16V5C21 3.89543 20.1046 3 19 3H5C3.89543 3 3 3.89543 3 5V16C3 17.1046 3.89543 18 5 18H8.17157C8.70201 18 9.21071 18.2107 9.58579 18.5858L12 21Z" stroke="#1F1F1F" stroke-linecap="round" stroke-linejoin="round"/>
</svg>
