<svg width="24" height="24" viewBox="0 0 24 24" fill="none" xmlns="http://www.w3.org/2000/svg">
<path d="M12.0001 3V7M12.0001 7H15.0001M12.0001 7V12M12.0001 21V17M12.0001 17V12M12.0001 17H15.0001M15.0001 7C15.0001 8.10457 15.8954 9 17 9H19C20.1046 9 21 8.10457 21 7C21 5.89543 20.1046 5 19 5H17C15.8954 5 15.0001 5.89543 15.0001 7ZM12.0001 12H9M9 12C9 13.1046 8.10457 14 7 14H5C3.89543 14 3 13.1046 3 12C3 10.8954 3.89543 10 5 10H7C8.10457 10 9 10.8954 9 12ZM15.0001 17C15.0001 18.1046 15.8954 19 17 19H19C20.1046 19 21 18.1046 21 17C21 15.8954 20.1046 15 19 15H17C15.8954 15 15.0001 15.8954 15.0001 17Z" stroke="#1F1F1F" stroke-linecap="round"/>
</svg>
