<svg width="24" height="24" viewBox="0 0 24 24" fill="none" xmlns="http://www.w3.org/2000/svg">
<path d="M21 5.00823C20.2165 5.56089 19.349 5.98359 18.4309 6.26005C17.9382 5.69346 17.2833 5.29188 16.5548 5.10962C15.8264 4.92736 15.0596 4.97321 14.3581 5.24096C13.6565 5.50872 13.0542 5.98546 12.6324 6.60672C12.2107 7.22798 11.9899 7.96378 12 8.71459V9.53277C10.5622 9.57006 9.13741 9.25117 7.85264 8.6045C6.56788 7.95784 5.46299 7.00347 4.63636 5.82641C4.63636 5.82641 1.36364 13.19 8.72727 16.4628C7.04225 17.6066 5.03495 18.1801 3 18.0991C10.3636 22.19 19.3636 18.0991 19.3636 8.69005C19.3629 8.46214 19.341 8.2348 19.2982 8.01095C20.1332 7.18745 20.7225 6.14772 21 5.00823Z" stroke="#1F1F1F" stroke-linecap="round" stroke-linejoin="round"/>
</svg>
