<svg width="40" height="23" viewBox="0 0 40 23" fill="none" xmlns="http://www.w3.org/2000/svg">
<g clip-path="url(#clip0_263_1918)">
<path d="M4.27007 1.75998C4.33123 1.75626 4.39246 1.76597 4.44947 1.78843C4.50647 1.81089 4.55788 1.84555 4.60007 1.88998C4.7187 1.96283 4.81736 2.06403 4.88718 2.18447C4.95701 2.30492 4.9958 2.44082 5.00007 2.57998V16.24C5.03639 16.2985 5.05563 16.3661 5.05563 16.435C5.05563 16.5039 5.03639 16.5714 5.00007 16.63C4.88909 16.7525 4.75699 16.8541 4.61007 16.93L4.28007 17.1L4.00007 16.73L0.50007 15.05C0.392766 15.0268 0.292082 14.9796 0.205513 14.9121C0.118944 14.8446 0.0487206 14.7584 7.04192e-05 14.66C-0.0292237 14.5445 -0.0290069 14.4236 0.000700634 14.3082C0.0304082 14.1929 0.088652 14.0869 0.17007 14C0.194555 13.8919 0.242073 13.7904 0.30938 13.7024C0.376687 13.6144 0.462197 13.5419 0.56007 13.49C0.67015 13.4602 0.785782 13.4574 0.897183 13.4817C1.00858 13.5061 1.11248 13.557 1.20007 13.63L3.41007 14.63V3.93998L1.20007 4.99998C1.12862 5.07884 1.03509 5.13437 0.931642 5.15934C0.828196 5.18431 0.719628 5.17757 0.62007 5.13998C0.512192 5.10469 0.414684 5.04333 0.336189 4.96135C0.257694 4.87937 0.200635 4.77928 0.17007 4.66998C0.0735893 4.59132 0.00497125 4.48372 -0.0256424 4.36307C-0.0562561 4.24241 -0.047241 4.11511 7.04192e-05 3.99998C0.0454572 3.89924 0.114707 3.81108 0.201828 3.74313C0.288948 3.67517 0.391315 3.62947 0.50007 3.60998L4.00007 1.88998C4.07044 1.81413 4.16689 1.76769 4.27007 1.75998ZM32.4801 18C32.4838 18.1097 32.4644 18.2189 32.423 18.3206C32.3817 18.4223 32.3193 18.5141 32.2401 18.59C32.0701 18.7425 31.8484 18.8248 31.6201 18.82H7.68007C7.56966 18.8246 7.45947 18.8066 7.35629 18.767C7.2531 18.7275 7.1591 18.6672 7.08007 18.59C7.0054 18.5116 6.9474 18.4189 6.90958 18.3175C6.87177 18.2161 6.85492 18.1081 6.86007 18V0.859975C6.85234 0.745554 6.86785 0.630753 6.90566 0.522483C6.94347 0.414214 7.0028 0.314714 7.08007 0.229975C7.1591 0.152737 7.2531 0.0924876 7.35629 0.0529333C7.45947 0.0133789 7.56966 -0.0046433 7.68007 -2.45813e-05H31.6201C31.8484 -0.00481208 32.0701 0.0774101 32.2401 0.229975C32.3224 0.311979 32.3864 0.410556 32.4278 0.51917C32.4692 0.627784 32.487 0.743954 32.4801 0.859975V18ZM30.7601 1.71998H8.54007V17.1H30.7601V1.71998ZM15.6101 20.72C15.6928 20.6422 15.7903 20.5817 15.8968 20.5422C16.0033 20.5027 16.1166 20.4849 16.2301 20.49C16.4619 20.4826 16.6875 20.565 16.8601 20.72C16.9427 20.7981 17.0077 20.8928 17.0508 20.998C17.0939 21.1032 17.1141 21.2164 17.1101 21.33C17.1147 21.568 17.0248 21.7981 16.8601 21.97C16.7763 22.0499 16.6774 22.1123 16.5693 22.1535C16.4611 22.1947 16.3458 22.2139 16.2301 22.21C16.1156 22.2161 16.0012 22.1979 15.8943 22.1565C15.7874 22.1151 15.6906 22.0516 15.6101 21.97C15.4575 21.8 15.3753 21.5783 15.3801 21.35C15.375 21.2365 15.3928 21.1232 15.4323 21.0167C15.4718 20.9102 15.5323 20.8127 15.6101 20.73V20.72ZM23.6101 9.04998C23.7176 9.15123 23.7969 9.27876 23.8401 9.41998C23.8628 9.47494 23.8692 9.53528 23.8586 9.59379C23.8479 9.6523 23.8207 9.70652 23.7801 9.74998L23.6101 9.90998L18.1601 13.32C18.1166 13.3606 18.0624 13.3878 18.0039 13.3985C17.9454 13.4091 17.885 13.4027 17.8301 13.38C17.6901 13.334 17.5632 13.2552 17.4601 13.15V5.99998C17.4635 5.95443 17.4769 5.91019 17.4993 5.87043C17.5218 5.83067 17.5528 5.79637 17.5901 5.76998C17.6974 5.69336 17.8287 5.65787 17.9601 5.66998H18.1601L23.6101 9.04998ZM20.3101 20.72C20.3881 20.8005 20.4487 20.8962 20.4883 21.0011C20.5279 21.1061 20.5455 21.218 20.5401 21.33C20.547 21.5647 20.4648 21.7933 20.3101 21.97C20.2315 22.0513 20.1364 22.1148 20.0311 22.1562C19.9259 22.1976 19.813 22.216 19.7001 22.21C19.5826 22.2173 19.4649 22.1995 19.3548 22.1579C19.2448 22.1163 19.1448 22.0517 19.0616 21.9685C18.9783 21.8853 18.9138 21.7853 18.8721 21.6752C18.8305 21.5651 18.8128 21.4474 18.8201 21.33C18.8141 21.217 18.8324 21.1041 18.8738 20.9989C18.9152 20.8937 18.9787 20.7985 19.0601 20.72C19.2301 20.5674 19.4517 20.4852 19.6801 20.49C19.9039 20.4879 20.1195 20.5741 20.2801 20.73L20.3101 20.72ZM23.7201 20.72C23.7963 20.8014 23.8551 20.8974 23.8929 21.0023C23.9308 21.1072 23.9468 21.2187 23.9401 21.33C23.9507 21.5635 23.8721 21.7923 23.7201 21.97C23.6396 22.0516 23.5427 22.1151 23.4358 22.1565C23.329 22.1979 23.2145 22.2161 23.1001 22.21C22.9871 22.216 22.8742 22.1976 22.769 22.1562C22.6638 22.1148 22.5686 22.0513 22.4901 21.97C22.3354 21.7933 22.2532 21.5647 22.2601 21.33C22.2547 21.218 22.2723 21.1061 22.3118 21.0011C22.3514 20.8962 22.4121 20.8005 22.4901 20.72C22.5679 20.644 22.6603 20.5844 22.7617 20.5449C22.863 20.5054 22.9713 20.4867 23.0801 20.49C23.3067 20.4884 23.5252 20.5744 23.6901 20.73L23.7201 20.72ZM35.9101 15.04L37.9101 14.04C37.9752 13.9526 38.0676 13.8895 38.1726 13.8605C38.2777 13.8315 38.3894 13.8384 38.4901 13.88C38.599 13.9194 38.6967 13.9846 38.7751 14.0699C38.8534 14.1552 38.91 14.2581 38.9401 14.37C39.2401 14.89 39.1301 15.23 38.6101 15.37L34.8401 17.25L34.3101 17.09C34.2301 17.09 34.1501 17.01 34.0801 16.86C34.0125 16.7126 33.9784 16.5521 33.9801 16.39V2.74998C33.9858 2.61722 34.0179 2.48695 34.0746 2.36676C34.1313 2.24657 34.2113 2.13888 34.3101 2.04998C34.4512 1.98214 34.6039 1.94143 34.7601 1.92998C34.9038 1.93998 35.0436 1.98091 35.1701 2.04998L38.6101 3.76998C39.1301 3.93998 39.2401 4.27997 38.9401 4.76998C38.9148 4.87269 38.8666 4.96835 38.799 5.04975C38.7315 5.13116 38.6464 5.19619 38.5501 5.23997C38.44 5.26975 38.3244 5.27257 38.213 5.2482C38.1016 5.22384 37.9977 5.17299 37.9101 5.09998L35.9101 4.09998V15.04Z" fill="black"/>
</g>
<defs>
<clipPath id="clip0_263_1918">
<rect width="39.12" height="22.22" fill="white"/>
</clipPath>
</defs>
</svg>
