<svg width="24" height="24" viewBox="0 0 24 24" fill="none" xmlns="http://www.w3.org/2000/svg">
<path d="M16.033 7.34619H5C3.89543 7.34619 3 8.2058 3 9.26619V16.7265C3 17.7869 3.89543 18.6465 5 18.6465H16.033C17.1376 18.6465 18.033 17.7869 18.033 16.7265V9.26619C18.033 8.2058 17.1376 7.34619 16.033 7.34619Z" stroke="#1F1F1F" stroke-linecap="round" stroke-linejoin="round"/>
<path d="M14.9752 10.968C14.9257 10.7782 14.8249 10.6042 14.683 10.4638C14.5411 10.3233 14.3631 10.2213 14.1669 10.168C13.4502 10 10.5836 10 10.5836 10C10.5836 10 7.7169 10 7.00024 10.184C6.80409 10.2373 6.62606 10.3393 6.48413 10.4798C6.3422 10.6202 6.2414 10.7942 6.1919 10.984C6.06074 11.6822 5.99659 12.3905 6.00024 13.1C5.99556 13.8148 6.05972 14.5285 6.1919 15.232C6.24647 15.4159 6.34953 15.5833 6.49113 15.7178C6.63273 15.8523 6.80808 15.9495 7.00024 16C7.7169 16.184 10.5836 16.184 10.5836 16.184C10.5836 16.184 13.4502 16.184 14.1669 16C14.3631 15.9467 14.5411 15.8447 14.683 15.7042C14.8249 15.5638 14.9257 15.3898 14.9752 15.2C15.1054 14.507 15.1695 13.8041 15.1669 13.1C15.1716 12.3852 15.1074 11.6715 14.9752 10.968Z" stroke="#1F1F1F" stroke-linecap="round" stroke-linejoin="round"/>
<path d="M9.64607 14.408L12.0419 13.1L9.64607 11.792V14.408Z" stroke="#1F1F1F" stroke-linecap="round" stroke-linejoin="round"/>
<path d="M19.0981 4.66504L20.1632 5.68747M20.1632 5.68747L21.2282 6.7099M20.1632 5.68747L19.0981 6.7099M20.1632 5.68747L21.2282 4.66504" stroke="#1F1F1F" stroke-linecap="round" stroke-linejoin="round"/>
</svg>
