<svg width="25" height="25" viewBox="0 0 25 25" fill="none" xmlns="http://www.w3.org/2000/svg">
<g clip-path="url(#clip0_625_879)">
<path d="M19.2527 14.0787L16.9496 12.3976C16.6604 12.1857 16.304 12.0983 15.9476 12.1555C15.5912 12.2093 15.2785 12.4009 15.07 12.6901L14.3572 13.6651C14.3202 13.7156 14.3337 13.6685 14.3169 13.7324C14.3135 13.7391 14.2732 13.7929 14.1454 13.8131C13.9302 13.8467 13.2847 13.8064 11.8893 12.6901L11.7548 12.5926C10.2855 11.6142 10.0501 11.0123 10.0165 10.7971C9.99971 10.6862 10.0266 10.6324 10.0232 10.629C10.0703 10.5987 10.0569 10.5987 10.0939 10.5517L10.8067 9.57663C11.0185 9.28747 11.1059 8.93107 11.0487 8.57467C10.9916 8.21827 10.8033 7.90557 10.5141 7.69375L8.17062 5.98235C7.57214 5.54525 6.7282 5.67638 6.29111 6.27486L5.57158 7.26338C4.9361 8.13421 4.76463 9.32446 5.12439 10.3735C5.67917 11.9907 7.09469 13.7089 9.33397 15.4841C9.36423 15.5211 9.39786 15.5514 9.43821 15.5817C9.49536 15.622 9.55252 15.6623 9.60968 15.6993C9.66348 15.743 9.72064 15.7834 9.77443 15.8271C9.81142 15.8574 9.85513 15.8809 9.89884 15.8977C12.2726 17.4881 14.3404 18.3118 16.0518 18.3488C16.0754 18.3488 16.0955 18.3488 16.1191 18.3488C17.1816 18.3488 18.1936 17.8277 18.8358 16.9434L19.5553 15.9549C19.7671 15.6657 19.8546 15.3093 19.7974 14.9529C19.7403 14.5965 19.5419 14.2905 19.2527 14.0787ZM18.7316 15.3631L18.012 16.3516C17.548 16.9871 16.8184 17.3536 16.0619 17.3401C14.9759 17.3166 13.0829 16.8694 10.1947 14.8857C7.42756 12.7405 6.42223 11.0728 6.06919 10.0473C5.81366 9.30765 5.93134 8.46707 6.37852 7.8585L7.10142 6.86999C7.15521 6.79602 7.23255 6.74895 7.31997 6.7355C7.40738 6.72205 7.49817 6.74222 7.57214 6.79602L9.91565 8.50742C9.98962 8.56122 10.0367 8.63855 10.0501 8.72597C10.0636 8.81339 10.0434 8.90417 9.98962 8.97814L9.30035 9.92295C9.13896 10.0978 8.97757 10.4172 9.00447 10.8207C9.05827 11.631 9.77443 12.4816 11.1799 13.4163L11.2807 13.4869C12.6122 14.5528 13.6444 14.9764 14.4312 14.7781C14.8246 14.6806 15.0801 14.4317 15.1978 14.2233L15.8871 13.2785C15.9947 13.1272 16.2065 13.0969 16.3578 13.2045L18.661 14.8857C18.7349 14.9395 18.782 15.0168 18.7954 15.1042C18.8055 15.2017 18.7854 15.2925 18.7316 15.3631Z" fill="#1F1F1F"/>
<path d="M12.4206 0.310059C5.97515 0.310059 0.72998 5.55523 0.72998 12.0007C0.72998 14.7645 1.70504 17.4275 3.48369 19.5322L1.40916 23.5771C1.31838 23.7553 1.34192 23.9738 1.46968 24.1285C1.56719 24.2462 1.71177 24.3101 1.85635 24.3101C1.90342 24.3101 1.95385 24.3033 2.00092 24.2899L7.56551 22.6356C9.09535 23.335 10.7261 23.688 12.4206 23.688C18.8662 23.688 24.1113 18.4429 24.1113 11.9974C24.1113 5.55186 18.8662 0.310059 12.4206 0.310059ZM12.4206 22.6793C10.8135 22.6793 9.26682 22.3297 7.82104 21.6404C7.70672 21.5866 7.57896 21.5765 7.46128 21.6135L2.84486 22.9853L4.53609 19.6869C4.63023 19.502 4.60333 19.2767 4.46212 19.1187C2.707 17.1585 1.73867 14.6267 1.73867 11.9974C1.73867 6.10664 6.52992 1.31538 12.4206 1.31538C18.3114 1.31538 23.1026 6.10664 23.1026 11.9974C23.1026 17.8881 18.3114 22.6793 12.4206 22.6793Z" fill="#1F1F1F"/>
</g>
<defs>
<clipPath id="clip0_625_879">
<rect width="25" height="25" fill="white"/>
</clipPath>
</defs>
</svg>
