<svg xmlns="http://www.w3.org/2000/svg" width="22" height="26" fill="#434d5c" xmlns:v="https://vecta.io/nano"><path d="M16.797 14.379h-.073a1.568 1.568 0 0 1-1.351-.877 1.553 1.553 0 0 1 .383-1.88L8.271 15.31l-.164.073a1.522 1.522 0 0 0-.767 1.953c.073.164.164.31.292.457.42.438 1.04.602 1.588.42a.263.263 0 0 1 .128-.037l.22-.091.456-.183c.09-.037 7.229-3.542 7.229-3.542l.2-.091c-.2.055-.437.11-.656.11zm4.435-6.81a9.358 9.358 0 0 0-.547-2.739 5.393 5.393 0 0 0-.658-1.241 8.918 8.918 0 0 0-.84-1.022A7.68 7.68 0 0 0 15.974.558C14.496.084 12.98.084 11.465.54l-.182.055c-.73.237-1.424.62-2.1 1.114A7.734 7.734 0 0 0 7.102 4.1a5.241 5.241 0 0 0-.64 2.081 1.63 1.63 0 0 1 .822-1.022 1.578 1.578 0 0 1 2.118.712 1.57 1.57 0 0 1 .164.548c0-.055.019-.11.019-.165.128-.876.657-1.606 1.606-2.227.365-.237.749-.42 1.132-.548 1.004-.328 2.063-.273 3.122.165a4.49 4.49 0 0 1 2.702 4.308c-.055.822-.237 1.46-.584 2.008a4.18 4.18 0 0 1-1.296 1.351 1.553 1.553 0 0 1 1.88.804 1.577 1.577 0 0 1-.694 2.1 6.592 6.592 0 0 0 3.286-3.816 5.06 5.06 0 0 0 .22-.694c.237-.712.31-1.424.273-2.136z"/><path d="M18.183 12.115c-.347-.712-1.15-1.023-1.88-.804a1.715 1.715 0 0 0-.548.31 1.559 1.559 0 0 0-.384 1.881c.256.53.785.858 1.351.876h.073c.22 0 .457-.054.676-.164 0 0 .018 0 .018-.018a1.55 1.55 0 0 0 .694-2.081zM9.566 6.437a1.466 1.466 0 0 0-.255-.694 1.596 1.596 0 0 0-1.88-.62c-.512.2-.84.602-.968 1.077a1.69 1.69 0 0 0-.037.675 1.37 1.37 0 0 0 .146.438c.165.31.402.548.694.712a1.62 1.62 0 0 0 1.424.019c.62-.329.95-.968.876-1.607zm5.094 2.118a1.53 1.53 0 0 0-2.062-.694l-.183.11-.456.182c-.092.037-7.23 3.542-7.23 3.542l-.2.091a1.46 1.46 0 0 1 .675-.164h.073a1.567 1.567 0 0 1 1.35.876 1.553 1.553 0 0 1-.383 1.88l7.467-3.687a.919.919 0 0 0 .238-.092 1.532 1.532 0 0 0 .712-2.044z"/><path d="M.768 18.431c.054.986.237 1.899.547 2.739a5.41 5.41 0 0 0 .658 1.241 8.75 8.75 0 0 0 .84 1.022 7.681 7.681 0 0 0 3.212 2.009c1.48.474 2.995.474 4.51.018l.182-.055c.73-.237 1.424-.62 2.1-1.114a7.735 7.735 0 0 0 2.081-2.391c.347-.62.566-1.314.639-2.081a1.63 1.63 0 0 1-.822 1.022 1.578 1.578 0 0 1-2.117-.712 1.57 1.57 0 0 1-.165-.548c0 .055-.018.11-.018.165-.128.876-.657 1.606-1.606 2.227-.365.237-.749.42-1.132.548-1.004.328-2.063.273-3.122-.165-1.68-.693-2.812-2.5-2.702-4.308.055-.822.237-1.46.584-2.008a4.181 4.181 0 0 1 1.296-1.351 1.553 1.553 0 0 1-1.88-.804 1.577 1.577 0 0 1 .694-2.1 6.592 6.592 0 0 0-3.286 3.816 5.073 5.073 0 0 0-.22.694 5.741 5.741 0 0 0-.273 2.136z"/><path d="M6.63 12.498a1.558 1.558 0 0 0-1.352-.876h-.073c-.219 0-.456.054-.675.164 0 0-.019 0-.019.018a1.566 1.566 0 0 0-.693 2.1c.346.712 1.15 1.022 1.88.803.073-.018.146-.055.22-.091a1.585 1.585 0 0 0 .712-2.118zm8.944 6.645a1.376 1.376 0 0 0-.146-.438 1.74 1.74 0 0 0-.694-.712 1.624 1.624 0 0 0-1.424-.018 1.63 1.63 0 0 0-.876 1.588c.018.238.11.475.255.694.402.62 1.205.876 1.88.62.512-.2.84-.602.968-1.076.055-.201.073-.439.037-.658z"/><path opacity=".12" d="M15.574 19.143a1.376 1.376 0 0 0-.146-.438 1.74 1.74 0 0 0-.694-.712 1.624 1.624 0 0 0-1.424-.018c-.603.31-.931.95-.876 1.588.018.238.11.475.255.694.402.62 1.205.876 1.88.62.512-.2.84-.602.968-1.076.055-.201.073-.439.037-.658Z"/></svg>