<svg xmlns="http://www.w3.org/2000/svg" width="500" height="304" fill="none"><rect x="1.19" y="2" width="497.619" height="300" rx="9.226" fill="#fff"/><rect x="1.19" y="2" width="497.619" height="300" rx="9.226" stroke="#8796a1" stroke-width="2.381"/><path d="M29.167 213.325h441.667v2.083H29.167v-2.083z" fill="#fff"/><path fill-rule="evenodd" d="M29.167 213.325h441.667v6.25H29.167v-6.25z" fill="#32383c"/><g fill="#8796a1"><path d="M47.5 51.524v3.986H29.167v-3.986H47.5z"/><rect x="68.333" y="47.703" width="308.14" height="11.628" rx="2.907"/></g><g opacity=".8" fill="#8796a1"><rect x="29.167" y="80.586" width="441.667" height="8.721" rx="4.36"/><rect x="29.167" y="106.749" width="441.667" height="8.721" rx="4.36"/><rect x="29.167" y="132.912" width="441.667" height="8.721" rx="4.36"/><rect x="29.167" y="159.075" width="441.667" height="8.721" rx="4.36"/><rect x="29.167" y="185.237" width="193.75" height="8.333" rx="4.167"/></g><path d="M29.167 24.039h441.667v6.25H29.167v-6.25zm0 249.703h441.667v6.25H29.167v-6.25z" fill-rule="evenodd" fill="#32383c"/><g fill="#8796a1"><path d="M47.29 245.566v3.696H30.291v-3.696H47.29zm-6.507-6.95v18.055h-3.969v-18.055h3.969z"/><rect x="67.917" y="240.844" width="308.14" height="11.628" rx="2.907"/></g></svg>