<svg xmlns="http://www.w3.org/2000/svg" xmlns:xlink="http://www.w3.org/1999/xlink" width="100" height="67" fill="none" ><rect x=".75" y=".75" width="98.5" height="65.167" rx="2.25" stroke="#8796a1" stroke-width="1.5"/><path d="M29.584 26.667h-15.25c-.417 0-.75.25-.75.583V38.5c0 .333.333.667.75.667h15.25c.417 0 .75-.25.75-.583V27.25c0-.333-.333-.583-.75-.583zM49.25 38.583V27.25c0-.333-.333-.583-.75-.583H33.334c-.417 0-.75.25-.75.583V38.5c0 .333.333.667.75.667h15.25c.417 0 .667-.25.667-.583zM67.5 26.667H52.25c-.417 0-.75.25-.75.583V38.5c0 .333.333.667.75.667H67.5c.417 0 .75-.25.75-.583V27.25c0-.333-.417-.583-.75-.583zm19 0H71.25c-.417 0-.75.25-.75.583V38.5c0 .333.333.667.75.667H86.5c.417 0 .75-.25.75-.583V27.25a.8.8 0 0 0-.75-.583zm7.167 5.833l-2.833-2.833c-.083-.083-.333-.083-.417 0l-.5.5c-.083.083-.083.333 0 .417l2.25 2.25c.083.083.083.333 0 .417l-2.25 2.25c-.083.083-.083.333 0 .417l.5.5c.083.083.333.083.417 0l2.833-2.833.5-.5-.5-.583zM11 30.417c.167-.167.167-.333 0-.5l-.5-.5c-.167-.167-.333-.167-.5 0L7.167 32.25l-.5.5.5.5L10 36.083c.167.167.333.167.5 0l.417-.417c.167-.167.167-.333 0-.5l-2.083-2.083c-.167-.167-.167-.333 0-.5L11 30.417zm39.417 13.916c.736 0 1.333-.597 1.333-1.333s-.597-1.333-1.333-1.333-1.333.597-1.333 1.333.597 1.333 1.333 1.333z" fill="#8796a1"/><g fill="#bac2c6"><use xlink:href="#B"/><use xlink:href="#B" x="6.667"/></g><defs ><path id="B" d="M47.083 41.667c-.75 0-1.333.583-1.333 1.333s.583 1.333 1.333 1.333 1.333-.583 1.333-1.333-.583-1.333-1.333-1.333z"/></defs></svg>