<svg xmlns="http://www.w3.org/2000/svg" width="120" height="80" fill="none" xmlns:v="https://vecta.io/nano"><use href="#B" fill="#fff"/><use href="#B" stroke="#8796a1" stroke-width="1.5"/><path d="M35 30H16.7c-.5 0-.9.34-.9.793v15.3c0 .453.4.907.9.907H35c.5 0 .9-.34.9-.793V30.793c0-.453-.4-.793-.9-.793zm23.6 16.207V30.793c0-.453-.4-.793-.9-.793H39.5c-.5 0-.9.34-.9.793v15.3c0 .453.4.907.9.907h18.3a.75.75 0 0 0 .8-.793zM80.5 30H62.2c-.5 0-.9.34-.9.793v15.3c0 .453.4.907.9.907h18.3c.5 0 .9-.34.9-.793V30.793c0-.453-.5-.793-.9-.793zm22.8 0H85c-.5 0-.9.34-.9.793v15.3c0 .453.4.907.9.907h18.3c.5 0 .9-.34.9-.793V30.793c-.1-.453-.5-.793-.9-.793zM60 53.2a1.6 1.6 0 1 0 0-3.2 1.6 1.6 0 1 0 0 3.2z" fill="#58707f"/><g fill="#9ea9b2"><use href="#C"/><use href="#C" x="8"/></g><path d="M108 42.5l4-4-4-4m-96 0l-4 4 4 4" stroke="#58707f" stroke-width="1.8" stroke-linecap="round" stroke-linejoin="round"/><defs ><path id="B" d="M.75 3A2.25 2.25 0 0 1 3 .75h114A2.25 2.25 0 0 1 119.25 3v74a2.25 2.25 0 0 1-2.25 2.25H3A2.25 2.25 0 0 1 .75 77V3z"/><path id="C" d="M56 50a1.58 1.58 0 1 0 0 3.2 1.58 1.58 0 1 0 0-3.2z"/></defs></svg>