<svg xmlns="http://www.w3.org/2000/svg" width="120" height="80" fill="none" ><rect x=".75" y=".75" width="118.5" height="78.5" rx="2.25" stroke="#b6c0c6" stroke-width="1.5"/><path d="M35 14.7H16.7c-.5 0-.9.3-.9.7v13.5c0 .4.4.8.9.8H35c.5 0 .9-.3.9-.7V15.4c0-.4-.4-.7-.9-.7zm22.8 0H39.5c-.5 0-.9.3-.9.7v13.5c0 .4.4.8.9.8h18.3c.5 0 .9-.3.9-.7V15.4c-.1-.4-.5-.7-.9-.7zm22.7 0H62.2c-.5 0-.9.3-.9.7v13.5c0 .4.4.8.9.8h18.3c.5 0 .9-.3.9-.7V15.4c0-.4-.5-.7-.9-.7zm22.8 0H85c-.5 0-.9.3-.9.7v13.5c0 .4.4.8.9.8h18.3c.5 0 .9-.3.9-.7V15.4c-.1-.4-.5-.7-.9-.7zM35 32.5H16.7c-.5 0-.9.3-.9.7v13.5c0 .4.4.8.9.8H35c.5 0 .9-.3.9-.7V33.2c0-.4-.4-.7-.9-.7zm22.8 0H39.5c-.5 0-.9.3-.9.7v13.5c0 .4.4.8.9.8h18.3c.5 0 .9-.3.9-.7V33.2c-.1-.4-.5-.7-.9-.7zm22.7 0H62.2c-.5 0-.9.3-.9.7v13.5c0 .4.4.8.9.8h18.3c.5 0 .9-.3.9-.7V33.2c0-.4-.5-.7-.9-.7zm22.8 0H85c-.5 0-.9.3-.9.7v13.5c0 .4.4.8.9.8h18.3c.5 0 .9-.3.9-.7V33.2c-.1-.4-.5-.7-.9-.7zM35 50.3H16.7c-.5 0-.9.3-.9.7v13.5c0 .4.4.8.9.8H35c.5 0 .9-.3.9-.7V51c0-.4-.4-.7-.9-.7zm22.8 0H39.5c-.5 0-.9.3-.9.7v13.5c0 .4.4.8.9.8h18.3c.5 0 .9-.3.9-.7V51c-.1-.4-.5-.7-.9-.7zm22.7 0H62.2c-.5 0-.9.3-.9.7v13.5c0 .4.4.8.9.8h18.3c.5 0 .9-.3.9-.7V51c0-.4-.5-.7-.9-.7zm22.8 0H85c-.5 0-.9.3-.9.7v13.5c0 .4.4.8.9.8h18.3c.5 0 .9-.3.9-.7V51c-.1-.4-.5-.7-.9-.7z" fill="#8796a1"/></svg>