<svg xmlns="http://www.w3.org/2000/svg" width="100" height="67" fill="none"><path d="M29.333 12.5h-15.25c-.417 0-.75.25-.75.583v11.25c0 .333.333.667.75.667h15.25c.417 0 .75-.25.75-.583V13.083c0-.333-.333-.583-.75-.583zm19.001 0h-15.25c-.417 0-.75.25-.75.583v11.25c0 .333.333.667.75.667h15.25c.417 0 .75-.25.75-.583V13.083a.8.8 0 0 0-.75-.583zm18.916 0H52c-.417 0-.75.25-.75.583v11.25c0 .333.333.667.75.667h15.25c.417 0 .75-.25.75-.583V13.083c0-.333-.417-.583-.75-.583zm19 0H71c-.417 0-.75.25-.75.583v11.25c0 .333.333.667.75.667h15.25c.417 0 .75-.25.75-.583V13.083a.8.8 0 0 0-.75-.583zM29.333 27.333h-15.25c-.417 0-.75.25-.75.583v11.25c0 .333.333.667.75.667h15.25c.417 0 .75-.25.75-.583V27.917c0-.333-.333-.583-.75-.583zm19.001 0h-15.25c-.417 0-.75.25-.75.583v11.25c0 .333.333.667.75.667h15.25c.417 0 .75-.25.75-.583V27.917a.8.8 0 0 0-.75-.583zm18.916 0H52c-.417 0-.75.25-.75.583v11.25c0 .333.333.667.75.667h15.25c.417 0 .75-.25.75-.583V27.917c0-.333-.417-.583-.75-.583zm19 0H71c-.417 0-.75.25-.75.583v11.25c0 .333.333.667.75.667h15.25c.417 0 .75-.25.75-.583V27.917a.8.8 0 0 0-.75-.583zM29.333 42.167h-15.25c-.417 0-.75.25-.75.583V54c0 .333.333.667.75.667h15.25c.417 0 .75-.25.75-.583V42.75c0-.333-.333-.583-.75-.583zm19.001 0h-15.25c-.417 0-.75.25-.75.583V54c0 .333.333.667.75.667h15.25c.417 0 .75-.25.75-.583V42.75a.8.8 0 0 0-.75-.583zm18.916 0H52c-.417 0-.75.25-.75.583V54c0 .333.333.667.75.667h15.25c.417 0 .75-.25.75-.583V42.75c0-.333-.417-.583-.75-.583zm19 0H71c-.417 0-.75.25-.75.583V54c0 .333.333.667.75.667h15.25c.417 0 .75-.25.75-.583V42.75a.8.8 0 0 0-.75-.583z" fill="#8796a1"/><rect x=".75" y=".75" width="98.5" height="65.167" rx="2.25" stroke="#8796a1" stroke-width="1.5"/></svg>