<svg xmlns="http://www.w3.org/2000/svg" width="120" height="80" fill="none" xmlns:v="https://vecta.io/nano"><g clip-path="url(#B)"><g fill="#fff"><path d="M0 3a3 3 0 0 1 3-3h114a3 3 0 0 1 3 3v74a3 3 0 0 1-3 3H3a3 3 0 0 1-3-3V3z"/><rect x=".75" y=".75" width="118.5" height="78.5" rx="2.25"/></g><rect x=".75" y=".75" width="118.5" height="78.5" rx="2.25" stroke="#8796a1" stroke-width="1.5"/><g fill="#58707f"><use href="#C"/><use href="#D"/><path d="M32.9 51.8h-14a1 1 0 0 0-1 1v10a1 1 0 0 0 1 1h14a1 1 0 0 0 1-1v-10a1 1 0 0 0-1-1zm22.7-35.6h-14a1 1 0 0 0-1 1v10a1 1 0 0 0 1 1h14a1 1 0 0 0 1-1v-10a1 1 0 0 0-1-1zm0 17.8h-14a1 1 0 0 0-1 1v10a1 1 0 0 0 1 1h14a1 1 0 0 0 1-1V35a1 1 0 0 0-1-1zm0 17.8h-14a1 1 0 0 0-1 1v10a1 1 0 0 0 1 1h14a1 1 0 0 0 1-1v-10a1 1 0 0 0-1-1zm22.8-35.6h-14a1 1 0 0 0-1 1v10a1 1 0 0 0 1 1h14a1 1 0 0 0 1-1v-10a1 1 0 0 0-1-1zm0 17.8h-14a1 1 0 0 0-1 1v10a1 1 0 0 0 1 1h14a1 1 0 0 0 1-1V35a1 1 0 0 0-1-1zm0 17.8h-14a1 1 0 0 0-1 1v10a1 1 0 0 0 1 1h14a1 1 0 0 0 1-1v-10a1 1 0 0 0-1-1zm22.7-35.6h-14a1 1 0 0 0-1 1v10a1 1 0 0 0 1 1h14a1 1 0 0 0 1-1v-10a1 1 0 0 0-1-1zm0 17.8h-14a1 1 0 0 0-1 1v10a1 1 0 0 0 1 1h14a1 1 0 0 0 1-1V35a1 1 0 0 0-1-1zm0 17.8h-14a1 1 0 0 0-1 1v10a1 1 0 0 0 1 1h14a1 1 0 0 0 1-1v-10a1 1 0 0 0-1-1z"/></g><path d="M14 66.6h92" stroke="#8796a1" stroke-width=".766" stroke-miterlimit="10"/><mask id="A" fill="#fff"><path d="M106 13.8V13H14v.8h22.9v16.9H14v.8h22.9v17H14v.8h22.9V67h.8V49.2h21.9v17.7h.8V49.2h22v17.7h.8V49.2H106v-.8H83.2v-17H106v-.8H83.2V13.8H106zm-68.3 0h21.9v16.9H37.7V13.8zm0 34.6v-17h21.9v17H37.7zm44.7 0h-22v-17h22v17zm0-17.7h-22V13.8h22v16.9z"/></mask><g fill="#8796a1"><path d="M106 13.8V13H14v.8h22.9v16.9H14v.8h22.9v17H14v.8h22.9V67h.8V49.2h21.9v17.7h.8V49.2h22v17.7h.8V49.2H106v-.8H83.2v-17H106v-.8H83.2V13.8H106zm-68.3 0h21.9v16.9H37.7V13.8zm0 34.6v-17h21.9v17H37.7zm44.7 0h-22v-17h22v17zm0-17.7h-22V13.8h22v16.9z"/><path d="M106 13.8v1h1v-1h-1zm0-.8h1v-1h-1v1zm-92 0v-1h-1v1h1zm0 .8h-1v1h1v-1zm22.9 0h1v-1h-1v1zm0 16.9v1h1v-1h-1zm-22.9 0v-1h-1v1h1zm0 .8h-1v1h1v-1zm22.9 0h1v-1h-1v1zm0 17v1h1v-1h-1zm-22.9 0v-1h-1v1h1zm0 .8h-1v1h1v-1zm22.9 0h1v-1h-1v1zm0 17.7h-1v1h1v-1zm.8 0v1h1v-1h-1zm0-17.8v-1h-1v1h1zm21.9 0h1v-1h-1v1zm0 17.7h-1v1h1v-1zm.8 0v1h1v-1h-1zm0-17.7v-1h-1v1h1zm22 0h1v-1h-1v1zm0 17.7h-1v1h1v-1zm.8 0v1h1v-1h-1zm0-17.7v-1h-1v1h1zm22.8 0v1h1v-1h-1zm0-.8h1v-1h-1v1zm-22.8 0h-1v1h1v-1zm0-17v-1h-1v1h1zm22.8 0v1h1v-1h-1zm0-.8h1v-1h-1v1zm-22.8 0h-1v1h1v-1zm0-16.8v-1h-1v1h1zm-45.5 0v-1h-1v1h1zm21.9 0h1v-1h-1v1zm0 16.9v1h1v-1h-1zm-21.9 0h-1v1h1v-1zm0 17.7h-1v1h1v-1zm0-17v-1h-1v1h1zm21.9 0h1v-1h-1v1zm0 17v1h1v-1h-1zm22.8 0v1h1v-1h-1zm-22 0h-1v1h1v-1zm0-17v-1h-1v1h1zm22 0h1v-1h-1v1zm0-.7v1h1v-1h-1zm-22 0h-1v1h1v-1zm0-16.9v-1h-1v1h1zm22 0h1v-1h-1v1zm24.6 0V13h-2v.8h2zm-1-1.8H14v2h92v-2zm-93 1v.8h2V13h-2zm1 1.8h22.9v-2H14v2zm21.9-1v16.9h2V13.8h-2zm1 15.9H14v2h22.9v-2zm-23.9 1v.8h2v-.8h-2zm1 1.8h22.9v-2H14v2zm21.9-1v17h2v-17h-2zm1 16H14v2h22.9v-2zm-23.9 1v.8h2v-.8h-2zm1 1.8h22.9v-2H14v2zm21.9-1V67h2V49.3h-2zm1 18.7h.8v-2h-.8v2zm1.8-1V49.2h-2V67h2zm-1-16.8h21.9v-2H37.7v2zm20.9-1v17.7h2V49.2h-2zm1 18.7h.8v-2h-.8v2zm1.8-1V49.2h-2v17.7h2zm-1-16.7h22v-2h-22v2zm21-1v17.7h2V49.2h-2zm1 18.7h.8v-2h-.8v2zm1.8-1V49.2h-2v17.7h2zm-1-16.7H106v-2H83.2v2zm23.8-1v-.8h-2v.8h2zm-1-1.8H83.2v2H106v-2zm-21.8 1v-17h-2v17h2zm-1-16H106v-2H83.2v2zm23.8-1v-.8h-2v.8h2zm-1-1.8H83.2v2H106v-2zm-21.8 1V13.8h-2v16.8h2zm-1-15.8H106v-2H83.2v2zm-45.5 0h21.9v-2H37.7v2zm20.9-1v16.9h2V13.8h-2zm1 15.9H37.7v2h21.9v-2zm-20.9 1V13.8h-2v16.9h2zm0 17.7v-17h-2v17h2zm-1-16h21.9v-2H37.7v2zm20.9-1v17h2v-17h-2zm1 16H37.7v2h21.9v-2zm22.8 0h-22v2h22v-2zm-21 1v-17h-2v17h2zm-1-16h22v-2h-22v2zm21-1v17h2v-17h-2zm1-1.7h-22v2h22v-2zm-21 1V13.8h-2v16.9h2zm-1-15.9h22v-2h-22v2zm21-1v16.9h2V13.8h-2z" mask="url(#A)"/></g><g stroke="#8796a1" stroke-miterlimit="10" stroke-width=".774"><path d="M14.4 13v53.9M105.6 13v53.9"/></g></g><path d="M3 .75h114A2.25 2.25 0 0 1 119.25 3v74a2.25 2.25 0 0 1-2.25 2.25H3A2.25 2.25 0 0 1 .75 77V3A2.25 2.25 0 0 1 3 .75z" stroke="#8796a1" stroke-width="1.5"/><defs><clipPath id="B"><path d="M0 3a3 3 0 0 1 3-3h114a3 3 0 0 1 3 3v74a3 3 0 0 1-3 3H3a3 3 0 0 1-3-3V3z" fill="#fff"/></clipPath><path id="C" d="M32.9 16.2h-14a1 1 0 0 0-1 1v10a1 1 0 0 0 1 1h14a1 1 0 0 0 1-1v-10a1 1 0 0 0-1-1z"/><path id="D" d="M32.9 34h-14a1 1 0 0 0-1 1v10a1 1 0 0 0 1 1h14a1 1 0 0 0 1-1V35a1 1 0 0 0-1-1z"/></defs></svg>