<svg xmlns="http://www.w3.org/2000/svg" xmlns:xlink="http://www.w3.org/1999/xlink" width="100" height="67" fill="none"><g fill="#8796a1"><use xlink:href="#B"/><use xlink:href="#B" y="14.833"/><use xlink:href="#B" y="29.667"/><use xlink:href="#C"/><use xlink:href="#C" y="14.833"/><use xlink:href="#C" y="29.667"/><use xlink:href="#D"/><use xlink:href="#D" y="14.833"/><use xlink:href="#D" y="29.667"/><use xlink:href="#E"/><use xlink:href="#E" y="14.833"/><use xlink:href="#E" y="29.667"/></g><path d="M11.667 55.5h76.667" stroke="#5d707c" stroke-width=".766" stroke-miterlimit="10"/><path d="M88.333 11.5v-.667H11.667v.667H30.75v14.083H11.667v.667H30.75v14.167H11.667v.667H30.75v14.75h.667V41h18.25v14.75h.667V41h18.333v14.75h.667V41h19v-.667h-19V26.167h19V25.5h-19v-14h19zm-56.917 0h18.25v14.083h-18.25V11.5zm0 28.833V26.167h18.25v14.167h-18.25zm37.25 0H50.333V26.167h18.333v14.167zm0-14.75H50.333V11.5h18.333v14.083z" fill="#5d707c"/><path d="M11.667 11.667v44.917m76-44.917v44.917" stroke="#5d707c" stroke-miterlimit="10" stroke-width=".774"/><rect x=".75" y=".75" width="98.5" height="65.167" rx="2.25" stroke="#8796a1" stroke-width="1.5"/><defs ><path id="B" d="M27.25 13.5H15.917a1 1 0 0 0-1 1v8a1 1 0 0 0 1 1H27.25a1 1 0 0 0 1-1v-8a1 1 0 0 0-1-1z"/><path id="C" d="M46.167 13.5H34.834a1 1 0 0 0-1 1v8a1 1 0 0 0 1 1h11.333a1 1 0 0 0 1-1v-8a1 1 0 0 0-1-1z"/><path id="D" d="M65.166 13.5H53.833a1 1 0 0 0-1 1v8a1 1 0 0 0 1 1h11.333a1 1 0 0 0 1-1v-8a1 1 0 0 0-1-1z"/><path id="E" d="M84.083 13.5H72.75a1 1 0 0 0-1 1v8a1 1 0 0 0 1 1h11.333a1 1 0 0 0 1-1v-8a1 1 0 0 0-1-1z"/></defs></svg>