<svg xmlns="http://www.w3.org/2000/svg" width="120" height="80" fill="none" xmlns:v="https://vecta.io/nano"><use href="#B" fill="#fff"/><use href="#B" stroke="#8796a1" stroke-width="1.5"/><path d="M35 28.1H16.7c-.5 0-.9.3-.9.7v13.5c0 .4.4.8.9.8H35c.5 0 .9-.3.9-.7V28.8c0-.5-.4-.7-.9-.7zm22.8 0H39.5c-.5 0-.9.3-.9.7v13.5c0 .4.4.8.9.8h18.3c.5 0 .9-.3.9-.7V28.8c-.1-.5-.5-.7-.9-.7zm22.7 0H62.2c-.5 0-.9.3-.9.7v13.5c0 .4.4.8.9.8h18.3c.5 0 .9-.3.9-.7V28.8c0-.5-.5-.7-.9-.7zm22.8 0H85c-.5 0-.9.3-.9.7v13.5c0 .4.4.8.9.8h18.3c.5 0 .9-.3.9-.7V28.8c-.1-.5-.5-.7-.9-.7zM35 45.9H16.7c-.5 0-.9.3-.9.7v13.5c0 .4.4.8.9.8H35c.5 0 .9-.3.9-.7V46.6c0-.5-.4-.7-.9-.7zm22.8 0H39.5c-.5 0-.9.3-.9.7v13.5c0 .4.4.8.9.8h18.3c.5 0 .9-.3.9-.7V46.6c-.1-.5-.5-.7-.9-.7zm22.7 0H62.2c-.5 0-.9.3-.9.7v13.5c0 .4.4.8.9.8h18.3c.5 0 .9-.3.9-.7V46.6c0-.5-.5-.7-.9-.7zm22.8 0H85c-.5 0-.9.3-.9.7v13.5c0 .4.4.8.9.8h18.3c.5 0 .9-.3.9-.7V46.6c-.1-.5-.5-.7-.9-.7zM29.6 22.6h18.5a.68.68 0 0 0 .7-.7v-2a.68.68 0 0 0-.7-.7H29.6a.68.68 0 0 0-.7.7v2c-.1.4.3.7.7.7zm22.7 0h14.5a.68.68 0 0 0 .7-.7v-2a.68.68 0 0 0-.7-.7H52.3a.68.68 0 0 0-.7.7v2a.68.68 0 0 0 .7.7zm18.8 0h19.4a.68.68 0 0 0 .7-.7v-2a.68.68 0 0 0-.7-.7H71.1a.68.68 0 0 0-.7.7v2c-.1.4.3.7.7.7z" fill="#58707f"/><defs ><path id="B" d="M3 .75h114A2.25 2.25 0 0 1 119.25 3v74a2.25 2.25 0 0 1-2.25 2.25H3A2.25 2.25 0 0 1 .75 77V3A2.25 2.25 0 0 1 3 .75z"/></defs></svg>