<svg xmlns="http://www.w3.org/2000/svg" width="100" height="67" fill="none"><rect x=".75" y=".75" width="98.5" height="65.167" rx="2.25" stroke="#8796a1" stroke-width="1.5"/><path d="M29.333 23.25h-15.25c-.417 0-.75.25-.75.583v11.25c0 .333.333.667.75.667h15.25c.417 0 .75-.25.75-.583V23.833c0-.417-.333-.583-.75-.583zm19.001 0h-15.25c-.417 0-.75.25-.75.583v11.25c0 .333.333.667.75.667h15.25c.417 0 .75-.25.75-.583V23.833c-.083-.417-.417-.583-.75-.583zm18.916 0H52c-.417 0-.75.25-.75.583v11.25c0 .333.333.667.75.667h15.25c.417 0 .75-.25.75-.583V23.833c0-.417-.417-.583-.75-.583zm19 0H71c-.417 0-.75.25-.75.583v11.25c0 .333.333.667.75.667h15.25c.417 0 .75-.25.75-.583V23.833c-.083-.417-.417-.583-.75-.583zM29.333 38.083h-15.25c-.417 0-.75.25-.75.583v11.25c0 .333.333.667.75.667h15.25c.417 0 .75-.25.75-.583V38.667c0-.417-.333-.583-.75-.583zm19.001 0h-15.25c-.417 0-.75.25-.75.583v11.25c0 .333.333.667.75.667h15.25c.417 0 .75-.25.75-.583V38.667c-.083-.417-.417-.583-.75-.583zm18.916 0H52c-.417 0-.75.25-.75.583v11.25c0 .333.333.667.75.667h15.25c.417 0 .75-.25.75-.583V38.667c0-.417-.417-.583-.75-.583zm19 0H71c-.417 0-.75.25-.75.583v11.25c0 .333.333.667.75.667h15.25c.417 0 .75-.25.75-.583V38.667c-.083-.417-.417-.583-.75-.583zM24.833 18.667H40.25a.57.57 0 0 0 .583-.583v-1.667a.57.57 0 0 0-.583-.583H24.833a.57.57 0 0 0-.583.583v1.667c-.083.333.25.583.583.583zm18.917 0h12.083a.57.57 0 0 0 .583-.583v-1.667a.57.57 0 0 0-.583-.583H43.75a.57.57 0 0 0-.583.583v1.667a.57.57 0 0 0 .583.583zm15.667 0h16.167a.57.57 0 0 0 .583-.583v-1.667a.57.57 0 0 0-.583-.583H59.417a.57.57 0 0 0-.583.583v1.667c-.083.333.25.583.583.583z" fill="#8796a1"/></svg>