<svg xmlns="http://www.w3.org/2000/svg" width="90" height="60" fill="none" xmlns:v="https://vecta.io/nano"><rect x=".6" y=".6" width="88.8" height="58.8" rx="1.4" fill="#fff"/><rect x=".6" y=".6" width="88.8" height="58.8" rx="1.4" stroke="#8796a1" stroke-width="1.2"/><path d="M12.6 29h13.7c.4 0 .6-.3.6-.5V18.3c0-.3-.3-.5-.6-.5H12.6c-.4 0-.6.3-.6.5v10.1c-.1.4.2.6.6.6zm17 0h13.7c.4 0 .6-.3.6-.5V18.3c0-.3-.3-.5-.6-.5H29.6c-.4 0-.6.3-.6.5v10.1c0 .4.3.6.6.6zm17.1 0h13.7c.4 0 .6-.3.6-.5V18.3c0-.3-.3-.5-.6-.5H46.7c-.4 0-.6.3-.6.5v10.1c-.1.4.2.6.6.6zm17 0h13.7c.4 0 .6-.3.6-.5V18.3c0-.3-.3-.5-.6-.5H63.7c-.4 0-.6.3-.6.5v10.1c0 .4.3.6.6.6zM21.1 42.2h13.7c.4 0 .6-.3.6-.5V31.5c0-.3-.3-.5-.6-.5H21.1c-.4 0-.6.3-.6.5v10.1c-.1.4.2.6.6.6zm17 0h13.7c.4 0 .6-.3.6-.5V31.5c0-.3-.3-.5-.6-.5H38.1c-.4 0-.6.3-.6.5v10.1c0 .4.3.6.6.6zm17.1 0h13.7c.4 0 .6-.3.6-.5V31.5c0-.3-.3-.5-.6-.5H55.2c-.4 0-.6.3-.6.5v10.1c-.1.4.2.6.6.6z" fill="#58707f"/></svg>