<svg width="200" height="42" viewBox="0 0 231 42" fill="none" xmlns="http://www.w3.org/2000/svg">
<g clip-path="url(#clip0_647_2413)">
<path d="M54.3224 31.4857C54.1474 31.3094 54.0308 30.957 54.0308 30.487V8.04791C54.0308 7.34302 54.6141 7.04932 55.8396 7.04932H56.9481C57.59 7.04932 58.0567 7.10805 58.2901 7.28428C58.5819 7.4605 58.6985 7.69546 58.6985 8.04791V27.8437H64.65C65.0002 27.8437 65.2336 27.9612 65.3502 28.1962C65.4669 28.4312 65.5836 28.8423 65.5836 29.3123V30.2521C65.5836 30.7808 65.5253 31.1333 65.3502 31.4269C65.2336 31.6619 65.0002 31.7794 64.65 31.7794H55.1977C54.7893 31.7794 54.4975 31.6619 54.3224 31.4857Z" fill="#111733"/>
<path d="M68.8508 29.5471C67.6839 27.9024 67.042 25.6116 67.042 22.5569C67.042 19.5024 67.6255 17.1528 68.7924 15.508C69.9595 13.8632 71.7099 13.0996 74.0438 13.0996C76.3778 13.0996 78.0698 13.922 79.2951 15.508C80.4621 17.1528 81.0455 19.5024 81.0455 22.5569C81.0455 25.6116 80.4621 27.9612 79.2367 29.6059C78.0698 31.192 76.3194 32.0143 74.0438 32.0143C71.7683 32.0143 70.0761 31.192 68.8508 29.5471ZM75.9692 27.08C76.3778 26.1402 76.5528 24.6716 76.5528 22.5569C76.5528 20.4422 76.3778 18.9149 75.9692 18.0339C75.5609 17.1528 74.919 16.6828 74.0438 16.6828C73.1685 16.6828 72.5268 17.1528 72.1183 18.0339C71.7099 18.9149 71.5347 20.4422 71.5347 22.5569C71.5347 24.6716 71.7099 26.1989 72.1183 27.08C72.5268 28.0198 73.1685 28.431 74.0438 28.431C74.9773 28.431 75.6192 27.9612 75.9692 27.08Z" fill="#111733"/>
<path d="M85.0137 38.0645C83.905 37.3008 83.3799 36.1261 83.3799 34.5988C83.3799 33.6588 83.6133 32.7778 84.0802 32.0729C84.5469 31.368 85.2471 30.7806 86.064 30.3694V30.2519C85.5972 29.9582 85.3054 29.6057 85.0721 29.1359C84.8387 28.6659 84.7219 28.1372 84.7219 27.6086C84.7219 26.2575 85.3054 25.2002 86.414 24.3778C84.7219 23.4379 83.8466 21.7345 83.8466 19.3261C83.8466 17.3288 84.3718 15.8016 85.4804 14.7442C86.5891 13.6869 88.1061 13.1582 89.9733 13.1582C90.7318 13.1582 91.432 13.2169 92.0155 13.3932H96.8C97.0918 13.3932 97.3251 13.5107 97.4418 13.7456C97.5585 13.9806 97.6169 14.333 97.6169 14.803V15.3316C97.6169 15.8016 97.5585 16.154 97.4418 16.3302C97.3251 16.5651 97.15 16.6239 96.8584 16.6239C96.2165 16.6239 95.7497 16.5651 95.3996 16.5065L95.3413 16.6239C95.8081 17.3876 96.0415 18.3275 96.0415 19.3847C96.0415 21.1471 95.5163 22.5569 94.5244 23.5555C93.5325 24.554 92.1321 25.0827 90.4401 25.1414C89.098 25.2002 88.3979 25.7876 88.3979 26.7861C88.3979 27.3736 88.6313 27.8435 89.1564 28.0198C89.6232 28.2547 90.4401 28.431 91.4904 28.6659C91.7237 28.6659 92.0737 28.7247 92.5406 28.8421C93.9409 29.1359 94.9912 29.6057 95.8081 30.3694C96.625 31.0743 97.0334 32.1904 97.0334 33.6002C97.0334 35.3624 96.3915 36.7722 95.1662 37.7708C93.8825 38.7694 92.1321 39.2394 89.8566 39.2394C87.756 39.2394 86.1223 38.8281 85.0137 38.0645ZM92.5406 35.4212C93.0656 35.0686 93.2992 34.54 93.2992 33.8939C93.2992 33.189 93.0074 32.6604 92.4823 32.4253C91.9571 32.1904 91.0818 31.9555 89.9149 31.7792C89.273 31.6617 88.8063 31.6029 88.5729 31.5441C88.1061 31.7792 87.756 32.1316 87.5226 32.5428C87.2892 32.954 87.1142 33.4239 87.1142 33.9526C87.1142 34.6575 87.406 35.1274 87.9311 35.4798C88.4561 35.8323 89.2148 36.0086 90.2067 36.0086C91.3152 36.0086 92.0737 35.8323 92.5406 35.4212ZM91.7237 21.4408C92.1321 21.0296 92.3655 20.2659 92.3655 19.2086C92.3655 18.0337 92.1321 17.27 91.7237 16.8002C91.3152 16.389 90.7318 16.154 89.9733 16.154C89.273 16.154 88.6897 16.389 88.2811 16.8002C87.8728 17.2114 87.6976 18.0337 87.6976 19.2086C87.6976 21.1471 88.4561 22.0869 90.0316 22.0869C90.6735 22.0869 91.257 21.852 91.7237 21.4408Z" fill="#111733"/>
<path d="M100.651 29.5471C99.484 27.9024 98.8423 25.6116 98.8423 22.5569C98.8423 19.5024 99.4257 17.1528 100.593 15.508C101.76 13.8632 103.51 13.0996 105.844 13.0996C108.178 13.0996 109.87 13.922 111.095 15.508C112.262 17.1528 112.846 19.5024 112.846 22.5569C112.846 25.6116 112.262 27.9612 111.037 29.6059C109.87 31.192 108.12 32.0143 105.844 32.0143C103.568 32.0143 101.818 31.192 100.651 29.5471ZM107.77 27.08C108.178 26.1402 108.353 24.6716 108.353 22.5569C108.353 20.4422 108.178 18.9149 107.77 18.0339C107.361 17.1528 106.719 16.6828 105.844 16.6828C104.969 16.6828 104.327 17.1528 103.919 18.0339C103.51 18.9149 103.335 20.4422 103.335 22.5569C103.335 24.6716 103.51 26.1989 103.919 27.08C104.327 28.0198 104.969 28.431 105.844 28.431C106.778 28.431 107.361 27.9612 107.77 27.08Z" fill="#111733"/>
<path d="M121.948 28.9595C120.489 26.9034 119.731 23.7314 119.731 19.3846C119.731 15.0377 120.489 11.9832 122.065 9.92724C123.582 7.8713 125.974 6.81396 129.125 6.81396C130.409 6.81396 131.459 6.99018 132.334 7.28389C132.684 7.40138 132.918 7.5776 133.093 7.81256C133.209 8.04753 133.268 8.34124 133.268 8.75242C133.268 9.45732 133.151 10.1035 132.859 10.7496C132.568 11.3958 132.217 11.572 131.809 11.3958C130.992 11.0433 130.175 10.9258 129.3 10.9258C127.666 10.9258 126.499 11.6307 125.741 13.0405C124.982 14.4503 124.574 16.565 124.574 19.4434C124.574 22.3216 124.982 24.4951 125.741 25.9049C126.499 27.3146 127.783 28.0195 129.417 28.0195C129.942 28.0195 130.35 27.9608 130.759 27.902C131.167 27.7846 131.576 27.6671 132.042 27.4909C132.159 27.4322 132.276 27.4322 132.334 27.4322C132.743 27.4322 133.034 27.7259 133.268 28.2546C133.501 28.7832 133.559 29.4293 133.559 30.193C133.559 30.5454 133.501 30.7804 133.384 31.0154C133.268 31.2503 132.976 31.4265 132.626 31.544C132.217 31.7203 131.692 31.8377 131.051 31.9552C130.409 32.0726 129.708 32.1314 129.008 32.1314C125.799 32.014 123.407 31.0154 121.948 28.9595Z" fill="#111733"/>
<path d="M136.768 30.5457C135.893 29.5471 135.484 28.2547 135.484 26.4925C135.484 24.4953 136.185 22.9092 137.585 21.7345C138.985 20.5596 141.144 19.9722 144.062 19.9722V19.0324C144.062 17.4463 143.244 16.6239 141.612 16.6239C140.969 16.6239 140.444 16.6827 139.977 16.8589C139.51 17.0351 138.985 17.2114 138.46 17.5051C138.168 17.6814 137.935 17.7988 137.818 17.7988C137.527 17.7988 137.177 17.5051 136.768 16.8002C136.36 16.154 136.185 15.6841 136.185 15.3316C136.185 14.9792 136.476 14.6267 137.001 14.2743C137.527 13.9218 138.285 13.6869 139.16 13.4519C140.035 13.2169 140.969 13.1582 141.903 13.1582C144.12 13.1582 145.812 13.6869 146.862 14.6855C147.913 15.7428 148.495 17.1526 148.495 18.9736V25.9638C148.495 27.5498 148.554 28.7247 148.729 29.4883C148.845 30.252 148.963 30.6631 148.963 30.8394C148.963 31.1918 148.554 31.4267 147.795 31.603C147.038 31.7792 146.337 31.8967 145.754 31.8967C145.404 31.8967 145.17 31.7204 144.995 31.4267C144.82 31.133 144.645 30.6631 144.528 29.9582C144.12 30.5457 143.595 31.0743 142.894 31.4855C142.194 31.8967 141.435 32.0729 140.503 32.0729C138.869 32.0141 137.643 31.5442 136.768 30.5457ZM143.012 28.1959C143.42 27.961 143.77 27.6086 144.062 27.1386V22.8506C141.085 22.8506 139.569 23.9667 139.569 26.1988C139.569 26.9624 139.744 27.5498 140.094 27.961C140.444 28.3722 140.91 28.6071 141.612 28.6071C142.137 28.6071 142.603 28.431 143.012 28.1959Z" fill="#111733"/>
<path d="M152.755 30.7803V19.1496C152.755 17.5636 152.698 16.4476 152.523 15.6839C152.405 14.979 152.289 14.509 152.289 14.3329C152.289 13.9804 152.698 13.7454 153.455 13.5692C154.214 13.393 154.914 13.3342 155.498 13.3342C155.848 13.3342 156.14 13.5105 156.315 13.8042C156.49 14.1566 156.607 14.509 156.665 14.8615C156.723 15.2727 156.782 15.5076 156.84 15.6839C157.248 14.8615 157.715 14.2154 158.182 13.7454C158.707 13.2755 159.29 13.0405 160.049 13.0405C160.69 13.0405 161.099 13.158 161.39 13.4517C161.624 13.7454 161.799 14.1566 161.799 14.744C161.799 15.2139 161.742 15.8013 161.567 16.4476C161.39 17.1525 161.215 17.4462 160.983 17.4462C160.865 17.4462 160.574 17.3874 160.283 17.2699C159.933 17.1525 159.64 17.0937 159.349 17.0937C158.882 17.0937 158.415 17.2699 158.007 17.6811C157.598 18.0923 157.365 18.5035 157.19 18.9734V30.6629C157.19 31.3678 156.548 31.6615 155.323 31.6615H154.623C153.398 31.8378 152.755 31.4853 152.755 30.7803Z" fill="#111733"/>
<path d="M164.425 29.5471C163.258 27.9024 162.616 25.6116 162.616 22.5569C162.616 19.5024 163.2 17.1528 164.367 15.508C165.533 13.8632 167.283 13.0996 169.619 13.0996C171.952 13.0996 173.702 13.922 174.87 15.508C176.036 17.1528 176.62 19.5024 176.62 22.5569C176.62 25.6116 176.036 27.9612 174.811 29.6059C173.644 31.192 171.894 32.0143 169.619 32.0143C167.342 32.0143 165.592 31.192 164.425 29.5471ZM171.544 27.08C171.952 26.1402 172.127 24.6716 172.127 22.5569C172.127 20.4422 171.952 18.9149 171.544 18.0339C171.135 17.1528 170.494 16.6828 169.619 16.6828C168.742 16.6828 168.101 17.1528 167.692 18.0339C167.283 18.9149 167.108 20.4422 167.108 22.5569C167.108 24.6716 167.283 26.1989 167.692 27.08C168.101 28.0198 168.742 28.431 169.619 28.431C170.494 28.431 171.135 27.9612 171.544 27.08Z" fill="#111733"/>
<path d="M180.587 30.7808C179.887 29.8997 179.479 28.7248 179.479 27.0801V14.2745C179.479 13.5696 180.062 13.2759 181.287 13.2759H182.162C182.805 13.2759 183.271 13.3346 183.505 13.5108C183.796 13.6871 183.914 13.922 183.914 14.2745V26.1402C183.914 26.8451 184.03 27.4326 184.321 27.785C184.614 28.1375 185.023 28.3136 185.605 28.3136C186.073 28.3136 186.48 28.1961 186.889 27.8438C187.298 27.55 187.589 27.1975 187.881 26.6689V14.2745C187.881 13.5696 188.465 13.2759 189.69 13.2759H190.624C191.79 13.2759 192.374 13.6283 192.374 14.2745V25.964C192.374 27.55 192.433 28.7248 192.549 29.4297C192.665 30.1346 192.724 30.6046 192.724 30.722C192.724 31.0745 192.315 31.3681 191.556 31.5444C190.74 31.7206 190.04 31.7793 189.398 31.7793C188.99 31.7793 188.756 31.6618 188.581 31.3681C188.465 31.0745 188.348 30.7808 188.289 30.3696C188.231 29.9583 188.173 29.6647 188.114 29.4297C187.589 30.1934 186.948 30.8395 186.248 31.3095C185.489 31.7793 184.671 32.073 183.739 32.073C182.337 32.0144 181.287 31.6032 180.587 30.7808Z" fill="#111733"/>
<path d="M196.517 31.368C195.467 30.8981 194.999 30.3694 194.999 29.782C194.999 29.3708 195.174 28.8421 195.583 28.1959C195.992 27.5498 196.342 27.2561 196.633 27.2561C196.692 27.2561 196.924 27.3735 197.217 27.6086C197.567 27.8435 197.858 28.0198 198.208 28.1959C198.558 28.3722 198.967 28.431 199.375 28.431C200.017 28.431 200.542 28.2547 200.893 27.961C201.243 27.6673 201.418 27.1974 201.418 26.6686C201.418 26.0225 201.184 25.5526 200.775 25.2002C200.367 24.8477 199.667 24.3778 198.617 23.8491C197.508 23.2618 196.692 22.5569 196.049 21.7931C195.467 21.0296 195.117 19.9722 195.117 18.6212C195.117 16.9765 195.642 15.6253 196.633 14.6267C197.683 13.6281 199.025 13.1582 200.659 13.1582C201.709 13.1582 202.643 13.3344 203.577 13.6281C204.511 13.9806 204.977 14.3918 204.977 14.9792C204.977 15.3904 204.802 15.919 204.511 16.5651C204.218 17.2114 203.927 17.5051 203.693 17.5051C203.634 17.5051 203.343 17.3876 202.877 17.1526C202.409 16.9177 201.884 16.8002 201.3 16.8002C200.718 16.8002 200.25 16.9177 199.9 17.2114C199.55 17.4463 199.375 17.8575 199.375 18.3861C199.375 18.9149 199.55 19.3261 199.9 19.6785C200.25 20.031 200.775 20.3834 201.534 20.7945L202.175 21.2057C203.227 21.7932 204.102 22.4981 204.686 23.3204C205.268 24.1428 205.561 25.2002 205.561 26.5512C205.561 28.2547 205.036 29.6645 203.984 30.7218C202.934 31.7792 201.475 32.3078 199.725 32.3078C198.617 32.0141 197.508 31.8379 196.517 31.368Z" fill="#111733"/>
<path d="M209.353 29.6647C208.128 28.0786 207.485 25.7877 207.485 22.6745C207.485 16.2716 209.878 13.0996 214.604 13.0996C218.863 13.0996 220.965 16.2129 220.965 22.4982C220.965 22.7332 220.731 23.1443 220.381 23.6143C219.972 24.0842 219.622 24.3779 219.388 24.3779H212.037C212.096 25.8465 212.387 26.9038 212.971 27.55C213.496 28.1961 214.312 28.4898 215.304 28.4898C215.888 28.4898 216.471 28.431 216.938 28.2549C217.404 28.0786 217.813 27.9024 218.222 27.6675C218.629 27.4325 218.863 27.3149 218.922 27.3149C219.213 27.3149 219.563 27.6087 219.972 28.2549C220.381 28.901 220.556 29.371 220.556 29.6647C220.556 30.1345 220.263 30.5457 219.681 30.8982C219.097 31.2506 218.397 31.5443 217.522 31.7793C216.646 32.0143 215.888 32.073 215.187 32.073C212.562 32.0143 210.637 31.2506 209.353 29.6647ZM216.821 21.3822C216.821 19.6786 216.646 18.3863 216.296 17.6227C215.946 16.8002 215.363 16.4479 214.546 16.4479C213.729 16.4479 213.087 16.859 212.678 17.6227C212.271 18.3863 211.978 19.6786 211.921 21.4408H216.821V21.3822Z" fill="#111733"/>
<path d="M224.874 30.7804C224.115 29.9581 223.708 28.7245 223.708 27.021V6.22662C223.708 5.58046 224.349 5.22803 225.574 5.22803H226.274C227.5 5.22803 228.141 5.58046 228.141 6.22662V27.021C228.141 27.5497 228.2 27.9022 228.375 28.1371C228.55 28.372 228.783 28.4896 229.134 28.4896C229.309 28.4896 229.484 28.4896 229.659 28.4308C229.834 28.372 229.95 28.372 230.066 28.372C230.3 28.372 230.534 28.6657 230.709 29.1945C230.884 29.7232 231 30.2518 231 30.6042C231 31.0742 230.709 31.4853 230.066 31.7204C229.425 31.9553 228.783 32.0728 228.025 32.0728C226.683 32.014 225.633 31.6028 224.874 30.7804Z" fill="#111733"/>
<path d="M34.4253 0H7.29351C3.26749 0 0 3.28951 0 7.34266V34.6573C0 38.7106 3.26749 42 7.29351 42H34.4253C38.4514 42 41.7189 38.7106 41.7189 34.6573V7.34266C41.7189 3.28951 38.4514 0 34.4253 0ZM11.9614 28.7832C11.9614 29.7231 11.2028 30.4867 10.2693 30.4867H7.23516C6.3016 30.4867 5.54306 29.7231 5.54306 28.7832V13.2168C5.54306 12.2769 6.3016 11.5133 7.23516 11.5133H10.2693C11.2028 11.5133 11.9614 12.2769 11.9614 13.2168V28.7832ZM28.1238 31.7202C28.1238 32.6602 27.3652 33.4237 26.4317 33.4237H15.2872C14.3536 33.4237 13.5951 32.6602 13.5951 31.7202V10.2797C13.5951 9.33986 14.3536 8.57622 15.2872 8.57622H26.49C27.4236 8.57622 28.1821 9.33986 28.1821 10.2797V31.7202H28.1238ZM36.1759 28.7832C36.1759 29.7231 35.4173 30.4867 34.4837 30.4867H31.4496C30.5161 30.4867 29.7576 29.7231 29.7576 28.7832V13.2168C29.7576 12.2769 30.5161 11.5133 31.4496 11.5133H34.4837C35.4173 11.5133 36.1759 12.2769 36.1759 13.2168V28.7832Z" fill="#28B473"/>
</g>
<defs>
<clipPath id="clip0_647_2413">
<rect width="231" height="42" fill="white"/>
</clipPath>
</defs>
</svg>
