<svg width="162" height="130" viewBox="0 0 162 130" fill="none" xmlns="http://www.w3.org/2000/svg">
<path d="M119.417 121.087C119.417 126.005 115.405 130 110.469 130H51.5312C46.5943 130 42.5828 126.005 42.5828 121.087V8.91259C42.5828 3.99532 46.5943 0 51.5312 0H110.777C115.714 0 119.726 3.99532 119.726 8.91259V121.087H119.417Z" fill="#E3F4EA"/>
<path d="M33.9428 105.721C33.9428 110.639 29.9314 114.634 24.9943 114.634H8.94856C4.01147 114.634 0 110.639 0 105.721V24.279C0 19.3618 4.01147 15.3665 8.94856 15.3665H24.9943C29.9314 15.3665 33.9428 19.3618 33.9428 24.279V105.721Z" fill="#E3F4EA"/>
<path d="M162 105.721C162 110.639 157.989 114.634 153.051 114.634H137.005C132.069 114.634 128.057 110.639 128.057 105.721V24.279C128.057 19.3618 132.069 15.3665 137.005 15.3665H153.051C157.989 15.3665 162 19.3618 162 24.279V105.721Z" fill="#E3F4EA"/>
</svg>
