<svg xmlns="http://www.w3.org/2000/svg" xmlns:xlink="http://www.w3.org/1999/xlink" width="120" height="80" fill="none"><rect x=".75" y=".75" width="118.5" height="78.5" rx="5.25" stroke="#b6c0c6" stroke-width="1.5"/><path d="M35 14.7H16.8c-.5 0-.9.3-.9.7v13.5c0 .4.4.8.9.8H35c.5 0 .9-.3.9-.7V15.4c0-.4-.4-.7-.9-.7zm0 17.8H16.8c-.5 0-.9.3-.9.7v13.5c0 .4.4.8.9.8H35c.5 0 .9-.3.9-.7V33.2c0-.4-.4-.7-.9-.7zm0 17.8H16.8c-.5 0-.9.3-.9.7v13.5c0 .4.4.8.9.8H35c.5 0 .9-.3.9-.7V51c0-.4-.4-.7-.9-.7zm34.7-34.6h-30a.68.68 0 0 0-.7.7v1.2a.68.68 0 0 0 .7.7h30a.68.68 0 0 0 .7-.7v-1.2a.68.68 0 0 0-.7-.7zm0 17.8h-30a.68.68 0 0 0-.7.7v1.2a.68.68 0 0 0 .7.7h30a.68.68 0 0 0 .7-.7v-1.2a.68.68 0 0 0-.7-.7zm0 17.8h-30a.68.68 0 0 0-.7.7v1.2a.68.68 0 0 0 .7.7h30a.68.68 0 0 0 .7-.7V52a.68.68 0 0 0-.7-.7z" fill="#8796a1"/><g fill="#b6c0c6"><path d="M103.4 20.8H39.8a.68.68 0 0 0-.7.7.68.68 0 0 0 .7.7h63.7a.68.68 0 0 0 .7-.7c-.1-.4-.4-.7-.8-.7zm0 2.5H39.8a.68.68 0 0 0-.7.7.68.68 0 0 0 .7.7h63.7a.68.68 0 0 0 .7-.7c-.1-.4-.4-.7-.8-.7zm-63.6 3.8h34.4a.68.68 0 0 0 .7-.7.68.68 0 0 0-.7-.7H39.8a.68.68 0 0 0-.7.7.68.68 0 0 0 .7.7z"/><use xlink:href="#B"/><use xlink:href="#B" y="2.5"/><path d="M39.8 44.9h34.4a.68.68 0 1 0 0-1.4H39.8a.68.68 0 1 0 0 1.4z"/><use xlink:href="#B" y="17.8"/><use xlink:href="#B" y="20.3"/><path d="M74.1 61.4H39.8a.68.68 0 1 0 0 1.4h34.4a.68.68 0 0 0 .7-.7c-.1-.4-.4-.7-.8-.7z"/></g><defs ><path id="B" d="M103.4 38.6H39.8a.68.68 0 1 0 0 1.4h63.7a.68.68 0 0 0 .7-.7c-.1-.4-.4-.7-.8-.7z"/></defs></svg>