<svg xmlns="http://www.w3.org/2000/svg" width="100" height="67" fill="none"><g fill-rule="evenodd"><path d="M14.084 12.5H29.25c.417 0 .75.25.75.583v11.333c0 .333-.333.583-.75.583H14.084c-.417 0-.75-.333-.75-.667v-11.25c0-.333.333-.583.75-.583zm0 14.833H29.25c.417 0 .75.25.75.583V39.25c0 .333-.333.583-.75.583H14.084c-.417 0-.75-.333-.75-.667v-11.25c0-.333.333-.583.75-.583zM29.25 42.167H14.084c-.417 0-.75.25-.75.583V54c0 .333.333.667.75.667H29.25c.417 0 .75-.25.75-.583V42.75c0-.333-.333-.583-.75-.583zm3.917-28.833h25a.57.57 0 0 1 .583.583v1a.57.57 0 0 1-.583.583h-25a.57.57 0 0 1-.583-.583v-1a.57.57 0 0 1 .583-.583zm25 14.833h-25a.57.57 0 0 0-.583.583v1a.57.57 0 0 0 .583.583h25a.57.57 0 0 0 .583-.583v-1a.57.57 0 0 0-.583-.583zM33.167 43h25a.57.57 0 0 1 .583.583v1a.57.57 0 0 1-.583.583h-25a.57.57 0 0 1-.583-.583v-1a.57.57 0 0 1 .583-.583z" fill="#8796a1"/><path d="M86.251 17.583h-53a.57.57 0 0 0-.583.583.57.57 0 0 0 .583.583h53.083a.57.57 0 0 0 .583-.583c-.083-.333-.333-.583-.667-.583zm0 2.083h-53a.57.57 0 0 0-.583.583.57.57 0 0 0 .583.583h53.083a.57.57 0 0 0 .583-.583c-.083-.333-.333-.583-.667-.583zm-24.333 3.167H33.25a.57.57 0 0 1-.583-.583.57.57 0 0 1 .583-.583h28.667a.57.57 0 0 1 .583.583.57.57 0 0 1-.583.583zm24.333 9.583h-53a.57.57 0 1 0 0 1.167h53.083a.57.57 0 0 0 .583-.583c-.083-.333-.333-.583-.667-.583zm-53 2.083h53c.333 0 .583.25.667.583a.57.57 0 0 1-.583.583H33.25a.57.57 0 1 1 0-1.167zm0 3.167h28.667a.57.57 0 1 0 0-1.167H33.25a.57.57 0 1 0 0 1.167zm0 9.583h53c.333 0 .583.25.667.583a.57.57 0 0 1-.583.583H33.25a.57.57 0 1 1 0-1.167zm53 2.083h-53a.57.57 0 1 0 0 1.167h53.083a.57.57 0 0 0 .583-.583c-.083-.333-.333-.583-.667-.583zm-53 2.083h28.583c.333 0 .583.25.667.583a.57.57 0 0 1-.583.583H33.25a.57.57 0 1 1 0-1.167z" fill="#b6c0c6"/></g><rect x=".75" y=".75" width="98.5" height="65.167" rx="2.25" stroke="#8796a1" stroke-width="1.5"/></svg>