<svg xmlns="http://www.w3.org/2000/svg" xmlns:xlink="http://www.w3.org/1999/xlink" width="120" height="80" fill="none"><rect x=".75" y=".75" width="118.5" height="78.5" rx="5.25" stroke="#b6c0c6" stroke-width="1.5"/><path d="M103.2 14.7H85c-.4 0-.9.3-.9.7V29c0 .3.3.7.9.7h18.3c.4 0 .9-.3.9-.8V15.4c-.1-.4-.4-.7-1-.7zm0 17.8H85c-.4 0-.9.3-.9.7v13.6c0 .3.3.7.9.7h18.3c.4 0 .9-.3.9-.8V33.2c-.1-.4-.4-.7-1-.7zm0 17.8H85c-.4 0-.9.3-.9.7v13.6c0 .3.3.7.9.7h18.3c.4 0 .9-.3.9-.8V51c-.1-.3-.4-.7-1-.7zm-23-34.6h-30a.68.68 0 0 0-.7.7v1.2a.68.68 0 0 0 .7.7h30a.68.68 0 0 0 .7-.7v-1.2a.68.68 0 0 0-.7-.7zm0 17.8h-30a.68.68 0 0 0-.7.7v1.2a.68.68 0 0 0 .7.7h30a.68.68 0 0 0 .7-.7v-1.2a.68.68 0 0 0-.7-.7zm0 17.8h-30a.68.68 0 0 0-.7.7v1.2a.68.68 0 0 0 .7.7h30a.68.68 0 0 0 .7-.7V52a.68.68 0 0 0-.7-.7z" fill="#8796a1"/><g fill="#b6c0c6"><path d="M80.2 20.8H16.6a.68.68 0 0 0-.7.7.68.68 0 0 0 .7.7h63.7a.68.68 0 0 0 .7-.7c-.1-.4-.4-.7-.8-.7zm0 2.5H16.6a.68.68 0 0 0-.7.7.68.68 0 0 0 .7.7h63.7a.68.68 0 0 0 .7-.7c-.1-.4-.4-.7-.8-.7zm0 2.5H45.9a.68.68 0 0 0-.7.7.68.68 0 0 0 .7.7h34.4a.68.68 0 0 0 .7-.7c-.1-.4-.4-.7-.8-.7z"/><use xlink:href="#B"/><use xlink:href="#B" y="2.5"/><path d="M80.2 43.6H45.9a.68.68 0 1 0 0 1.4h34.4a.68.68 0 0 0 .7-.7c-.1-.4-.4-.7-.8-.7z"/><use xlink:href="#B" y="17.8"/><use xlink:href="#B" y="20.3"/><path d="M80.2 61.4H45.9a.68.68 0 1 0 0 1.4h34.4a.68.68 0 0 0 .7-.7c-.1-.4-.4-.7-.8-.7z"/></g><defs ><path id="B" d="M80.2 38.6H16.6a.68.68 0 1 0 0 1.4h63.7a.68.68 0 0 0 .7-.7c-.1-.4-.4-.7-.8-.7z"/></defs></svg>