<svg xmlns="http://www.w3.org/2000/svg" xmlns:xlink="http://www.w3.org/1999/xlink" width="120" height="80" fill="none"><rect x=".75" y=".75" width="118.5" height="78.5" rx="5.25" stroke="#b6c0c6" stroke-width="1.5"/><path d="M50.8 22.8h18.3c.5 0 .9-.3.9-.7V8.5c0-.4-.4-.7-.9-.7H50.8c-.5 0-.9.3-.9.7V22c0 .5.5.8.9.8zM75 25.7H45a.68.68 0 0 0-.7.7v1.2a.68.68 0 0 0 .7.7h30a.68.68 0 0 0 .7-.7v-1.2a.68.68 0 0 0-.7-.7zm-5.9 32.2c.5 0 .9-.3.9-.7V43.5c0-.4-.4-.7-.9-.7H50.8c-.5 0-.9.3-.9.7V57c0 .4.4.8.9.8h18.3v.1zm5.9 2.9H45a.68.68 0 0 0-.7.7v1.2a.68.68 0 0 0 .7.7h30a.68.68 0 0 0 .7-.7v-1.2a.68.68 0 0 0-.7-.7z" fill="#8796a1"/><g fill="#b6c0c6"><path d="M104.3 30.9H15.7a.68.68 0 0 0-.7.7.68.68 0 0 0 .7.7h88.7a.68.68 0 0 0 .7-.7c-.1-.4-.4-.7-.8-.7z"/><use xlink:href="#B"/><path d="M77.2 37.1a.68.68 0 1 0 0-1.4H42.8a.68.68 0 1 0 0 1.4h34.4z"/><use xlink:href="#B" y="32.6"/><use xlink:href="#B" y="35.1"/><path d="M77.2 70.8H42.8a.68.68 0 1 0 0 1.4h34.4a.68.68 0 0 0 .7-.7c-.1-.4-.4-.7-.7-.7z"/></g><defs ><path id="B" d="M104.3 33.3H15.7a.68.68 0 1 0 0 1.4h88.7a.68.68 0 0 0 .7-.7c-.1-.4-.4-.7-.8-.7z"/></defs></svg>