<svg xmlns="http://www.w3.org/2000/svg" width="120" height="80" fill="none" xmlns:v="https://vecta.io/nano"><use href="#B" fill="#fff"/><use href="#B" stroke="#8796a1" stroke-width="1.5"/><g fill="#58707f"><path d="M35 14.7H16.8c-.5 0-.9.3-.9.7v13.5c0 .4.4.8.9.8H35c.5 0 .9-.3.9-.7V15.4c0-.4-.4-.7-.9-.7zm0 17.8H16.8c-.5 0-.9.3-.9.7v13.5c0 .4.4.8.9.8H35c.5 0 .9-.3.9-.7V33.2c0-.4-.4-.7-.9-.7zm0 17.8H16.8c-.5 0-.9.3-.9.7v13.5c0 .4.4.8.9.8H35c.5 0 .9-.3.9-.7V51c0-.4-.4-.7-.9-.7z"/><use href="#C"/><use href="#C" y="17.8"/><path d="M69.7 51.3h-30a.68.68 0 0 0-.7.7v1.2a.68.68 0 0 0 .7.7h30a.68.68 0 0 0 .7-.7V52a.68.68 0 0 0-.7-.7z"/><use href="#D"/><use href="#D" y="2.5"/><path d="M39.8 27.1h34.4a.68.68 0 0 0 .7-.7.68.68 0 0 0-.7-.7H39.8a.68.68 0 0 0-.7.7.68.68 0 0 0 .7.7z"/><use href="#E"/><use href="#E" y="2.5"/><path d="M39.8 44.9h34.4a.68.68 0 1 0 0-1.4H39.8a.68.68 0 1 0 0 1.4z"/><use href="#E" y="17.8"/><use href="#E" y="20.3"/><path d="M74.1 61.4H39.8a.68.68 0 1 0 0 1.4h34.4a.68.68 0 0 0 .7-.7c-.1-.4-.4-.7-.8-.7z"/></g><defs ><path id="B" d="M3 .75h114A2.25 2.25 0 0 1 119.25 3v74a2.25 2.25 0 0 1-2.25 2.25H3A2.25 2.25 0 0 1 .75 77V3A2.25 2.25 0 0 1 3 .75z"/><path id="C" d="M69.7 15.7h-30a.68.68 0 0 0-.7.7v1.2a.68.68 0 0 0 .7.7h30a.68.68 0 0 0 .7-.7v-1.2a.68.68 0 0 0-.7-.7z"/><path id="D" d="M103.4 20.8H39.8a.68.68 0 0 0-.7.7.68.68 0 0 0 .7.7h63.7a.68.68 0 0 0 .7-.7c-.1-.4-.4-.7-.8-.7z"/><path id="E" d="M103.4 38.6H39.8a.68.68 0 1 0 0 1.4h63.7a.68.68 0 0 0 .7-.7c-.1-.4-.4-.7-.8-.7z"/></defs></svg>