<svg xmlns="http://www.w3.org/2000/svg" width="120" height="80" fill="none" xmlns:v="https://vecta.io/nano"><use href="#B" fill="#fff"/><use href="#B" stroke="#8796a1" stroke-width="1.5"/><path d="M35 14.7H16.7c-.5 0-.9.3-.9.6v11c0 .4.4.6.9.6H35c.5 0 .9-.3.9-.6v-11c0-.4-.4-.6-.9-.6zm22.8 0H39.5c-.5 0-.9.3-.9.7v13.5c0 .4.4.8.9.8h18.3c.5 0 .9-.3.9-.7V15.4c-.1-.4-.5-.7-.9-.7zm22.7 0H62.2c-.5 0-.9.2-.9.5v9.5c0 .3.4.6.9.6h18.3c.5 0 .9-.2.9-.5v-9.6c0-.3-.5-.5-.9-.5zm22.8 0H85c-.5 0-.9.3-.9.7v13.5c0 .4.4.8.9.8h18.3c.5 0 .9-.3.9-.7V15.4c-.1-.4-.5-.7-.9-.7zM35 29.7H16.7c-.5 0-.9.5-.9.9v17.8c0 .6.4 1 .9 1H35c.5 0 .9-.5.9-.9V30.6c0-.6-.4-.9-.9-.9zm22.8 2.8H39.5c-.5 0-.9.3-.9.6V44c0 .4.4.6.9.6h18.3c.5 0 .9-.3.9-.6V33.1c-.1-.4-.5-.6-.9-.6zm22.7-4.4H62.2c-.5 0-.9.5-.9.9v17.5c0 .6.4 1 .9 1h18.3c.5 0 .9-.5.9-.9V29c0-.5-.5-.9-.9-.9zm22.8 4.4H85c-.5 0-.9.5-.9.9v18.1c0 .6.4 1.1.9 1.1h18.3c.5 0 .9-.5.9-.9V33.4c-.1-.5-.5-.9-.9-.9zM35 52.2H16.7c-.5 0-.9.3-.9.6v11.8c0 .4.4.7.9.7H35c.5 0 .9-.3.9-.6V52.9c0-.4-.4-.7-.9-.7zm22.8-4.8H39.5c-.5 0-.9.4-.9.8v16.1c0 .5.4.9.9.9h18.3c.5 0 .9-.4.9-.8V48.2c-.1-.5-.5-.8-.9-.8zm22.7 2.9H62.2c-.5 0-.9.3-.9.7v13.5c0 .4.4.8.9.8h18.3c.5 0 .9-.3.9-.7V51c0-.4-.5-.7-.9-.7zm22.8 5.1H85c-.5 0-.9.2-.9.5v8.9c0 .3.4.5.9.5h18.3c.5 0 .9-.2.9-.5v-9c-.1-.2-.5-.4-.9-.4z" fill="#58707f"/><defs ><path id="B" d="M3 .75h114A2.25 2.25 0 0 1 119.25 3v74a2.25 2.25 0 0 1-2.25 2.25H3A2.25 2.25 0 0 1 .75 77V3A2.25 2.25 0 0 1 3 .75z"/></defs></svg>