<svg xmlns="http://www.w3.org/2000/svg" width="100" height="67" fill="none"><path d="M28.5 12.5H13.25c-.417 0-.75.25-.75.5v9.167c0 .333.333.5.75.5H28.5c.417 0 .75-.25.75-.5V13c0-.333-.333-.5-.75-.5zm19 0H32.25c-.417 0-.75.25-.75.583v11.25c0 .333.333.667.75.667H47.5c.417 0 .75-.25.75-.583V13.083a.8.8 0 0 0-.75-.583zm18.917 0h-15.25c-.417 0-.75.167-.75.417v7.917c0 .25.333.5.75.5h15.25c.417 0 .75-.167.75-.417v-8c0-.25-.417-.417-.75-.417zm19 0h-15.25c-.417 0-.75.25-.75.583v11.25c0 .333.333.667.75.667h15.25c.417 0 .75-.25.75-.583V13.083a.8.8 0 0 0-.75-.583zM28.5 25H13.25a.81.81 0 0 0-.75.75v14.833c0 .5.333.833.75.833H28.5a.81.81 0 0 0 .75-.75V25.75c0-.5-.333-.75-.75-.75zm19 2.333H32.25c-.417 0-.75.25-.75.5v9.083c0 .333.333.5.75.5H47.5c.417 0 .75-.25.75-.5v-9.083c-.083-.333-.417-.5-.75-.5zm18.917-3.666h-15.25a.81.81 0 0 0-.75.75V39c0 .5.333.833.75.833h15.25a.81.81 0 0 0 .75-.75V24.417a.81.81 0 0 0-.75-.75zm19 3.666h-15.25a.81.81 0 0 0-.75.75v15.083c0 .5.333.917.75.917h15.25a.81.81 0 0 0 .75-.75v-15.25c-.083-.417-.417-.75-.75-.75zM28.5 43.75H13.25c-.417 0-.75.25-.75.5v9.833c0 .333.333.583.75.583H28.5c.417 0 .75-.25.75-.5v-9.833c0-.333-.333-.583-.75-.583zm19-4H32.25c-.417 0-.75.333-.75.667v13.417c0 .417.333.75.75.75H47.5c.417 0 .75-.333.75-.667v-13.5c-.083-.417-.417-.667-.75-.667zm18.917 2.417h-15.25c-.417 0-.75.25-.75.583V54c0 .333.333.667.75.667h15.25c.417 0 .75-.25.75-.583V42.75c0-.333-.417-.583-.75-.583zm19 4.25h-15.25c-.417 0-.75.167-.75.417v7.417c0 .25.333.417.75.417h15.25c.417 0 .75-.167.75-.417v-7.5c-.083-.167-.417-.333-.75-.333z" fill="#8796a1"/><rect x=".75" y=".75" width="98.5" height="65.167" rx="2.25" stroke="#8796a1" stroke-width="1.5"/></svg>