<svg xmlns="http://www.w3.org/2000/svg" width="120" height="80" fill="none" xmlns:v="https://vecta.io/nano"><use href="#B" fill="#fff"/><use href="#B" stroke="#8796a1" stroke-width="1.5"/><g fill="#58707f"><path d="M111.733 38.467L108.4 35c-.133-.133-.533-.133-.533 0l-.534.533a.41.41 0 0 0 0 .533L110 38.733a.41.41 0 0 1 0 .533l-2.667 2.667a.41.41 0 0 0 0 .533l.534.667c.133.133.4.133.533 0l3.333-3.467.667-.533-.667-.667zm-99.066-2.534c.133-.267.133-.4 0-.533l-.533-.533c-.133-.267-.4-.267-.533 0l-3.467 3.467-.533.533.533.533 3.467 3.467s.267 0 .4-.133l.533-.533c.133-.267.133-.4 0-.667L10 39c-.133-.267-.133-.4 0-.533l2.667-2.533zM16.8 37.6h18.267c.533 0 .8-.4.8-.667v-13.6c0-.4-.4-.667-.8-.667H16.8c-.533 0-.8.4-.8.667V36.8c-.133.533.267.8.8.8zm22.667 0h18.267c.533 0 .8-.4.8-.667v-13.6c0-.4-.4-.667-.8-.667H39.467c-.533 0-.8.4-.8.667V36.8c0 .533.4.8.8.8zm22.8 0h18.267c.533 0 .8-.4.8-.667v-13.6c0-.4-.4-.667-.8-.667H62.267c-.533 0-.8.4-.8.667V36.8c-.133.533.267.8.8.8zm22.666 0H103.2c.533 0 .8-.4.8-.667v-13.6c0-.4-.4-.667-.8-.667H84.933c-.533 0-.8.4-.8.667V36.8c0 .533.4.8.8.8zM16.8 55.2h18.267c.533 0 .8-.4.8-.667v-13.6c0-.4-.4-.667-.8-.667H16.8c-.533 0-.8.4-.8.667V54.4c-.133.533.267.8.8.8zm22.667 0h18.267c.533 0 .8-.4.8-.667v-13.6c0-.4-.4-.667-.8-.667H39.467c-.533 0-.8.4-.8.667V54.4c0 .533.4.8.8.8zm22.8 0h18.267c.533 0 .8-.4.8-.667v-13.6c0-.4-.4-.667-.8-.667H62.267c-.533 0-.8.4-.8.667V54.4c-.133.533.267.8.8.8zm22.666 0H103.2c.533 0 .8-.4.8-.667v-13.6c0-.4-.4-.667-.8-.667H84.933c-.533 0-.8.4-.8.667V54.4c0 .533.4.8.8.8z"/><use href="#C"/></g><g fill="#9ea9b2"><use href="#C" x="-4"/><use href="#C" x="4"/></g><defs ><path id="B" d="M3 .75h114A2.25 2.25 0 0 1 119.25 3v74a2.25 2.25 0 0 1-2.25 2.25H3A2.25 2.25 0 0 1 .75 77V3A2.25 2.25 0 0 1 3 .75z"/><path id="C" d="M60.267 58.267c-.933 0-1.6.667-1.6 1.6s.667 1.6 1.6 1.6 1.6-.667 1.6-1.6-.667-1.6-1.6-1.6z"/></defs></svg>