<svg xmlns="http://www.w3.org/2000/svg" width="120" height="80" fill="none" xmlns:v="https://vecta.io/nano"><style><![CDATA[.B{fill:#58707f}]]></style><use href="#B" fill="#fff"/><use href="#B" stroke="#8796a1" stroke-width="1.5"/><g stroke="#58707f" stroke-width=".911"><rect x="9.455" y="9.491" width="101.089" height="61.018" rx="1.366" fill="#fff"/><path d="M10.821 9.491h98.358c.754 0 1.366.612 1.366 1.366v5.009H9.455v-5.009c0-.755.612-1.366 1.366-1.366z" class="B"/></g><use href="#C" class="B"/><path d="M31.385 23.607h22.623c.302 0 .528.273.528.637v1.093c0 .364-.226.637-.528.637H31.385c-.302 0-.528-.273-.528-.637v-1.093c0-.364.226-.637.528-.637z" class="B"/><use href="#D" class="B"/><path d="M62.381 24.062h44.487c.28 0 .489.273.489.637s-.209.637-.489.637H62.311c-.28 0-.49-.273-.49-.637.07-.364.28-.637.56-.637zm.351 2.277H93.97a.62.62 0 0 1 .638.638.62.62 0 0 1-.638.637H62.641a.62.62 0 0 1-.638-.637c.091-.364.364-.638.729-.638z" class="B"/><use href="#C" y="19.125" class="B"/><path d="M31.385 42.732h22.623c.302 0 .528.273.528.637v1.093c0 .364-.226.638-.528.638H31.385c-.302 0-.528-.273-.528-.638v-1.093c0-.364.226-.637.528-.637z" class="B"/><use href="#E" class="B"/><use href="#E" y="2.276" class="B"/><use href="#F" class="B"/><use href="#C" y="37.34" class="B"/><path d="M31.385 60.946h22.623c.302 0 .528.273.528.638v1.093c0 .364-.226.638-.528.638H31.385c-.302 0-.528-.273-.528-.638v-1.093c0-.364.226-.638.528-.638z" class="B"/><use href="#E" y="18.214" class="B"/><use href="#D" y="39.616" class="B"/><use href="#F" y="18.214" class="B"/><path d="M12.886 11.768h10.441c.139 0 .244.21.244.49v.841c0 .28-.104.49-.244.49H12.886c-.139 0-.244-.21-.244-.49v-.841c0-.28.104-.49.244-.49zm18.296 0h13.922c.186 0 .325.21.325.49v.841c0 .28-.139.49-.325.49H31.182c-.186 0-.325-.21-.325-.49v-.841c0-.28.139-.49.325-.49zm31.045 0H79.63c.232 0 .406.21.406.49v.841c0 .28-.174.49-.406.49H62.227c-.232 0-.406-.21-.406-.49v-.841c0-.28.174-.49.406-.49z" fill="#fff"/><path d="M9.911 33.625H110.09v.911H9.911zm0 19.125H110.09v.911H9.911z" class="B"/><defs ><path id="B" d="M3 .75h114A2.25 2.25 0 0 1 119.25 3v74a2.25 2.25 0 0 1-2.25 2.25H3A2.25 2.25 0 0 1 .75 77V3A2.25 2.25 0 0 1 3 .75z"/><path id="C" d="M13.187 19.053h9.896a.53.53 0 0 1 .489.51v9.909c0 .219-.163.51-.489.51h-9.95c-.217 0-.489-.219-.489-.583v-9.836c.054-.291.217-.51.544-.51z"/><path id="D" d="M62.381 21.786h44.487c.28 0 .489.273.489.637s-.209.638-.489.638H62.311c-.28 0-.49-.273-.49-.638.07-.364.28-.637.56-.637z"/><path id="E" d="M62.381 40.911h44.487c.28 0 .489.273.489.638s-.209.637-.489.637H62.311c-.28 0-.49-.273-.49-.637.07-.364.28-.638.56-.638z"/><path id="F" d="M62.732 45.464H93.97a.62.62 0 1 1 0 1.275H62.641a.62.62 0 0 1-.638-.638c.091-.364.364-.637.729-.637z"/></defs></svg>