<svg width="200" height="200" viewBox="0 0 200 200" fill="none" xmlns="http://www.w3.org/2000/svg">
<rect width="200" height="200" rx="100" fill="#222C39"/>
<path d="M35 129.583C40.9831 129.583 45.8333 124.733 45.8333 118.75V80.8333C45.8333 74.8502 40.9831 70 35 70M165 129.583C159.017 129.583 154.167 124.733 154.167 118.75V80.8333C154.167 74.8502 159.017 70 165 70M72.9167 129.583H127.083C133.067 129.583 137.917 124.733 137.917 118.75V80.8333C137.917 74.8502 133.067 70 127.083 70H72.9167C66.9336 70 62.0833 74.8502 62.0833 80.8333V118.75C62.0833 124.733 66.9336 129.583 72.9167 129.583Z" stroke="#3979FF" stroke-width="8"/>
<path d="M78.3334 97.0836H102.708M78.3334 113.334H121.667" stroke="#3979FF" stroke-width="8" stroke-linecap="round"/>
</svg>
