<!--?xml version="1.0" encoding="utf-8"?-->
<!-- Generator: Adobe Illustrator 18.0.0, SVG Export Plug-In . SVG Version: 6.00 Build 0)  -->

<svg version="1.1" id="_x31_0" xmlns="http://www.w3.org/2000/svg" xmlns:xlink="http://www.w3.org/1999/xlink" x="0px" y="0px" viewBox="0 0 512 512" style="width: 256px; height: 256px; opacity: 1;" xml:space="preserve">
<style type="text/css">
	.st0{fill:#374149;}
</style>
<g>
	<path class="st0" d="M256,0C114.614,0,0,114.614,0,256s114.614,256,256,256c141.383,0,256-114.614,256-256S397.383,0,256,0z
		 M281.672,411.586h-51.348l-3.5-55.441h58.348L281.672,411.586z M325.621,268.496c-10.312,10.313-22.507,18.054-35.812,22.906
		c-2.786,1.015-4.637,3.66-4.637,6.621v28.481h-58.348v-51.191c0-20.062,16.266-36.325,36.328-36.325
		c20.68-5.242,32.962-21.734,32.962-40.117c0-10.715-4.172-20.786-11.75-28.363c-7.574-7.574-17.648-11.746-28.363-11.746
		c-10.715,0-20.789,4.172-28.367,11.75c-7.574,7.574-11.746,17.644-11.746,28.359h0.168c0,2.832-13.098,5.125-29.258,5.125
		s-29.258-2.293-29.258-5.125c0-38.031,21.422-72.774,58.55-90.446c1.348-0.641,2.727-1.214,4.133-1.714
		c50.723-18.031,103.098,3.652,126.227,52.258c0.64,1.348,1.214,2.726,1.71,4.133C361.942,201.863,352.519,241.594,325.621,268.496z
		" style="fill: rgb(119, 119, 119);"></path>
</g>
</svg>
