<svg enable-background="new 0 0 68 68" height="20" viewBox="0 0 68 68" width="20" xmlns="http://www.w3.org/2000/svg"><g><g><path d="m65.669342 16.3841839-1.2619553 12.1610603c-.1460266 1.3349686-1.7834358 1.9085884-2.7222595.9699535l-2.9827499-2.9829407-18.7839584 18.7838937c-1.1785583 1.1785583-3.2540588 1.1785583-4.4326172 0l-10.346241-10.346241-17.4801803 17.4906196c-.6049404.6048775-1.4079833.9178162-2.2110906.9178162s-1.6061498-.3129387-2.21109-.9178162c-1.2202566-1.2203217-1.2202566-3.2019234 0-4.432621l19.6912708-19.6912708c1.1785603-1.1785603 3.2540588-1.1785603 4.4221802 0l10.356678 10.3462391 16.5728683-16.5727997-3.4940529-3.4939232c-.9490089-.9491367-.3754539-2.586544.9595795-2.7221346l12.1610603-1.2620163c1.0116501-.1147117 1.8669587.740531 1.762558 1.7521811z" fill="#f14f4a"/></g></g></svg>