<svg width="276" height="276" viewBox="0 0 276 276" fill="none" xmlns="http://www.w3.org/2000/svg">
<g clip-path="url(#clip0_1_20)">
<path d="M267 228.405C267.007 233.475 266.014 238.497 264.077 243.183C262.14 247.869 259.298 252.127 255.712 255.712C252.127 259.298 247.869 262.14 243.183 264.077C238.497 266.014 233.475 267.007 228.405 267H47.7C26.3183 267 9 249.867 9 228.405V47.7C9 26.3344 26.3263 9 47.7 9H228.405C238.651 9.02775 248.467 13.1173 255.702 20.372C262.937 27.6266 267 37.4543 267 47.7V228.405Z" fill="#2319DC"/>
<path d="M72.5113 143.154C94.8162 138.317 91.7807 111.699 91.1115 105.865C90.0231 96.8757 79.4451 81.186 65.1019 82.4196C47.05 84.0321 44.4135 110.114 44.4135 110.114C41.9665 122.176 50.2588 147.94 72.5113 143.154ZM113.92 98.4075C126.236 98.4075 136.193 84.2256 136.193 66.6937C136.193 49.1618 126.236 35 113.92 35C101.605 35 91.5872 49.1255 91.5872 66.6937C91.5872 84.2619 101.613 98.4075 113.92 98.4075ZM166.98 100.504C183.451 102.64 194.037 85.0641 196.142 71.8013C198.294 58.4982 187.668 43.0988 176.002 40.3898C164.335 37.6808 149.726 56.4342 148.4 68.6287C146.803 83.5443 150.536 98.4438 166.968 100.556L166.98 100.504ZM232.262 122.837C232.262 116.468 227.021 97.3191 207.336 97.3191C187.664 97.3191 185.044 115.432 185.044 128.231C185.044 140.453 186.068 157.51 210.501 156.965C234.934 156.421 232.258 129.287 232.258 122.881L232.262 122.837ZM96.2393 189.486C95.5862 191.308 94.1309 196.157 95.433 200.37C96.4892 205.582 100.778 209.481 106.059 210.158H117.738V181.524H105.229C103.236 182.084 101.396 183.089 99.8463 184.462C98.297 185.835 97.079 187.542 96.2836 189.453L96.2393 189.486ZM207.381 178.795C207.381 178.795 181.903 159.042 167.068 137.777C146.912 106.361 118.31 119.096 108.684 135.116C99.1458 151.092 84.2826 161.198 82.1581 163.819C80.0336 166.439 51.3876 181.911 57.7449 210.146C64.1021 238.381 86.4232 237.961 86.4232 237.961C98.3384 238.777 110.309 237.882 121.971 235.305C133.732 232.802 145.923 233.164 157.514 236.361C169.104 239.562 202.116 251.297 214.355 222.534C226.594 193.771 207.502 178.863 207.502 178.863L207.381 178.795ZM131.053 221.635H102.109C89.5877 219.143 84.597 210.589 83.9681 209.138C83.3393 207.687 79.8079 200.793 81.6824 189.103C87.0964 171.591 102.536 170.329 102.536 170.329H117.976V151.358L131.118 151.56L131.053 221.635ZM185.06 221.433H151.681C138.753 218.099 138.148 208.912 138.148 208.912V172.002L151.681 171.784V204.962C152.499 208.497 156.902 209.134 156.902 209.134H170.608V172.046H185.007L185.06 221.433Z" fill="white"/>
<path d="M108.099 154.091L124.66 138.772L176.235 161.771L201.753 185.966L195.384 231.177L129.755 230.544L80.723 233.096L69.2581 199.342L87.0883 164.955L108.099 154.091Z" fill="white"/>
</g>
<defs>
<clipPath id="clip0_1_20">
<rect width="258" height="258" fill="white" transform="translate(9 9)"/>
</clipPath>
</defs>
</svg>
