<svg height="512" viewBox="0 0 64 64" width="512" xmlns="http://www.w3.org/2000/svg" xmlns:xlink="http://www.w3.org/1999/xlink" data-name="glipy copy"><linearGradient id="linear-gradient" gradientUnits="userSpaceOnUse" x1="4" x2="60" y1="32" y2="32"><stop offset="0" stop-color="#00c0ff"/><stop offset="1" stop-color="#5558ff"/></linearGradient><path d="m40.72 5.4a28.15 28.15 0 0 1 15.58 12.71h-7.55c-1.79-5.42-4.6-9.87-8.03-12.71zm-7.72-1.34v14.05h13.67c-2.76-7.97-7.82-13.49-13.67-14.05zm15.91 27.94a43.928 43.928 0 0 0 -1.6-11.89h-14.31v23.78h14.3a43.53213 43.53213 0 0 0 1.61-11.89zm8.43-11.89h-7.98a46.37956 46.37956 0 0 1 0 23.78h7.98a27.904 27.904 0 0 0 0-23.78zm-16.63 38.49a28.13007 28.13007 0 0 0 15.59-12.71h-7.55c-1.79 5.43-4.61 9.88-8.04 12.71zm5.96-12.71h-13.67v14.05c5.85-.57 10.91-6.08 13.67-14.05zm-31.42 0h-7.55a28.13007 28.13007 0 0 0 15.59 12.71c-3.43-2.83-6.25-7.28-8.04-12.71zm15.75 14.05v-14.05h-13.67c2.76 7.97 7.82 13.48 13.67 14.05zm-17.91-27.94a45.57488 45.57488 0 0 1 1.55-11.89h-7.98a27.904 27.904 0 0 0 0 23.78h7.98a45.57523 45.57523 0 0 1 -1.55-11.89zm10.19-26.6a28.15 28.15 0 0 0 -15.58 12.71h7.55c1.79-5.42 4.6-9.87 8.03-12.71zm-5.95 12.71h13.67v-14.05c-5.85.56-10.91 6.08-13.67 14.05zm-2.24 13.89a43.53213 43.53213 0 0 0 1.61 11.89h14.3v-23.78h-14.31a43.928 43.928 0 0 0 -1.6 11.89z" fill="url(#linear-gradient)"/></svg>