<svg width="276" height="276" viewBox="0 0 276 276" fill="none" xmlns="http://www.w3.org/2000/svg">
<path d="M138.062 11.9394C85.4246 11.9394 70.0302 11.9937 67.0378 12.2419C56.2357 13.1399 49.514 14.8407 42.191 18.4868C36.5476 21.2892 32.0968 24.5377 27.7042 29.0914C19.7045 37.3959 14.8561 47.6126 13.101 59.7571C12.2477 65.6528 11.9995 66.8553 11.949 96.9702C11.9297 107.008 11.949 120.22 11.949 137.94C11.949 190.536 12.0072 205.916 12.2593 208.902C13.132 219.414 14.7805 226.027 18.2713 233.261C24.9426 247.108 37.684 257.503 52.6945 261.382C57.8919 262.72 63.6323 263.457 71.0018 263.807C74.1241 263.942 105.949 264.039 137.793 264.039C169.636 264.039 201.48 264 204.525 263.845C213.058 263.444 218.013 262.779 223.492 261.363C238.599 257.465 251.108 247.225 257.915 233.183C261.338 226.124 263.074 219.259 263.859 209.296C264.03 207.124 264.101 172.492 264.101 137.907C264.101 103.316 264.024 68.7481 263.853 66.576C263.058 56.4524 261.322 49.6451 257.789 42.4499C254.89 36.56 251.67 32.1615 246.996 27.664C238.655 19.697 228.454 14.8485 216.299 13.0953C210.409 12.2439 209.236 11.9918 179.098 11.9394H138.062Z" fill="url(#paint0_radial_15_2)"/>
<path d="M138.062 11.9394C85.4246 11.9394 70.0302 11.9937 67.0378 12.2419C56.2357 13.1399 49.514 14.8407 42.191 18.4868C36.5476 21.2892 32.0968 24.5377 27.7042 29.0914C19.7045 37.3959 14.8561 47.6126 13.101 59.7571C12.2477 65.6528 11.9995 66.8553 11.949 96.9702C11.9297 107.008 11.949 120.22 11.949 137.94C11.949 190.536 12.0072 205.916 12.2593 208.902C13.132 219.414 14.7805 226.027 18.2713 233.261C24.9426 247.108 37.684 257.503 52.6945 261.382C57.8919 262.72 63.6323 263.457 71.0018 263.807C74.1241 263.942 105.949 264.039 137.793 264.039C169.636 264.039 201.48 264 204.525 263.845C213.058 263.444 218.013 262.779 223.492 261.363C238.599 257.465 251.108 247.225 257.915 233.183C261.338 226.124 263.074 219.259 263.859 209.296C264.03 207.124 264.101 172.492 264.101 137.907C264.101 103.316 264.024 68.7481 263.853 66.576C263.058 56.4524 261.322 49.6451 257.789 42.4499C254.89 36.56 251.67 32.1615 246.996 27.664C238.655 19.697 228.454 14.8485 216.299 13.0953C210.409 12.2439 209.236 11.9918 179.098 11.9394H138.062Z" fill="url(#paint1_radial_15_2)"/>
<path d="M138.004 44.9091C112.723 44.9091 109.55 45.0196 99.6206 45.4715C89.7106 45.9253 82.9462 47.4943 77.0274 49.7964C70.9049 52.1741 65.7113 55.3547 60.5372 60.5309C55.3592 65.7052 52.1786 70.8989 49.7933 77.0196C47.4855 82.9406 45.9146 89.7072 45.4685 99.6136C45.0244 109.543 44.9081 112.718 44.9081 138C44.9081 163.282 45.0206 166.445 45.4705 176.375C45.9262 186.285 47.4952 193.05 49.7952 198.969C52.1748 205.091 55.3553 210.285 60.5314 215.459C65.7036 220.638 70.8971 223.826 77.0157 226.204C82.9384 228.506 89.7048 230.075 99.6128 230.528C109.542 230.98 112.713 231.091 137.992 231.091C163.275 231.091 166.438 230.98 176.368 230.528C186.278 230.075 193.05 228.506 198.973 226.204C205.093 223.826 210.279 220.638 215.451 215.459C220.629 210.285 223.81 205.091 226.195 198.971C228.484 193.05 230.054 186.283 230.52 176.377C230.966 166.447 231.082 163.282 231.082 138C231.082 112.718 230.966 109.545 230.52 99.6155C230.054 89.7052 228.484 82.9406 226.195 77.0216C223.81 70.8989 220.629 65.7052 215.451 60.5309C210.273 55.3527 205.095 52.1721 198.967 49.7964C193.033 47.4943 186.264 45.9253 176.354 45.4715C166.425 45.0196 163.264 44.9091 137.975 44.9091H138.004ZM129.653 61.6848C132.132 61.681 134.897 61.6848 138.004 61.6848C162.858 61.6848 165.804 61.7741 175.619 62.2201C184.695 62.6352 189.621 64.1518 192.903 65.4259C197.247 67.1132 200.344 69.1302 203.6 72.3884C206.858 75.6465 208.875 78.7496 210.566 83.0938C211.84 86.3714 213.359 91.2975 213.772 100.374C214.218 110.187 214.315 113.135 214.315 137.979C214.315 162.822 214.218 165.77 213.772 175.584C213.357 184.66 211.84 189.586 210.566 192.864C208.879 197.208 206.858 200.301 203.6 203.557C200.342 206.816 197.249 208.832 192.903 210.52C189.625 211.8 184.695 213.312 175.619 213.728C165.806 214.174 162.858 214.271 138.004 214.271C113.147 214.271 110.202 214.174 100.389 213.728C91.3125 213.309 86.3866 211.792 83.1033 210.518C78.7592 208.831 75.6562 206.814 72.3982 203.555C69.1401 200.297 67.1232 197.202 65.4321 192.856C64.1579 189.578 62.6394 184.652 62.2263 175.576C61.7803 165.762 61.6911 162.815 61.6911 137.955C61.6911 113.096 61.7803 110.164 62.2263 100.351C62.6414 91.2742 64.1579 86.3481 65.4321 83.0667C67.1193 78.7224 69.1401 75.6194 72.3982 72.3612C75.6562 69.103 78.7592 67.0861 83.1033 65.3949C86.3846 64.1149 91.3125 62.6022 100.389 62.1852C108.976 61.7973 112.304 61.681 129.653 61.6616V61.6848ZM187.694 77.1418C181.526 77.1418 176.523 82.1396 176.523 88.3088C176.523 94.4761 181.526 99.4798 187.694 99.4798C193.861 99.4798 198.864 94.4761 198.864 88.3088C198.864 82.1416 193.861 77.1379 187.694 77.1379V77.1418ZM138.004 90.1939C111.604 90.1939 90.1993 111.599 90.1993 138C90.1993 164.401 111.604 185.796 138.004 185.796C164.404 185.796 185.801 164.401 185.801 138C185.801 111.599 164.404 90.1939 138.004 90.1939ZM138.004 106.97C155.14 106.97 169.033 120.862 169.033 138C169.033 155.136 155.14 169.03 138.004 169.03C120.866 169.03 106.975 155.136 106.975 138C106.975 120.862 120.866 106.97 138.004 106.97Z" fill="white"/>
<defs>
<radialGradient id="paint0_radial_15_2" cx="0" cy="0" r="1" gradientUnits="userSpaceOnUse" gradientTransform="translate(78.921 283.456) rotate(-90) scale(249.85 232.436)">
<stop stop-color="#FFDD55"/>
<stop offset="0.1" stop-color="#FFDD55"/>
<stop offset="0.5" stop-color="#FF543E"/>
<stop offset="1" stop-color="#C837AB"/>
</radialGradient>
<radialGradient id="paint1_radial_15_2" cx="0" cy="0" r="1" gradientUnits="userSpaceOnUse" gradientTransform="translate(-30.2979 30.1002) rotate(78.678) scale(111.685 460.473)">
<stop stop-color="#3771C8"/>
<stop offset="0.128" stop-color="#3771C8"/>
<stop offset="1" stop-color="#6600FF" stop-opacity="0"/>
</radialGradient>
</defs>
</svg>
