<svg width="276" height="276" viewBox="0 0 276 276" fill="none" xmlns="http://www.w3.org/2000/svg">
<path d="M262.383 144.207C262.383 124.586 257.319 106.152 248.438 90.1341C286.29 4.31714 207.88 16.8868 203.514 17.7425C186.902 20.9988 171.533 26.2267 157.357 32.8538C155.267 32.7358 153.163 32.6711 151.044 32.6711C98.1377 32.6711 53.8518 69.6376 42.5175 119.193C70.4026 87.8549 89.9177 75.2101 101.604 70.1499C99.7388 71.8197 97.9126 73.508 96.1165 75.209C95.5185 75.7744 94.9425 76.348 94.3526 76.9169C93.1683 78.0582 91.9863 79.2007 90.8319 80.3536C90.1451 81.0393 89.4767 81.7308 88.8003 82.4212C87.7764 83.4654 86.7548 84.5084 85.7552 85.5584C85.0453 86.3042 84.3527 87.0524 83.6555 87.7994C82.7216 88.8008 81.7935 89.8034 80.8828 90.8094C80.1752 91.5911 79.4791 92.3728 78.7842 93.1568C77.9208 94.1305 77.0654 95.1041 76.2216 96.0801C75.5221 96.8895 74.8283 97.699 74.1426 98.5096C73.3427 99.4555 72.5531 100.401 71.7717 101.347C71.0802 102.184 70.3911 103.021 69.7146 103.857C68.9828 104.761 68.2671 105.664 67.5526 106.566C66.86 107.44 66.1674 108.313 65.4909 109.186C64.8468 110.018 64.2212 110.846 63.5909 111.675C62.8799 112.611 62.163 113.548 61.4704 114.48C60.9752 115.147 60.4996 115.808 60.0137 116.472C55.6145 122.486 51.5951 128.383 47.9647 134.048C47.9555 134.062 47.9463 134.076 47.9382 134.09C46.9824 135.581 46.0601 137.051 45.1563 138.508C45.1078 138.587 45.057 138.667 45.0085 138.746C44.1035 140.209 43.2297 141.646 42.3778 143.069C42.3478 143.119 42.3166 143.169 42.2866 143.219C39.9964 147.048 37.8724 150.739 35.9597 154.211C25.932 172.416 21.0504 185.135 20.8391 185.89C-10.8264 299.296 88.0027 251.406 101.793 244.257C116.643 251.606 133.36 255.742 151.044 255.742C199.457 255.742 240.647 224.785 255.978 181.555H197.477C188.821 196.205 172.156 206.127 153.01 206.127C124.959 206.127 102.219 184.837 102.219 158.572H261.471C262.074 153.868 262.387 149.074 262.387 144.207H262.383ZM241.584 34.4496C251.172 40.9321 258.862 51.1127 245.655 85.3976C232.989 64.9913 213.932 48.9838 191.282 40.1851C201.585 35.2 227.102 24.6564 241.584 34.4496ZM37.8217 244.028C30.0126 236.005 28.632 216.465 45.8639 180.859C54.5606 205.907 71.9148 226.894 94.3457 240.215C83.1903 246.365 53.5748 260.214 37.8217 244.028ZM101.969 128.068C102.859 102.542 125.036 82.1032 152.284 82.1032C179.531 82.1032 201.709 102.542 202.599 128.068H101.969Z" fill="#1EBBEE"/>
</svg>
