<svg width="276" height="276" viewBox="0 0 276 276" fill="none" xmlns="http://www.w3.org/2000/svg">
<g clip-path="url(#clip0_14_3)">
<path d="M135.487 98.7827C135.448 99.09 135.448 99.4388 135.448 99.7813C135.448 101.113 135.715 102.393 136.196 103.571L136.626 104.454L138.327 108.795L147.163 131.274L154.869 150.904C157.067 154.866 160.588 157.978 164.834 159.636L166.153 160.119C166.204 160.135 166.291 160.135 166.362 160.154L187.483 167.397V167.413L195.558 170.179L196.11 170.364C196.129 170.364 196.161 170.384 196.181 170.384C197.772 170.784 199.332 171.322 200.821 171.978C204.265 173.46 207.388 175.572 210.055 178.149C211.13 179.173 212.119 180.277 213.033 181.455C213.812 182.444 214.524 183.483 215.164 184.566C217.982 189.233 219.6 194.719 219.6 200.56C219.6 201.604 219.548 202.612 219.443 203.636C219.407 204.088 219.353 204.523 219.285 204.955V204.99C219.215 205.448 219.128 205.922 219.041 206.386C218.952 206.837 218.868 207.285 218.765 207.733C218.749 207.785 218.73 207.839 218.711 207.89C218.615 208.345 218.493 208.793 218.367 209.244C218.255 209.67 218.114 210.108 217.957 210.521C217.818 210.973 217.656 211.417 217.472 211.853C217.315 212.301 217.129 212.755 216.92 213.184C216.349 214.5 215.668 215.764 214.904 216.971C213.92 218.556 212.795 220.05 211.544 221.436C221.455 210.809 228.044 197.088 229.684 181.903C229.96 179.413 230.101 176.888 230.101 174.346C230.101 172.723 230.03 171.117 229.925 169.503C228.676 151.294 220.364 135.009 207.677 123.387C204.179 120.157 200.356 117.283 196.245 114.844L188.478 110.885L149.121 90.7424C147.911 90.225 146.608 89.9593 145.292 89.9614C140.195 89.9614 135.988 93.8375 135.487 98.7827Z" fill="#7F7F7F"/>
<path d="M135.487 98.7827C135.448 99.09 135.448 99.4388 135.448 99.7813C135.448 101.113 135.715 102.393 136.196 103.571L136.626 104.454L138.327 108.795L147.163 131.274L154.869 150.904C157.067 154.866 160.588 157.978 164.834 159.636L166.153 160.119C166.204 160.135 166.291 160.135 166.362 160.154L187.483 167.397V167.413L195.558 170.179L196.11 170.364C196.129 170.364 196.161 170.384 196.181 170.384C197.772 170.784 199.332 171.322 200.821 171.978C204.265 173.46 207.388 175.572 210.055 178.149C211.13 179.173 212.119 180.277 213.033 181.455C213.812 182.444 214.524 183.483 215.164 184.566C217.982 189.233 219.6 194.719 219.6 200.56C219.6 201.604 219.548 202.612 219.443 203.636C219.407 204.088 219.353 204.523 219.285 204.955V204.99C219.215 205.448 219.128 205.922 219.041 206.386C218.952 206.837 218.868 207.285 218.765 207.733C218.749 207.785 218.73 207.839 218.711 207.89C218.615 208.345 218.493 208.793 218.367 209.244C218.255 209.67 218.114 210.108 217.957 210.521C217.818 210.973 217.656 211.417 217.472 211.853C217.315 212.301 217.129 212.755 216.92 213.184C216.349 214.5 215.668 215.764 214.904 216.971C213.92 218.556 212.795 220.05 211.544 221.436C221.455 210.809 228.044 197.088 229.684 181.903C229.96 179.413 230.101 176.888 230.101 174.346C230.101 172.723 230.03 171.117 229.925 169.503C228.676 151.294 220.364 135.009 207.677 123.387C204.179 120.157 200.356 117.283 196.245 114.844L188.478 110.885L149.121 90.7424C147.911 90.225 146.608 89.9593 145.292 89.9614C140.195 89.9614 135.988 93.8375 135.487 98.7827Z" fill="url(#paint0_linear_14_3)"/>
<path d="M65.409 10C59.8085 10.0992 55.3121 14.6699 55.3121 20.2584V199.2C55.3346 200.448 55.4052 201.681 55.4951 202.932C55.5753 203.592 55.662 204.277 55.7839 204.942C58.3418 219.304 70.8715 230.203 86.0007 230.203C91.3059 230.203 96.2805 228.855 100.633 226.512C100.658 226.493 100.703 226.467 100.726 226.467L102.292 225.523L108.64 221.798L116.715 217.019L116.734 58.0274C116.734 47.4617 111.432 38.1475 103.316 32.6134C103.123 32.4981 102.937 32.3765 102.767 32.2389L71.3465 11.7476C69.7546 10.6978 67.8353 10.0384 65.7781 10H65.409Z" fill="#7F7F7F"/>
<path d="M65.409 10C59.8085 10.0992 55.3121 14.6699 55.3121 20.2584V199.2C55.3346 200.448 55.4052 201.681 55.4951 202.932C55.5753 203.592 55.662 204.277 55.7839 204.942C58.3418 219.304 70.8715 230.203 86.0007 230.203C91.3059 230.203 96.2805 228.855 100.633 226.512C100.658 226.493 100.703 226.467 100.726 226.467L102.292 225.523L108.64 221.798L116.715 217.019L116.734 58.0274C116.734 47.4617 111.432 38.1475 103.316 32.6134C103.123 32.4981 102.937 32.3765 102.767 32.2389L71.3465 11.7476C69.7546 10.6978 67.8353 10.0384 65.7781 10H65.409Z" fill="url(#paint1_linear_14_3)"/>
<path d="M189.996 173.476L117.755 216.18L116.715 216.804V217.032L108.64 221.801L102.295 225.536L100.739 226.474L100.633 226.525C96.2902 228.878 91.3124 230.209 86.0104 230.209C70.8844 230.209 58.3387 219.317 55.7904 204.949C57.0004 215.46 60.5917 225.245 66.0092 233.768C77.1652 251.331 96.0303 263.548 117.854 265.67H131.199C143.004 264.441 152.86 259.727 163.22 253.36L179.151 243.643C186.328 239.056 205.806 227.773 211.544 221.442C212.793 220.056 213.919 218.571 214.904 216.98C215.668 215.77 216.349 214.506 216.92 213.191C217.113 212.743 217.296 212.307 217.472 211.862C217.639 211.421 217.796 210.976 217.957 210.524C218.255 209.66 218.493 208.793 218.72 207.9C218.836 207.391 218.942 206.888 219.048 206.389C219.394 204.504 219.584 202.567 219.584 200.56C219.584 194.719 217.966 189.233 215.164 184.573C214.523 183.484 213.816 182.444 213.033 181.462C212.119 180.277 211.13 179.179 210.055 178.155C207.388 175.579 204.275 173.466 200.821 171.981C199.332 171.325 197.779 170.784 196.181 170.39C196.161 170.39 196.129 170.371 196.11 170.371L195.558 170.185L189.996 173.476Z" fill="#7F7F7F"/>
<path d="M189.996 173.476L117.755 216.18L116.715 216.804V217.032L108.64 221.801L102.295 225.536L100.739 226.474L100.633 226.525C96.2902 228.878 91.3124 230.209 86.0104 230.209C70.8844 230.209 58.3387 219.317 55.7904 204.949C57.0004 215.46 60.5917 225.245 66.0092 233.768C77.1652 251.331 96.0303 263.548 117.854 265.67H131.199C143.004 264.441 152.86 259.727 163.22 253.36L179.151 243.643C186.328 239.056 205.806 227.773 211.544 221.442C212.793 220.056 213.919 218.571 214.904 216.98C215.668 215.77 216.349 214.506 216.92 213.191C217.113 212.743 217.296 212.307 217.472 211.862C217.639 211.421 217.796 210.976 217.957 210.524C218.255 209.66 218.493 208.793 218.72 207.9C218.836 207.391 218.942 206.888 219.048 206.389C219.394 204.504 219.584 202.567 219.584 200.56C219.584 194.719 217.966 189.233 215.164 184.573C214.523 183.484 213.816 182.444 213.033 181.462C212.119 180.277 211.13 179.179 210.055 178.155C207.388 175.579 204.275 173.466 200.821 171.981C199.332 171.325 197.779 170.784 196.181 170.39C196.161 170.39 196.129 170.371 196.11 170.371L195.558 170.185L189.996 173.476Z" fill="url(#paint2_linear_14_3)"/>
<path opacity="0.15" d="M219.584 200.56C219.584 202.567 219.394 204.507 219.045 206.392C218.942 206.892 218.836 207.391 218.717 207.897C218.493 208.793 218.255 209.66 217.957 210.528C217.799 210.976 217.639 211.424 217.472 211.859C217.299 212.307 217.113 212.743 216.917 213.191C216.345 214.502 215.673 215.768 214.908 216.977C213.924 218.563 212.798 220.056 211.544 221.439C205.806 227.773 186.328 239.056 179.151 243.643L163.22 253.36C151.541 260.536 140.507 265.616 126.591 265.965C125.933 265.984 125.287 266 124.649 266C123.75 266 122.864 265.984 121.975 265.949C98.4117 265.053 77.8617 252.426 66.0092 233.768C60.4632 225.055 56.9695 215.202 55.7904 204.949C58.3387 219.317 70.8844 230.209 86.0104 230.209C91.3124 230.209 96.2902 228.874 100.633 226.525L100.739 226.471L102.295 225.536L108.64 221.801L116.715 217.032V216.804L117.755 216.18L189.996 173.472L195.558 170.185L196.11 170.371C196.126 170.371 196.161 170.39 196.181 170.39C197.779 170.784 199.336 171.325 200.821 171.981C204.275 173.466 207.385 175.579 210.055 178.155C211.13 179.181 212.125 180.286 213.033 181.462C213.816 182.444 214.523 183.484 215.164 184.573C217.966 189.233 219.584 194.719 219.584 200.56Z" fill="#7F7F7F"/>
<path opacity="0.15" d="M219.584 200.56C219.584 202.567 219.394 204.507 219.045 206.392C218.942 206.892 218.836 207.391 218.717 207.897C218.493 208.793 218.255 209.66 217.957 210.528C217.799 210.976 217.639 211.424 217.472 211.859C217.299 212.307 217.113 212.743 216.917 213.191C216.345 214.502 215.673 215.768 214.908 216.977C213.924 218.563 212.798 220.056 211.544 221.439C205.806 227.773 186.328 239.056 179.151 243.643L163.22 253.36C151.541 260.536 140.507 265.616 126.591 265.965C125.933 265.984 125.287 266 124.649 266C123.75 266 122.864 265.984 121.975 265.949C98.4117 265.053 77.8617 252.426 66.0092 233.768C60.4632 225.055 56.9695 215.202 55.7904 204.949C58.3387 219.317 70.8844 230.209 86.0104 230.209C91.3124 230.209 96.2902 228.874 100.633 226.525L100.739 226.471L102.295 225.536L108.64 221.801L116.715 217.032V216.804L117.755 216.18L189.996 173.472L195.558 170.185L196.11 170.371C196.126 170.371 196.161 170.39 196.181 170.39C197.779 170.784 199.336 171.325 200.821 171.981C204.275 173.466 207.385 175.579 210.055 178.155C211.13 179.181 212.125 180.286 213.033 181.462C213.816 182.444 214.523 183.484 215.164 184.573C217.966 189.233 219.584 194.719 219.584 200.56Z" fill="url(#paint3_linear_14_3)"/>
</g>
<defs>
<linearGradient id="paint0_linear_14_3" x1="147.174" y1="100.924" x2="228.984" y2="192.347" gradientUnits="userSpaceOnUse">
<stop stop-color="#37BDFF"/>
<stop offset="0.25" stop-color="#26C6F4"/>
<stop offset="0.5" stop-color="#15D0E9"/>
<stop offset="0.75" stop-color="#3BD6DF"/>
<stop offset="1" stop-color="#62DCD4"/>
</linearGradient>
<linearGradient id="paint1_linear_14_3" x1="90.2369" y1="226.333" x2="87.612" y2="23.9452" gradientUnits="userSpaceOnUse">
<stop stop-color="#1B48EF"/>
<stop offset="0.5" stop-color="#2080F1"/>
<stop offset="1" stop-color="#26B8F4"/>
</linearGradient>
<linearGradient id="paint2_linear_14_3" x1="137.686" y1="217.927" x2="336.289" y2="217.927" gradientUnits="userSpaceOnUse">
<stop stop-color="#39D2FF"/>
<stop offset="0.5" stop-color="#248FFA"/>
<stop offset="1" stop-color="#104CF5"/>
</linearGradient>
<linearGradient id="paint3_linear_14_3" x1="137.686" y1="217.927" x2="336.289" y2="217.927" gradientUnits="userSpaceOnUse">
<stop stop-color="white"/>
<stop offset="1"/>
</linearGradient>
<clipPath id="clip0_14_3">
<rect width="193.855" height="256" fill="white" transform="translate(41 10)"/>
</clipPath>
</defs>
</svg>
