<svg width="276" height="276" viewBox="0 0 276 276" fill="none" xmlns="http://www.w3.org/2000/svg">
<g clip-path="url(#clip0_15_16)">
<path d="M8.10144 201.615V201.627C8.25765 207.42 8.30583 213.248 9.28312 219.006C10.3187 225.098 11.7991 231.038 14.6235 236.567C18.4419 244.051 23.6859 250.371 30.3054 255.533C35.058 259.24 40.2498 262.182 45.9969 264.039C54.3772 266.742 63.0228 267.778 71.7946 267.829C77.2673 267.863 82.7365 268 88.2113 267.977C127.97 267.81 167.73 268.264 207.49 267.732C212.766 267.66 217.955 267.017 223.134 266.07C233.058 264.253 241.829 260.018 249.334 253.323C258.08 245.523 263.981 235.976 266.644 224.454C268.387 216.922 268.824 209.282 268.898 201.614V200.084C268.898 199.491 268.672 69.799 268.652 68.0848C268.593 63.3759 268.246 58.7024 267.363 54.069C266.29 48.4228 264.773 42.9211 262.069 37.813C259.214 32.4163 255.638 27.5638 251.215 23.3234C244.44 16.8267 236.622 12.2324 227.52 9.80206C219.299 7.60758 210.912 7.12172 202.464 7.12933C202.45 7.1273 202.418 7.04159 202.416 7H74.5429C74.5403 7.04362 74.5388 7.08723 74.5358 7.12933C69.7411 7.21706 64.9393 7.18106 60.169 7.7724C54.9432 8.42207 49.7676 9.40039 44.8213 11.2272C37.0303 14.1089 30.2613 18.5972 24.4791 24.5893C17.9282 31.3781 13.3105 39.2295 10.8604 48.372C8.67453 56.5292 8.19882 64.8486 8.18715 73.2269" fill="#FFFC00"/>
<path d="M139.683 227.21C139.141 227.21 138.625 227.19 138.231 227.171C137.92 227.198 137.598 227.21 137.275 227.21C125.896 227.21 118.287 221.83 111.573 217.08C106.761 213.681 102.222 210.471 96.9051 209.587C94.2937 209.154 91.696 208.934 89.1861 208.934C84.6638 208.934 81.0898 209.636 78.4805 210.146C76.8748 210.459 75.4903 210.728 74.4201 210.728C73.2993 210.728 71.9376 210.479 71.3701 208.542C70.9202 207.013 70.5977 205.532 70.2863 204.106C69.5073 200.542 68.9423 198.367 67.608 198.161C53.336 195.958 44.9035 192.715 43.2238 188.786C43.0478 188.373 42.9494 187.958 42.9276 187.547C42.8622 186.376 43.6888 185.349 44.8431 185.158C56.1771 183.292 66.2549 177.301 74.798 167.347C81.4159 159.641 84.6658 152.278 85.0147 151.465C85.0299 151.428 85.0477 151.39 85.0659 151.355C86.7127 148.014 87.0403 145.126 86.0427 142.776C84.2038 138.439 78.1133 136.507 74.0839 135.228C73.0818 134.911 72.1339 134.611 71.3787 134.311C67.8068 132.9 61.9324 129.919 62.7149 125.805C63.285 122.804 67.2535 120.715 70.4608 120.715C71.3513 120.715 72.1405 120.871 72.8048 121.183C76.429 122.881 79.6895 123.742 82.4936 123.742C85.9809 123.742 87.6651 122.414 88.0724 122.036C87.972 120.176 87.8492 118.209 87.7305 116.349C87.7305 116.347 87.728 116.325 87.728 116.325C86.9095 103.303 85.8885 87.0987 90.0336 77.8061C102.44 49.9899 128.75 47.8268 136.515 47.8268C136.722 47.8268 139.9 47.7954 139.9 47.7954C140.044 47.7929 140.199 47.7908 140.361 47.7908C148.147 47.7908 174.512 49.9564 186.926 77.7893C191.071 87.0881 190.049 103.307 189.228 116.342L189.189 116.965C189.077 118.735 188.973 120.41 188.885 122.034C189.268 122.387 190.81 123.605 193.945 123.728C196.619 123.625 199.691 122.769 203.073 121.185C204.119 120.694 205.277 120.592 206.063 120.592C207.251 120.592 208.46 120.823 209.468 121.244L209.522 121.265C212.392 122.283 214.272 124.32 214.313 126.459C214.349 128.453 212.867 131.434 205.578 134.312C204.832 134.608 203.879 134.91 202.873 135.229C198.84 136.509 192.755 138.441 190.916 142.775C189.917 145.125 190.245 148.012 191.892 151.352C191.911 151.388 191.926 151.425 191.944 151.464C192.451 152.653 204.727 180.643 232.116 185.155C233.27 185.348 234.098 186.376 234.032 187.545C234.008 187.965 233.906 188.385 233.729 188.795C232.061 192.702 223.628 195.941 209.352 198.146C208.013 198.353 207.448 200.518 206.676 204.063C206.357 205.528 206.032 206.963 205.588 208.471C205.172 209.89 204.248 210.583 202.764 210.583H202.541C201.575 210.583 200.206 210.407 198.479 210.07C195.462 209.482 192.078 208.936 187.774 208.936C185.264 208.936 182.667 209.156 180.053 209.588C174.741 210.473 170.203 213.677 165.399 217.073C158.672 221.83 151.061 227.21 139.683 227.21Z" fill="white"/>
<path d="M140.36 50.0827C147.691 50.0827 172.935 52.052 184.832 78.723C188.749 87.5055 187.745 103.415 186.94 116.194C186.814 118.223 186.689 120.188 186.588 122.065L186.545 122.872L187.084 123.473C187.301 123.715 189.337 125.843 193.866 126.018L193.939 126.022L194.015 126.02C197.01 125.906 200.382 124.976 204.045 123.26C204.585 123.008 205.303 122.884 206.062 122.884C206.928 122.884 207.848 123.047 208.607 123.367L208.722 123.412C210.642 124.085 212 125.354 212.021 126.502C212.032 127.152 211.546 129.49 204.738 132.18C204.073 132.442 203.197 132.722 202.182 133.042C197.751 134.449 191.058 136.572 188.805 141.88C187.536 144.87 187.884 148.399 189.836 152.367C190.64 154.242 203.286 182.728 231.744 187.417C231.738 187.552 231.703 187.7 231.627 187.874C231.145 189.01 228.079 192.935 209.002 195.878C206.017 196.336 205.286 199.682 204.438 203.572C204.131 204.965 203.82 206.37 203.392 207.822C203.261 208.261 203.237 208.286 202.766 208.286C202.702 208.286 202.625 208.286 202.542 208.286C201.696 208.286 200.412 208.111 198.924 207.818C196.213 207.29 192.51 206.643 187.775 206.643C185.133 206.643 182.411 206.873 179.68 207.328C173.842 208.299 169.095 211.657 164.067 215.211C157.314 219.983 150.335 224.92 139.687 224.92C139.222 224.92 138.768 224.904 138.313 224.881L138.193 224.876L138.073 224.885C137.812 224.908 137.549 224.92 137.28 224.92C126.633 224.92 119.651 219.984 112.902 215.211C107.873 211.657 103.123 208.299 97.2859 207.328C94.5574 206.874 91.8329 206.643 89.1921 206.643C84.4588 206.643 80.751 207.367 78.0458 207.896C76.5573 208.187 75.2686 208.437 74.4252 208.437C73.7344 208.437 73.7212 208.396 73.5752 207.897C73.1471 206.444 72.8342 205.005 72.5294 203.614C71.6794 199.72 70.9476 196.356 67.964 195.898C48.8882 192.952 45.8219 189.02 45.3381 187.887C45.2625 187.709 45.2285 187.556 45.2209 187.421C73.6776 182.736 86.3216 154.249 87.1275 152.367C89.0836 148.402 89.4305 144.874 88.158 141.88C85.9052 136.575 79.2128 134.449 74.7853 133.044C73.7674 132.722 72.891 132.442 72.2251 132.18C66.476 129.908 64.7075 127.62 64.9702 126.233C65.275 124.634 68.0471 123.008 70.4663 123.008C71.01 123.008 71.4867 123.096 71.8392 123.261C75.7681 125.102 79.3548 126.036 82.5007 126.036C87.446 126.036 89.6471 123.735 89.8834 123.472L90.4195 122.873L90.3764 122.07C90.2764 120.194 90.1532 118.229 90.0234 116.205C89.2205 103.422 88.2164 87.5232 92.1321 78.7402C103.984 52.1671 129.106 50.1187 136.521 50.1187C136.704 50.1187 139.928 50.0857 139.928 50.0857C140.06 50.0847 140.206 50.0827 140.36 50.0827ZM140.36 45.499H140.351C140.182 45.499 140.024 45.499 139.873 45.501C138.668 45.5132 136.687 45.5325 136.509 45.5345C132.164 45.5345 123.472 46.1481 114.135 50.2693C108.797 52.6241 103.995 55.808 99.8638 59.7329C94.9383 64.4094 90.9256 70.1753 87.9395 76.8729C83.5662 86.6793 84.6044 103.197 85.4381 116.471L85.4412 116.492C85.5305 117.913 85.6243 119.398 85.71 120.844C85.0684 121.139 84.0282 121.45 82.4951 121.45C80.0283 121.45 77.0949 120.661 73.7785 119.107C72.8028 118.653 71.6891 118.423 70.4602 118.423C68.4858 118.423 66.4044 119.004 64.599 120.066C62.3274 121.399 60.8597 123.285 60.461 125.375C60.1983 126.757 60.211 129.49 63.2464 132.261C64.9159 133.786 67.3686 135.193 70.5343 136.444C71.365 136.771 72.3509 137.084 73.3951 137.415C77.0188 138.567 82.5032 140.307 83.9334 143.673C84.6581 145.379 84.3462 147.625 83.0088 150.339C82.9738 150.414 82.9389 150.486 82.9069 150.562C82.5727 151.343 79.4547 158.405 73.0589 165.854C69.4246 170.09 65.4216 173.63 61.1675 176.379C55.9752 179.734 50.3569 181.928 44.4703 182.898C42.1587 183.277 40.5079 185.337 40.6367 187.678C40.6762 188.352 40.8345 189.025 41.1089 189.675C41.1109 189.679 41.1134 189.683 41.1154 189.687C42.0501 191.873 44.2172 193.731 47.7405 195.369C52.0457 197.368 58.4846 199.051 66.8766 200.367C67.3006 201.173 67.7408 203.2 68.0456 204.587C68.3646 206.062 68.6973 207.579 69.1715 209.189C69.6832 210.934 71.0105 213.02 74.4201 213.02C75.7123 213.02 77.1983 212.729 78.9191 212.395C81.4392 211.901 84.8853 211.226 89.1866 211.226C91.5712 211.226 94.0426 211.436 96.5302 211.849C101.325 212.648 105.459 215.568 110.242 218.95C117.243 223.898 125.167 229.5 137.275 229.5C137.605 229.5 137.936 229.489 138.263 229.467C138.664 229.485 139.16 229.5 139.683 229.5C151.794 229.5 159.716 223.896 166.709 218.952L166.721 218.941C171.505 215.564 175.634 212.648 180.428 211.849C182.914 211.436 185.385 211.226 187.771 211.226C191.88 211.226 195.133 211.75 198.038 212.316C199.934 212.69 201.407 212.869 202.538 212.869L202.648 212.871H202.763C205.257 212.871 207.089 211.502 207.788 209.107C208.253 207.53 208.585 206.049 208.912 204.55C209.197 203.249 209.652 201.165 210.076 200.35C218.474 199.031 224.91 197.353 229.216 195.353C232.731 193.723 234.896 191.868 235.836 189.691C236.118 189.038 236.283 188.361 236.32 187.673C236.452 185.336 234.799 183.272 232.486 182.893C206.324 178.581 194.538 151.7 194.05 150.558C194.019 150.483 193.983 150.408 193.946 150.335C192.609 147.62 192.3 145.377 193.025 143.667C194.453 140.304 199.933 138.564 203.56 137.413C204.609 137.082 205.599 136.768 206.423 136.442C209.993 135.032 212.545 133.503 214.228 131.766C216.238 129.695 216.63 127.711 216.605 126.413C216.544 123.271 214.143 120.48 210.323 119.113C209.032 118.58 207.561 118.298 206.063 118.298C205.043 118.298 203.533 118.438 202.103 119.106C199.042 120.538 196.301 121.321 193.947 121.432C192.695 121.369 191.817 121.098 191.249 120.839C191.32 119.613 191.399 118.354 191.481 117.042L191.515 116.48C192.353 103.198 193.395 86.6671 189.02 76.8536C186.021 70.1322 181.994 64.3516 177.049 59.665C172.901 55.7375 168.083 52.5541 162.726 50.2009C153.402 46.1101 144.71 45.499 140.36 45.499Z" fill="#020202"/>
</g>
<defs>
<clipPath id="clip0_15_16">
<rect width="261" height="261" fill="white" transform="translate(8 7)"/>
</clipPath>
</defs>
</svg>
