<svg width="276" height="276" viewBox="0 0 276 276" fill="none" xmlns="http://www.w3.org/2000/svg">
<g clip-path="url(#clip0_15_26)">
<path d="M189.211 252.56L199.76 266C216.411 258.789 230.971 248.72 242.971 235.589L232.88 221.531C221.04 235.28 206.48 245.84 189.36 252.56H189.211ZM138 246.789C76.4 246.789 26.48 197.52 26.48 136.389C26.48 75.6 76.4 26.32 138 26.32C199.6 26.32 249.531 75.92 249.531 136.72C249.531 163.92 239.44 188.891 222.789 208.08L232.869 221.531C253.211 199.109 266 169.349 266 136.72C266 66.48 208.72 10 138 10C67.28 10 10 66.6507 10 136.4C10 206.48 67.28 263.12 138 263.12C156.24 263.12 173.52 259.429 189.211 252.56L178.96 239.12C166.16 243.92 152.4 246.789 138 246.789ZM202 144.891C178 125.051 145.04 122.48 118.789 106.96C110.789 101.851 117.211 92.08 125.211 91.76C154 86.96 182.48 98.48 209.36 107.76L210.971 79.44C177.36 67.28 140.891 59.44 105.36 65.04C92.56 68.24 79.76 72.24 70.6507 81.68C58.16 94.48 60.4 117.52 74.8 127.76C98.6507 146.48 130.011 149.211 156.091 163.6C166.331 167.76 162.011 181.52 151.92 182.48C120.72 188.4 90 174.789 63.12 160.08C62.8 170.96 62.48 181.52 62.48 192.08C96.56 207.109 134.48 214.149 171.28 208.389C183.76 205.989 196.56 201.989 205.68 192.88C218.789 180.08 217.531 155.429 202.16 144.88L202 144.891Z" fill="black"/>
</g>
<defs>
<clipPath id="clip0_15_26">
<rect width="256" height="256" fill="white" transform="translate(10 10)"/>
</clipPath>
</defs>
</svg>
