<svg width="276" height="276" viewBox="0 0 276 276" fill="none" xmlns="http://www.w3.org/2000/svg">
<g clip-path="url(#clip0_13_2)">
<g clip-path="url(#clip1_13_2)">
<path d="M138 266C208.692 266 266 208.692 266 138C266 67.3075 208.692 10 138 10C67.3075 10 10 67.3075 10 138C10 208.692 67.3075 266 138 266Z" fill="#408AF1"/>
<path d="M194.392 92.216C195.245 90.7669 196.379 89.5033 197.728 88.4997C199.077 87.496 200.613 86.7726 202.246 86.3722C203.879 85.9718 205.575 85.9025 207.235 86.1683C208.896 86.4341 210.486 87.0297 211.912 87.92C217.912 91.68 219.8 99.68 216.12 105.816C202.488 128.52 187.104 152.28 174.28 170.424C155.56 196.904 151.504 206 138 206C124.496 206 121.456 197.976 102.2 170.352C90.76 153.952 76.416 131.992 60.04 106.064C58.2057 103.162 57.5764 99.6588 58.2861 96.2999C58.9958 92.941 60.9885 89.9918 63.84 88.08C65.2444 87.1553 66.8199 86.5214 68.4735 86.2158C70.127 85.9102 71.825 85.9391 73.4672 86.3008C75.1093 86.6625 76.6623 87.3497 78.0345 88.3217C79.4066 89.2937 80.57 90.5308 81.456 91.96C97.64 117.576 134.2 170.968 138.104 175.728C142.184 170.896 181.08 114.392 194.392 92.208V92.216Z" fill="white"/>
</g>
</g>
<defs>
<clipPath id="clip0_13_2">
<rect width="276" height="276" fill="white"/>
</clipPath>
<clipPath id="clip1_13_2">
<rect width="256" height="256" fill="white" transform="translate(10 10)"/>
</clipPath>
</defs>
</svg>
