<svg height="512" viewBox="0 0 176 176" width="512" xmlns="http://www.w3.org/2000/svg"><g id="Layer_2" data-name="Layer 2"><g id="_28.we_chat" data-name="28.we chat"><circle id="background" cx="88" cy="88" fill="#2dc100" r="88"/><g id="icon" fill="#fff"><path d="m126.7 77c-29.25-14.86-62.49 12.45-47.29 37.5 7.06 11.76 23.35 19.19 42.62 13.62 3.86 1.49 7.29 3.92 11 5.73-1-3.26-2-6.47-3.09-9.67 19.94-14.18 15.58-37.61-3.24-47.18zm-23.35 16.9a4.52 4.52 0 1 1 -5.77-5.85c3.37-1.42 7.25 2.48 5.77 5.85zm21.89.43h.06a4.59 4.59 0 0 1 -7.21 1.24 7 7 0 0 1 -1.57-3.36c.47-2.11 1.92-4.29 4.26-4.39 3.22-.45 6.11 3.55 4.46 6.51z"/><path d="m112.8 70.88c-2-9.82-8.86-18.11-17.5-22.89h.12c-30.68-17.34-68.87 6.84-61.49 35.35 2 8.46 7.83 15.56 14.93 20.29-1.37 3.91-2.68 7.81-3.91 11.74 4.46-2.34 8.93-4.79 13.4-7.17a49.29 49.29 0 0 0 16.75 2.38c-7-20.2 11-41.6 37.7-39.7zm-27.8-11.73a5.64 5.64 0 0 1 7.56 5.45v.06c0 4.41-5.84 7.17-9.14 4.18-3.42-2.47-2.42-8.45 1.58-9.69zm-20.19 6.63c-.79 3.84-5.91 5.69-8.91 3.11-3.48-2.46-2.5-8.55 1.58-9.79 4-1.55 8.54 2.53 7.33 6.68z"/></g></g></g></svg>