<svg width="276" height="276" viewBox="0 0 276 276" fill="none" xmlns="http://www.w3.org/2000/svg">
<g clip-path="url(#clip0_1_20)">
<path d="M272.486 272.341H3.7168V3.57574H272.483V272.341H272.486ZM138.236 11.5245C67.6323 12.8279 12.0489 66.7889 11.9692 137.825C11.8895 208.432 66.9331 264.012 137.963 264.092C208.625 264.169 264.157 209.076 264.233 138.095C264.31 67.4636 209.242 12.9751 138.236 11.5245Z" fill="white"/>
<path d="M138.236 11.5245C209.242 12.972 264.31 67.4636 264.233 138.095C264.157 209.076 208.625 264.169 137.963 264.092C66.9331 264.015 11.8895 208.432 11.9692 137.825C12.0489 66.7889 67.6323 12.8279 138.236 11.5245ZM137.791 125.396C118.036 106.159 98.5811 87.3755 79.3715 68.3437C76.2067 65.2096 73.6889 64.5073 70.518 67.5617C66.4976 71.4319 62.5048 75.3449 58.6868 79.4144C55.9943 82.2817 56.1016 84.7351 59.3124 87.8201C79.6168 107.336 99.6268 127.162 119.873 146.74C122.642 149.417 123.875 152.079 123.847 155.965C123.688 179.845 123.93 203.725 123.639 227.602C123.577 232.711 125.467 234.904 130.125 235.118C134.961 235.339 139.812 235.425 144.649 235.259C149.537 235.094 152.009 233.235 151.907 227.396C151.512 204.458 152.009 181.501 151.57 158.562C151.453 152.465 153.634 148.605 157.771 144.633C177.551 125.654 197.046 106.373 216.789 87.3509C219.641 84.6032 219.616 82.3891 217.154 79.8192C213.431 75.9307 209.561 72.1801 205.844 68.2824C202.259 64.5227 199.493 64.8815 195.712 68.6504C176.701 87.6085 157.387 106.26 137.795 125.396H137.791Z" fill="#FF0000"/>
<path d="M137.791 125.396C157.384 106.26 176.698 87.6085 195.709 68.6504C199.49 64.8784 202.256 64.5227 205.841 68.2824C209.558 72.1801 213.425 75.9307 217.151 79.8192C219.613 82.3891 219.638 84.6032 216.786 87.3509C197.046 106.373 177.551 125.651 157.768 144.633C153.631 148.605 151.45 152.465 151.567 158.562C152.005 181.501 151.509 204.458 151.904 227.396C152.005 233.235 149.534 235.094 144.645 235.259C139.809 235.422 134.955 235.336 130.122 235.118C125.463 234.907 123.574 232.711 123.636 227.602C123.927 203.725 123.685 179.845 123.844 155.965C123.872 152.079 122.639 149.42 119.87 146.74C99.6237 127.159 79.6137 107.336 59.3093 87.8201C56.0985 84.732 55.9912 82.2817 58.6837 79.4144C62.5017 75.3449 66.4945 71.4349 70.5149 67.5617C73.6859 64.5104 76.2036 65.2096 79.3684 68.3437C98.578 87.3755 118.033 106.159 137.788 125.396H137.791Z" fill="white"/>
</g>
<defs>
<clipPath id="clip0_1_20">
<rect width="276" height="276" fill="white"/>
</clipPath>
</defs>
</svg>
