<?xml version="1.0" encoding="UTF-8" standalone="no"?>
<svg
   xmlns:dc="http://purl.org/dc/elements/1.1/"
   xmlns:cc="http://creativecommons.org/ns#"
   xmlns:rdf="http://www.w3.org/1999/02/22-rdf-syntax-ns#"
   xmlns:svg="http://www.w3.org/2000/svg"
   xmlns="http://www.w3.org/2000/svg"
   xmlns:xlink="http://www.w3.org/1999/xlink"
   xmlns:sodipodi="http://sodipodi.sourceforge.net/DTD/sodipodi-0.dtd"
   xmlns:inkscape="http://www.inkscape.org/namespaces/inkscape"
   width="212.28mm"
   height="151.11mm"
   version="1.1"
   viewBox="0 0 212.28 151.11"
   id="svg356"
   sodipodi:docname="result.svg"
   inkscape:version="1.0.2-2 (e86c870879, 2021-01-15)">
  <sodipodi:namedview
     pagecolor="#ffffff"
     bordercolor="#666666"
     borderopacity="1"
     objecttolerance="10"
     gridtolerance="10"
     guidetolerance="10"
     inkscape:pageopacity="0"
     inkscape:pageshadow="2"
     inkscape:window-width="1366"
     inkscape:window-height="741"
     id="namedview358"
     showgrid="false"
     inkscape:zoom="1.0312989"
     inkscape:cx="401.15905"
     inkscape:cy="285.56221"
     inkscape:window-x="-9"
     inkscape:window-y="-9"
     inkscape:window-maximized="1"
     inkscape:current-layer="g286" />
  <defs
     id="defs4">
    <polygon
       id="d"
       points="586.98 310.95 596.11 301.36 599.59 304.83 593.76 310.92 597.13 314.29 609.84 301.01 619.67 310.73 610.91 319.82 607.4 316.32 612.76 310.76 609.98 308 597.26 321.25" />
    <path
       id="c"
       d="m621.11 365.93h440.2c7.51 0 13.6 6.09 13.6 13.6v163.46c0 7.51-6.09 13.6-13.6 13.6h-440.2c-7.51 0-13.6-6.09-13.6-13.6v-163.46c0-7.51 6.09-13.6 13.6-13.6z" />
  </defs>
  <metadata
     id="metadata6">
    <rdf:RDF>
      <cc:Work
         rdf:about="">
        <dc:format>image/svg+xml</dc:format>
        <dc:type
           rdf:resource="http://purl.org/dc/dcmitype/StillImage" />
        <dc:title />
      </cc:Work>
    </rdf:RDF>
  </metadata>
  <g
     transform="translate(-1.0424 -58.418)"
     id="g352">
    <g
       transform="matrix(.19747 0 0 .19747 -1.3265 90.854)"
       id="g286">
      <path
         class="st0"
         d="m153.03 580.41c3.26 1.11 6.49 2.13 9.69 3.07l-22.98-92.01h6.02l-17.44-54.27-23.09-52.69s1.13-16.07 5.1-42.33 10.51-46 17.18-56.99c6.68-10.98 20.22-17.34 29.93-22.6 5.63-3 10.9-6.63 15.71-10.82l8.32-6.36 26.69 2.65 44.2 21.28 10.62 11.25 2.1 1.77-35.66 14.12 45.84 80.22c-4.15 16.4-6.37 59.68 1.59 80.22s30.4 31.03 30.4 31.03c0.34 1.36 0.58 2.75 0.69 4.15 18.2 4.68 78.88 20.31 96.48 25.01 20.79 5.55 32.11 13.39 36.27 22.24 2.95 6.32 8.42 21.19 11.33 29.14 6.55-0.23 12.97-0.34 19.27-0.4l-3.59-136.59h23.8l-3.48 136.64c88.98 1.28 153.99 18.42 195.91 25.83 64.3 11.33 168.87 14.8 230.46-36.12 25.9-21.42 56.33-54.85 78.44-86.14 21.07-60.35 18.86-127.3 0.73-179.07-30.79-87.76-118.3-203.74-304.59-218.1-142.12-10.96-250.87 39.95-362.22 68.77s-324.33 73.58-314.42 259.41c1.13 20.66 7.57 53.27 23.62 85.58 22.38 39.79 60 72.58 117.08 92.11z"
         id="path8" />
      <path
         class="st1"
         d="m522.21 379.47c-0.36 0.6 14.73 36.56 14.73 36.56l49.87-1.03 6.11-5.92-13.02-32.6c0 0.01-55.14-1.27-57.69 2.99z"
         id="path10" />
      <path
         class="st2"
         d="m584.33 419.22h-95.03v-6.8h95.03c2.87 0.01 5.2-2.31 5.2-5.18 0-0.76-0.16-1.52-0.49-2.21l-9.97-21.53 6.17-2.86 9.98 21.53c2.76 6.03 0.11 13.15-5.91 15.91-1.56 0.72-3.26 1.09-4.98 1.09z"
         id="path12" />
      <path
         class="st1"
         d="m656.67 385.29-231.99-2.83c-6.9-0.09-12.53-5.57-12.8-12.47l-3.4-166.5c0.03-6.87 5.46-12.5 12.32-12.78l232.07-11.84c8.28-0.42 15.15 5.21 15.29 12.59l3.4 180.75c0.06 7.41-6.58 13.21-14.89 13.08z"
         id="path14" />
      <polygon
         class="st3"
         points="652.88 195.91 655.8 353.79 424.01 351.28 421.31 206.34"
         id="polygon16" />
      <path
         class="st1"
         d="m560.17 310.77-0.14-7.14c0-0.13 0.09-0.23 0.22-0.24 0.07 0 0.13 0.03 0.18 0.08l6.12 7.12c0.07 0.09 0.07 0.22 0 0.31l-5.86 7.16c-0.07 0.1-0.22 0.12-0.32 0.05-0.06-0.05-0.09-0.12-0.09-0.19z"
         id="path18" />
      <polygon
         class="st4"
         points="504.7 299.12 504.93 311.02 546.45 310.83 546.23 298.74"
         id="polygon20" />
      <polygon
         class="st5"
         points="504.93 311.02 505.14 322.92 546.67 322.92 546.45 310.83"
         id="polygon22" />
      <path
         class="st4"
         d="m505.31 331.65c-0.01 1.71 1.35 3.12 3.06 3.18l35.44 0.16c1.7-0.02 3.05-1.42 3.03-3.11v-0.09l-0.17-8.86h-41.52z"
         id="path24" />
      <path
         class="st4"
         d="m545.83 277.79c0.01-1.73-1.38-3.15-3.12-3.16h-0.02l-35.43 0.63c-1.7 0.08-3.01 1.52-2.94 3.22l0.16 8.74 41.52-0.56z"
         id="path26" />
      <polygon
         class="st5"
         points="546 286.66 504.49 287.22 504.7 299.12 546.23 298.74"
         id="polygon28" />
      <path
         class="st2"
         d="m512.68 281.13c0.05 0.98-0.7 1.82-1.68 1.87h-0.02c-0.99-0.01-1.79-0.82-1.78-1.81-0.08-0.96 0.64-1.8 1.6-1.88s1.8 0.64 1.88 1.6c0.01 0.09 0.01 0.19 0 0.28z"
         id="path30" />
      <path
         class="st2"
         d="m512.91 293.08c0.04 0.98-0.71 1.8-1.69 1.85h-0.03c-1.01 0.07-1.89-0.7-1.96-1.71s0.7-1.89 1.71-1.96 1.89 0.7 1.96 1.71c0 0.03 0.01 0.07 0.01 0.11z"
         id="path32" />
      <path
         class="st2"
         d="m513.12 305.01c0.06 0.96-0.68 1.79-1.64 1.84h-0.06c-0.99-0.02-1.79-0.83-1.78-1.82-0.04-0.98 0.71-1.8 1.69-1.85h0.03c0.98 0.03 1.77 0.84 1.76 1.83z"
         id="path34" />
      <path
         class="st2"
         d="m513.35 316.95c0.05 0.97-0.69 1.8-1.66 1.85h-0.05c-0.99-0.03-1.77-0.85-1.77-1.84-0.05-0.96 0.69-1.78 1.65-1.83h0.05c0.99 0.02 1.78 0.83 1.78 1.82z"
         id="path36" />
      <path
         class="st2"
         d="m513.58 328.89c0.04 0.96-0.7 1.78-1.66 1.82h-0.05c-0.99-0.03-1.78-0.84-1.78-1.84-0.04-0.97 0.71-1.79 1.68-1.83h0.04c0.98 0.04 1.77 0.86 1.77 1.85z"
         id="path38" />
      <path
         class="st6"
         d="m627.65 310.49c0.41 13.26-10.02 24.35-23.28 24.75-0.22 0.01-0.45 0.01-0.67 0.01-13.44-0.26-24.26-11.13-24.46-24.57-0.4-13.28 10.04-24.38 23.32-24.78 0.07 0 0.15 0 0.22-0.01 13.63 0 24.72 10.97 24.87 24.6z"
         id="path40" />
      <polygon
         class="st2"
         points="619.67 310.73 610.91 319.82 607.4 316.32 612.76 310.76 609.98 308 597.26 321.25 586.98 310.95 596.11 301.36 599.59 304.83 593.76 310.92 597.13 314.29 609.84 301.01"
         id="polygon42" />
      <clipPath
         id="b">
        <use
           width="100%"
           height="100%"
           xlink:href="#d"
           id="use44" />
      </clipPath>
      <g
         class="st7"
         clip-path="url(#b)"
         id="g49">
        <polygon
           class="st8"
           points="604.78 302.85 597.13 314.29 601.06 318.21 610.42 308.46"
           id="polygon47" />
      </g>
      <path
         class="st1"
         d="m623.42 272.94-47.91 0.86c-1.77 0.08-3.28-1.27-3.4-3.04l-1.01-54.22c0.08-1.79 1.55-3.21 3.34-3.24l47.88-1.92c1.81-0.17 3.41 1.16 3.58 2.97v0.06l1.03 55.3c-0.08 1.86-1.65 3.3-3.51 3.23z"
         id="path51" />
      <polygon
         class="st3"
         points="620.28 216.89 620.33 219.33 576.56 220.96 576.52 218.56"
         id="polygon53" />
      <polygon
         class="st3"
         points="620.41 223.32 620.45 225.76 576.68 227.29 576.64 224.88"
         id="polygon55" />
      <polygon
         class="st3"
         points="620.52 229.73 620.56 232.18 576.79 233.61 576.75 231.21"
         id="polygon57" />
      <path
         class="st4"
         d="m598.58 236.68c-2.1 0.07-4.16 0.57-6.05 1.48l6.35 14.13z"
         id="path59" />
      <path
         class="st8"
         d="m610.33 241.8c-2.95-3.38-7.27-5.26-11.75-5.12l0.29 15.62z"
         id="path61" />
      <path
         class="st6"
         d="m610.8 262.09c2.29-2.9 3.49-6.51 3.4-10.2-0.05-3.73-1.44-7.31-3.91-10.1l-11.46 10.49z"
         id="path63" />
      <path
         class="st5"
         d="m598.87 252.3-13.08 8.02c4.15 7.23 13.37 9.73 20.61 5.58 1.7-0.97 3.19-2.27 4.4-3.81z"
         id="path65" />
      <path
         class="st9"
         d="m592.53 238.17c-7.86 3.87-11.09 13.39-7.22 21.25 0.15 0.31 0.31 0.61 0.49 0.91l13.08-8.02z"
         id="path67" />
      <path
         class="st2"
         d="m478.52 284.95c-1.89 0.02-3.73 0.65-5.25 1.78-1.04-6.98-6.71-12.27-13.51-12.15-7.33 0.14-13.12 6.62-12.98 14.48 0 0.35 0 0.69 0.07 1.04-0.35-0.06-0.7-0.09-1.05-0.08-4.07 0.21-7.2 3.67-7 7.74v0.04c-0.06 4.11 3.17 7.51 7.28 7.66l32.77-0.23c5.38-0.21 9.57-4.73 9.37-10.11 0-0.05 0-0.1-0.01-0.15-0.06-5.6-4.43-10.1-9.69-10.02z"
         id="path69" />
      <polygon
         class="st1"
         points="544.69 215.71 544.88 226.02 437.59 229.85 437.41 219.95"
         id="polygon71" />
      <polygon
         class="st1"
         points="524.12 235.15 524.19 239 437.81 241.7 437.74 237.97"
         id="polygon73" />
      <polygon
         class="st1"
         points="511.17 252.57 511.24 256.4 438.12 258.23 438.05 254.5"
         id="polygon75" />
      <polygon
         class="st1"
         points="511.01 244.08 511.08 247.91 437.97 249.96 437.9 246.24"
         id="polygon77" />
      <path
         class="st1"
         d="m498.94 325.15h-29.04c-4.05-0.17-7.24-3.52-7.21-7.57l-0.14-7.49h2.05l0.15 7.5c-0.03 2.87 2.23 5.24 5.1 5.35h29.06z"
         id="path79" />
      <path
         class="st8"
         d="m415.43 328.22-63.96-0.12c-6.92-0.04-12.56-5.55-12.76-12.47l-0.97-52.33c-0.11-6.94 5.36-12.68 12.3-12.89l63.92-1.85c7.18-0.3 13.24 5.28 13.54 12.46v0.08l1 54.19c0.06 7.09-5.64 12.88-12.73 12.93-0.12 0.01-0.23 0-0.34 0z"
         id="path81" />
      <path
         class="st2"
         d="m408.83 283.4c-0.05-0.32-0.3-0.57-0.61-0.61l-6.26-0.63c-0.53-1.71-1.26-3.36-2.16-4.91l3.94-5.33c0.19-0.28 0.19-0.64 0-0.92-1.9-2.77-4.28-5.17-7.03-7.11-0.24-0.18-0.58-0.16-0.79 0.06l-5.16 4.74c-1.09-0.54-2.23-0.98-3.4-1.3l-1.01-7.24c-0.03-0.32-0.27-0.57-0.58-0.62-2.88-0.42-5.8-0.32-8.65 0.28-0.29 0.08-0.51 0.33-0.53 0.63l-0.9 7.41c-1.19 0.44-2.33 0.99-3.4 1.65l-4.91-4.53c-0.23-0.21-0.58-0.21-0.82 0-2.46 2.01-4.57 4.43-6.22 7.14-0.18 0.27-0.18 0.62 0 0.9l3.97 5.26c-0.73 1.45-1.31 2.97-1.73 4.53l-6.04 1.01c-0.3 0.06-0.51 0.31-0.53 0.61-0.45 3.45-0.35 6.95 0.29 10.37 0.05 0.3 0.29 0.53 0.59 0.58l5.67 0.63c0.36 1.36 0.84 2.68 1.43 3.96l-3.57 4.59c-0.19 0.27-0.19 0.63 0 0.9 1.75 2.86 3.99 5.39 6.62 7.48 0.23 0.19 0.56 0.19 0.78 0l4.33-3.57c1.41 0.91 2.94 1.64 4.53 2.16l0.59 5.83c0.02 0.32 0.25 0.58 0.56 0.66 3.26 0.67 6.62 0.67 9.87 0 0.3-0.08 0.51-0.34 0.53-0.65l0.46-5.95c1.63-0.58 3.18-1.36 4.6-2.35l4.35 3.65c0.24 0.2 0.58 0.2 0.82 0 2.6-2.14 4.79-4.72 6.48-7.63 0.17-0.3 0.13-0.67-0.1-0.93l-3.97-4.32c0.65-1.5 1.16-3.05 1.51-4.65l5.77-0.46c0.32-0.04 0.58-0.3 0.61-0.62 0.62-3.54 0.64-7.16 0.07-10.7zm-26.27 19.02c-6.64 0.06-12.1-5.85-12.24-13.18s5.11-13.39 11.74-13.51 12.23 5.78 12.36 13.18c0.09 3.49-1.12 6.88-3.4 9.52-2.11 2.48-5.2 3.94-8.46 3.99z"
         id="path83" />
      <path
         class="st2"
         d="m388.69 288.77c0.07 3.9-2.73 7.09-6.24 7.13s-6.41-3.07-6.48-6.96 2.71-7.07 6.21-7.13 6.44 3.06 6.51 6.96z"
         id="path85" />
      <path
         class="st10"
         d="m814.05 261.64s-10.2-48.62-24.84-75.18c-14.64-26.55-22.67-19.09-27.69-13.84s-37.5 55.68-40.05 97.47c0 0 13.87-34.49 21.34-48.93 7.71-14.88 21.31-43.36 28.56-42.39 8.5 1.13 27.61 65.19 31.64 81.55l1.63 16.73h11.86z"
         id="path87" />
      <path
         class="st2"
         d="m750.04 279.03-129.48 1.98c-8.45 0.12-15.46-5.97-15.6-13.6l-1.76-94.68c-0.15-7.59 6.62-14.2 15.07-14.73l129.35-7.6c9.32-0.56 17.1 5.56 17.25 13.6l1.86 100.2c0.17 8.01-7.37 14.7-16.69 14.83z"
         id="path89" />
      <path
         class="st1"
         d="m658.94 243.32c-0.04-0.23-0.24-0.41-0.48-0.43l-4.84-0.37c-0.42-1.21-0.98-2.37-1.68-3.46l3.07-3.81c0.15-0.19 0.15-0.46 0-0.66-1.51-1.97-3.35-3.65-5.45-4.96-0.19-0.13-0.44-0.13-0.62 0l-4.02 3.4c-0.84-0.37-1.72-0.67-2.62-0.88l-0.77-5.13c-0.05-0.21-0.22-0.37-0.43-0.4-2.27-0.27-4.56-0.18-6.8 0.28-0.22 0.04-0.39 0.23-0.42 0.45l-0.71 5.28c-0.92 0.32-1.81 0.72-2.65 1.2l-3.83-3.17c-0.19-0.15-0.45-0.15-0.63 0-1.91 1.43-3.56 3.16-4.9 5.13-0.15 0.19-0.15 0.46 0 0.65l3.11 3.71c-0.57 1.02-1.03 2.1-1.37 3.22l-4.74 0.78c-0.22 0.04-0.39 0.22-0.42 0.44-0.36 2.45-0.29 4.95 0.22 7.38 0.05 0.23 0.24 0.39 0.46 0.41l4.53 0.39c0.29 0.97 0.67 1.9 1.13 2.8l-2.81 3.31c-0.15 0.19-0.15 0.45 0 0.63 1.4 2.04 3.15 3.81 5.18 5.24 0.18 0.14 0.43 0.14 0.61 0l3.4-2.6c1.13 0.64 2.33 1.13 3.58 1.47l0.45 4.14c0.03 0.23 0.2 0.42 0.43 0.46 2.56 0.41 5.17 0.35 7.71-0.18 0.23-0.05 0.39-0.24 0.42-0.46l0.37-4.23c1.26-0.43 2.46-1.01 3.58-1.73l3.4 2.53c0.19 0.15 0.45 0.15 0.63 0 2-1.51 3.71-3.37 5.04-5.49 0.13-0.21 0.1-0.48-0.07-0.66l-3.13-3.05c0.49-1.06 0.87-2.16 1.13-3.3l4.48-0.41c0.24-0.02 0.44-0.2 0.49-0.44 0.44-2.47 0.42-5.01-0.03-7.48zm-20.47 13.8c-5.18 0.11-9.46-4-9.56-9.18v-0.05c-0.1-5.21 4-9.54 9.21-9.72 5.16-0.15 9.46 3.91 9.61 9.06v0.15c0.05 2.53-0.9 4.97-2.64 6.8-1.73 1.82-4.11 2.87-6.62 2.94z"
         id="path91" />
      <path
         class="st1"
         d="m643.27 247.35c0.06 2.76-2.12 5.06-4.88 5.15-2.73 0.06-5-2.11-5.05-4.85v-0.02c-0.05-2.76 2.12-5.04 4.87-5.13 2.72-0.08 4.99 2.07 5.06 4.79v0.06z"
         id="path93" />
      <polygon
         class="st1"
         points="704.85 168.63 705 176.25 616.34 180.77 616.2 173.38"
         id="polygon95" />
      <polygon
         class="st1"
         points="752.95 183.53 753.02 187.4 616.59 193.73 616.52 190.03"
         id="polygon97" />
      <polygon
         class="st1"
         points="753.2 196.66 753.27 200.54 616.81 206.25 616.75 202.56"
         id="polygon99" />
      <polygon
         class="st1"
         points="753.44 209.8 753.51 213.67 617.05 218.79 616.98 215.08"
         id="polygon101" />
      <polygon
         class="st1"
         points="753.69 222.93 753.76 226.81 668.72 229.61 668.65 225.85"
         id="polygon103" />
      <polygon
         class="st1"
         points="753.93 236.07 754.01 239.94 668.96 242.37 668.89 238.61"
         id="polygon105" />
      <polygon
         class="st1"
         points="754.18 249.22 754.24 253.09 669.2 255.12 669.13 251.36"
         id="polygon107" />
      <polygon
         class="st1"
         points="754.41 262.35 754.49 266.23 669.44 267.88 669.37 264.12"
         id="polygon109" />
      <rect
         class="st11"
         x="237.02"
         y="419.22"
         width="355.08"
         height="12.3"
         id="rect111" />
      <path
         class="st1"
         d="m592.11 419.22h283.1c6.79 0 12.3 5.51 12.3 12.3h-295.4z"
         id="path113" />
      <circle
         class="st12"
         cx="60.84"
         cy="336.88"
         r="14.85"
         id="circle115" />
      <circle
         class="st8"
         cx="48.61"
         cy="178.23"
         r="6.83"
         id="circle117" />
      <circle
         class="st13"
         cx="479.61"
         cy="143.78"
         r="15.43"
         id="circle119" />
      <circle
         class="st2"
         cx="414.56"
         cy="163.48"
         r="6.11"
         id="circle121" />
      <circle
         class="st1"
         cx="604.04"
         cy="77.79"
         r="34.35"
         id="circle123" />
      <circle
         class="st14"
         cx="976.35"
         cy="267.58"
         r="40.76"
         id="circle125" />
      <circle
         class="st12"
         cx="921.35"
         cy="131.94"
         r="11.36"
         id="circle127" />
      <polygon
         class="st15"
         points="849.46 368.07 853.65 419.22 850.44 419.22 841.87 369.02"
         id="polygon129" />
      <path
         class="st16"
         d="m779.17 364.67h81.6c0 4.06-3.29 7.36-7.36 7.36h-74.24z"
         id="path131" />
      <polygon
         class="st8"
         points="856.59 277.1 852.05 364.67 776.86 364.67 771.19 277.1"
         id="polygon133" />
      <path
         class="st10"
         d="m756.7 119.57s38.02 37.54 53.6 126.17l3.77 3-3.63-51.96c0.01 0-22-62.1-53.74-77.21z"
         id="path135" />
      <path
         class="st10"
         d="m801.42 277.1s-4.93-18.13-17-18.13c-13.43 0-17.76 23.4-20.68 50.33-2.58 23.7-5.67 89.54 1.38 126.44 0 0 2.53-45.23 3.24-66.08 0.71-20.84 5.87-67.16 8.34-80.59s5.09-23.01 8.79-22.54c3.71 0.46 6.6 10.59 6.6 10.59z"
         id="path137" />
      <path
         class="st6"
         d="m818.23 277.1s-4.76-28.33-16.82-28.33c-13.43 0-17.92 33.64-20.85 60.57-2.58 23.7-5.67 89.54 1.39 126.44 0 0 2.53-45.23 3.24-66.08 0.71-20.84 5.86-67.16 8.33-80.59s5.1-23.01 8.81-22.54 5.67 10.56 5.67 10.56z"
         id="path139" />
      <path
         class="st10"
         d="m832.8 277.1s4.93-18.13 17-18.13c13.43 0 17.75 23.4 20.68 50.33 2.58 23.7 5.67 89.54-1.38 126.44 0 0-2.53-45.23-3.24-66.08-0.71-20.84-5.87-67.16-8.34-80.59s-5.1-23.01-8.79-22.54c-3.69 0.46-7.02 11.75-7.02 11.75z"
         id="path141" />
      <path
         class="st6"
         d="m810.1 253.53s0-73.51-1.24-96.56-2.88-70.39-34.17-97.15c0 0 34 16.47 43.43 69.57s5.45 147.71 5.45 147.71h-8.94z"
         id="path143" />
      <path
         class="st10"
         d="m842.52 215.65s11.63-23.57 22.23-22.44 21.61 33.75 20.03 49.1c0 0-12.61-39.67-22.28-39.21s-29.91 51.39-33.62 62.9c-3.71 11.5 8.08-42.95 13.64-50.35z"
         id="path145" />
      <path
         class="st6"
         d="m816.5 277.1s-4.34-65.58 19.27-94.6c0 0-8.02 30.36-7.93 43.85 0 0 16.37-51.57 49.71-65.57s54.97 6.48 67.93 19.66c0 0-30.15-27.63-63.91-9.37-31.39 17-53.42 80.47-53.42 106.03z"
         id="path147" />
      <path
         class="st6"
         d="m828.92 265.99s3.66-5.11 9.07-2.44c5.09 2.49 8.69 16.31 9.93 32.37s0.93 37.47 0.93 37.47-4.94-31.5-7.82-43.24-4.33-21.09-8.85-21.09-4.44 8.04-4.44 8.04-0.47-9.14 1.18-11.11z"
         id="path149" />
      <path
         class="st17"
         d="m393.39 378.42s80.6 18.05 88.78 18.05 28.1-7.48 36.03-7.71c7.37-0.22 23.31 6.03 27.46 9.42 3.55 2.89 20.58 21.04 8.99 21.04s-175.8 0.25-175.8 0.25z"
         id="path151" />
      <path
         class="st17"
         d="m274.69 143.78s6.12 15.72 7.19 19.7c1.25 4.65 2.64 10.2 1.76 14.92-0.73 3.94-2.77 7.53-1.07 12.47s2.14 7.76-0.93 23.88-8.18 8.7-8.18 8.7l-14.35-3.4-6.03-60.36c-0.01-0.01 16.13-12.08 21.61-15.91z"
         id="path153" />
      <path
         class="st17"
         d="m247.82 245.73s-0.92 14.44 4.53 23.63-26.14-14.98-26.14-14.98l-46.8-16.37 2.54-6.35 15.99-23.51 20.89-29.54 24.97-9.8 9.07 17.91 2.01 41.99z"
         id="path155" />
      <path
         class="st18"
         d="m181.92 231.66c-1.26-2.29-1.46-5.03-0.53-7.48 1.48-4.45-0.66-15.71-2.03-21.53-1.58-6.74-7.67-15.74-10.13-20.88-3-6.27-6.14-17.17-0.99-27.45 4.95-9.88 10.2-13.76 16.86-14.82 0 0 5.61-14.99 29.07-17.28 19.63-1.92 32.57 2.27 44.72 4.85 10.12 2.19 13.49-0.7 15.45-4.31 0 0 9.67 4.01 5.81 17.24-3.34 11.48-17 14.94-18.7 25.51s-0.97 23.69 0.27 36.92c0.71 7.7 1.28 12.84 5.29 13.07s9.34-7.93 15.74-7c3.28 0.44 1.96 15.81 1.13 21.4-0.77 5.27-2.7 27.79-20.96 26.72s-18.05-13.95-17.39-17.88c0.67-3.93 4.03-15.92 4.25-24.84s-0.99-24.32-3.82-29.94c-2.66-5.27-9.07-8.18-13.6-4.78s-4.53 10.2-2.54 17.94 2.65 19.01-4.88 25.39c-7.51 6.36-18.6 13.01-43.02 9.15z"
         id="path157" />
      <path
         class="st19"
         d="m307.89 492.12c-0.12-1.4-0.35-2.79-0.69-4.15 0 0-22.44-10.49-30.4-31.03s-5.73-63.82-1.59-80.22l-45.84-80.22 35.66-14.12-2.1-1.77-10.57-11.25-44.2-21.28-26.69-2.65-8.32 6.36c-4.81 4.19-10.08 7.83-15.71 10.82-9.71 5.26-23.25 11.62-29.93 22.6-6.69 10.98-13.2 30.73-17.18 57.02s-5.1 42.33-5.1 42.33l23.09 52.69 17.44 54.27h14.73l24.32 97.34c25.4 4.77 49.73 4.74 75.39 2.35 2.27-0.36 4.44-0.73 6.65-1.13 3.43-0.6 6.86-1.23 10.3-1.9 7.46-10.63 19.6-30.27 25.42-52.74 6.06-23.31 5.96-37.03 5.32-43.32z"
         id="path159"
         style="fill:#ff6600" />
      <path
         class="st20"
         d="m398.81 373.45s2.06 32.52-23.88 57.63c0 0-50.63-12.97-62.57-18.13-11.95-5.17-69.42-46.47-84.76-58.4-20.58-16.07-36.58-47.87-15.87-72.05 16.83-19.62 41.93-11.58 65.41 9.41 22.67 20.29 74.31 66.87 78.02 68.14 3.7 1.27 43.65 13.4 43.65 13.4z"
         id="path161" />
      <path
         class="st20"
         d="m173.15 251.78s-0.96-13.6 8.77-20.12c0 0 53.37 14.85 83.11 50.72 0 0-24.04-21.21-49.74-27.99-25.03-6.61-35.47-4.81-42.14-2.61z"
         id="path163" />
      <path
         class="st11"
         d="m488.02 568.16 3.48-136.64h-23.8l3.47 136.59c5.72-0.05 11.34-0.03 16.85 0.05z"
         id="path165" />
      <path
         class="st21"
         d="m440.6 539.42c-4.11-8.85-15.44-16.68-36.27-22.24-17.6-4.7-78.28-20.33-96.48-25.01 0.63 6.29 0.74 20.02-5.3 43.28-5.83 22.46-17.96 42.1-25.42 52.74-0.31 0.44-0.61 0.86-0.9 1.26 36.81-4.53 77.2-12.71 127.76-17.69 16.58-1.63 32.53-2.66 47.86-3.2-2.83-8-8.31-22.87-11.25-29.14z"
         id="path167" />
      <path
         class="st19"
         d="m260.21 591.16 6.71-0.68-0.06-0.44c-2.2 0.39-4.43 0.76-6.65 1.12z"
         id="path169" />
      <path
         class="st19"
         d="m266.87 590.04 0.06 0.44c3.09-0.32 6.21-0.7 9.35-1.13 0.28-0.4 0.59-0.82 0.9-1.26-3.44 0.7-6.88 1.35-10.31 1.95z"
         id="path171" />
      <path
         class="st1"
         d="m169.69 565.97-23.94-74.5h-6.02l22.98 92.01c4.46 1.31 8.86 2.47 13.2 3.48z"
         id="path173" />
      <path
         class="st1"
         d="m175.92 586.96c2.98 0.68 5.94 1.3 8.9 1.86l-24.27-97.34h-14.73l23.94 74.5z"
         id="path175" />
      <path
         class="st21"
         d="m179.03 495.87h-52.71c-5.11-0.01-9.58-3.45-10.91-8.39l-25.88-97.08c-1.57-6.06 2.07-12.24 8.13-13.82 0.93-0.24 1.88-0.36 2.83-0.36h52.71c5.11 0.01 9.58 3.45 10.91 8.39l25.83 97.02c1.61 6.05-1.99 12.26-8.04 13.87-0.93 0.24-1.9 0.37-2.87 0.37z"
         id="path177" />
      <path
         class="st3"
         d="m1066.1 564.93h-423.57c-11.49 0-20.89-7.14-20.89-15.87v-154.82c0-8.73 9.4-15.87 20.89-15.87h423.57c11.49 0 20.89 7.14 20.89 15.87v154.82c0 8.72-9.4 15.87-20.89 15.87z"
         id="path179" />
      <path
         class="st2"
         d="m621.11 365.93h440.2c7.51 0 13.6 6.09 13.6 13.6v163.46c0 7.51-6.09 13.6-13.6 13.6h-440.2c-7.51 0-13.6-6.09-13.6-13.6v-163.46c0-7.51 6.09-13.6 13.6-13.6z"
         id="path181" />
      <clipPath
         id="a">
        <use
           width="100%"
           height="100%"
           xlink:href="#c"
           id="use183" />
      </clipPath>
      <g
         class="st22"
         clip-path="url(#a)"
         id="g278">
        <rect
           class="st2"
           x="607.51"
           y="365.93"
           width="467.4"
           height="190.67"
           id="rect186" />
        <rect
           class="st2"
           x="607.51"
           y="365.93"
           width="467.4"
           height="129.83"
           id="rect188" />
        <path
           class="st2"
           d="m709.32 395.58c4.26-4.47 10.16-6.99 16.33-6.99 8.28 0.05 15.9 4.55 19.94 11.78 3.54-1.6 7.37-2.42 11.25-2.43 15.48 0.31 27.77 13.11 27.46 28.59-0.3 15.04-12.42 27.16-27.46 27.46-1.83-0.02-3.65-0.19-5.45-0.51-5.24 9.43-16.93 13.11-26.62 8.39-5.04 11.78-18.68 17.24-30.46 12.2-5.84-2.5-10.39-7.28-12.61-13.23-11.8 2.32-23.26-5.36-25.58-17.17-1.79-9.09 2.37-18.32 10.36-23-1.37-3.13-2.07-6.51-2.06-9.93 0.01-13.83 11.23-25.03 25.06-25.01 7.81 0.01 15.16 3.65 19.89 9.86z"
           id="path190" />
        <path
           class="st2"
           d="m674.3 432.5c-0.07 0.23 0 0.23 0.08 0.29 0.08 0.07 0.51 0.29 0.74 0.44 1.18 0.59 2.49 0.9 3.82 0.88 2.65 0 4.27-1.39 4.27-3.68v-0.07c0-2.06-1.85-2.87-3.6-3.4h-0.15c-1.33-0.44-2.43-0.8-2.43-1.69v-0.07c0-0.74 0.66-1.26 1.69-1.26 1.19 0.02 2.35 0.32 3.4 0.88 0.12 0.08 0.29 0.05 0.37-0.07 0.2-0.48 0.37-0.97 0.51-1.47 0.08-0.15-0.07-0.23-0.15-0.29-1.16-0.67-2.48-1.02-3.82-1.03h-0.29c-2.43 0-4.13 1.47-4.13 3.54v0.07c0 2.21 1.85 2.95 3.6 3.46l0.29 0.08c1.26 0.36 2.36 0.73 2.36 1.61v0.08c0 0.8-0.74 1.39-1.84 1.39-1.2 0.01-2.38-0.32-3.4-0.95-0.22-0.08-0.29-0.23-0.44-0.29-0.15-0.07-0.29-0.15-0.36 0.15z"
           id="path192" />
        <path
           class="st2"
           d="m713.07 432.5c-0.08 0.23 0 0.23 0.07 0.29 0.07 0.07 0.52 0.29 0.74 0.44 1.19 0.6 2.5 0.9 3.83 0.88 2.64 0 4.26-1.39 4.26-3.68v-0.07c0-2.06-1.84-2.87-3.6-3.4l-0.22-0.07c-1.33-0.44-2.44-0.82-2.44-1.69v-0.08c0-0.74 0.67-1.25 1.7-1.25 1.19 0.02 2.35 0.32 3.4 0.88 0.12 0.08 0.28 0.05 0.36-0.06 0-0.01 0.01-0.01 0.01-0.02 0.2-0.48 0.37-0.97 0.51-1.47 0.08-0.15-0.07-0.22-0.15-0.29-1.16-0.67-2.48-1.02-3.82-1.03h-0.29c-2.43 0-4.13 1.47-4.13 3.54v0.08c0 2.2 1.85 2.94 3.6 3.46l0.29 0.07c1.26 0.36 2.36 0.74 2.36 1.62v0.07c0 0.82-0.74 1.41-1.84 1.41-1.2 0.01-2.38-0.32-3.4-0.96-0.17-0.05-0.33-0.16-0.44-0.29-0.07 0-0.29-0.15-0.36 0.15z"
           id="path194" />
        <path
           class="st2"
           d="m741.76 425.74c-0.21-0.7-0.56-1.36-1.03-1.92-0.48-0.53-1.06-0.98-1.69-1.33-0.75-0.31-1.55-0.46-2.36-0.44-0.8-0.02-1.6 0.13-2.35 0.44-0.67 0.29-1.26 0.74-1.7 1.33-0.47 0.56-0.82 1.21-1.03 1.92-0.21 0.77-0.31 1.56-0.29 2.36-0.02 0.79 0.08 1.58 0.29 2.35 0.21 0.7 0.56 1.35 1.03 1.92 0.47 0.54 1.05 0.96 1.7 1.25 0.74 0.31 1.54 0.46 2.35 0.44 0.81 0.02 1.61-0.13 2.36-0.44 0.65-0.29 1.22-0.71 1.69-1.25 0.48-0.56 0.83-1.21 1.03-1.92 0.21-0.76 0.31-1.55 0.29-2.35s-0.12-1.59-0.29-2.36m-2.21 2.35c0.07 1.06-0.19 2.11-0.74 3.01-0.46 0.72-1.28 1.12-2.13 1.03-0.84 0.05-1.65-0.34-2.13-1.03-0.49-0.93-0.72-1.97-0.66-3.01-0.05-1.05 0.17-2.09 0.66-3.01 0.46-0.72 1.28-1.12 2.13-1.03 0.84-0.05 1.65 0.34 2.13 1.03 0.51 0.92 0.77 1.96 0.74 3.01"
           id="path196" />
        <path
           class="st2"
           d="m759.85 431.76c-0.04-0.12-0.17-0.19-0.29-0.15-0.33 0.14-0.68 0.24-1.03 0.29-0.37 0.06-0.75 0.09-1.13 0.08-0.94 0.07-1.86-0.28-2.5-0.96-0.69-0.85-1.02-1.93-0.95-3.01-0.06-1.05 0.26-2.09 0.88-2.94 0.56-0.77 1.48-1.2 2.43-1.13 0.8-0.03 1.6 0.1 2.36 0.37 0 0 0.15 0.07 0.22-0.15 0.23-0.5 0.41-1.02 0.52-1.55 0.07-0.15-0.08-0.22-0.15-0.29-0.47-0.18-0.97-0.31-1.47-0.36-0.56-0.1-1.12-0.15-1.69-0.15-0.83-0.02-1.66 0.13-2.44 0.44-0.7 0.27-1.31 0.73-1.76 1.33-0.48 0.57-0.86 1.22-1.13 1.92-0.23 0.76-0.35 1.55-0.36 2.35-0.07 1.6 0.45 3.18 1.47 4.42 1.14 1.15 2.73 1.74 4.34 1.61 1.08 0.01 2.15-0.19 3.16-0.59 0 0 0.15-0.07 0.07-0.28z"
           id="path198" />
        <path
           class="st2"
           d="m771.18 425.29c-0.21-0.64-0.53-1.24-0.95-1.77-0.41-0.45-0.88-0.83-1.41-1.13-0.67-0.31-1.4-0.46-2.13-0.44-0.86-0.03-1.71 0.15-2.49 0.51-0.67 0.29-1.26 0.74-1.7 1.33-0.47 0.56-0.82 1.21-1.03 1.92-0.21 0.77-0.31 1.56-0.29 2.36 0 0.8 0.12 1.59 0.37 2.35 0.21 0.72 0.6 1.38 1.13 1.92 0.54 0.55 1.19 0.98 1.92 1.25 0.87 0.31 1.79 0.46 2.72 0.44 1.29 0.06 2.58-0.2 3.75-0.74 0.08-0.07 0.15-0.14 0.08-0.36l-0.52-1.39c-0.04-0.12-0.16-0.19-0.28-0.15h-0.01c-0.97 0.43-2.02 0.63-3.08 0.59-0.94 0.04-1.86-0.28-2.57-0.88-0.62-0.68-0.94-1.58-0.88-2.5h7.5c0.09-0.03 0.15-0.12 0.15-0.22 0.01-1.05-0.07-2.08-0.28-3.09zm-7.43 1.55c0.05-0.63 0.25-1.23 0.59-1.76 0.43-0.76 1.26-1.2 2.13-1.13 0.85-0.04 1.64 0.4 2.06 1.13 0.29 0.54 0.47 1.14 0.51 1.76z"
           id="path200" />
        <path
           class="st2"
           d="m711.3 425.29c-0.21-0.64-0.53-1.24-0.95-1.77-0.41-0.45-0.88-0.83-1.41-1.13-0.67-0.31-1.4-0.46-2.13-0.44-0.86-0.03-1.72 0.15-2.5 0.51-0.67 0.29-1.25 0.75-1.69 1.33-0.47 0.56-0.82 1.21-1.03 1.92-0.21 0.77-0.31 1.56-0.29 2.36 0 0.8 0.12 1.59 0.37 2.35 0.21 0.72 0.6 1.38 1.13 1.92 0.54 0.55 1.19 0.98 1.92 1.25 0.87 0.31 1.79 0.46 2.72 0.44 1.29 0.06 2.58-0.2 3.75-0.74 0.08-0.07 0.15-0.14 0.08-0.36l-0.52-1.39c-0.04-0.12-0.16-0.19-0.28-0.15h-0.01c-0.97 0.43-2.02 0.63-3.08 0.59-0.94 0.04-1.86-0.28-2.58-0.88-0.62-0.68-0.93-1.59-0.87-2.5h7.46c0.12 0 0.22-0.1 0.22-0.22 0-1.05-0.1-2.08-0.31-3.09zm-7.42 1.55c0.04-0.62 0.24-1.23 0.58-1.76 0.45-0.75 1.27-1.18 2.14-1.13 0.84-0.05 1.64 0.39 2.05 1.13 0.3 0.54 0.48 1.14 0.52 1.76z"
           id="path202" />
        <path
           class="st2"
           d="m690.63 426.47h-1.13c-0.62-0.01-1.24 0.07-1.84 0.22-0.56 0.13-1.09 0.38-1.54 0.74-0.47 0.32-0.86 0.76-1.13 1.26-0.26 0.52-0.39 1.1-0.36 1.69-0.01 0.58 0.12 1.16 0.36 1.69 0.24 0.44 0.57 0.82 0.96 1.13 0.47 0.31 0.99 0.53 1.54 0.66 0.65 0.16 1.32 0.23 1.98 0.23 0.76 0 1.52-0.08 2.27-0.23 0.73-0.15 1.61-0.29 1.9-0.36s0.52-0.15 0.52-0.15c0.22-0.08 0.15-0.22 0.15-0.22v-6.8c0.11-1.21-0.3-2.42-1.13-3.31-0.98-0.73-2.18-1.1-3.4-1.03-0.67-0.01-1.33 0.07-1.98 0.22-0.8 0.14-1.56 0.41-2.27 0.82 0 0-0.15 0.07-0.07 0.29l0.51 1.39c0.08 0.23 0.23 0.15 0.23 0.15 0.06-0.01 0.11-0.03 0.15-0.07 1-0.51 2.11-0.76 3.23-0.74 0.66-0.05 1.31 0.13 1.85 0.51 0.44 0.29 0.59 0.82 0.59 1.77v0.29zm-2.94 5.29c-0.29-0.22-0.37-0.29-0.44-0.44-0.16-0.29-0.24-0.62-0.23-0.95-0.03-0.57 0.22-1.12 0.67-1.47 0.62-0.44 1.39-0.63 2.14-0.53 0.69 0 1.38 0.05 2.06 0.15v3.4c-0.66 0.15-1.32 0.24-1.99 0.29-0.76 0.1-1.54-0.06-2.21-0.45z"
           id="path204" />
        <path
           class="st2"
           d="m750.95 422.69c0.08-0.15-0.07-0.22-0.15-0.29-0.41-0.1-0.83-0.18-1.25-0.22-0.65-0.1-1.32 0-1.92 0.29-0.49 0.2-0.92 0.53-1.25 0.95v-0.88c0-0.15-0.08-0.22-0.23-0.22h-1.93c-0.15 0-0.23 0.07-0.23 0.22v11.19c0 0.15 0.08 0.22 0.23 0.22h1.98c0.11 0.01 0.2-0.06 0.22-0.17v-0.05-5.59c-0.01-0.67 0.07-1.34 0.23-1.99 0.12-0.43 0.35-0.81 0.66-1.13 0.27-0.27 0.6-0.47 0.96-0.59 0.34-0.08 0.68-0.13 1.03-0.15 0.27 0.01 0.54 0.03 0.8 0.08 0.15 0 0.22-0.08 0.29-0.23s0.49-1.26 0.56-1.44z"
           id="path206" />
        <path
           class="st2"
           d="m732.56 417.5c-0.24-0.09-0.48-0.14-0.74-0.15-0.34-0.06-0.69-0.08-1.03-0.07-1.16-0.06-2.3 0.35-3.16 1.13-0.83 0.95-1.35 2.14-1.47 3.4l-0.07 0.51h-1.7c-0.12 0-0.22 0.1-0.22 0.22l-0.34 1.51c-0.01 0.11 0.06 0.2 0.17 0.22h0.05 1.62l-1.69 9.34c-0.11 0.62-0.26 1.24-0.44 1.85-0.1 0.38-0.27 0.73-0.52 1.03-0.22 0.22-0.36 0.44-0.66 0.51-0.29 0.08-0.58 0.13-0.88 0.15-0.2 0.01-0.4-0.01-0.59-0.08-0.13 0-0.26-0.05-0.36-0.14-0.12-0.04-0.25 0.01-0.29 0.13v0.01c-0.08 0.15-0.52 1.41-0.59 1.55-0.06 0.08-0.05 0.19 0.03 0.25 0.03 0.03 0.08 0.04 0.12 0.04 0.22 0.08 0.43 0.16 0.66 0.22 0.37 0.07 0.75 0.09 1.13 0.08 0.63 0.02 1.25-0.08 1.84-0.29 0.52-0.23 0.99-0.56 1.39-0.96 0.45-0.48 0.78-1.06 0.96-1.69 0.33-0.8 0.55-1.65 0.66-2.5l1.69-9.55h2.43c0.13 0 0.23-0.1 0.23-0.23l0.29-1.54c0.01-0.11-0.07-0.21-0.18-0.23h-0.05-2.35c0.09-0.57 0.21-1.13 0.36-1.69 0.14-0.29 0.31-0.56 0.52-0.8 0.16-0.21 0.4-0.34 0.66-0.37 0.26-0.09 0.53-0.14 0.8-0.15 0.2-0.02 0.4 0.01 0.59 0.08 0.12 0.04 0.25 0.07 0.37 0.07 0.22 0.08 0.29 0 0.29-0.15l0.59-1.54c0.03-0.09-0.12-0.17-0.12-0.17z"
           id="path208" />
        <path
           class="st2"
           d="m699.1 433.68c0 0.15-0.08 0.22-0.23 0.22h-1.98c-0.15 0-0.23-0.07-0.23-0.22v-15.96c-0.01-0.11 0.07-0.21 0.18-0.23h0.05 2.02c0.11-0.01 0.21 0.07 0.23 0.18v0.05z"
           id="path210" />
        <path
           class="st2"
           d="m802.04 417.02c1 0 1.99 0.15 2.95 0.44 0.91 0.27 1.75 0.72 2.49 1.31l-1.13 1.92c-1.24-0.93-2.75-1.43-4.31-1.41-1.52-0.1-2.99 0.53-3.97 1.69-0.94 1.36-1.4 2.99-1.33 4.64-0.09 1.62 0.38 3.22 1.33 4.53 0.95 1.21 2.43 1.87 3.97 1.77 1.58-0.02 3.12-0.51 4.42-1.39l1.02 1.92c-1.63 1.17-3.59 1.78-5.59 1.76-1.6 0.05-3.18-0.38-4.53-1.25-1.17-0.79-2.07-1.92-2.57-3.24-0.53-1.33-0.81-2.75-0.82-4.18-0.11-2.28 0.65-4.52 2.13-6.26 1.59-1.53 3.74-2.34 5.94-2.25z"
           id="path212" />
        <path
           class="st2"
           d="m824.96 425.59c0.04 1.57-0.29 3.12-0.96 4.53-0.63 1.29-1.63 2.37-2.87 3.09-2.76 1.46-6.07 1.46-8.83 0-1.24-0.73-2.23-1.8-2.87-3.09-0.67-1.41-1-2.97-0.95-4.53-0.11-2.28 0.65-4.51 2.13-6.24 1.58-1.61 3.78-2.46 6.03-2.36 1.59-0.04 3.15 0.35 4.53 1.13 1.23 0.68 2.21 1.74 2.8 3.03 0.73 1.36 1.08 2.9 0.99 4.44zm-13.61 0c-0.09 1.67 0.38 3.33 1.33 4.7 0.97 1.23 2.49 1.89 4.05 1.77 1.58 0.11 3.11-0.55 4.11-1.77 0.94-1.38 1.41-3.03 1.33-4.7 0.09-1.67-0.38-3.33-1.33-4.7-1-1.23-2.54-1.89-4.11-1.77-1.56-0.12-3.08 0.54-4.05 1.77-0.94 1.38-1.41 3.03-1.34 4.7z"
           id="path214" />
        <path
           class="st2"
           d="m828.11 421.1c0-1.23-0.08-2.45-0.23-3.67h2.65c0.07 0.58 0.15 1.31 0.22 2.35h0.08c0.56-0.85 1.35-1.54 2.27-1.98 0.99-0.54 2.1-0.82 3.23-0.8 1.2-0.05 2.38 0.25 3.4 0.88 0.89 0.57 1.56 1.43 1.9 2.43h0.08c1.11-2.09 3.31-3.36 5.67-3.28 1.2-0.04 2.38 0.26 3.4 0.88 0.87 0.58 1.56 1.39 1.98 2.35 0.45 0.99 0.67 2.07 0.66 3.16v10.52h-2.72v-10.14c0.05-1.12-0.26-2.23-0.88-3.16-0.68-0.92-1.79-1.42-2.94-1.33-0.92 0-1.82 0.28-2.57 0.8-0.73 0.51-1.3 1.23-1.62 2.06-0.37 0.89-0.54 1.84-0.52 2.8v8.96h-2.72v-10.2c0.04-1.13-0.29-2.24-0.95-3.16-0.7-0.9-1.81-1.37-2.95-1.25-1.3-0.05-2.55 0.49-3.4 1.47-0.84 1.04-1.28 2.34-1.26 3.67v9.42h-2.72z"
           id="path216" />
        <path
           class="st2"
           d="m857.39 421.1c0-1.23-0.08-2.45-0.23-3.67h2.67c0.08 0.58 0.15 1.31 0.22 2.35h0.08c0.56-0.85 1.35-1.54 2.27-1.98 0.96-0.51 2.02-0.77 3.11-0.77 1.2-0.06 2.38 0.25 3.4 0.88 0.89 0.58 1.56 1.43 1.92 2.43h0.07c1.11-2.12 3.34-3.41 5.73-3.31 1.2-0.04 2.38 0.26 3.4 0.88 0.87 0.58 1.56 1.39 1.98 2.35 0.45 0.99 0.68 2.07 0.67 3.16v10.52h-2.73v-10.14c0.05-1.12-0.26-2.23-0.88-3.16-0.68-0.92-1.79-1.42-2.94-1.33-1.85 0.01-3.51 1.14-4.19 2.87-0.37 0.89-0.54 1.84-0.52 2.8v8.96h-2.79v-10.2c0.05-1.13-0.29-2.25-0.96-3.16-0.69-0.9-1.81-1.37-2.94-1.25-1.3-0.05-2.55 0.49-3.4 1.47-0.83 1.04-1.28 2.34-1.25 3.67v9.42h-2.72v-12.79z"
           id="path218" />
        <path
           class="st2"
           d="m900.72 426.62h-12.22c-0.01 1.47 0.54 2.89 1.55 3.97 1.03 1.03 2.45 1.57 3.9 1.47 0.89 0 1.78-0.13 2.64-0.36 0.82-0.29 1.62-0.67 2.36-1.13l1.25 1.77c-0.91 0.64-1.9 1.15-2.94 1.54-1.1 0.36-2.25 0.53-3.4 0.51-2.21 0.11-4.36-0.74-5.89-2.35-1.47-1.78-2.23-4.03-2.13-6.34-0.03-1.54 0.27-3.06 0.88-4.48 0.52-1.27 1.43-2.34 2.58-3.07 1.23-0.77 2.66-1.16 4.11-1.13 2.08-0.11 4.1 0.76 5.44 2.36 1.34 1.77 2.02 3.96 1.92 6.18 0.03 0.35 0.01 0.71-0.05 1.06zm-2.58-2.13c0.04-1.4-0.4-2.78-1.25-3.9-1.83-1.91-4.87-1.97-6.78-0.14-0.07 0.07-0.14 0.14-0.2 0.21-0.89 1.1-1.35 2.48-1.33 3.9z"
           id="path220" />
        <path
           class="st2"
           d="m903.88 421.1c0-1.23-0.08-2.45-0.23-3.67h2.65c0.07 0.73 0.15 1.61 0.22 2.64h0.08c0.89-2.01 2.96-3.23 5.15-3.05 0.32 0 0.64 0.02 0.96 0.07l-0.15 2.36c-0.34-0.08-0.69-0.11-1.03-0.08-1.38-0.08-2.72 0.49-3.6 1.55-0.88 1.19-1.32 2.64-1.26 4.11v8.83h-2.72l-0.07-12.73z"
           id="path222" />
        <path
           class="st2"
           d="m921.46 417.02c1 0 1.99 0.15 2.95 0.44 0.91 0.27 1.75 0.72 2.49 1.31l-1.13 1.92c-1.25-0.94-2.78-1.43-4.34-1.39-1.52-0.1-2.99 0.53-3.98 1.69-0.93 1.36-1.39 2.99-1.31 4.64-0.08 1.62 0.38 3.21 1.31 4.53 0.95 1.21 2.44 1.87 3.98 1.77 1.58-0.02 3.11-0.5 4.41-1.39l1.03 1.92c-1.63 1.17-3.59 1.78-5.59 1.76-1.6 0.05-3.18-0.38-4.53-1.25-1.17-0.79-2.07-1.92-2.58-3.24-0.53-1.33-0.8-2.75-0.8-4.18-0.11-2.28 0.65-4.52 2.13-6.26 1.58-1.57 3.74-2.39 5.96-2.27z"
           id="path224" />
        <path
           class="st2"
           d="m942.87 426.62h-12.22c-0.01 1.47 0.54 2.89 1.55 3.97 1.02 1.03 2.44 1.56 3.89 1.47 0.9 0 1.79-0.13 2.65-0.36 0.82-0.29 1.62-0.67 2.36-1.13l1.25 1.77c-0.91 0.64-1.9 1.15-2.94 1.54-1.12 0.36-2.28 0.53-3.46 0.51-2.21 0.11-4.36-0.74-5.89-2.35-1.47-1.78-2.23-4.03-2.13-6.34-0.03-1.54 0.27-3.06 0.88-4.48 0.54-1.28 1.47-2.35 2.65-3.07 1.23-0.77 2.66-1.16 4.11-1.13 2.08-0.11 4.1 0.76 5.44 2.36 1.34 1.77 2.02 3.96 1.92 6.18 0.01 0.39-0.06 0.83-0.06 1.06zm-2.65-2.13c0.02-1.4-0.41-2.77-1.25-3.9-1.84-1.91-4.88-1.97-6.79-0.13l-0.2 0.2c-0.88 1.11-1.35 2.48-1.33 3.9z"
           id="path226" />
        <path
           class="st2"
           d="m959.93 417.02c1 0 1.99 0.15 2.95 0.44 0.91 0.27 1.76 0.72 2.5 1.31l-1.13 1.92c-1.25-0.94-2.78-1.43-4.34-1.39-1.51-0.09-2.98 0.53-3.97 1.69-0.94 1.36-1.4 2.99-1.33 4.64-0.09 1.62 0.38 3.22 1.33 4.53 0.95 1.21 2.43 1.87 3.97 1.77 1.58-0.02 3.12-0.51 4.42-1.39l1.03 1.92c-1.63 1.17-3.59 1.78-5.6 1.76-1.6 0.05-3.18-0.38-4.53-1.25-1.17-0.79-2.07-1.92-2.57-3.24-0.53-1.33-0.81-2.75-0.82-4.18-0.12-2.28 0.65-4.52 2.14-6.26 1.59-1.55 3.74-2.36 5.95-2.27z"
           id="path228" />
        <path
           class="st2"
           d="m971.33 411.03v22.8h-2.69v-22.8z"
           id="path230" />
        <path
           class="st2"
           d="m991.05 425.59c0.04 1.57-0.29 3.12-0.96 4.53-0.63 1.29-1.62 2.37-2.87 3.09-2.76 1.46-6.07 1.46-8.83 0-1.24-0.73-2.23-1.8-2.87-3.09-0.67-1.41-1-2.97-0.95-4.53-0.11-2.28 0.65-4.51 2.13-6.24 1.58-1.61 3.78-2.46 6.03-2.36 1.59-0.04 3.15 0.35 4.53 1.13 1.24 0.68 2.22 1.74 2.8 3.03 0.7 1.37 1.04 2.9 0.99 4.44zm-13.68 0c-0.09 1.67 0.37 3.32 1.31 4.7 0.97 1.23 2.49 1.89 4.05 1.77 1.58 0.11 3.11-0.55 4.13-1.77 0.94-1.38 1.41-3.03 1.33-4.7 0.09-1.67-0.38-3.33-1.33-4.7-1-1.23-2.54-1.89-4.13-1.77-1.56-0.12-3.08 0.54-4.05 1.77-0.93 1.38-1.39 3.03-1.31 4.7z"
           id="path232" />
        <path
           class="st2"
           d="m993.58 427.51v-10.08h2.8v9.7c-0.07 1.27 0.26 2.53 0.95 3.6 0.71 0.93 1.84 1.46 3.01 1.41 1.4 0.03 2.74-0.6 3.6-1.7 0.92-1.2 1.39-2.68 1.33-4.19v-8.82h2.72v12.8c0 1.23 0.08 2.45 0.23 3.67h-2.65c-0.08-0.66-0.15-1.54-0.23-2.64h0.08c-1.14 2.03-3.34 3.23-5.67 3.08-1.76 0.12-3.47-0.58-4.64-1.9-1.07-1.41-1.62-3.16-1.53-4.93z"
           id="path234" />
        <path
           class="st2"
           d="m1026.8 433.83h-2.62c-0.14-0.8-0.21-1.61-0.23-2.43h-0.07c-2.5 3.23-7.14 3.82-10.37 1.32-0.32-0.25-0.61-0.52-0.89-0.81-1.3-1.82-1.95-4.02-1.84-6.26-0.02-1.52 0.28-3.02 0.88-4.41 1.73-3.77 6.19-5.43 9.96-3.7 0.78 0.36 1.48 0.84 2.1 1.43v-8.09h2.72v19.2c0.14 1.32 0.21 2.5 0.36 3.75zm-2.95-7.06v-5.15c-0.6-0.76-1.35-1.38-2.2-1.85-0.88-0.39-1.84-0.59-2.8-0.59-1.49-0.08-2.91 0.62-3.75 1.85-0.96 1.37-1.45 3.03-1.39 4.7-0.09 1.67 0.38 3.33 1.33 4.7 0.85 1.16 2.24 1.8 3.67 1.7 1.4 0.04 2.76-0.49 3.75-1.47 0.92-1.08 1.41-2.47 1.39-3.89z"
           id="path236" />
        <rect
           class="st2"
           x="612.8"
           y="517.46"
           width="456.8"
           height="21.92"
           id="rect238" />
        <path
           class="st2"
           d="m728.52 530.71h6.8v2.43h-9.63v-15.67h2.87v13.25h-0.04z"
           id="path240" />
        <path
           class="st2"
           d="m741.1 530.92h1.84v2.21h-6.47v-2.21h1.84v-11.33h-1.84v-2.14h6.47v2.14h-1.84z"
           id="path242" />
        <path
           class="st2"
           d="m745.73 517.46h3.31l7.72 11.63h0.08l-0.08-11.63h2.65v15.6h-3.31l-7.73-11.7h-0.07l0.07 11.7h-2.72z"
           id="path244" />
        <path
           class="st2"
           d="m766.77 526.58-0.96 0.96v5.59h-2.87v-15.67h2.83v6.4l6.11-6.4h3.46l-6.8 7.07 7.29 8.52h-3.6z"
           id="path246" />
        <path
           class="st2"
           d="m796.04 519.02-1.62 1.84c-0.5-0.42-1.07-0.74-1.69-0.95-0.66-0.24-1.36-0.37-2.06-0.37-1.42-0.11-2.81 0.47-3.75 1.54-0.84 1.23-1.24 2.71-1.13 4.19-0.09 1.46 0.3 2.92 1.13 4.13 0.91 1.07 2.28 1.64 3.68 1.54 0.73 0.01 1.46-0.14 2.13-0.44 0.64-0.29 1.24-0.67 1.77-1.13l1.76 1.92c-0.72 0.69-1.57 1.24-2.49 1.61-1.03 0.42-2.13 0.62-3.24 0.59-1.49 0.04-2.96-0.32-4.26-1.03-1.17-0.68-2.1-1.7-2.65-2.94-0.61-1.34-0.91-2.8-0.88-4.27-0.03-1.49 0.27-2.98 0.88-4.34 0.56-1.23 1.52-2.24 2.72-2.87 1.31-0.71 2.78-1.06 4.27-1.03 1.05-0.02 2.1 0.16 3.08 0.52 0.86 0.35 1.66 0.86 2.35 1.49z"
           id="path248" />
        <path
           class="st2"
           d="m807.81 528.35h-8.04c0.09 0.79 0.42 1.54 0.95 2.13 0.61 0.54 1.4 0.8 2.21 0.74 0.57 0.02 1.14-0.06 1.69-0.22 0.56-0.18 1.09-0.46 1.55-0.82l1.13 1.77c-0.63 0.51-1.36 0.89-2.13 1.13-0.81 0.24-1.65 0.37-2.49 0.37-1.08 0.04-2.15-0.21-3.09-0.74-0.87-0.48-1.56-1.23-1.98-2.13-0.46-0.99-0.69-2.07-0.67-3.16-0.07-1.6 0.46-3.18 1.47-4.42 1.06-1.13 2.58-1.72 4.13-1.62 1.5-0.1 2.97 0.5 3.97 1.62 0.94 1.28 1.41 2.84 1.33 4.42 0.02 0.32 0.01 0.63-0.03 0.93zm-2.64-2.06c0.01-0.74-0.23-1.46-0.67-2.05-0.48-0.54-1.18-0.84-1.9-0.82-0.75-0.04-1.49 0.26-1.99 0.82-0.46 0.59-0.74 1.3-0.8 2.05z"
           id="path250" />
        <path
           class="st2"
           d="m810.61 524.24c-0.03-0.89-0.1-1.77-0.22-2.65h2.64c0.08 0.54 0.13 1.08 0.15 1.62h0.08c0.65-1.26 1.99-2.01 3.4-1.92 0.25-0.01 0.5 0.01 0.74 0.07l-0.07 2.36c-0.27-0.06-0.54-0.08-0.82-0.07-0.86-0.04-1.69 0.31-2.27 0.95-0.53 0.69-0.82 1.55-0.8 2.43v6.03h-2.8v-8.82z"
           id="path252" />
        <path
           class="st2"
           d="m822.52 521.73h2.88v2.13h-2.88v5.73c0 1.13 0.52 1.62 1.47 1.62 0.35 0 0.7-0.05 1.03-0.15l0.37 2.06c-0.64 0.24-1.31 0.36-1.99 0.36-0.98 0.08-1.94-0.27-2.64-0.95-0.69-0.7-1.04-1.67-0.96-2.65v-5.95h-1.89v-1.77l1.84-0.37v-2.72l2.79-0.95v3.6z"
           id="path254" />
        <path
           class="st2"
           d="m827.45 518.05c-0.07-0.82 0.54-1.55 1.36-1.62 0.11-0.01 0.23-0.01 0.34 0.01 0.48-0.04 0.95 0.12 1.31 0.44 0.28 0.31 0.41 0.72 0.37 1.13 0.02 0.42-0.14 0.83-0.44 1.13-0.79 0.57-1.86 0.57-2.65 0-0.24-0.3-0.35-0.7-0.29-1.09zm3.01 15.08h-2.79v-11.48h2.79z"
           id="path256" />
        <path
           class="st2"
           d="m844.6 533.13h-2.8v-9.27h-4.62v9.27h-2.8v-9.27h-1.73v-1.77l1.84-0.36v-0.59c-0.05-1.1 0.41-2.16 1.25-2.87 1.07-0.75 2.37-1.12 3.68-1.03 1.69 0 3.34 0.45 4.78 1.33l-0.96 1.92c-1.15-0.7-2.47-1.09-3.82-1.13-0.6-0.05-1.2 0.1-1.7 0.44-0.4 0.39-0.59 0.94-0.53 1.5v0.51h7.36l0.08 11.33h-0.03z"
           id="path258" />
        <path
           class="st2"
           d="m858.05 528.35h-8.01c0.09 0.79 0.42 1.54 0.95 2.13 0.61 0.54 1.4 0.8 2.21 0.74 0.57 0.02 1.14-0.06 1.69-0.22 0.56-0.18 1.08-0.46 1.54-0.82l1.13 1.77c-0.63 0.51-1.36 0.89-2.13 1.13-0.81 0.25-1.66 0.37-2.5 0.37-1.08 0.04-2.14-0.21-3.08-0.74-0.85-0.5-1.54-1.24-1.98-2.13-0.46-0.99-0.69-2.07-0.67-3.16-0.07-1.6 0.46-3.18 1.47-4.42 1.06-1.13 2.57-1.72 4.11-1.62 1.51-0.12 2.98 0.48 3.98 1.62 0.94 1.28 1.41 2.84 1.33 4.42 0.02 0.32 0.01 0.63-0.04 0.93zm-2.64-2.06c0.01-0.74-0.23-1.46-0.67-2.05-0.48-0.55-1.19-0.85-1.92-0.82-0.75-0.04-1.48 0.26-1.98 0.82-0.47 0.58-0.76 1.3-0.8 2.05z"
           id="path260" />
        <path
           class="st2"
           d="m871.58 533.13h-2.57c-0.08-0.49-0.12-0.98-0.15-1.47h-0.07c-0.4 0.55-0.93 1.01-1.54 1.33-0.71 0.31-1.49 0.46-2.27 0.44-1.39 0.07-2.73-0.53-3.6-1.62-1.42-2.22-1.64-5-0.59-7.42 0.37-0.93 1.02-1.72 1.85-2.27 0.85-0.55 1.85-0.83 2.87-0.82 1.18-0.06 2.34 0.35 3.23 1.13v-5.08h2.8v13.02c-0.14 0.92-0.13 1.86 0.04 2.76zm-2.93-5.04v-3.4c-0.72-0.77-1.75-1.18-2.8-1.13-0.83-0.02-1.63 0.37-2.13 1.03-0.54 0.85-0.8 1.86-0.74 2.87-0.07 0.99 0.18 1.98 0.74 2.8 0.47 0.62 1.21 0.98 1.98 0.95 0.8 0.03 1.58-0.3 2.13-0.88 0.55-0.62 0.84-1.42 0.82-2.24z"
           id="path262" />
        <path
           class="st2"
           d="m892.33 522.68c0.02 1.04-0.26 2.07-0.82 2.95-0.51 0.8-1.25 1.42-2.13 1.77-0.93 0.39-1.93 0.59-2.94 0.59h-2.73v5.07h-2.87v-15.6h5.67c1.53-0.07 3.04 0.4 4.26 1.33 1.1 0.99 1.67 2.43 1.56 3.89zm-8.69-2.86v5.88h2.5c0.82 0.04 1.62-0.23 2.27-0.74 1.24-1.22 1.28-3.22 0.07-4.48-0.67-0.46-1.46-0.69-2.27-0.67h-2.57z"
           id="path264" />
        <path
           class="st2"
           d="m892.99 529.89c-0.12-1.28 0.51-2.51 1.62-3.16 1.45-0.67 3.04-0.97 4.64-0.88h1.13v-0.59c0-1.25-0.8-1.84-2.35-1.84-1.16 0.01-2.3 0.32-3.32 0.88l-0.99-1.88c0.66-0.4 1.38-0.7 2.13-0.88 0.74-0.2 1.5-0.3 2.27-0.29 1.38-0.15 2.76 0.26 3.83 1.13 0.85 1 1.26 2.3 1.13 3.6v4.34c0.02 0.88 0.09 1.77 0.22 2.64h-2.57c-0.05-0.44-0.12-0.88-0.22-1.31h-0.08c-0.39 0.5-0.89 0.89-1.47 1.13-0.72 0.3-1.49 0.42-2.27 0.37-0.96 0.03-1.89-0.29-2.64-0.88-0.73-0.56-1.13-1.45-1.06-2.38zm7.29-1.24v-0.88h-0.77c-0.95-0.06-1.9 0.09-2.79 0.44-0.57 0.29-0.89 0.91-0.82 1.54-0.01 0.42 0.15 0.83 0.44 1.13 0.3 0.29 0.71 0.45 1.13 0.44 0.51-0.01 1.02-0.13 1.47-0.36 0.41-0.24 0.76-0.57 1.03-0.96 0.26-0.41 0.36-0.88 0.31-1.35z"
           id="path266" />
        <path
           class="st2"
           d="m906.38 524.24c-0.02-0.89-0.09-1.77-0.22-2.65h2.65c0.08 0.54 0.13 1.08 0.15 1.62h0.07c0.65-1.26 1.99-2.01 3.4-1.92 0.25-0.01 0.5 0.01 0.74 0.07l-0.08 2.36c-0.26-0.06-0.53-0.08-0.8-0.07-0.86-0.04-1.69 0.31-2.27 0.95-0.53 0.69-0.82 1.55-0.8 2.43v6.03h-2.8v-8.82z"
           id="path268" />
        <path
           class="st2"
           d="m918.3 521.73h2.87v2.13h-2.87v5.73c0 1.13 0.51 1.62 1.47 1.62 0.35-0.01 0.7-0.05 1.03-0.15l0.36 2.06c-0.63 0.24-1.31 0.36-1.98 0.36-0.98 0.08-1.95-0.27-2.65-0.95-0.68-0.71-1.02-1.67-0.95-2.65v-5.95h-1.92v-1.77l1.84-0.37v-2.72l2.8-0.95z"
           id="path270" />
        <path
           class="st2"
           d="m923.52 524.24c-0.03-0.89-0.1-1.77-0.23-2.65h2.65c0.08 0.44 0.13 0.88 0.15 1.33h0.07c0.41-0.51 0.94-0.9 1.55-1.13 0.72-0.31 1.49-0.46 2.27-0.44 0.82-0.03 1.64 0.18 2.35 0.59 0.61 0.36 1.1 0.9 1.41 1.54 0.29 0.65 0.44 1.35 0.44 2.06v7.57h-2.8v-6.98c0.04-0.63-0.14-1.26-0.51-1.77-0.46-0.48-1.11-0.72-1.77-0.66-0.79-0.04-1.55 0.29-2.06 0.88-0.51 0.61-0.78 1.4-0.74 2.2v6.4h-2.79v-8.94z"
           id="path272" />
        <path
           class="st2"
           d="m947.51 528.35h-8.02c0.09 0.79 0.42 1.54 0.95 2.13 0.61 0.54 1.4 0.8 2.21 0.74 0.57 0.02 1.14-0.06 1.69-0.22 0.56-0.18 1.09-0.46 1.55-0.82l1.13 1.77c-0.64 0.51-1.36 0.89-2.14 1.13-0.81 0.25-1.65 0.37-2.49 0.37-1.08 0.04-2.15-0.21-3.09-0.74-0.85-0.51-1.54-1.24-1.98-2.13-0.46-0.99-0.69-2.07-0.67-3.16-0.07-1.6 0.46-3.18 1.47-4.42 1.06-1.13 2.58-1.72 4.13-1.62 1.5-0.12 2.98 0.48 3.97 1.62 0.94 1.28 1.41 2.84 1.33 4.42 0 0.32-0.01 0.63-0.04 0.93zm-2.67-2.06c0.01-0.74-0.23-1.46-0.67-2.05-0.48-0.54-1.18-0.84-1.9-0.82-0.75-0.04-1.49 0.26-1.99 0.82-0.47 0.59-0.75 1.3-0.8 2.05z"
           id="path274" />
        <path
           class="st2"
           d="m950.29 524.24c-0.02-0.89-0.09-1.77-0.22-2.65h2.7c0.08 0.54 0.13 1.08 0.15 1.62h0.08c0.65-1.26 1.99-2.01 3.4-1.92 0.25-0.01 0.5 0.01 0.74 0.07l-0.15 2.36c-0.26-0.06-0.53-0.08-0.8-0.07-0.86-0.04-1.69 0.31-2.27 0.95-0.54 0.69-0.83 1.55-0.82 2.43v6.03h-2.72z"
           id="path276" />
      </g>
      <path
         class="st23"
         d="m628.63 426.37c2.11-4.9 6.89-8.11 12.22-8.22h117.78c7.44-0.15 13.6 5.76 13.75 13.2v0.55 45.19c-0.25 6.99-5.77 12.63-12.75 13.03-14.31 0.07-28.63 0-42.94 0 1.93 4.77 3.85 9.46 5.77 14.24-8.55-4.69-16.94-9.54-25.56-14.17-18.8-0.15-37.67 0-56.54-0.07-6.96-0.43-12.47-6.06-12.75-13.03-0.07-14.73 0-29.47-0.07-44.2-0.09-2.24 0.3-4.47 1.13-6.55"
         id="path280" />
      <path
         class="st24"
         d="m686.21 427.44c2.14-2.27 6.27-1.56 7.93 1.08 0.85 1.41 0.92 3.15 0.2 4.62-2.98 5.98-4.27 12.6-5.41 19.09-1.35 8.48-2.49 17.09-2.06 25.7 0.14 2.21-0.93 4.85-3.28 5.42s-4.27-1-5.67-2.56c-6.41-6.91-10.04-15.81-12.67-24.72-2.64 5.2-5.27 10.47-7.84 15.67-1.63 3.68-3.84 7.07-6.55 10.04-1.21 1.2-3.28 2.27-4.84 1.07-2.35-2.06-2.92-5.34-3.92-8.11-3.77-13.03-5.9-26.5-8.11-39.88-0.5-2.27 0.43-4.92 2.64-5.77 1.78-0.65 4.13-0.78 5.67 0.57 0.94 1.04 1.49 2.37 1.56 3.77 1.56 10.4 3.4 20.73 5.92 30.91 4.27-8.11 8.55-16.23 12.82-24.42 0.56-1.25 1.45-2.34 2.56-3.14 1.64-1.06 3.79-0.85 5.2 0.5 0.98 1.23 1.59 2.71 1.78 4.27 1.18 6.71 2.99 13.3 5.38 19.69 1.07-9.61 2.41-19.37 5.9-28.41 0.65-1.93 1.59-3.76 2.78-5.42m24.15 5.18c4.73-0.62 9.47 1.07 12.75 4.53 2.51 2.97 4.08 6.61 4.53 10.47 0.8 6.57-0.45 13.23-3.56 19.07-1.64 3.42-4.18 6.32-7.34 8.41-4.94 2.84-11.05 2.64-15.8-0.5-3.71-2.56-5.77-6.8-6.63-11.11-1.71-9.76 1.21-20.58 8.55-27.35 2.1-1.91 4.73-3.12 7.55-3.49m0.92 9.99c-2.21 0.71-3.64 2.78-4.84 4.62-2.99 4.84-3.85 11.19-1.43 16.38 0.65 1.36 1.63 2.86 3.28 3.14 1.7 0.12 3.37-0.53 4.53-1.78 2.71-2.36 4.06-5.85 4.77-9.33 0.88-4 0.19-8.18-1.93-11.68-1.03-1.31-2.75-1.84-4.34-1.35m36.04-9.97c4.61-0.64 9.25 0.91 12.53 4.2 2.77 3.13 4.44 7.08 4.77 11.25 0.68 6.33-0.53 12.73-3.49 18.37-1.67 3.52-4.28 6.5-7.55 8.61-4.78 2.7-10.64 2.6-15.32-0.26-3-1.97-5.24-4.91-6.35-8.33-3.17-10.47-0.53-21.83 6.91-29.84 2.33-2.17 5.25-3.58 8.4-4.06m1.01 9.99c-2.41 0.85-3.84 3.2-5.12 5.27-2.71 4.77-3.4 10.96-0.93 16.01 0.55 1.52 1.89 2.62 3.49 2.86 1.78-0.11 3.44-0.93 4.62-2.27 2.79-2.71 3.99-6.55 4.42-10.32 0.53-3.57-0.26-7.22-2.21-10.26-1.02-1.27-2.72-1.78-4.27-1.28"
         id="path282" />
      <path
         class="st25"
         d="m796.73 434.02c3.95-0.84 8.04-0.79 11.97 0.15v9.61c-3.21-0.78-6.8-1.5-9.91 0-3.63 2.03-5.85 5.89-5.77 10.04-0.22 3.99 1.13 8.48 4.7 10.76 3.28 2.13 7.48 1.71 11.04 0.71v9.53c-4.8 1.37-9.9 1.19-14.6-0.5-5.63-2.18-9.94-6.83-11.68-12.6-1.28-4.35-1.42-8.96-0.42-13.39 1.84-7.13 7.5-12.65 14.67-14.31m28.92-0.5c4.84-0.57 10.11 0.22 14.03 3.28s5.67 7.7 6.34 12.25c0.76 5.08 0.39 10.26-1.07 15.18-1.27 4.25-4.2 7.81-8.11 9.89-4.15 1.81-8.79 2.18-13.18 1.07-4.05-0.94-7.52-3.55-9.54-7.19-2.78-4.85-3.28-10.62-3.06-16.09 0.22-4.7 1.43-9.62 4.53-13.25 2.61-2.88 6.18-4.71 10.04-5.13m1.49 9.18c-2.06 0.5-3.28 2.56-3.77 4.53-0.83 3.86-1.02 7.83-0.57 11.75 0.28 2.13 0.5 4.41 1.99 6.12 2.06 2.07 5.41 2.09 7.49 0.03 0.12-0.12 0.24-0.25 0.35-0.38 1.08-1.55 1.7-3.38 1.78-5.27 0.46-3.29 0.46-6.62 0-9.91-0.23-2.04-1.04-3.97-2.35-5.55-1.31-1.25-3.17-1.74-4.92-1.28m189.93-8.54c4.14-0.99 8.45-1.01 12.6-0.07 0.07 3.2 0 6.4 0.07 9.68-3.13-0.78-6.62-1.5-9.68-0.14-3.49 1.77-5.77 5.27-5.98 9.18-0.43 4.27 0.71 9.07 4.53 11.61 3.28 2.27 7.55 1.86 11.17 0.79-0.07 3.2 0.08 6.47-0.07 9.68-5.09 1.38-10.49 1.05-15.38-0.93-5.38-2.4-9.4-7.1-10.93-12.8-1.17-4.3-1.24-8.83-0.2-13.17 1.77-6.82 7.07-12.16 13.88-13.96m-164.71 0.29h13.75c1.64 7.41 3.21 14.88 4.62 22.36 1.29-7.55 3.07-14.95 4.85-22.36h14.1c1.85 13.46 3.65 26.9 5.41 40.31h-10.74c-1-9.19-1.86-18.45-2.92-27.63-2.21 9.18-4.53 18.44-6.7 27.63h-7.33c-2.35-9.19-4.62-18.45-7.05-27.71-0.93 9.19-1.85 18.45-2.78 27.71h-10.32c1.69-13.39 3.4-26.83 5.11-40.31m49.28 0h13.75c1.64 7.41 3.21 14.88 4.64 22.36 1.35-7.48 3.06-14.95 4.84-22.36h14.03c1.84 13.46 3.65 26.9 5.41 40.31h-10.78c-1-9.19-1.92-18.45-2.91-27.63-2.27 9.18-4.42 18.44-6.7 27.63h-7.33c-2.35-9.26-4.7-18.45-7.05-27.71-0.93 9.26-1.85 18.45-2.78 27.71h-10.32c1.78-13.4 3.51-26.83 5.19-40.31m45.78 0.15c7.33-0.15 14.73 0 22.08-0.08v8.65c-3.71 0.07-7.41 0-11.12 0v7.4h9.62v8.33h-9.54v7.41h11.19v8.59h-22.13c-0.07-13.45 0.07-26.85-0.07-40.3m25.2-0.15c4.62 0 9.19-0.07 13.82 0 4.34 0.15 8.98 1.21 12.17 4.27 2.89 2.86 3.96 7.08 2.78 10.97-0.95 3.05-3.15 5.56-6.05 6.9 2.86 6.05 5.77 12.1 8.69 18.13h-11.47c-2.99-6.2-5.9-12.4-8.96-18.52-0.08 6.19 0 12.39 0 18.52h-10.9c-0.07-13.4-0.07-26.85-0.07-40.31m10.88 7.77v9.61c1.99-0.14 4.14-0.22 5.77-1.42 1.93-1.43 1.71-4.35 0.5-6.2-1.49-1.77-4.12-1.77-6.27-1.99m49.28-7.69h21.98v8.68h-11.17v7.4h9.61v8.33h-9.61v7.41h11.24v8.59h-22.08c-0.07-13.53 0-26.99 0-40.38"
         id="path284" />
    </g>
    <g
       transform="matrix(.075423 0 0 .075423 2.5545 75.508)"
       id="g300">
      <path
         d="m413.48 341.91c-13.762 37.297-34.574 69.727-61.867 96.379-31.066 30.336-71.746 54.441-120.91 71.637-1.6133 0.5625-3.2969 1.0234-4.9883 1.3633-2.2344 0.44141-4.5078 0.67969-6.7617 0.71094h-0.44141c-2.4023 0-4.8164-0.24219-7.2109-0.71094-1.6914-0.33984-3.3516-0.80078-4.957-1.3516-49.223-17.168-89.953-41.262-121.05-71.598-27.305-26.652-48.113-59.062-61.855-96.359-24.988-67.812-23.566-142.52-22.422-202.55l0.019531-0.92187c0.23047-4.957 0.37891-10.164 0.46094-15.914 0.41797-28.23 22.863-51.586 51.098-53.16 58.867-3.2852 104.41-22.484 143.32-60.41l0.33984-0.3125c6.4609-5.9258 14.602-8.832 22.703-8.7109 7.8125 0.10156 15.594 3.0039 21.824 8.7109l0.33203 0.3125c38.918 37.926 84.457 57.125 143.32 60.41 28.234 1.5742 50.68 24.93 51.098 53.16 0.082 5.7891 0.23047 10.988 0.46094 15.914l0.01172 0.39062c1.1406 60.145 2.5547 135-22.523 203.01z"
         fill="#00dc7f"
         id="path288" />
      <path
         d="m413.48 341.91c-13.762 37.297-34.574 69.727-61.867 96.379-31.066 30.336-71.746 54.441-120.91 71.637-1.6133 0.5625-3.2969 1.0234-4.9883 1.3633-2.2344 0.44141-4.5078 0.67969-6.7617 0.71094v-512c7.8125 0.10156 15.594 3.0039 21.824 8.7109l0.33203 0.3125c38.918 37.926 84.457 57.125 143.32 60.41 28.234 1.5742 50.68 24.93 51.098 53.16 0.082 5.7891 0.23047 10.988 0.46094 15.914l0.01172 0.39062c1.1406 60.145 2.5547 135-22.523 203.01z"
         fill="#00a861"
         id="path290" />
      <path
         d="m346.1 256c0 70.207-57.004 127.36-127.15 127.61h-0.44922c-70.355 0-127.61-57.246-127.61-127.61 0-70.355 57.25-127.6 127.61-127.6h0.44922c70.148 0.25 127.15 57.398 127.15 127.6z"
         fill="#fff"
         id="path292" />
      <path
         d="m346.1 256c0 70.207-57.004 127.36-127.15 127.61v-255.21c70.148 0.25 127.15 57.398 127.15 127.6z"
         fill="#e1ebf0"
         id="path294" />
      <path
         d="m276.42 237.62-57.469 57.477-12.418 12.418c-2.9336 2.9336-6.7812 4.3984-10.625 4.3984-3.8477 0-7.6914-1.4648-10.629-4.3984l-26.699-26.711c-5.8672-5.8672-5.8672-15.371 0-21.242 5.8594-5.8672 15.375-5.8672 21.242 0l16.086 16.086 59.27-59.27c5.8672-5.8711 15.383-5.8711 21.242 0 5.8672 5.8672 5.8672 15.383 0 21.242z"
         fill="#b3d1d7"
         id="path296" />
      <path
         d="m276.42 237.62-57.469 57.477v-42.496l36.227-36.223c5.8672-5.8711 15.383-5.8711 21.242 0 5.8672 5.8672 5.8672 15.383 0 21.242z"
         fill="#6ea3a8"
         id="path298" />
    </g>
    <g
       transform="matrix(1.3237 0 0 1.3237 170.49 67.564)"
       id="g320">
      <path
         d="m17.543 12.933c-0.27-0.121-0.584-0.074-0.806 0.124l-4.159 3.703c-0.188 0.167-0.28 0.417-0.244 0.667l0.67 4.677c0.04 0.281 0.253 0.498 0.522 0.588l0.222 0.035c0.207 0 0.416-0.086 0.563-0.234 2.369-2.37 3.674-5.521 3.674-8.875 1e-3 -0.296-0.172-0.564-0.442-0.685z"
         fill="#2196f3"
         id="path302" />
      <path
         d="m10.383 6.014c-3.354 0-6.506 1.305-8.875 3.674l-0.035 0.034c-0.201 0.201-0.271 0.498-0.181 0.767 0.09 0.27 0.324 0.465 0.605 0.505l4.677 0.67 0.106 8e-3c0.212 0 0.417-0.09 0.56-0.251l3.703-4.159c0.197-0.221 0.245-0.536 0.124-0.806-0.121-0.269-0.389-0.442-0.684-0.442z"
         fill="#2196f3"
         id="path304" />
      <path
         d="m11.878 19.151c-0.192 0-0.384-0.074-0.53-0.22l-6.279-6.279c-0.281-0.281-0.294-0.733-0.029-1.03l4.706-5.271c3.333-3.901 8.744-6.449 13.519-6.347 0.4 9e-3 0.723 0.332 0.732 0.732 0.11 4.748-2.445 10.185-6.359 13.529l-5.259 4.695c-0.144 0.128-0.322 0.191-0.501 0.191z"
         fill="#eceff1"
         id="path306" />
      <path
         d="m17.133 9.366c-0.641 0-1.281-0.244-1.768-0.731-0.974-0.975-0.974-2.561 0-3.536 0.975-0.975 2.561-0.975 3.536 0 0.974 0.975 0.974 2.561 0 3.536-0.488 0.488-1.128 0.731-1.768 0.731z"
         fill="#2196f3"
         id="path308" />
      <path
         d="m0.75 24c-0.196 0-0.388-0.077-0.53-0.22-0.195-0.195-0.267-0.481-0.188-0.746 0.251-0.841 1.56-5.089 2.582-6.11 1.193-1.192 3.271-1.192 4.462 0 0.596 0.597 0.924 1.388 0.924 2.232 0 0.843-0.328 1.635-0.924 2.231-1.021 1.021-5.27 2.33-6.11 2.582z"
         fill="#ff9800"
         id="path310" />
      <path
         d="m10.037 6.018c-3.224 0.087-6.241 1.382-8.53 3.67l-0.034 0.034c-0.201 0.201-0.271 0.498-0.181 0.767 0.09 0.27 0.324 0.465 0.605 0.505l3.283 0.471 4.566-5.115c0.095-0.111 0.192-0.222 0.291-0.332z"
         fill="#1d83d4"
         id="path312" />
      <path
         d="m22.986 0c-4.568 0-9.664 2.379-12.949 6.018-0.099 0.11-0.196 0.22-0.292 0.332l-4.565 5.115-0.14 0.157c-0.265 0.297-0.252 0.749 0.029 1.03l3.14 3.14 7.156-7.156c-0.974-0.975-0.974-2.561 0-3.536 0.487-0.487 1.128-0.731 1.768-0.731s1.281 0.244 1.768 0.731l4.877-4.877c-0.132-0.132-0.313-0.215-0.513-0.22-0.093-2e-3 -0.186-3e-3 -0.279-3e-3z"
         fill="#cdd0d2"
         id="path314" />
      <path
         d="m17.133 4.369c-0.64 0-1.281 0.244-1.768 0.731-0.974 0.975-0.974 2.561 0 3.536l3.535-3.536c-0.487-0.488-1.127-0.731-1.767-0.731z"
         fill="#1d83d4"
         id="path316" />
      <path
         d="m4.845 16.03c-0.818 0-1.635 0.298-2.232 0.894-1.021 1.021-2.33 5.27-2.582 6.11-0.079 0.264-7e-3 0.551 0.188 0.746l6.856-6.856c-0.595-0.596-1.412-0.894-2.23-0.894z"
         fill="#de8400"
         id="path318" />
    </g>
    <g
       transform="matrix(.066219 0 0 .066219 92.628 61.091)"
       id="g350">
      <circle
         cx="256"
         cy="256"
         r="256"
         fill="#ffce00"
         id="circle322" />
      <path
         d="m511.85 264.72-104.42-104.42-359.04 178.95 170.02 170.02c12.267 1.804 24.816 2.739 37.585 2.739 138.47 0 251.26-109.93 255.85-247.28z"
         fill="#ffa300"
         id="path324" />
      <path
         d="m48.395 301.97c0.179-114.51 93.056-207.28 207.6-207.28s207.43 92.772 207.6 207.28v37.269h-415.21z"
         fill="#707789"
         id="path326" />
      <path
         d="m463.6 301.97c-0.178-114.47-92.991-207.21-207.48-207.28v244.55h207.48z"
         fill="#555a66"
         id="path328" />
      <path
         d="m256 136.28c-91.58 0-165.84 74.152-166.02 165.69h332.03c-0.178-91.538-74.435-165.69-166.02-165.69z"
         fill="#fff"
         id="path330" />
      <path
         d="m256.12 136.28v165.69h165.9c-0.179-91.498-74.371-165.62-165.9-165.69z"
         fill="#e9edf5"
         id="path332" />
      <path
         d="m256 200.86c43.376 0 80.328 27.473 94.422 65.966 2.868 7.835 10.308 13.055 18.651 13.055 14.213 0 23.789-14.478 18.305-27.591-21.487-51.369-72.212-87.464-131.38-87.464s-109.89 36.095-131.38 87.464c-5.485 13.112 4.092 27.591 18.305 27.591 8.343 0 15.783-5.22 18.651-13.055 14.094-38.492 51.046-65.966 94.422-65.966z"
         fill="#ffce00"
         id="path334" />
      <path
         d="m387.38 252.3c-21.472-51.334-72.144-87.413-131.26-87.462v36.033c43.323 0.051 80.221 27.507 94.301 65.964 2.868 7.835 10.308 13.055 18.651 13.055 14.213 0 23.789-14.478 18.305-27.59z"
         fill="#fdba12"
         id="path336" />
      <path
         d="m124.62 252.3c-5.485 13.112 4.092 27.59 18.305 27.59 8.343 0 15.783-5.22 18.651-13.055 9.337-25.502 28.712-46.156 53.336-57.2l-22.797-29.667c-30.26 15.227-54.353 40.912-67.495 72.332z"
         fill="#00c8c8"
         id="path338" />
      <path
         d="m387.38 252.3c-13.399-32.033-38.169-58.122-69.263-73.228l-22.853 29.77c25.49 10.828 45.594 31.866 55.161 57.994 2.868 7.835 10.308 13.055 18.651 13.055 14.212 0 23.788-14.479 18.304-27.591z"
         fill="#fe6a16"
         id="path340" />
      <path
         d="m227.84 292.15 133.77-96.265-73.18 101.7z"
         fill="#555a66"
         id="path342" />
      <path
         d="m361.61 195.89-105.49 75.912v22.889l32.31 2.895z"
         fill="#333940"
         id="path344" />
      <path
         d="m256 274.79c-18.775 0-34.01 15.133-34.188 33.867h68.376c-0.178-18.734-15.413-33.867-34.188-33.867z"
         fill="#707789"
         id="path346" />
      <path
         d="m256.12 274.79v33.864h34.067c-0.178-18.694-15.348-33.799-34.067-33.864z"
         fill="#555a66"
         id="path348" />
    </g>
  </g>
  <style
     type="text/css"
     id="style354">.st0{fill:#F1F1F2;}
	.st1{fill:#C1BEBF;}
	.st2{fill:#FFFFFF;}
	.st3{fill:#E8E7E8;}
	.st4{fill:#4388C8;}
	.st5{fill:#1062A9;}
	.st6{fill:#3BA635;}
	.st7{clip-path:url(#b);}
	.st8{fill:#EAC638;}
	.st9{fill:#F3F3F4;}
	.st10{fill:#369537;}
	.st11{fill:#5A585B;}
	.st12{fill:#8B6084;}
	.st13{fill:#B1403E;}
	.st14{fill:#E9E8E9;}
	.st15{fill:#7F7F7F;}
	.st16{fill:#959595;}
	.st17{fill:#807F80;}
	.st18{fill:#292A2E;}
	.st19{fill:#2A63A3;}
	.st20{fill:#5387C2;}
	.st21{fill:#343147;}
	.st22{clip-path:url(#a);}
	.st23{fill-rule:evenodd;clip-rule:evenodd;fill:#8B6084;}
	.st24{fill-rule:evenodd;clip-rule:evenodd;fill:#FFFFFF;}
	.st25{fill-rule:evenodd;clip-rule:evenodd;}</style>
</svg>
