<svg width="16" height="17" viewBox="0 0 16 17" fill="none" xmlns="http://www.w3.org/2000/svg">
<path d="M13.0152 9.18542C13.0444 8.96667 13.059 8.74062 13.059 8.5C13.059 8.26667 13.0444 8.03333 13.0079 7.81458L14.4881 6.6625C14.6194 6.56042 14.6558 6.36354 14.5756 6.21771L13.1756 3.79688C13.0881 3.63646 12.9058 3.58542 12.7454 3.63646L11.0027 4.33646C10.6381 4.05937 10.2517 3.82604 9.82146 3.65104L9.55896 1.79896C9.52979 1.62396 9.38396 1.5 9.20896 1.5H6.40896C6.23396 1.5 6.09542 1.62396 6.06625 1.79896L5.80375 3.65104C5.37354 3.82604 4.97979 4.06667 4.6225 4.33646L2.87979 3.63646C2.71937 3.57812 2.53708 3.63646 2.44958 3.79688L1.05688 6.21771C0.969375 6.37083 0.998542 6.56042 1.14438 6.6625L2.62458 7.81458C2.58812 8.03333 2.55896 8.27396 2.55896 8.5C2.55896 8.72604 2.57354 8.96667 2.61 9.18542L1.12979 10.3375C0.998542 10.4396 0.962084 10.6365 1.04229 10.7823L2.44229 13.2031C2.52979 13.3635 2.71208 13.4146 2.8725 13.3635L4.61521 12.6635C4.97979 12.9406 5.36625 13.174 5.79646 13.349L6.05896 15.201C6.09542 15.376 6.23396 15.5 6.40896 15.5H9.20896C9.38396 15.5 9.52979 15.376 9.55167 15.201L9.81417 13.349C10.2444 13.174 10.6381 12.9406 10.9954 12.6635L12.7381 13.3635C12.8985 13.4219 13.0808 13.3635 13.1683 13.2031L14.5683 10.7823C14.6558 10.6219 14.6194 10.4396 14.4808 10.3375L13.0152 9.18542ZM7.80896 11.125C6.36521 11.125 5.18396 9.94375 5.18396 8.5C5.18396 7.05625 6.36521 5.875 7.80896 5.875C9.25271 5.875 10.434 7.05625 10.434 8.5C10.434 9.94375 9.25271 11.125 7.80896 11.125Z" stroke="#4672FF" stroke-width="1.5"></path>
</svg>
