<svg xmlns="http://www.w3.org/2000/svg" width="90" height="60" fill="none" xmlns:v="https://vecta.io/nano"><rect x=".6" y=".6" width="88.8" height="58.8" rx="1.4" fill="#fff"/><rect x=".6" y=".6" width="88.8" height="58.8" rx="1.4" stroke="#8796a1" stroke-width="1.2"/><use href="#B" fill="#58707f"/><g fill="#9ea9b2"><use href="#B" x="-3"/><use href="#B" x="3"/></g><path d="M52.6 36.3H37.5c-.6 0-1-.494-1-1.234V21.734c0-.741.4-1.234 1-1.234h15.1c.6 0 1 .494 1 1.234v13.331c0 .741-.5 1.234-1 1.234z" fill="#58707f"/><g fill="#9ea9b2"><use href="#C"/><path d="M78 34.45h-8.9c-.6 0-1-.598-1-1.494v-9.112c0-.896.4-1.494 1-1.494H78c.6 0 1 .598 1 1.494v9.262c0 .747-.4 1.344-1 1.344zm-57.1 0H12c-.6 0-1-.598-1-1.494v-9.112c0-.896.4-1.494 1-1.494h8.9c.6 0 1 .598 1 1.494v9.262c0 .747-.5 1.344-1 1.344z"/><use href="#C" x="-31.8"/></g><path d="M81.5 31.9l3.5-3.5-3.5-3.5m-73 0L5 28.4l3.5 3.5" stroke="#58707f" stroke-width="1.8" stroke-linecap="round" stroke-linejoin="round"/><defs ><path id="B" d="M45 38.1c-.7 0-1.2.5-1.2 1.2s.5 1.2 1.2 1.2 1.2-.5 1.2-1.2-.5-1.2-1.2-1.2z"/><path id="C" d="M65.4 34.45h-8.9c-.6 0-1-.598-1-1.494v-9.112c0-.896.4-1.494 1-1.494h8.9c.6 0 1 .598 1 1.494v9.262c0 .747-.5 1.344-1 1.344z"/></defs></svg>