<svg xmlns="http://www.w3.org/2000/svg" xmlns:xlink="http://www.w3.org/1999/xlink" width="90" height="60" fill="none"><rect x=".5" y=".5" width="89" height="59" rx="2.5" stroke="#b6c0c6"/><g fill="#8796a1"><path d="M83.7 29.8l-2-2c-.1-.1-.2-.1-.3 0l-.4.4c-.1.1-.1.2 0 .3l1.6 1.6c.1.1.1.2 0 .3L81 31.9v.3l.3.3c.1.1.2.1.3 0l2-2 .3-.3-.2-.4zM9 28.5v-.3l-.3-.3c-.1-.1-.2-.1-.3 0l-2 2-.4.2.3.4 2 2c.1.1.2.1.3 0l.4-.3v-.3l-1.6-1.6c-.1-.1-.1-.2 0-.3L9 28.5z"/><use xlink:href="#B"/></g><g fill="#bac2c6"><use xlink:href="#B" x="-3"/><use xlink:href="#B" x="3"/></g><path d="M52.6 36.4H37.5a.94.94 0 0 1-1-1V24.6a.94.94 0 0 1 1-1h15.1a.94.94 0 0 1 1 1v10.8c0 .6-.5 1-1 1z" fill="#8796a1"/><g fill="#bac2c6"><use xlink:href="#C"/><path d="M78 34.1h-8.9a.94.94 0 0 1-1-1V27a.94.94 0 0 1 1-1H78a.94.94 0 0 1 1 1v6.2c0 .5-.4.9-1 .9zm-57.1 0H12a.94.94 0 0 1-1-1V27a.94.94 0 0 1 1-1h8.9a.94.94 0 0 1 1 1v6.2c0 .5-.5.9-1 .9z"/><use xlink:href="#C" x="-31.8"/></g><defs ><path id="B" d="M45 38.7c-.7 0-1.2.5-1.2 1.2s.5 1.2 1.2 1.2 1.2-.5 1.2-1.2-.5-1.2-1.2-1.2z"/><path id="C" d="M65.4 34.1h-8.9a.94.94 0 0 1-1-1V27a.94.94 0 0 1 1-1h8.9a.94.94 0 0 1 1 1v6.2c0 .5-.5.9-1 .9z"/></defs></svg>