<svg xmlns="http://www.w3.org/2000/svg" xmlns:xlink="http://www.w3.org/1999/xlink" width="90" height="60" fill="none" xmlns:v="https://vecta.io/nano"><rect x=".5" y=".5" width="89" height="59" rx="3.5" stroke="#b6c0c6"/><g fill="#8796a1"><path d="M83.8 28.85l-2.5-2.6c-.1-.1-.4-.1-.4 0l-.4.4c-.1.1-.1.3 0 .4l2 2c.1.1.1.3 0 .4l-2 2c-.1.1-.1.3 0 .4l.4.5c.1.1.3.1.4 0l2.5-2.6.5-.4-.5-.5zm-74.3-1.9c.1-.2.1-.3 0-.4l-.4-.4c-.1-.2-.3-.2-.4 0l-2.6 2.6-.4.4.4.4 2.6 2.6s.2 0 .3-.1l.4-.4a.45.45 0 0 0 0-.5l-1.9-1.9c-.1-.2-.1-.3 0-.4l2-1.9zm3.1 1.25h13.7c.4 0 .6-.3.6-.5V17.5c0-.3-.3-.5-.6-.5H12.6c-.4 0-.6.3-.6.5v10.1c-.1.4.2.6.6.6zm17 0h13.7c.4 0 .6-.3.6-.5V17.5c0-.3-.3-.5-.6-.5H29.6c-.4 0-.6.3-.6.5v10.1c0 .4.3.6.6.6zm17.1 0h13.7c.4 0 .6-.3.6-.5V17.5c0-.3-.3-.5-.6-.5H46.7c-.4 0-.6.3-.6.5v10.1c-.1.4.2.6.6.6zm17 0h13.7c.4 0 .6-.3.6-.5V17.5c0-.3-.3-.5-.6-.5H63.7c-.4 0-.6.3-.6.5v10.1c0 .4.3.6.6.6zM12.6 41.4h13.7c.4 0 .6-.3.6-.5V30.7c0-.3-.3-.5-.6-.5H12.6c-.4 0-.6.3-.6.5v10.1c-.1.4.2.6.6.6zm17 0h13.7c.4 0 .6-.3.6-.5V30.7c0-.3-.3-.5-.6-.5H29.6c-.4 0-.6.3-.6.5v10.1c0 .4.3.6.6.6zm17.1 0h13.7c.4 0 .6-.3.6-.5V30.7c0-.3-.3-.5-.6-.5H46.7c-.4 0-.6.3-.6.5v10.1c-.1.4.2.6.6.6zm17 0h13.7c.4 0 .6-.3.6-.5V30.7c0-.3-.3-.5-.6-.5H63.7c-.4 0-.6.3-.6.5v10.1c0 .4.3.6.6.6z"/><use xlink:href="#B"/></g><g fill="#bac2c6"><use xlink:href="#B" x="-3"/><use xlink:href="#B" x="3"/></g><defs ><path id="B" d="M45.2 43.7c-.7 0-1.2.5-1.2 1.2s.5 1.2 1.2 1.2 1.2-.5 1.2-1.2-.5-1.2-1.2-1.2z"/></defs></svg>