<svg xmlns="http://www.w3.org/2000/svg" width="90" height="60" fill="none" xmlns:v="https://vecta.io/nano"><rect x=".6" y=".6" width="88.8" height="58.8" rx="1.4" fill="#fff"/><rect x=".6" y=".6" width="88.8" height="58.8" rx="1.4" stroke="#8796a1" stroke-width="1.2"/><g fill="#58707f"><path d="M12.6 35.2h13.7c.4 0 .6-.354.6-.589V22.589c0-.354-.3-.589-.6-.589H12.6c-.4 0-.6.354-.6.589v11.904c-.1.471.2.707.6.707zm17 0h13.7c.4 0 .6-.354.6-.589V22.589c0-.354-.3-.589-.6-.589H29.6c-.4 0-.6.354-.6.589v11.904c0 .471.3.707.6.707zm17.1 0h13.7c.4 0 .6-.354.6-.589V22.589c0-.354-.3-.589-.6-.589H46.7c-.4 0-.6.354-.6.589v11.904c-.1.471.2.707.6.707zm17 0h13.7c.4 0 .6-.354.6-.589V22.589c0-.354-.3-.589-.6-.589H63.7c-.4 0-.6.354-.6.589v11.904c0 .471.3.707.6.707z"/><use href="#B"/></g><g fill="#9ea9b2"><use href="#B" x="-3"/><use href="#B" x="3"/></g><path d="M81.5 32.1l3.5-3.5-3.5-3.5m-73 0L5 28.6l3.5 3.5" stroke="#58707f" stroke-width="1.8" stroke-linecap="round" stroke-linejoin="round"/><defs ><path id="B" d="M45 37.5c-.7 0-1.2.5-1.2 1.2s.5 1.2 1.2 1.2 1.2-.5 1.2-1.2-.5-1.2-1.2-1.2z"/></defs></svg>