<svg xmlns="http://www.w3.org/2000/svg" xmlns:xlink="http://www.w3.org/1999/xlink" width="90" height="60" fill="none"><rect x=".5" y=".5" width="89" height="59" rx="2.5" stroke="#b6c0c6"/><g fill="#8796a1"><path d="M12.6 35.6h13.7c.4 0 .6-.3.6-.5V24.9c0-.3-.3-.5-.6-.5H12.6c-.4 0-.6.3-.6.5V35c-.1.4.2.6.6.6zm17 0h13.7c.4 0 .6-.3.6-.5V24.9c0-.3-.3-.5-.6-.5H29.6c-.4 0-.6.3-.6.5V35c0 .4.3.6.6.6zm17.1 0h13.7c.4 0 .6-.3.6-.5V24.9c0-.3-.3-.5-.6-.5H46.7c-.4 0-.6.3-.6.5V35c-.1.4.2.6.6.6zm17 0h13.7c.4 0 .6-.3.6-.5V24.9c0-.3-.3-.5-.6-.5H63.7c-.4 0-.6.3-.6.5V35c0 .4.3.6.6.6zm20.2-5.9l-2.5-2.6c-.1-.1-.4-.1-.4 0l-.4.4c-.1.1-.1.3 0 .4l2 2c.1.1.1.3 0 .4l-2 2c-.1.1-.1.3 0 .4l.4.5c.1.1.3.1.4 0l2.5-2.6.5-.4-.5-.5zM9.6 27.8c.1-.2.1-.3 0-.4l-.4-.4c-.1-.2-.3-.2-.4 0l-2.6 2.6-.4.4.4.4L8.8 33s.2 0 .3-.1l.4-.4a.45.45 0 0 0 0-.5l-1.9-1.9c-.1-.2-.1-.3 0-.4l2-1.9z"/><use xlink:href="#B"/></g><g fill="#bac2c6"><use xlink:href="#B" x="-3"/><use xlink:href="#B" x="3"/></g><defs ><path id="B" d="M45 37.9c-.7 0-1.2.5-1.2 1.2s.5 1.2 1.2 1.2 1.2-.5 1.2-1.2-.5-1.2-1.2-1.2z"/></defs></svg>