<svg xmlns="http://www.w3.org/2000/svg" width="90" height="60" fill="none" xmlns:v="https://vecta.io/nano"><rect x=".5" y=".5" width="89" height="59" rx="2.5" stroke="#b6c0c6"/><g fill="#8796a1"><path d="M8.9 25.4v9.2a1.08 1.08 0 0 1-1 1H6V24.4h1.9c.5 0 1 .4 1 1zm15.9 10.2h-13a.94.94 0 0 1-1-1v-9.2a.94.94 0 0 1 1-1h13a.94.94 0 0 1 1 1v9.2a.94.94 0 0 1-1 1zm16.9 0h-13a.94.94 0 0 1-1-1v-9.2a.94.94 0 0 1 1-1h13a.94.94 0 0 1 1 1v9.2a.94.94 0 0 1-1 1zm17 0h-13a.94.94 0 0 1-1-1v-9.2a.94.94 0 0 1 1-1h13a.94.94 0 0 1 1 1v9.2c0 .6-.5 1-1 1zm16.9 0h-13a.94.94 0 0 1-1-1v-9.2a.94.94 0 0 1 1-1h13a.94.94 0 0 1 1 1v9.2c0 .6-.5 1-1 1zM84 24.4v11.2h-4.5a1.08 1.08 0 0 1-1-1v-9.2a1.08 1.08 0 0 1 1-1H84zM48.6 20H37.4c-.2 0-.4-.2-.4-.4v-1.7c0-.2.2-.4.4-.4h11.2c.2 0 .4.2.4.4v1.7c0 .2-.2.4-.4.4zm3.5 0h-1.8c-.2 0-.4-.2-.4-.4v-1.7c0-.2.2-.4.4-.4h1.8c.2 0 .4.2.4.4v1.7c0 .2-.1.4-.4.4zm2.7 0h-1c-.2 0-.4-.2-.4-.4v-1.7c0-.2.2-.4.4-.4h1c.2 0 .4.2.4.4v1.7c0 .2-.2.4-.4.4zm1.8 0h-.2c-.2 0-.4-.2-.4-.4v-1.7c0-.2.2-.4.4-.4h.2c.2 0 .4.2.4.4v1.7c0 .2-.1.4-.4.4z"/><path d="M33.1 19l4.4 2.5c.3.1.6 0 .6-.3v-5c0-.3-.3-.5-.6-.3l-4.4 2.5a.38.38 0 0 0 0 .6z"/></g></svg>