<svg xmlns="http://www.w3.org/2000/svg" width="90" height="60" fill="none" xmlns:v="https://vecta.io/nano"><use href="#B" fill="#fff"/><use href="#B" stroke="#8796a1" stroke-width="1.2"/><g fill="#58707f"><path d="M8.9 28.65v11.5c0 .625-.5 1.25-1 1.25H6v-14h1.9c.5 0 1 .5 1 1.25z"/><use href="#C"/><use href="#C" x="16.9"/><use href="#D"/><use href="#D" x="16.9"/><path d="M84 27.4v14h-4.5c-.5 0-1-.625-1-1.25v-11.5c0-.625.5-1.25 1-1.25H84z"/><path d="M59.875 18.5a.5.5 0 0 1 .5-.5h.5a.5.5 0 0 1 .5.5v.5a.5.5 0 0 1-.5.5h-.5a.5.5 0 0 1-.5-.5v-.5zm-3.5 0a.5.5 0 0 1 .5-.5h1.5a.5.5 0 0 1 .5.5v.5a.5.5 0 0 1-.5.5h-1.5a.5.5 0 0 1-.5-.5v-.5zm-4.5 0a.5.5 0 0 1 .5-.5h2.5a.5.5 0 0 1 .5.5v.5a.5.5 0 0 1-.5.5h-2.5a.5.5 0 0 1-.5-.5v-.5z" fill-rule="evenodd"/><path d="M34.405 15.28a.75.75 0 0 0-1.061-1.061l-4 4a.75.75 0 0 0 0 1.061l4 4a.75.75 0 0 0 1.061-1.061l-2.72-2.72h18.189.75a.5.5 0 0 0 .5-.5v-.5a.5.5 0 0 0-.5-.5h-1-17.939l2.72-2.72z"/></g><defs ><path id="B" d="M.6 2A1.4 1.4 0 0 1 2 .6h86A1.4 1.4 0 0 1 89.4 2v56a1.4 1.4 0 0 1-1.4 1.4H2A1.4 1.4 0 0 1 .6 58V2z"/><path id="C" d="M24.8 41.4h-13c-.6 0-1-.5-1-1.25v-11.5c0-.75.4-1.25 1-1.25h13c.6 0 1 .5 1 1.25v11.5c0 .75-.4 1.25-1 1.25z"/><path id="D" d="M58.7 41.4h-13c-.6 0-1-.5-1-1.25v-11.5c0-.75.4-1.25 1-1.25h13c.6 0 1 .5 1 1.25v11.5c0 .75-.5 1.25-1 1.25z"/></defs></svg>