<svg width="51" height="50" viewBox="0 0 51 50" fill="none" xmlns="http://www.w3.org/2000/svg">
<g clip-path="url(#clip0_1260_17332)">
<path d="M33.5322 21.9476C34.3085 21.7369 35.0156 21.3253 35.5822 20.7542C36.0759 20.2596 36.457 19.6642 36.6995 19.0087C36.9419 18.3532 37.0401 17.6531 36.9872 16.9562L35.0102 18.9332L31.8882 18.1532L31.1082 15.0312L33.0832 13.0522C32.3285 12.9376 31.5571 13.0123 30.8384 13.2694C30.1197 13.5266 29.4761 13.9583 28.9654 14.5256C28.4548 15.093 28.093 15.7783 27.9127 16.5201C27.7323 17.2618 27.739 18.0367 27.9322 18.7752L25.6952 21.0122L21.0652 25.5902L18.8282 27.8272C18.0427 27.6175 17.2158 27.6179 16.4306 27.8286C15.6453 28.0392 14.9293 28.4526 14.3542 29.0272C13.8407 29.5368 13.4551 30.1608 13.2292 30.8481C13.0032 31.5353 12.9432 32.2663 13.0542 32.9812L15.0312 31.0022L18.1512 31.7332L18.9312 34.8552L16.9542 36.8322C17.6691 36.9432 18.4001 36.8832 19.0873 36.6572C19.7746 36.4313 20.3986 36.0458 20.9082 35.5322C21.4801 34.9553 21.8917 34.2392 22.1021 33.4546C22.3126 32.6699 22.3147 31.8439 22.1082 31.0582L24.3452 28.8212L28.9232 24.1912L31.1602 21.9542C31.9377 22.1605 32.7558 22.1582 33.5322 21.9476Z" fill="#FFC000"/>
<path d="M21.3265 16.6443L19.0895 14.4033C18.813 14.1284 18.4389 13.9741 18.049 13.9741C17.6591 13.9741 17.2851 14.1284 17.0085 14.4033L14.4545 16.9573C14.1797 17.2338 14.0254 17.6079 14.0254 17.9978C14.0254 18.3877 14.1797 18.7617 14.4545 19.0383L16.6915 21.2753L21.3265 16.6443Z" fill="#FFC000"/>
<path d="M33.6545 28.9233L29.0245 33.5533L25.0185 29.5473L29.6485 24.9173L33.6545 28.9233Z" fill="#FFC000"/>
<path d="M31.0035 34.9583C30.5381 34.8386 30.1092 34.6065 29.7545 34.2823L34.3335 29.7033C34.6764 30.0443 34.9115 30.4787 35.0095 30.9523L35.8415 35.1663C35.8535 35.251 35.8457 35.3374 35.8186 35.4186C35.7915 35.4997 35.7458 35.5735 35.6853 35.634C35.6248 35.6946 35.551 35.7402 35.4698 35.7673C35.3886 35.7944 35.3023 35.8023 35.2175 35.7903L31.0035 34.9583Z" fill="#FFC000"/>
<path d="M24.9166 20.1822L20.2866 24.8122L17.4766 22.0032L22.1066 17.3732L24.9166 20.1822Z" fill="#FFC000"/>
<rect opacity="0.1" width="50.0011" height="49.8864" fill="#FFC000"/>
</g>
<defs>
<clipPath id="clip0_1260_17332">
<rect width="50.0011" height="49.8864" rx="10" fill="white"/>
</clipPath>
</defs>
</svg>
