<svg width="50" height="50" viewBox="0 0 50 50" fill="none" xmlns="http://www.w3.org/2000/svg">
<g clip-path="url(#clip0_1260_17337)">
<path d="M37 24.9986C36.9997 22.7054 36.3424 20.4603 35.1058 18.5291C33.8692 16.5979 32.1051 15.0614 30.0225 14.1016C27.9398 13.1418 25.6257 12.7989 23.3542 13.1134C21.0826 13.4279 18.9488 14.3867 17.2052 15.8763C15.4617 17.3659 14.1815 19.3239 13.5162 21.5184C12.8508 23.713 12.8282 26.0522 13.4511 28.2592C14.0739 30.4662 15.3161 32.4486 17.0306 33.9715C18.745 35.4945 20.86 36.4943 23.125 36.8526V28.4676H20.078V24.9986H23.125V22.3546C23.125 19.3466 24.917 17.6856 27.658 17.6856C28.5578 17.698 29.4556 17.7762 30.344 17.9196V20.8736H28.831C28.5731 20.8393 28.3108 20.8634 28.0635 20.9442C27.8162 21.025 27.5903 21.1604 27.4024 21.3403C27.2146 21.5203 27.0696 21.7403 26.9783 21.9839C26.887 22.2275 26.8517 22.4885 26.875 22.7476V24.9986H30.2L29.668 28.4676H26.868V36.8526C29.692 36.4076 32.2644 34.9689 34.1219 32.7957C35.9795 30.6225 37.0001 27.8575 37 24.9986Z" fill="#006CEC"/>
<rect opacity="0.1" width="50" height="49.8526" fill="#006CEC"/>
</g>
<defs>
<clipPath id="clip0_1260_17337">
<rect width="50" height="49.8526" rx="10" fill="white"/>
</clipPath>
</defs>
</svg>
