<svg width="50" height="50" viewBox="0 0 50 50" fill="none" xmlns="http://www.w3.org/2000/svg">
<g clip-path="url(#clip0_1260_17327)">
<path d="M25 13C22.6266 13 20.3066 13.7038 18.3332 15.0224C16.3598 16.3409 14.8217 18.2151 13.9135 20.4078C13.0052 22.6005 12.7676 25.0133 13.2306 27.3411C13.6936 29.6689 14.8365 31.8071 16.5147 33.4853C18.193 35.1635 20.3312 36.3064 22.6589 36.7694C24.9867 37.2324 27.3995 36.9948 29.5922 36.0866C31.7849 35.1783 33.6591 33.6402 34.9776 31.6668C36.2962 29.6935 37 27.3734 37 25C37 21.8174 35.7357 18.7652 33.4853 16.5147C31.2348 14.2643 28.1826 13 25 13ZM34.818 25C34.8165 26.7614 34.3371 28.4895 33.431 30L31.01 27.58C31.3623 26.7639 31.544 25.8844 31.544 24.9955C31.544 24.1066 31.3623 23.2271 31.01 22.411L33.433 20C34.338 21.5109 34.8166 23.2388 34.818 25ZM16.567 30C15.6619 28.4892 15.1839 26.7611 15.1839 25C15.1839 23.2389 15.6619 21.5108 16.567 20L18.988 22.421C18.636 23.2368 18.4545 24.116 18.4545 25.0045C18.4545 25.893 18.636 26.7722 18.988 27.588L16.567 30ZM20.636 25C20.636 24.1369 20.8919 23.2931 21.3715 22.5755C21.851 21.8578 22.5326 21.2985 23.33 20.9682C24.1274 20.6379 25.0048 20.5515 25.8514 20.7199C26.6979 20.8882 27.4755 21.3039 28.0858 21.9142C28.6961 22.5245 29.1118 23.3021 29.2802 24.1486C29.4485 24.9952 29.3621 25.8726 29.0318 26.67C28.7015 27.4674 28.1422 28.149 27.4245 28.6285C26.7069 29.1081 25.8631 29.364 25 29.364C23.8426 29.364 22.7326 28.9042 21.9142 28.0858C21.0958 27.2674 20.636 26.1574 20.636 25ZM30 16.568L27.583 18.989C26.7673 18.6366 25.8881 18.4549 24.9995 18.4549C24.1109 18.4549 23.2317 18.6366 22.416 18.989L20 16.568C21.5105 15.6623 23.2387 15.1839 25 15.1839C26.7613 15.1839 28.4895 15.6623 30 16.568ZM20 33.432L22.421 31.011C23.2367 31.3634 24.1159 31.5451 25.0045 31.5451C25.8931 31.5451 26.7723 31.3634 27.588 31.011L30 33.432C28.4895 34.3377 26.7613 34.8161 25 34.8161C23.2387 34.8161 21.5105 34.3377 20 33.432Z" fill="#F66057"/>
<rect opacity="0.1" width="50" height="50" fill="#F66057"/>
</g>
<defs>
<clipPath id="clip0_1260_17327">
<rect width="50" height="50" rx="10" fill="white"/>
</clipPath>
</defs>
</svg>
