<svg width="80" height="73" viewBox="0 0 80 73" fill="none" xmlns="http://www.w3.org/2000/svg">
<path opacity="0.75" d="M80 21.875L58.125 0H39.375C36.8886 0 34.504 0.98772 32.7459 2.74587C30.9877 4.50403 30 6.8886 30 9.375V53.125C30 55.6114 30.9877 57.996 32.7459 59.7541C34.504 61.5123 36.8886 62.5 39.375 62.5H70.625C73.1114 62.5 75.496 61.5123 77.2541 59.7541C79.0123 57.996 80 55.6114 80 53.125V21.875Z" fill="#5AC1FF"/>
<path opacity="0.75" d="M80 21.875H64.375C62.7174 21.875 61.1277 21.2165 59.9556 20.0444C58.7835 18.8723 58.125 17.2826 58.125 15.625V0L80 21.875ZM64.375 50H45.625C44.7962 50 44.0013 49.6708 43.4153 49.0847C42.8292 48.4987 42.5 47.7038 42.5 46.875C42.5 46.0462 42.8292 45.2513 43.4153 44.6653C44.0013 44.0792 44.7962 43.75 45.625 43.75H64.375C65.2038 43.75 65.9987 44.0792 66.5847 44.6653C67.1708 45.2513 67.5 46.0462 67.5 46.875C67.5 47.7038 67.1708 48.4987 66.5847 49.0847C65.9987 49.6708 65.2038 50 64.375 50ZM64.375 37.5H45.625C44.7962 37.5 44.0013 37.1708 43.4153 36.5847C42.8292 35.9987 42.5 35.2038 42.5 34.375C42.5 33.5462 42.8292 32.7513 43.4153 32.1653C44.0013 31.5792 44.7962 31.25 45.625 31.25H64.375C65.2038 31.25 65.9987 31.5792 66.5847 32.1653C67.1708 32.7513 67.5 33.5462 67.5 34.375C67.5 35.2038 67.1708 35.9987 66.5847 36.5847C65.9987 37.1708 65.2038 37.5 64.375 37.5ZM48.75 25H45.625C44.7962 25 44.0013 24.6708 43.4153 24.0847C42.8292 23.4987 42.5 22.7038 42.5 21.875C42.5 21.0462 42.8292 20.2513 43.4153 19.6653C44.0013 19.0792 44.7962 18.75 45.625 18.75H48.75C49.5788 18.75 50.3737 19.0792 50.9597 19.6653C51.5458 20.2513 51.875 21.0462 51.875 21.875C51.875 22.7038 51.5458 23.4987 50.9597 24.0847C50.3737 24.6708 49.5788 25 48.75 25Z" fill="white"/>
<path d="M24.849 72.087C13.422 71.877 9.51899 71.687 7.12099 71.193C5.58359 70.9118 4.16623 70.1749 3.05299 69.078C2.11332 68.019 1.45089 66.7437 1.12499 65.366C0.644474 63.5848 0.368362 61.7546 0.301992 59.911C-0.100664 54.0238 -0.100664 48.1161 0.301992 42.229C0.668992 38.963 0.846992 35.086 3.28799 32.824C4.40143 31.7826 5.78923 31.0811 7.28799 30.802C9.63899 30.356 19.655 30.002 30.025 30.002C40.371 30.002 50.409 30.355 52.763 30.802C54.6043 31.1371 56.2644 32.1213 57.442 33.576C59.668 37.076 59.707 41.433 59.933 44.839C60.027 46.462 60.027 55.678 59.933 57.301C59.581 62.684 59.298 64.589 58.499 66.564C58.1599 67.5567 57.5967 68.458 56.853 69.198C55.7076 70.3202 54.2474 71.0667 52.667 71.338C42.776 72.078 34.379 72.239 24.849 72.087Z" fill="#CD201F"/>
<path d="M39.9675 50.4562C34.4675 47.5162 29.1985 44.8132 23.8145 41.9912V58.8722C29.4805 55.7922 35.4525 52.9722 39.9915 50.4552L39.9675 50.4562Z" fill="white"/>
<path d="M39.9675 50.4562C34.4675 47.5162 23.8145 41.9912 23.8145 41.9912L38.0145 51.5362C38.0145 51.5362 35.4295 52.9712 39.9675 50.4562Z" fill="#E8E0E0"/>
</svg>
