<svg xmlns="http://www.w3.org/2000/svg" width="20" viewBox="0 0 1574 1120" height="20">
<path fill="black" stroke="none" d=" M1.000000,541.375000   C100.142555,541.000000 199.285110,541.000000 297.288849,541.000000   C310.107452,562.055359 321.947693,582.895508 335.189026,602.803833   C345.404663,618.163025 356.747894,632.891785 368.737244,646.920166   C382.461334,662.978455 396.682037,678.779297 412.101440,693.177124   C429.256378,709.195435 447.475342,724.206726 466.198395,738.378357   C487.891479,754.798035 511.322327,768.631531 535.483459,781.308289   C566.858826,797.770325 599.387573,811.264954 633.428833,820.817383   C653.544556,826.462036 674.049500,830.897034 694.580322,834.826538   C709.888550,837.756409 725.528076,838.934021 741.003174,841.018066   C766.436707,844.443237 792.013062,843.188171 817.498230,842.740173   C834.105225,842.448059 850.760437,840.280518 867.225220,837.822632   C883.322632,835.419678 899.364929,832.209900 915.142090,828.212463   C933.939026,823.449951 952.602783,817.999573 971.009766,811.898315   C999.421021,802.480896 1026.629639,790.120728 1052.485596,775.032288   C1069.428955,765.144775 1086.236206,754.938599 1102.447998,743.909973   C1115.835815,734.802185 1128.738159,724.831299 1140.990845,714.242371   C1156.348145,700.970459 1171.409058,687.245361 1185.529663,672.680115   C1203.239014,654.413330 1219.358521,634.708008 1234.080811,613.867432   C1249.905640,591.466553 1264.452026,568.328003 1276.578369,543.722778   C1277.973389,540.892029 1279.814087,540.993591 1282.119141,540.994629   C1302.781860,541.003784 1323.444702,541.000000 1344.107422,541.000000   C1420.759155,541.000000 1497.411011,541.000000 1574.531372,541.000000   C1575.000000,542.714355 1575.000000,544.428711 1574.636475,546.669189   C1570.839966,556.818237 1567.737183,566.574707 1563.908813,576.037720   C1554.539673,599.197815 1545.420166,622.488342 1535.081177,645.217407   C1526.769531,663.489807 1517.273560,681.271118 1507.465454,698.801819   C1497.815674,716.049805 1487.571655,733.008484 1476.761597,749.553894   C1460.809570,773.969788 1443.839966,797.700500 1424.699341,819.776855   C1410.736206,835.881653 1396.929565,852.137939 1382.492432,867.810242   C1373.520264,877.550049 1363.742798,886.593140 1353.898315,895.473877   C1337.949463,909.861389 1322.009644,924.300293 1305.390259,937.891235   C1289.975952,950.496765 1273.949707,962.404907 1257.702515,973.928894   C1234.331787,990.505676 1210.279053,1006.107056 1184.625977,1018.984558   C1158.372437,1032.163330 1132.435547,1046.194946 1105.365601,1057.464844   C1077.327148,1069.137939 1048.313843,1078.640137 1019.309204,1087.763794   C999.421387,1094.019531 978.874695,1098.245605 958.517273,1102.920776   C944.991821,1106.027100 931.334900,1108.659058 917.635925,1110.881348   C906.227295,1112.732300 894.678467,1113.738037 883.179504,1115.006958   C870.520752,1116.404053 857.862793,1117.847046 845.175903,1118.936768   C837.289185,1119.614258 829.348572,1119.656250 821.435303,1120.049072   C820.942383,1120.073486 820.477783,1120.669800 820.000000,1121.000000   C794.979126,1121.000000 769.958191,1121.000000 744.343140,1120.606689   C736.984314,1119.475708 730.229858,1118.621948 723.452637,1118.028564   C714.463623,1117.241699 705.404724,1117.059326 696.469299,1115.898071   C681.027344,1113.891235 665.608459,1111.610352 650.270020,1108.928955   C632.623352,1105.844116 614.817627,1103.166870 597.541504,1098.578613   C569.350891,1091.091797 541.145874,1083.296753 513.668518,1073.589233   C486.678192,1064.053711 460.380798,1052.438721 434.179596,1040.832642   C418.773651,1034.008423 403.904663,1025.851318 389.232574,1017.521606   C371.342682,1007.364929 353.610992,996.863281 336.354706,985.672180   C310.100586,968.645874 284.820770,950.212891 261.177338,929.647095   C247.064758,917.371521 232.609375,905.432922 219.191055,892.431519   C204.095764,877.805420 189.884277,862.256775 175.504288,846.907043   C167.766464,838.647644 160.041718,830.307739 153.081650,821.401917   C138.212601,802.376038 122.890709,783.594604 109.514748,763.539001   C92.937096,738.682800 77.437752,713.033142 62.809242,686.975769   C51.905201,667.552734 42.372570,647.259766 33.596935,626.768494   C23.835390,603.975159 15.652547,580.506958 6.713861,557.359009   C4.970290,552.843811 2.912724,548.449890 0.999996,544.000000   C1.000000,543.250000 1.000000,542.500000 1.000000,541.375000  z"/>
<path fill="black" stroke="none" d=" M1575.000000,462.531342   C1567.989258,458.490234 1560.898682,454.099304 1553.983521,449.447601   C1536.318726,437.564880 1518.752686,425.535248 1501.109619,413.620270   C1470.647827,393.048279 1440.123779,372.568542 1409.691528,351.953003   C1390.315430,338.827271 1371.098877,325.466309 1351.738281,312.317627   C1320.653931,291.206940 1289.496216,270.204193 1258.440918,249.051147   C1257.248535,248.238998 1256.141724,246.355820 1256.106934,244.944290   C1255.893066,236.283218 1255.890381,227.611420 1256.111328,218.950699   C1256.146851,217.558624 1257.330566,215.724075 1258.535034,214.903351   C1282.118042,198.833954 1305.816040,182.933212 1329.421143,166.895950   C1349.849365,153.017029 1370.132446,138.924072 1390.584961,125.081345   C1420.888184,104.571472 1451.324219,84.257950 1481.626831,63.747089   C1501.008423,50.628212 1520.228516,37.271114 1539.565063,24.085211   C1550.610474,16.553137 1561.744019,9.150216 1572.918945,1.344598   C1573.666626,1.330589 1574.784058,1.542178 1574.909058,2.015751   C1575.196289,3.103358 1575.000000,4.318618 1575.000000,5.482066   C1575.000000,56.008938 1575.000000,106.535812 1574.637939,157.532761   C1541.453735,182.584213 1508.631714,207.165588 1475.661987,231.857574   C1481.483521,236.359222 1486.903320,240.658417 1492.435181,244.808243   C1512.098877,259.559113 1531.776123,274.292053 1551.500122,288.962036   C1559.263184,294.735870 1567.162598,300.326141 1575.000000,306.000000   C1575.000000,358.020905 1575.000000,410.041779 1575.000000,462.531342  z"/>
<path fill="black" stroke="none" d=" M1.000000,194.333328   C1.999213,190.767258 3.361901,187.597885 3.938184,184.291428   C7.469373,164.031021 14.899242,145.192902 26.441868,128.357117   C42.230350,105.328415 62.785217,87.485420 88.482025,75.911125   C102.389786,69.646835 116.796280,65.529816 132.024445,63.924759   C154.088562,61.599194 175.697906,62.944817 196.870483,69.946312   C214.813049,75.879692 230.946091,84.870110 245.539139,96.930740   C271.638702,118.501122 287.821838,146.119934 295.774292,178.668121   C299.384918,193.446045 300.118652,208.725266 298.856598,223.825119   C296.366455,253.619446 285.860657,280.682007 267.245331,304.055939   C245.281235,331.634644 216.590179,349.004120 182.208969,357.036194   C166.936035,360.604248 151.355743,361.116272 136.015198,359.749481   C107.529259,357.211426 81.424942,347.195129 58.939922,329.285919   C34.041042,309.454132 16.301620,284.377441 7.365573,253.595474   C5.215978,246.190781 4.441029,238.389328 2.965359,230.783646   C2.792340,229.891891 2.181472,229.085083 1.386792,228.119446   C1.000000,227.555557 1.000000,227.111099 1.393472,226.186966   C1.524629,222.804855 1.262315,219.902420 1.000000,217.000000   C1.000000,213.638718 1.000000,210.277420 1.398854,206.304382   C1.531806,202.461761 1.265903,199.230881 1.000000,196.000000   C1.000000,195.555557 1.000000,195.111099 1.000000,194.333328  z"/>
</svg>
