<svg width="141" height="81" viewBox="0 0 141 81" fill="none" xmlns="http://www.w3.org/2000/svg">
<path d="M25.4357 25.5054H30.0418V34.9948H40.6116V25.5054H45.2508V49.9604H40.6116V39.3551H30.0418V49.9604H25.4357V25.5054Z" fill="white"/>
<path d="M47.9318 43.2178V32.4837H52.0732V42.1771C52.0732 44.7607 53.1674 46.639 55.4194 46.639C58.2365 46.639 59.5286 44.1905 59.5286 41.4736V32.4837H63.67V49.9595H59.5286V45.465C59.1641 47.511 57.3751 50.4962 53.6635 50.4962C50.4166 50.4962 47.9318 48.2489 47.9318 43.2178Z" fill="white"/>
<path d="M70.4619 45.7669C70.3634 46.9744 70.3302 48.4166 70.3302 49.9595H66.2873V25.4056H70.4287V40.1646C70.6947 36.1052 72.9136 31.9471 76.8902 31.9471C80.9331 31.9471 83.5505 35.8378 83.5505 41.0702C83.5505 47.0741 80.3699 50.4953 76.4926 50.4953C72.8491 50.4953 70.9929 47.6443 70.4628 45.766L70.4619 45.7669ZM75.1343 46.8058C77.3881 46.8058 79.3751 44.7597 79.3751 41.1709C79.3751 38.0851 77.9173 35.7363 75.565 35.7363C72.8151 35.7363 70.8263 39.4938 70.6275 44.2566C71.3555 45.262 72.8482 46.8058 75.1343 46.8058Z" fill="white"/>
<path d="M90.0093 45.7669C89.9108 46.9744 89.8777 48.4166 89.8777 49.9595H85.8348V25.4056H89.9762V40.1646C90.2421 36.1052 92.461 31.9471 96.4376 31.9471C100.481 31.9471 103.098 35.8378 103.098 41.0702C103.098 47.0741 99.9173 50.4953 96.0401 50.4953C92.3965 50.4953 90.5403 47.6443 90.0102 45.766L90.0093 45.7669ZM94.6817 46.8058C96.9355 46.8058 98.9225 44.7597 98.9225 41.1709C98.9225 38.0851 97.4647 35.7363 95.1124 35.7363C92.3625 35.7363 90.3737 39.4938 90.1749 44.2566C90.9029 45.262 92.3956 46.8058 94.6817 46.8058Z" fill="white"/>
<path d="M105.382 43.2178V32.4837H109.524V42.1771C109.524 44.7607 110.618 46.639 112.87 46.639C115.687 46.639 116.979 44.1905 116.979 41.4736V32.4837H121.12V49.9595H116.979V45.465C116.615 47.511 114.825 50.4962 111.114 50.4962C107.867 50.4962 105.382 48.2489 105.382 43.2178Z" fill="white"/>
<path d="M127.911 45.7669C127.813 46.9744 127.78 48.4166 127.78 49.9595H123.737V25.4056H127.878V40.1646C128.144 36.1052 130.363 31.9471 134.34 31.9471C138.383 31.9471 141 35.8378 141 41.0702C141 47.0741 137.819 50.4953 133.942 50.4953C130.299 50.4953 128.442 47.6443 127.912 45.766L127.911 45.7669ZM132.584 46.8058C134.838 46.8058 136.825 44.7597 136.825 41.1709C136.825 38.0851 135.367 35.7363 133.014 35.7363C130.265 35.7363 128.276 39.4938 128.077 44.2566C128.805 45.262 130.297 46.8058 132.583 46.8058H132.584Z" fill="white"/>
<path d="M89.9797 80.491L71.6492 62.3906L16.2028 62.2392L0.864868 16.9787L89.9797 0.490967V17.4519H85.6807V5.70887L6.5509 20.3491L19.276 57.8961L73.4034 58.0438L85.6807 70.1685V57.8915H89.9797V80.491Z" fill="white"/>
</svg>
