<svg width="31" height="31" fill="none" xmlns="http://www.w3.org/2000/svg"><path fill-rule="evenodd" clip-rule="evenodd" d="M11.643 15.5c2.481 0 4.5-2.019 4.5-4.5s-2.019-4.5-4.5-4.5a4.505 4.505 0 00-4.5 4.5c0 2.481 2.018 4.5 4.5 4.5zm0-6.429c1.067 0 1.928.862 1.928 1.929a1.926 1.926 0 01-1.928 1.929A1.926 1.926 0 019.714 11c0-1.067.862-1.929 1.929-1.929zM6.204 21.93h5.503a3.513 3.513 0 00-.064.642V24.5h-9v-1.929c0-2.995 5.991-4.5 9-4.5.72 0 1.607.09 2.546.258-.913.617-1.672 1.388-2.109 2.327-.07 0-.145-.003-.219-.007-.074-.003-.147-.006-.218-.006-1.967 0-4.166.643-5.439 1.286zm15.082-3.215c-2.366 0-7.072 1.299-7.072 3.857V24.5h14.143v-1.929c0-2.558-4.706-3.857-7.071-3.857zm3.214-5.143c0 1.209-.681 2.25-1.659 2.803a3.19 3.19 0 01-1.555.412 3.191 3.191 0 01-1.556-.412c-.977-.553-1.659-1.594-1.659-2.803a3.215 3.215 0 016.429 0z" fill="#DC3FD6"/></svg>