<svg xmlns="http://www.w3.org/2000/svg" width="212" height="90" fill="none" xmlns:v="https://vecta.io/nano"><use href="#B" fill="#fff"/><use href="#B" stroke="#8796a1" stroke-width="1.5"/><path d="M25.2 13.8h49.1c.7 0 1.3.6 1.3 1.3v38c0 .7-.6 1.3-1.3 1.3H25.2c-.7 0-1.3-.6-1.3-1.3v-38c0-.7.6-1.3 1.3-1.3zm55.7 0H130c.7 0 1.3.6 1.3 1.3v38c0 .7-.6 1.3-1.3 1.3H80.9c-.7 0-1.3-.6-1.3-1.3v-38c0-.7.6-1.3 1.3-1.3zm55.7 0h49.1c.7 0 1.3.6 1.3 1.3v38c0 .7-.6 1.3-1.3 1.3h-49.1c-.7 0-1.3-.6-1.3-1.3v-38c0-.7.6-1.3 1.3-1.3z" fill="#9ea9b2"/><path d="M187 60.5h-15.7v15.7H187V60.5zm-21.6 0h-15.7v15.7h15.7V60.5z" fill="#58707f"/><path d="M177.2 72.3l3.9-3.9-3.9-3.9m-17.6-.1l-3.9 3.9 3.9 3.9" stroke="#fff" stroke-width="2" stroke-linecap="round" stroke-linejoin="round"/><defs ><path id="B" d="M3 .75h206A2.25 2.25 0 0 1 211.25 3v84a2.25 2.25 0 0 1-2.25 2.25H3A2.25 2.25 0 0 1 .75 87V3A2.25 2.25 0 0 1 3 .75z"/></defs></svg>