<svg xmlns="http://www.w3.org/2000/svg" width="213" height="91" fill="none" xmlns:v="https://vecta.io/nano"><rect x="1.25" y="1.25" width="210.5" height="88.5" rx="2.25" stroke="#b6c0c6" stroke-width="1.5"/><path d="M26.2 14.3h49.1c.7 0 1.3.6 1.3 1.3v38c0 .7-.6 1.3-1.3 1.3H26.2c-.7 0-1.3-.6-1.3-1.3v-38c0-.7.6-1.3 1.3-1.3zm55.7 0H131c.7 0 1.3.6 1.3 1.3v38c0 .7-.6 1.3-1.3 1.3H81.9c-.7 0-1.3-.6-1.3-1.3v-38c0-.7.6-1.3 1.3-1.3zm55.7 0h49.1c.7 0 1.3.6 1.3 1.3v38c0 .7-.6 1.3-1.3 1.3h-49.1c-.7 0-1.3-.6-1.3-1.3v-38c0-.7.6-1.3 1.3-1.3z" fill="#d9e3e8"/><path d="M124.8 61h-15.7v15.7h15.7V61zm-21.6 0H87.5v15.7h15.7V61z" fill="#8796a1"/><path d="M115 72.8l3.9-3.9L115 65m-17.7-.1l-3.9 3.9 3.9 3.9" stroke="#fff" stroke-width="2" stroke-linecap="round" stroke-linejoin="round"/></svg>