<svg xmlns="http://www.w3.org/2000/svg" width="212" height="91" fill="none" ><rect x=".75" y="1.25" width="210.5" height="88.5" rx="2.25" stroke="#b6c0c6" stroke-width="1.5"/><path d="M25.7 36.1h49.1c.7 0 1.3.6 1.3 1.3v38c0 .7-.6 1.3-1.3 1.3H25.7c-.7 0-1.3-.6-1.3-1.3V37.5c0-.8.6-1.4 1.3-1.4zm55.7 0h49.1c.7 0 1.3.6 1.3 1.3v38c0 .7-.6 1.3-1.3 1.3H81.4c-.7 0-1.3-.6-1.3-1.3V37.5c0-.8.6-1.4 1.3-1.4zm55.7 0h49.1c.7 0 1.3.6 1.3 1.3v38c0 .7-.6 1.3-1.3 1.3h-49.1c-.7 0-1.3-.6-1.3-1.3V37.5c0-.8.6-1.4 1.3-1.4z" fill="#d9e3e8"/><path d="M124.3 14.2h-15.7v15.7h15.7V14.2zm-21.6 0H87v15.7h15.7V14.2z" fill="#8796a1"/><path d="M114.5 26l3.9-3.9-3.9-3.9m-17.7 0l-3.9 3.9 3.9 3.9" stroke="#fff" stroke-width="2" stroke-linecap="round" stroke-linejoin="round"/></svg>