<svg xmlns="http://www.w3.org/2000/svg" width="212" height="90" fill="none" xmlns:v="https://vecta.io/nano"><use href="#B" fill="#fff"/><use href="#B" stroke="#8796a1" stroke-width="1.5"/><path d="M25.7 35.6h49.1c.7 0 1.3.6 1.3 1.3v38c0 .7-.6 1.3-1.3 1.3H25.7c-.7 0-1.3-.6-1.3-1.3V37c0-.8.6-1.4 1.3-1.4zm55.7 0h49.1c.7 0 1.3.6 1.3 1.3v38c0 .7-.6 1.3-1.3 1.3H81.4c-.7 0-1.3-.6-1.3-1.3V37c0-.8.6-1.4 1.3-1.4zm55.7 0h49.1c.7 0 1.3.6 1.3 1.3v38c0 .7-.6 1.3-1.3 1.3h-49.1c-.7 0-1.3-.6-1.3-1.3V37c0-.8.6-1.4 1.3-1.4z" fill="#9ea9b2"/><path d="M187.5 13.7h-15.7v15.7h15.7V13.7zm-21.6 0h-15.7v15.7h15.7V13.7z" fill="#58707f"/><path d="M177.7 25.5l3.9-3.9-3.9-3.9m-17.6 0l-3.9 3.9 3.9 3.9" stroke="#fff" stroke-width="2" stroke-linecap="round" stroke-linejoin="round"/><defs ><path id="B" d="M3 .75h206A2.25 2.25 0 0 1 211.25 3v84a2.25 2.25 0 0 1-2.25 2.25H3A2.25 2.25 0 0 1 .75 87V3A2.25 2.25 0 0 1 3 .75z"/></defs></svg>