<svg xmlns="http://www.w3.org/2000/svg" width="212" height="90" fill="none" xmlns:v="https://vecta.io/nano"><use href="#B" fill="#fff"/><use href="#B" stroke="#8796a1" stroke-width="1.5"/><path d="M25.7 24.7h49.1c.7 0 1.3.6 1.3 1.3v38c0 .7-.6 1.3-1.3 1.3H25.7c-.7 0-1.3-.6-1.3-1.3V26c0-.7.6-1.3 1.3-1.3zm55.7 0h49.1c.7 0 1.3.6 1.3 1.3v38c0 .7-.6 1.3-1.3 1.3H81.4c-.7 0-1.3-.6-1.3-1.3V26c0-.7.6-1.3 1.3-1.3zm55.7 0h49.1c.7 0 1.3.6 1.3 1.3v38c0 .7-.6 1.3-1.3 1.3h-49.1c-.7 0-1.3-.6-1.3-1.3V26c0-.7.6-1.3 1.3-1.3z" fill="#9ea9b2"/><path d="M187.5 37.1h-15.7v15.7h15.7V37.1z" fill="#58707f"/><path d="M177.6 48.9l3.9-3.9-3.9-3.9" stroke="#fff" stroke-width="2" stroke-linecap="round" stroke-linejoin="round"/><path d="M40.2 37.1H24.5V52.8H40.2V37.1Z" fill="#58707f"/><path d="M34.3 41.1L30.4 45l3.9 3.9" stroke="#fff" stroke-width="2" stroke-linecap="round" stroke-linejoin="round"/><defs ><path id="B" d="M3 .75h206A2.25 2.25 0 0 1 211.25 3v84a2.25 2.25 0 0 1-2.25 2.25H3A2.25 2.25 0 0 1 .75 87V3A2.25 2.25 0 0 1 3 .75z"/></defs></svg>