<svg xmlns="http://www.w3.org/2000/svg" width="250px" height="150px" xmlns:xlink="http://www.w3.org/1999/xlink" viewBox="0 0 252 144"><path d="M0 0h252v144H0z" fill="#fff"/><g fill="#8796a1"><use xlink:href="#A"/><use xlink:href="#B"/><use xlink:href="#C"/></g><path d="M87.8 23.9h6.5v32.4h-6.5zm69.8 0h6.5v32.4h-6.5z" fill="#ffd9f1" stroke="#f21197" stroke-miterlimit="10"/><g fill="#8796a1"><use xlink:href="#A" y="45.4"/><use xlink:href="#B" y="45.4"/><use xlink:href="#C" y="45.4"/></g><g stroke-miterlimit="10"><path d="M87.8 69.3h6.5v32.4h-6.5zm69.8 0h6.5v32.4h-6.5z" fill="#ffd9f1" stroke="#f21197"/><path d="M27.3 59.5h197.5V66H27.3z" fill="#ffdccc" stroke="#ff5a08"/></g><g fill="#2d2d2d"><path d="M82.4 125.3c-.3.4-.7.7-1.3.9s-1.2.3-1.9.3-1.3-.2-1.9-.5-1-.8-1.3-1.4a4.65 4.65 0 0 1-.5-2.1v-.7c0-1.3.3-2.3.9-3s1.5-1.1 2.6-1.1c.9 0 1.7.2 2.3.7s.9 1.1 1 2h-1.5c-.2-1-.8-1.5-1.8-1.5-.7 0-1.2.2-1.5.7s-.5 1.2-.5 2.1v.7c0 .9.2 1.6.6 2.1s.9.8 1.6.8c.8 0 1.3-.2 1.6-.5v-1.7H79V122h3.2v3.3z"/><use xlink:href="#D"/><path d="M95.9 123.3c0 1-.2 1.8-.7 2.3s-1 .9-1.8.9c-.7 0-1.3-.2-1.7-.7v3h-1.4V120h1.3l.1.6c.4-.5 1-.8 1.7-.8.8 0 1.4.3 1.8.9s.7 1.5.7 2.6h0zm-1.4-.1c0-.6-.1-1.1-.4-1.5s-.6-.6-1.1-.6c-.6 0-1 .2-1.3.7v2.8c.3.5.7.7 1.3.7.5 0 .8-.2 1.1-.5s.4-.8.4-1.6z"/></g><circle cx="66" cy="122.9" r="5" fill="#ffd9f1" stroke="#f21197"/><g fill="#2d2d2d"><path d="M129.1 124.6l2.2-6.7h1.6l-3.1 8.5h-1.4l-3.1-8.5h1.6l2.2 6.7zm7.2 2c-.9 0-1.6-.3-2.2-.9s-.8-1.3-.8-2.3v-.2c0-.6.1-1.2.4-1.7s.6-.9 1-1.2.9-.4 1.5-.4c.9 0 1.5.3 2 .8s.7 1.3.7 2.3v.6h-4.1c0 .5.2.9.5 1.2s.7.5 1.2.5c.7 0 1.2-.3 1.6-.8l.8.7c-.3.4-.6.7-1 .9s-1.1.5-1.6.5zm-.2-5.5c-.4 0-.7.1-.9.4s-.4.7-.5 1.1h2.7v-.1c0-.5-.2-.8-.4-1.1s-.5-.3-.9-.3zm7.1.3h-.6c-.7 0-1.1.2-1.3.8v4.3h-1.4v-6.3h1.4v.7c.3-.6.8-.8 1.4-.8.2 0 .4 0 .5.1v1.2zm3-2.8v1.5h1.1v1.1h-1.1v3.5c0 .2 0 .4.1.5s.3.2.5.2.3 0 .5-.1v1.1c-.3.1-.6.1-.9.1-1.1 0-1.6-.6-1.6-1.8v-3.6h-1V120h1v-1.5h1.4zm2.2-.1c0-.2.1-.4.2-.5s.3-.2.6-.2.5.1.6.2.2.3.2.5-.1.4-.2.5-.3.2-.6.2-.5-.1-.6-.2-.2-.3-.2-.5zm1.5 8h-1.4v-6.3h1.4v6.3zm4.2-1.1c.4 0 .7-.1.9-.3s.4-.5.4-.8h1.3c0 .4-.1.8-.4 1.1s-.5.6-.9.8-.8.3-1.3.3c-.9 0-1.6-.3-2.1-.9s-.8-1.4-.8-2.4v-.1c0-1 .3-1.7.8-2.3s1.2-.9 2.1-.9c.8 0 1.4.2 1.8.7s.7 1 .7 1.7h-1.3c0-.4-.1-.7-.4-.9s-.5-.4-.9-.4c-.5 0-.8.2-1.1.5s-.4.8-.4 1.5v.2c0 .7.1 1.2.4 1.5s.7.7 1.2.7z"/><use xlink:href="#D" x="73.9"/><path d="M165.8 126.5h-1.4v-9h1.4v9zm11.2-1.2c-.3.4-.7.7-1.3.9s-1.2.3-1.9.3-1.3-.2-1.9-.5-1-.8-1.3-1.4a4.65 4.65 0 0 1-.5-2.1v-.7c0-1.3.3-2.3.9-3s1.5-1.1 2.6-1.1c.9 0 1.7.2 2.3.7s.9 1.1 1 2h-1.5c-.2-1-.8-1.5-1.8-1.5-.7 0-1.2.2-1.5.7s-.5 1.2-.5 2.1v.7c0 .9.2 1.6.6 2.1s.9.8 1.6.8c.8 0 1.3-.2 1.6-.5v-1.7h-1.8V122h3.2v3.3z"/><use xlink:href="#D" x="94.6"/><path d="M190.5 123.3c0 1-.2 1.8-.7 2.3s-1 .9-1.8.9c-.7 0-1.3-.2-1.7-.7v3H185V120h1.3l.1.6c.4-.5 1-.8 1.7-.8.8 0 1.4.3 1.8.9s.6 1.5.6 2.6h0zm-1.4-.1c0-.6-.1-1.1-.4-1.5s-.6-.6-1.1-.6c-.6 0-1 .2-1.3.7v2.8c.3.5.7.7 1.3.7.5 0 .8-.2 1.1-.5s.4-.8.4-1.6z"/></g><circle cx="116.2" cy="122.9" r="5" fill="#ffdccc" stroke="#ff5a08"/><path d="M61.6 37.9l-7 7.5-3.5-3-11 9.8h33.5c.2 0 .5-.1.6-.2L61.6 37.9zm12-9.9H38.8a1.54 1.54 0 0 0-1.5 1.5v21.2c0 .6.4 1.1.9 1.4L51 40.5l3.5 3 7.2-7.6L75.2 51h0V29.5c-.1-.8-.7-1.5-1.6-1.5zm-30.2 8.8c-1.4 0-2.5-1.1-2.5-2.5s1.1-2.5 2.5-2.5 2.5 1.1 2.5 2.5-1.1 2.5-2.5 2.5zm88 1.1l-7 7.5-3.5-3-11 9.8h33.5c.2 0 .5-.1.6-.2l-12.6-14.1zm12-9.9h-34.8a1.54 1.54 0 0 0-1.5 1.5v21.2c0 .6.4 1.1.9 1.4l12.8-11.6 3.5 3 7.2-7.6L145 51h0V29.5c-.1-.8-.8-1.5-1.6-1.5zm-30.2 8.8c-1.4 0-2.5-1.1-2.5-2.5s1.1-2.5 2.5-2.5 2.5 1.1 2.5 2.5-1.1 2.5-2.5 2.5zm88 1.1l-7 7.5-3.5-3-11 9.8h33.5c.2 0 .5-.1.6-.2l-12.6-14.1zm12-9.9h-34.8a1.54 1.54 0 0 0-1.5 1.5v21.2c0 .6.4 1.1.9 1.4l12.8-11.6 3.5 3 7.2-7.6L214.8 51h0V29.5c-.1-.8-.8-1.5-1.6-1.5zM183 36.8c-1.4 0-2.5-1.1-2.5-2.5s1.1-2.5 2.5-2.5 2.5 1.1 2.5 2.5-1.1 2.5-2.5 2.5zM61.6 83.3l-7 7.5-3.5-3-11 9.8h33.5c.2 0 .5-.1.6-.2L61.6 83.3zm12-9.9H38.8a1.54 1.54 0 0 0-1.5 1.5v21.2c0 .6.4 1.1.9 1.4L51 85.9l3.5 3 7.2-7.6 13.5 15.1h0V74.9c-.1-.8-.7-1.5-1.6-1.5zm-30.2 8.8c-1.4 0-2.5-1.1-2.5-2.5s1.1-2.5 2.5-2.5 2.5 1.1 2.5 2.5-1.1 2.5-2.5 2.5zm88 1.1l-7 7.5-3.5-3-11 9.8h33.5c.2 0 .5-.1.6-.2l-12.6-14.1zm12-9.9h-34.8a1.54 1.54 0 0 0-1.5 1.5v21.2c0 .6.4 1.1.9 1.4l12.8-11.6 3.5 3 7.2-7.6L145 96.4h0V74.9c-.1-.8-.8-1.5-1.6-1.5zm-30.2 8.8c-1.4 0-2.5-1.1-2.5-2.5s1.1-2.5 2.5-2.5 2.5 1.1 2.5 2.5-1.1 2.5-2.5 2.5zm88 1.1l-7 7.5-3.5-3-11 9.8h33.5c.2 0 .5-.1.6-.2l-12.6-14.1zm12-9.9h-34.8a1.54 1.54 0 0 0-1.5 1.5v21.2c0 .6.4 1.1.9 1.4l12.8-11.6 3.5 3 7.2-7.6 13.5 15.1h0V74.9c-.1-.8-.8-1.5-1.6-1.5zM183 82.2c-1.4 0-2.5-1.1-2.5-2.5s1.1-2.5 2.5-2.5 2.5 1.1 2.5 2.5-1.1 2.5-2.5 2.5z" fill="#c8d1d6"/><defs><path id="A" d="M84.4 58.3H28.1a2.22 2.22 0 0 1-2.2-2.2v-32a2.22 2.22 0 0 1 2.2-2.2h56.3a2.22 2.22 0 0 1 2.2 2.2v32.1c-.1 1.1-1 2.1-2.2 2.1z"/><path id="B" d="M154.2 58.3H97.8a2.22 2.22 0 0 1-2.2-2.2v-32a2.22 2.22 0 0 1 2.2-2.2h56.3a2.22 2.22 0 0 1 2.2 2.2v32.1c0 1.1-.9 2.1-2.1 2.1z"/><path id="C" d="M223.9 58.3h-56.3a2.22 2.22 0 0 1-2.2-2.2v-32a2.22 2.22 0 0 1 2.2-2.2h56.3a2.22 2.22 0 0 1 2.2 2.2v32.1c0 1.1-1 2.1-2.2 2.1z"/><path id="D" d="M87.7 126.5c-.1-.1-.1-.3-.2-.6a2.19 2.19 0 0 1-1.7.7c-.6 0-1.2-.2-1.6-.5s-.6-.8-.6-1.3c0-.7.3-1.2.8-1.6s1.2-.5 2.2-.5h.9v-.4c0-.3-.1-.6-.3-.8s-.5-.3-.8-.3-.6.1-.8.2-.3.4-.3.6h-1.4a1.93 1.93 0 0 1 .3-1c.2-.3.5-.5.9-.7s.8-.3 1.3-.3c.7 0 1.3.2 1.8.6s.7.9.7 1.6v2.9c0 .6.1 1 .2 1.4v.1h-1.4zm-1.6-1.1c.3 0 .5-.1.8-.2s.4-.3.6-.6v-1.2h-.8c-.5 0-.9.1-1.2.3s-.4.4-.4.8c0 .3.1.5.3.7s.4.2.7.2z"/></defs></svg>