<svg xmlns="http://www.w3.org/2000/svg" xmlns:xlink="http://www.w3.org/1999/xlink" width="250px" height="150px" viewBox="0 0 252 144"><path d="M0 0h252v144H0z" fill="#fff"/><g fill="#2d2d2d"><path d="M91.6 122.6h-1.5v-8.5h1.5v8.5zm3-6.3v.7c.5-.6 1.1-.8 1.8-.8 1.3 0 2 .8 2 2.3v4.2H97v-4.1c0-.4-.1-.7-.3-.9s-.5-.3-.9-.3c-.6 0-1 .3-1.3.8v4.5h-1.4v-6.3h1.5z"/><use xlink:href="#A"/><path d="M109.4 122.8c-.9 0-1.6-.3-2.2-.9s-.8-1.3-.8-2.3v-.2c0-.6.1-1.2.4-1.7s.6-.9 1-1.2.9-.4 1.5-.4c.9 0 1.5.3 2 .8s.7 1.3.7 2.3v.6h-4.1c0 .5.2.9.5 1.2s.7.5 1.2.5c.7 0 1.2-.3 1.6-.8l.8.7c-.3.4-.6.7-1 .9s-1.1.5-1.6.5zm-.2-5.5c-.4 0-.7.1-.9.4s-.4.7-.5 1.1h2.7v-.1c0-.5-.2-.8-.4-1.1s-.5-.3-.9-.3zm7.2.3h-.6c-.7 0-1.1.2-1.3.8v4.3H113v-6.3h1.4v.7c.3-.6.8-.8 1.4-.8.2 0 .4 0 .5.1l.1 1.2zm9.4 1.9c0 1-.2 1.8-.7 2.3s-1 .9-1.8.9c-.7 0-1.3-.2-1.7-.7v3h-1.4v-8.8h1.3l.1.6c.4-.5 1-.8 1.7-.8.8 0 1.4.3 1.8.9s.7 1.5.7 2.6h0zm-1.4-.1c0-.6-.1-1.1-.4-1.5s-.6-.6-1.1-.6c-.6 0-1 .2-1.3.7v2.8c.3.5.7.7 1.3.7.5 0 .8-.2 1.1-.5s.4-.8.4-1.6zm6.4 3.2c-.1-.1-.1-.3-.2-.6a2.19 2.19 0 0 1-1.7.7c-.6 0-1.2-.2-1.6-.5s-.6-.8-.6-1.3c0-.7.3-1.2.8-1.6s1.2-.5 2.2-.5h.9v-.4c0-.3-.1-.6-.3-.8s-.5-.3-.8-.3-.6.1-.8.2-.3.4-.3.6H127a1.93 1.93 0 0 1 .3-1c.2-.3.5-.5.9-.7s.8-.3 1.3-.3c.7 0 1.3.2 1.8.6s.7.9.7 1.6v2.9c0 .6.1 1 .2 1.4v.1h-1.4zm-1.6-1c.3 0 .5-.1.8-.2s.4-.3.6-.6v-1.2h-.8c-.5 0-.9.1-1.2.3s-.4.4-.4.8c0 .3.1.5.3.7s.4.2.7.2zm4-2.2c0-1 .2-1.8.7-2.4s1.1-.9 1.8-.9 1.2.2 1.6.7v-3.2h1.4v9h-1.3l-.1-.7c-.4.5-1 .8-1.7.8s-1.3-.3-1.8-.9-.6-1.3-.6-2.4zm1.5.2c0 .6.1 1.1.4 1.5s.6.5 1.1.5c.6 0 1-.3 1.3-.8v-2.7c-.3-.5-.7-.8-1.3-.8-.5 0-.8.2-1.1.5s-.4 1-.4 1.8zm5.3-.2c0-1 .2-1.8.7-2.4s1.1-.9 1.8-.9 1.2.2 1.6.7v-3.2h1.4v9h-1.3l-.1-.7c-.4.5-1 .8-1.7.8s-1.3-.3-1.8-.9-.6-1.3-.6-2.4zm1.4.2c0 .6.1 1.1.4 1.5s.6.5 1.1.5c.6 0 1-.3 1.3-.8v-2.7c-.3-.5-.7-.8-1.3-.8-.5 0-.8.2-1.1.5s-.4 1-.4 1.8zm5.6-4.9c0-.2.1-.4.2-.5s.3-.2.6-.2.5.1.6.2.2.3.2.5-.1.4-.2.5-.3.2-.6.2-.5-.1-.6-.2-.2-.3-.2-.5zm1.6 7.9h-1.4v-6.3h1.4v6.3z"/><use xlink:href="#A" x="50.1"/><path d="M156.5 119.4c0-1 .2-1.8.7-2.4s1.1-.9 1.8-.9 1.3.3 1.7.8l.1-.6h1.3v6.1c0 .8-.3 1.5-.8 2s-1.2.7-2.1.7c-.5 0-.9-.1-1.4-.3s-.8-.4-1-.8l.7-.9c.4.5 1 .8 1.6.8.5 0 .8-.1 1.1-.4s.4-.6.4-1.1v-.4c-.4.5-1 .7-1.6.7-.7 0-1.3-.3-1.8-.9s-.7-1.3-.7-2.4zm1.5.2c0 .6.1 1.1.4 1.5s.6.5 1.1.5c.6 0 1-.2 1.3-.7v-2.8c-.3-.5-.7-.7-1.3-.7-.5 0-.8.2-1.1.6s-.4.8-.4 1.6z"/></g><path d="M182.3 103.6H69.7a2.22 2.22 0 0 1-2.2-2.2V24.6a2.22 2.22 0 0 1 2.2-2.2h112.7a2.22 2.22 0 0 1 2.2 2.2v76.9c-.1 1.2-1.1 2.1-2.3 2.1z" fill="#8796a1"/><path d="M138 58.1l-15.7 16.7-7.8-6.8L90 90.1h74.9c.5 0 1-.2 1.4-.3L138 58.1zM164.9 36H87.1a3.37 3.37 0 0 0-3.4 3.4v47.3a3.17 3.17 0 0 0 2 3l28.6-25.9 7.8 6.8 16.1-17.1 30.1 33.6h0V39.4c-.1-1.9-1.6-3.4-3.4-3.4zM97.4 55.8c-3.2 0-5.6-2.5-5.6-5.6a5.59 5.59 0 0 1 5.6-5.6c3.2 0 5.6 2.5 5.6 5.6a5.59 5.59 0 0 1-5.6 5.6z" fill="#c8d1d6"/><g fill="#f21197"><path d="M73.6 10.7V8.6l-4.7 2.6 4.7 2.6v-2.1h3.9v2.1l4.7-2.6-4.7-2.6v2.1zm100.7 0V8.6l-4.7 2.6 4.7 2.6v-2.1h3.9v2.1l4.6-2.6-4.6-2.6v2.1zm-116.9 84h2.1l-2.6-4.4-2.6 4.4h2.1v3.7h-2.1l2.6 4.5 2.6-4.5h-2.1zm0-67.3h2.1L56.9 23l-2.6 4.4h2.1v3.7h-2.1l2.6 4.5 2.6-4.5h-2.1zm2.6-5.7h132.3v1H60zm0 13.7h132.3v1H60zm0 53.8h132.3v1H60zm0 13.7h132.3v1H60z"/><path d="M183.5 14.2h1v97.6h-1zm-15.3 0h1v97.6h-1zm-85.5 0h1v97.6h-1zm-15.3 0h1v97.6h-1z"/></g><defs><path id="A" d="M101.3 116.3v.7c.5-.6 1.1-.8 1.8-.8 1.3 0 2 .8 2 2.3v4.2h-1.4v-4.1c0-.4-.1-.7-.3-.9s-.5-.3-.9-.3c-.6 0-1 .3-1.3.8v4.5h-1.4v-6.3h1.5z"/></defs></svg>