<svg xmlns="http://www.w3.org/2000/svg" width="250px" height="150px" xmlns:xlink="http://www.w3.org/1999/xlink" viewBox="0 0 252 144"><path d="M0 0h252v144H0z" fill="#fff"/><g fill="#2d2d2d"><path d="M168.7 31.6v-8.5h2.9c1 0 1.7.2 2.2.6s.8 1 .8 1.7c0 .4-.1.7-.3 1.1a1.27 1.27 0 0 1-.9.7c.5.1.8.4 1.1.7s.4.8.4 1.2c0 .8-.3 1.4-.8 1.8s-1.2.6-2.2.6h-3.2zm1.5-4.9h1.5c.5 0 .8-.1 1.1-.3s.4-.5.4-.9-.1-.7-.4-.9c-.2-.2-.6-.3-1.1-.3h-1.4v2.4zm0 1.1v2.7h1.6c.5 0 .8-.1 1.1-.3s.4-.6.4-1c0-.9-.5-1.3-1.4-1.4h-1.7zM180 31c-.4.5-1 .7-1.8.7-.7 0-1.2-.2-1.6-.6s-.5-1-.5-1.7v-4.1h1.4v4.1c0 .8.3 1.2 1 1.2s1.2-.2 1.4-.7v-4.6h1.4v6.3H180V31z"/><use xlink:href="#A"/><use xlink:href="#A" x="4"/><path d="M190.4 28.4c0-.6.1-1.2.4-1.7s.6-.9 1-1.1 1-.4 1.5-.4c.9 0 1.5.3 2.1.8s.8 1.3.9 2.2v.3c0 .6-.1 1.2-.4 1.7a2.17 2.17 0 0 1-1 1.1c-.4.2-1 .4-1.5.4-.9 0-1.6-.3-2.1-.9s-.9-1.3-.9-2.4h0zm1.4.1c0 .7.1 1.2.4 1.5s.6.6 1.1.6.9-.2 1.1-.6.4-.9.4-1.6c0-.6-.1-1.1-.4-1.5s-.6-.6-1.1-.6-.8.2-1.1.6-.4.9-.4 1.6zm7-3.2v.7c.5-.6 1.1-.8 1.8-.8 1.3 0 2 .8 2 2.3v4.2h-1.4v-4.1c0-.4-.1-.7-.3-.9s-.5-.3-.9-.3c-.6 0-1 .3-1.3.8v4.5h-1.4v-6.3h1.5zm-151.6-1h-2.7v7.3H43v-7.3h-2.6v-1.2h6.8v1.2zm3.3 7.5c-.9 0-1.6-.3-2.2-.9s-.8-1.3-.8-2.3v-.2c0-.6.1-1.2.4-1.7s.6-.9 1-1.2.9-.4 1.5-.4c.9 0 1.5.3 2 .8s.7 1.3.7 2.3v.6H49c0 .5.2.9.5 1.2s.7.5 1.2.5c.7 0 1.2-.3 1.6-.8l.8.7c-.3.4-.6.7-1 .9s-1.1.5-1.6.5zm-.2-5.5c-.4 0-.7.1-.9.4s-.4.7-.5 1.1h2.7v-.1c0-.5-.2-.8-.4-1.1s-.5-.3-.9-.3zm6.1 1.1l1.2-2.1h1.6l-1.9 3.1 2 3.2h-1.6l-1.3-2.2-1.3 2.2h-1.6l2-3.2-1.9-3.1h1.6l1.2 2.1zm5.5-3.6v1.5H63v1.1h-1.1v3.5c0 .2 0 .4.1.5s.3.2.5.2.3 0 .5-.1v1.1c-.3.1-.6.1-.9.1-1.1 0-1.6-.6-1.6-1.8v-3.6h-1v-1.1h1v-1.5h1.4zm6.9 6.7h3.9v1.2h-5.4v-8.5h1.5v7.3zm4.8-6.8c0-.2.1-.4.2-.5s.3-.2.6-.2.5.1.6.2.2.3.2.5-.1.4-.2.5-.3.2-.6.2-.5-.1-.6-.2-.2-.3-.2-.5zm1.5 7.9h-1.4v-6.3h1.4v6.3zm2.9-6.3v.7c.5-.6 1.1-.8 1.8-.8 1.3 0 2 .8 2 2.3v4.2h-1.4v-4.1c0-.4-.1-.7-.3-.9s-.5-.3-.9-.3c-.6 0-1 .3-1.3.8v4.5h-1.4v-6.3H78zm7.4 3.6l-.6.7v2.1h-1.4v-9h1.4v5.2l.4-.6 1.8-2h1.7l-2.4 2.6 2.6 3.7h-1.6l-1.9-2.7z"/></g><path d="M95.1 90.8H34a2.22 2.22 0 0 1-2.2-2.2V47.5a2.22 2.22 0 0 1 2.2-2.2h61.1a2.22 2.22 0 0 1 2.2 2.2v41.1c0 1.3-1 2.2-2.2 2.2z" fill="#8796a1"/><path d="M71.3 65.4l-8.8 9.4-4.3-3.8-13.8 12.2h41.9c.3 0 .6-.1.8-.2L71.3 65.4zm15-12.4H42.8a1.97 1.97 0 0 0-1.9 1.9v26.5c0 .8.5 1.4 1.1 1.7l16-14.5 4.3 3.8 9-9.5 16.8 18.8h0V54.9c.1-1.1-.7-1.9-1.8-1.9zM48.6 64a3.05 3.05 0 0 1-3.1-3.1 3.12 3.12 0 0 1 3.1-3.1 3.05 3.05 0 0 1 3.1 3.1 3.12 3.12 0 0 1-3.1 3.1z" fill="#c8d1d6"/><path d="M125.5 45.4h1v81.2h-1z" fill="#f21197"/><path d="M216.2 90.8h-61.1a2.22 2.22 0 0 1-2.2-2.2V47.5a2.22 2.22 0 0 1 2.2-2.2h61.1a2.22 2.22 0 0 1 2.2 2.2v41.1c-.1 1.3-1 2.2-2.2 2.2z" fill="#8796a1"/><path d="M192.3 65.4l-8.8 9.4-4.3-3.8-13.7 12.3h41.9c.3 0 .6-.1.8-.2l-15.9-17.7zM207.4 53h-43.5a1.97 1.97 0 0 0-1.9 1.9v26.5c0 .8.5 1.4 1.1 1.7l16-14.5 4.3 3.8 9-9.5 16.8 18.8h0V54.9c.1-1.1-.8-1.9-1.8-1.9zm-37.8 11a3.05 3.05 0 0 1-3.1-3.1 3.12 3.12 0 0 1 3.1-3.1 3.05 3.05 0 0 1 3.1 3.1 3.12 3.12 0 0 1-3.1 3.1z" fill="#c8d1d6"/><path d="M169.8 126.7h31.6a1.11 1.11 0 0 0 1.1-1.1V118a1.11 1.11 0 0 0-1.1-1.1h-31.6a1.11 1.11 0 0 0-1.1 1.1v7.6a1.11 1.11 0 0 0 1.1 1.1z" fill="#f21197"/><g fill="#fff"><path d="M175.3 122.2h-.7v1.4h-.6V120h1.2c.4 0 .7.1.9.3s.3.5.3.8c0 .2-.1.4-.2.6s-.3.3-.5.4l.8 1.5h0-.5l-.7-1.4zm-.7-.4h.6c.2 0 .4-.1.5-.2s.2-.2.2-.4-.1-.3-.2-.4-.3-.2-.5-.2h-.7v1.2zm3.7 1.9c-.4 0-.7-.1-.9-.4-.2-.2-.3-.6-.3-.9v-.1c0-.3.1-.5.2-.7s.2-.4.4-.5.4-.2.6-.2c.4 0 .6.1.8.3s.3.6.3 1v.2h-1.7c0 .2.1.4.2.5s.3.2.5.2c.3 0 .5-.1.7-.3l.3.3a.78.78 0 0 1-.4.4c-.3.1-.5.2-.7.2zm-.1-2.3c-.2 0-.3.1-.4.2s-.2.3-.2.5h1.1 0c0-.2-.1-.3-.2-.5 0-.1-.2-.2-.3-.2z"/><path d="M181.4 123.6s0-.1-.1-.2c-.2.2-.4.3-.7.3s-.5-.1-.7-.2c-.2-.2-.3-.3-.3-.6s.1-.5.3-.6c.2-.2.5-.2.9-.2h.4v-.2c0-.1 0-.2-.1-.3s-.2-.1-.3-.1-.2 0-.3.1-.1.2-.1.3h-.6c0-.1 0-.3.1-.4a1.38 1.38 0 0 1 .4-.3c.2-.1.3-.1.6-.1s.6.1.7.2c.2.2.3.4.3.7v1.2c0 .2 0 .4.1.6h0-.6zm-.7-.4c.1 0 .2 0 .3-.1s.2-.1.2-.2v-.5h-.3c-.2 0-.4 0-.5.1s-.2.2-.2.3 0 .2.1.3c.2.1.3.1.4.1zm1.7-.9a1.69 1.69 0 0 1 .3-1c.2-.2.4-.4.8-.4.3 0 .5.1.7.3v-1.4h.6v3.7h-.5v-.3c-.2.2-.4.3-.7.3s-.6-.1-.8-.4-.4-.4-.4-.8zm.6 0c0 .3.1.5.2.6.1.2.2.2.4.2a.55.55 0 0 0 .5-.3v-1.1a.55.55 0 0 0-.5-.3c-.2 0-.3.1-.4.2-.2.2-.2.4-.2.7zm4.4-2.2l1 2.7 1-2.7h.8v3.6h-.6v-1.2l.1-1.6-1.1 2.7h-.4l-1-2.7.1 1.6v1.2h-.6v-3.6h.7zm3.4 2.2c0-.3.1-.5.2-.7s.2-.4.4-.5.4-.2.6-.2c.4 0 .6.1.9.3.2.2.3.5.4.9v.1c0 .3 0 .5-.1.7s-.2.4-.4.5-.4.2-.6.2c-.4 0-.7-.1-.9-.4s-.5-.5-.5-.9h0zm.6 0c0 .3.1.5.2.6.1.2.3.2.5.2s.4-.1.5-.2.2-.4.2-.7-.1-.5-.2-.6c-.1-.2-.3-.2-.5-.2s-.3.1-.5.2c-.1.2-.2.4-.2.7zm3.8-.8h-.2c-.3 0-.5.1-.5.3v1.8h-.6V121h.6v.3c.1-.2.3-.3.6-.3h.2l-.1.5z"/><path d="M196.6 123.7c-.4 0-.7-.1-.9-.4-.2-.2-.3-.6-.3-.9v-.1c0-.3.1-.5.2-.7s.2-.4.4-.5.4-.2.6-.2c.4 0 .6.1.8.3s.3.6.3 1v.2H196c0 .2.1.4.2.5s.3.2.5.2c.3 0 .5-.1.7-.3l.3.3a.78.78 0 0 1-.4.4c-.2.1-.4.2-.7.2zm0-2.3c-.2 0-.3.1-.4.2s-.2.3-.2.5h1.1 0c0-.2-.1-.3-.2-.5 0-.1-.2-.2-.3-.2z"/></g><g fill="#60737f"><use xlink:href="#B"/><use xlink:href="#C"/><use xlink:href="#C" y="5.5"/><use xlink:href="#B" y="16.4"/><path d="M215.9 97.7h-60.4a.65.65 0 0 1-.6-.6h0a.65.65 0 0 1 .6-.6h60.4a.65.65 0 0 1 .6.6h0c0 .3-.2.6-.6.6z"/><use xlink:href="#D"/><use xlink:href="#D" y="5.5"/><path d="M207.7 114.1h-43.8a.65.65 0 0 1-.6-.6h0a.65.65 0 0 1 .6-.6h43.8a.65.65 0 0 1 .6.6h0a.65.65 0 0 1-.6.6z"/><use xlink:href="#B" y="21.9"/><path d="M60.5 125.1H47.8a.65.65 0 0 1-.6-.6h0a.65.65 0 0 1 .6-.6h12.7a.65.65 0 0 1 .6.6h0a.65.65 0 0 1-.6.6z"/><use xlink:href="#E"/><use xlink:href="#E" x="1"/><path d="M64 124.7c-.1 0-.1 0-.2.1s-.1.1-.1.2 0 .1.1.2c0 0 .1.1.2.1s.1 0 .2-.1c0 0 .1-.1.1-.2s0-.1-.1-.2-.2-.1-.2-.1z"/></g><g fill="#0af"><path d="M66 124.2h.5l.5 1h.5 0l-.6-1c.1-.1.3-.1.3-.3s.1-.3.1-.4c0-.2-.1-.4-.2-.6s-.4-.2-.7-.2h-.9v2.5h.5v-1zm0-1.2h.5c.2 0 .3 0 .3.1.1.1.1.2.1.3s0 .2-.1.3-.2.1-.3.1H66v-.8zm2.6 2.2c.2 0 .3 0 .4-.1s.2-.1.3-.3l-.2-.2c-.1.2-.3.2-.5.2-.1 0-.2 0-.3-.1s-.1-.2-.2-.4h1.2v-.2c0-.3-.1-.5-.2-.7s-.3-.2-.6-.2c-.2 0-.3 0-.4.1l-.3.3c-.1.1-.1.3-.1.5v.1c0 .3.1.5.2.7.2.2.4.3.7.3zm-.4-1.5c.1-.1.2-.1.3-.1s.2 0 .3.1.1.2.1.3h0-.8c0-.1.1-.2.1-.3zm2.2.4c-.3 0-.5.1-.6.2s-.2.3-.2.5.1.3.2.4.3.2.5.2.4-.1.5-.2v.2h.4 0c0-.1-.1-.2-.1-.4v-.8c0-.2-.1-.3-.2-.5-.1-.1-.3-.2-.5-.2-.1 0-.3 0-.4.1s-.2.1-.3.2-.1.2-.1.3h.4c0-.1 0-.1.1-.2.1 0 .1-.1.2-.1s.2 0 .2.1.1.1.1.2v.1h-.2zm.3.6c0 .1-.1.1-.2.2s-.1.1-.2.1-.2 0-.2-.1c-.1 0-.1-.1-.1-.2s0-.2.1-.2c.1-.1.2-.1.3-.1h.2v.3zm1.5.5c.2 0 .4-.1.5-.2v.2h.4v-2.6h-.4v.9c-.1-.1-.3-.2-.5-.2a.55.55 0 0 0-.5.3c-.1.2-.2.4-.2.7s.1.5.2.7c.1.1.2.2.5.2zm-.2-1.4c.1-.1.2-.2.3-.2.2 0 .3.1.4.2v.8c-.1.2-.2.2-.4.2-.1 0-.2-.1-.3-.2s-.1-.3-.1-.4 0-.3.1-.4zm2.8.6v-1.1l.7 1.9h.3l.8-1.9-.1 1.1v.8h.5v-2.5h-.6l-.7 1.9-.7-1.9h-.6v2.5h.4zm3.4.8c.2 0 .3 0 .5-.1l.3-.3c.1-.1.1-.3.1-.5v-.1c0-.3-.1-.5-.3-.6-.2-.2-.4-.2-.6-.2s-.3 0-.4.1l-.3.3c-.1.1-.1.3-.1.5h0c0 .3.1.5.2.7.1.1.3.2.6.2zm-.3-1.4c.1-.1.2-.2.3-.2s.2.1.3.2.1.3.1.4c0 .2 0 .4-.1.5s-.2.2-.3.2-.2-.1-.3-.2-.1-.3-.1-.4c0-.2 0-.4.1-.5zm1.9.1c.1-.1.2-.2.4-.2h.2v-.4h-.1c-.2 0-.3.1-.4.2v-.2h-.4v1.8h.4v-1.2z"/><path d="M81.4 125.2c.2 0 .3 0 .4-.1s.2-.1.3-.3l-.2-.2c-.1.2-.3.2-.5.2-.1 0-.2 0-.3-.1s-.1-.2-.2-.4h1.2v-.2c0-.3-.1-.5-.2-.7s-.3-.2-.6-.2c-.2 0-.3 0-.4.1l-.3.3c-.1.1-.1.3-.1.5v.1c0 .3.1.5.2.7.3.2.5.3.7.3zm-.3-1.5c.1-.1.2-.1.3-.1s.2 0 .3.1.1.2.1.3h0-.8c0-.1 0-.2.1-.3zm-15.8 1.7h17.8v.2H65.3z"/></g><defs><path id="A" d="M184.6 23.8v1.5h1.1v1.1h-1.1v3.5c0 .2 0 .4.1.5s.3.2.5.2.3 0 .5-.1v1.1c-.3.1-.6.1-.9.1-1.1 0-1.6-.6-1.6-1.8v-3.6h-1v-1.1h1v-1.5h1.4z"/><path id="B" d="M95 97.7H34.6a.65.65 0 0 1-.6-.6h0a.65.65 0 0 1 .6-.6H95a.65.65 0 0 1 .6.6h0c-.1.3-.3.6-.6.6z"/><path id="C" d="M95 103.1H34.6a.65.65 0 0 1-.6-.6h0a.65.65 0 0 1 .6-.6H95a.65.65 0 0 1 .6.6h0c-.1.4-.3.6-.6.6z"/><path id="D" d="M215.9 103.1h-60.4a.65.65 0 0 1-.6-.6h0a.65.65 0 0 1 .6-.6h60.4a.65.65 0 0 1 .6.6h0c0 .4-.2.6-.6.6z"/><path id="E" d="M62 124.7c-.1 0-.1 0-.2.1s-.1.1-.1.2 0 .1.1.2c0 0 .1.1.2.1s.1 0 .2-.1c0 0 .1-.1.1-.2s0-.1-.1-.2-.1-.1-.2-.1z"/></defs></svg>