<svg xmlns="http://www.w3.org/2000/svg" width="250px" height="150px" viewBox="0 0 252 144"><path d="M0 0h252v144H0z" fill="#fff"/><path d="M84.4 60.6H28.1a2.22 2.22 0 0 1-2.2-2.2V26.3a2.22 2.22 0 0 1 2.2-2.2h56.3a2.22 2.22 0 0 1 2.2 2.2v32.1c-.1 1.2-1 2.2-2.2 2.2zm69.8 0H97.8a2.22 2.22 0 0 1-2.2-2.2V26.3a2.22 2.22 0 0 1 2.2-2.2h56.3a2.22 2.22 0 0 1 2.2 2.2v32.1c0 1.2-.9 2.2-2.1 2.2zm69.7 0h-56.3a2.22 2.22 0 0 1-2.2-2.2V26.3a2.22 2.22 0 0 1 2.2-2.2h56.3a2.22 2.22 0 0 1 2.2 2.2v32.1a2.22 2.22 0 0 1-2.2 2.2zM84.4 106H28.1a2.22 2.22 0 0 1-2.2-2.2V71.7a2.22 2.22 0 0 1 2.2-2.2h56.3a2.22 2.22 0 0 1 2.2 2.2v32.1c-.1 1.2-1 2.2-2.2 2.2zm69.8 0H97.8a2.22 2.22 0 0 1-2.2-2.2V71.7a2.22 2.22 0 0 1 2.2-2.2h56.3a2.22 2.22 0 0 1 2.2 2.2v32.1c0 1.2-.9 2.2-2.1 2.2zm69.7 0h-56.3a2.22 2.22 0 0 1-2.2-2.2V71.7a2.22 2.22 0 0 1 2.2-2.2h56.3a2.22 2.22 0 0 1 2.2 2.2v32.1a2.22 2.22 0 0 1-2.2 2.2z" fill="#8796a1"/><path d="M61.6 40.2l-7 7.5-3.5-3-11 9.8h33.5c.2 0 .5-.1.6-.2L61.6 40.2zm12-9.9H38.8a1.54 1.54 0 0 0-1.5 1.5V53c0 .6.4 1.1.9 1.4L51 42.8l3.5 3 7.2-7.6 13.5 15.1h0V31.8c-.1-.9-.7-1.5-1.6-1.5zm-30.2 8.8c-1.4 0-2.5-1.1-2.5-2.5s1.1-2.5 2.5-2.5 2.5 1.1 2.5 2.5-1.1 2.5-2.5 2.5zm88 1.1l-7 7.5-3.5-3-11 9.8h33.5c.2 0 .5-.1.6-.2l-12.6-14.1zm12-9.9h-34.8a1.54 1.54 0 0 0-1.5 1.5V53c0 .6.4 1.1.9 1.4l12.8-11.6 3.5 3 7.2-7.6L145 53.3h0V31.8c-.1-.9-.8-1.5-1.6-1.5zm-30.2 8.8c-1.4 0-2.5-1.1-2.5-2.5s1.1-2.5 2.5-2.5 2.5 1.1 2.5 2.5-1.1 2.5-2.5 2.5zm88 1.1l-7 7.5-3.5-3-11 9.8h33.5c.2 0 .5-.1.6-.2l-12.6-14.1zm12-9.9h-34.8a1.54 1.54 0 0 0-1.5 1.5V53c0 .6.4 1.1.9 1.4l12.8-11.6 3.5 3 7.2-7.6 13.5 15.1h0V31.8c-.1-.9-.8-1.5-1.6-1.5zM183 39.1c-1.4 0-2.5-1.1-2.5-2.5s1.1-2.5 2.5-2.5 2.5 1.1 2.5 2.5-1.1 2.5-2.5 2.5zM61.6 85.6l-7 7.5-3.5-3-11 9.8h33.5c.2 0 .5-.1.6-.2L61.6 85.6zm12-9.9H38.8a1.54 1.54 0 0 0-1.5 1.5v21.2c0 .6.4 1.1.9 1.4L51 88.1l3.5 3 7.2-7.6 13.5 15.1h0V77.2c-.1-.9-.7-1.5-1.6-1.5zm-30.2 8.8c-1.4 0-2.5-1.1-2.5-2.5s1.1-2.5 2.5-2.5 2.5 1.1 2.5 2.5-1.1 2.5-2.5 2.5zm88 1.1l-7 7.5-3.5-3-11 9.8h33.5c.2 0 .5-.1.6-.2l-12.6-14.1zm12-9.9h-34.8a1.54 1.54 0 0 0-1.5 1.5v21.2c0 .6.4 1.1.9 1.4l12.8-11.6 3.5 3 7.2-7.6L145 98.7h0V77.2c-.1-.9-.8-1.5-1.6-1.5zm-30.2 8.8c-1.4 0-2.5-1.1-2.5-2.5s1.1-2.5 2.5-2.5 2.5 1.1 2.5 2.5-1.1 2.5-2.5 2.5zm88 1.1l-7 7.5-3.5-3-11 9.8h33.5c.2 0 .5-.1.6-.2l-12.6-14.1zm12-9.9h-34.8a1.54 1.54 0 0 0-1.5 1.5v21.2c0 .6.4 1.1.9 1.4l12.8-11.6 3.5 3 7.2-7.6 13.5 15.1h0V77.2c-.1-.9-.8-1.5-1.6-1.5zM183 84.5c-1.4 0-2.5-1.1-2.5-2.5s1.1-2.5 2.5-2.5 2.5 1.1 2.5 2.5-1.1 2.5-2.5 2.5z" fill="#c8d1d6"/><path d="M236 60.1l5 5-5 5m-220 0l-5-5 5-5" fill="none" stroke="#8796a1" stroke-width="2" stroke-linecap="round" stroke-linejoin="round" stroke-miterlimit="10"/><circle cx="114.5" cy="117.3" r="2.5" fill="#8796a1"/><g fill="#c8d1d6"><circle cx="122.2" cy="117.3" r="2.5"/><circle cx="129.8" cy="117.3" r="2.5"/><circle cx="137.5" cy="117.3" r="2.5"/></g></svg>