<svg xmlns="http://www.w3.org/2000/svg" width="250px" height="150px" xmlns:xlink="http://www.w3.org/1999/xlink" viewBox="0 0 252 144"><path d="M0 0h252v144H0z" fill="#fff"/><path d="M84.4 89.6H28.1a2.22 2.22 0 0 1-2.2-2.2v-32a2.22 2.22 0 0 1 2.2-2.2h56.3a2.22 2.22 0 0 1 2.2 2.2v32.1c-.1 1.1-1 2.1-2.2 2.1zm69.8 0H97.8a2.22 2.22 0 0 1-2.2-2.2v-32a2.22 2.22 0 0 1 2.2-2.2h56.3a2.22 2.22 0 0 1 2.2 2.2v32.1c0 1.1-.9 2.1-2.1 2.1zm69.7 0h-56.3a2.22 2.22 0 0 1-2.2-2.2v-32a2.22 2.22 0 0 1 2.2-2.2h56.3a2.22 2.22 0 0 1 2.2 2.2v32.1c0 1.1-1 2.1-2.2 2.1z" fill="#8796a1"/><g fill="#2d2d2d"><path d="M95 119.1h-2.7v7.3h-1.5v-7.3h-2.6v-1.2H95v1.2zm-.5 4.1c0-.6.1-1.2.4-1.7s.6-.9 1-1.1 1-.4 1.5-.4c.9 0 1.5.3 2.1.8s.8 1.3.9 2.2v.3c0 .6-.1 1.2-.4 1.7a2.17 2.17 0 0 1-1 1.1c-.4.2-1 .4-1.5.4-.9 0-1.6-.3-2.1-.9s-.9-1.3-.9-2.4h0zm1.5.1c0 .7.1 1.2.4 1.5s.6.6 1.1.6.9-.2 1.1-.6.4-.9.4-1.6c0-.6-.1-1.1-.4-1.5s-.6-.6-1.1-.6-.8.2-1.1.6-.4.9-.4 1.6zm5.4-.1c0-.6.1-1.2.4-1.7s.6-.9 1-1.1 1-.4 1.5-.4c.9 0 1.5.3 2.1.8s.8 1.3.9 2.2v.3c0 .6-.1 1.2-.4 1.7s-.6.9-1 1.1-1 .4-1.5.4c-.9 0-1.6-.3-2.1-.9s-.9-1.3-.9-2.4h0zm1.4.1c0 .7.1 1.2.4 1.5s.6.6 1.1.6.9-.2 1.1-.6.4-.9.4-1.6c0-.6-.1-1.1-.4-1.5s-.6-.6-1.1-.6-.8.2-1.1.6-.4.9-.4 1.6zm7.2 3.2h-1.4v-9h1.4v9z"/><use xlink:href="#A"/><path d="M115.5 118.5c0-.2.1-.4.2-.5s.3-.2.6-.2.5.1.6.2.2.3.2.5-.1.4-.2.5-.3.2-.6.2-.5-.1-.6-.2-.2-.3-.2-.5zm1.5 8h-1.4v-6.3h1.4v6.3zm7.1-3.2c0 1-.2 1.8-.7 2.3s-1 .9-1.8.9c-.7 0-1.3-.2-1.7-.7v3h-1.4V120h1.3l.1.6c.4-.5 1-.8 1.7-.8.8 0 1.4.3 1.8.9s.7 1.5.7 2.6h0zm-1.4-.1c0-.6-.1-1.1-.4-1.5s-.6-.6-1.1-.6c-.6 0-1 .2-1.3.7v2.8c.3.5.7.7 1.3.7.5 0 .8-.2 1.1-.5s.4-.8.4-1.6zm7.7-5.3l2.5 6.5 2.5-6.5h1.9v8.5h-1.5v-2.8l.1-3.8-2.5 6.6h-1.1l-2.5-6.6.1 3.8v2.8h-1.5v-8.5h2zm12.2 8.6c-.1-.1-.1-.3-.2-.6a2.19 2.19 0 0 1-1.7.7c-.6 0-1.2-.2-1.6-.5s-.6-.8-.6-1.3c0-.7.3-1.2.8-1.6s1.2-.5 2.2-.5h.9v-.4c0-.3-.1-.6-.3-.8s-.5-.3-.8-.3-.6.1-.8.2-.3.4-.3.6h-1.4a1.93 1.93 0 0 1 .3-1c.2-.3.5-.5.9-.7s.8-.3 1.3-.3c.7 0 1.3.2 1.8.6s.7.9.7 1.6v2.9c0 .6.1 1 .2 1.4v.1h-1.4zm-1.5-1.1c.3 0 .5-.1.8-.2s.4-.3.6-.6v-1.2h-.8c-.5 0-.9.1-1.2.3s-.4.4-.4.8c0 .3.1.5.3.7s.3.2.7.2zm6.5-3.2l1.2-2.1h1.6l-1.9 3.1 2 3.2h-1.6l-1.3-2.2-1.3 2.2h-1.6l2-3.2-1.9-3.1h1.6l1.2 2.1zm13.6 2.1l1.3-6.4h1.5l-2 8.5h-1.4l-1.6-6.2-1.7 6.2h-1.4l-2-8.5h1.5l1.3 6.4 1.6-6.4h1.2l1.7 6.4zm3.7-5.8c0-.2.1-.4.2-.5s.3-.2.6-.2.5.1.6.2.2.3.2.5-.1.4-.2.5-.3.2-.6.2-.5-.1-.6-.2-.2-.3-.2-.5zm1.5 8H165v-6.3h1.4v6.3zm1.3-3.3c0-1 .2-1.8.7-2.4s1.1-.9 1.8-.9 1.2.2 1.6.7v-3.2h1.4v9H172l-.1-.7c-.4.5-1 .8-1.7.8s-1.3-.3-1.8-.9-.7-1.3-.7-2.4zm1.4.2c0 .6.1 1.1.4 1.5s.6.5 1.1.5c.6 0 1-.3 1.3-.8v-2.7c-.3-.5-.7-.8-1.3-.8-.5 0-.8.2-1.1.5s-.4 1-.4 1.8z"/><use xlink:href="#A" x="63.2"/><path d="M180.1 120.8c.5-.5 1.1-.8 1.8-.8 1.4 0 2 .8 2.1 2.3v4.1h-1.4v-4.1c0-.4-.1-.7-.3-.9s-.5-.3-.8-.3c-.6 0-1 .3-1.3.8v4.5h-1.4v-9h1.4v3.4z"/></g><circle cx="79" cy="122.9" r="5" fill="none" stroke="#f21197"/><path d="M61.6 69.2l-7 7.5-3.5-3-11 9.8h33.5c.2 0 .5-.1.6-.2L61.6 69.2zm12-9.9H38.8a1.54 1.54 0 0 0-1.5 1.5V82c0 .6.4 1.1.9 1.4L51 71.8l3.5 3 7.2-7.6 13.5 15.1h0V60.8c-.1-.8-.7-1.5-1.6-1.5zm-30.2 8.9c-1.4 0-2.5-1.1-2.5-2.5s1.1-2.5 2.5-2.5 2.5 1.1 2.5 2.5-1.1 2.5-2.5 2.5zm88 1l-7 7.5-3.5-3-11 9.8h33.5c.2 0 .5-.1.6-.2l-12.6-14.1zm12-9.9h-34.8a1.54 1.54 0 0 0-1.5 1.5V82c0 .6.4 1.1.9 1.4l12.8-11.6 3.5 3 7.2-7.6L145 82.3h0V60.8c-.1-.8-.8-1.5-1.6-1.5zm-30.2 8.9c-1.4 0-2.5-1.1-2.5-2.5s1.1-2.5 2.5-2.5 2.5 1.1 2.5 2.5-1.1 2.5-2.5 2.5zm88 1l-7 7.5-3.5-3-11 9.8h33.5c.2 0 .5-.1.6-.2l-12.6-14.1zm12-9.9h-34.8a1.54 1.54 0 0 0-1.5 1.5V82c0 .6.4 1.1.9 1.4l12.8-11.6 3.5 3 7.2-7.6 13.5 15.1h0V60.8c-.1-.8-.8-1.5-1.6-1.5zM183 68.2c-1.4 0-2.5-1.1-2.5-2.5s1.1-2.5 2.5-2.5 2.5 1.1 2.5 2.5-1.1 2.5-2.5 2.5z" fill="#c8d1d6"/><path d="M140.6 31H112c-1.3 0-2.3 1.1-2.3 2.3v11.9c0 1.3 1.1 2.3 2.3 2.3h10l3.5 4.5c.4.5 1.2.5 1.6 0l3.5-4.5h10c1.3 0 2.3-1.1 2.3-2.3V33.4c0-1.3-1-2.4-2.3-2.4z" fill="#2d2d2d"/><path d="M138 36.2h-23.5c-.4 0-.8-.4-.8-.8h0c0-.4.4-.8.8-.8H138c.4 0 .8.4.8.8h0c0 .4-.3.8-.8.8zm0 3.9h-23.5c-.4 0-.8-.4-.8-.8h0c0-.4.4-.8.8-.8H138c.4 0 .8.4.8.8h0c0 .4-.3.8-.8.8zm-3.5 3.9h-16.4c-.4 0-.8-.4-.8-.8h0c0-.4.4-.8.8-.8h16.4c.4 0 .8.4.8.8h0c0 .4-.3.8-.8.8z" fill="#dedee0"/><path d="M113.8 26.1h24.7" fill="none" stroke="#f21197" stroke-miterlimit="10"/><path d="M114.7 29l-5.2-2.9 5.2-3zm23 0l5.1-2.9-5.1-3z" fill="#f21197"/><defs><path id="A" d="M113.3 118.6v1.5h1.1v1.1h-1.1v3.5c0 .2 0 .4.1.5s.3.2.5.2.3 0 .5-.1v1.1c-.3.1-.6.1-.9.1-1.1 0-1.6-.6-1.6-1.8v-3.6h-1V120h1v-1.5h1.4z"/></defs></svg>