<svg xmlns="http://www.w3.org/2000/svg" width="100" height="72" fill="none" ><rect x=".75" y=".75" width="98.5" height="70.5" rx="2.25" stroke="#b6c0c6" stroke-width="1.5"/><path d="M57.1 33.1L47.8 43l-4.6-4-14.5 13H73c.3 0 .6-.1.8-.2L57.1 33.1zM73 20H27c-1.1 0-2 .9-2 2v28c0 .8.5 1.5 1.2 1.8l16.9-15.3 4.6 4 9.5-10.1L75 50.3V22c0-1.1-.9-2-2-2zM33.1 31.7c-1.9 0-3.3-1.5-3.3-3.3a3.33 3.33 0 0 1 3.3-3.3c1.9 0 3.3 1.5 3.3 3.3a3.33 3.33 0 0 1-3.3 3.3z" fill="#8796a1"/><path d="M18.1 34.8H10c-.3 0-.6.3-.6.7s.3.7.6.7h8.1c.3 0 .6-.3.6-.7s-.3-.7-.6-.7zm4.9-.4l-1.3-1.1-.1-.1a.55.55 0 0 1-.3-.5v-.4a1.69 1.69 0 0 0-.3-1c-.3-.6-1-1-1.8-1h-2.7-.5-7.8c-.8 0-1.4.4-1.8 1a1.69 1.69 0 0 0-.3 1v.5V38v.6c0 .3.1.6.2.9.3.7 1 1.1 1.8 1.1H16h.5 2.7c.8 0 1.5-.4 1.8-1.1.1-.3.2-.6.2-.9v-.4a.55.55 0 0 1 .3-.5l.1-.1 1.3-1.1c.3-.3.5-.6.5-1 .1-.5-.1-.8-.4-1.1zm-2.4 2.3c-.4.3-.7.8-.8 1.4v.2.4.3c-.1.2-.3.4-.6.4h-2.7-.5-7.8c-.3 0-.5-.2-.6-.4v-.3-.7-5.3-.5a.68.68 0 0 1 .7-.7H16h.5 2.7a.68.68 0 0 1 .7.7v.5c0 .6.3 1.1.8 1.4l1.5 1.2-1.6 1.4z" fill="#444d54"/></svg>