<svg xmlns="http://www.w3.org/2000/svg" width="100" height="72" fill="none" ><rect x=".75" y=".75" width="98.5" height="70.5" rx="2.25" stroke="#b6c0c6" stroke-width="1.5"/><path d="M57.1 33.1L47.8 43l-4.6-4-14.5 13H73c.3 0 .6-.1.8-.2L57.1 33.1zM73 20H27c-1.1 0-2 .9-2 2v28c0 .8.5 1.5 1.2 1.8l16.9-15.3 4.6 4 9.5-10.1L75 50.3V22c0-1.1-.9-2-2-2zM33.1 31.7c-1.9 0-3.3-1.5-3.3-3.3a3.33 3.33 0 0 1 3.3-3.3c1.9 0 3.3 1.5 3.3 3.3a3.33 3.33 0 0 1-3.3 3.3z" fill="#8796a1"/><path d="M56.7 6.1h-1.6-10.8-1c-1.1 0-2 .9-2 2v6c0 1.1.9 2 2 2h.7 2.3.9a.55.55 0 0 1 .5.3l.1.1L49 18c.3.3.6.5 1 .5s.8-.2 1-.5l1.1-1.3.1-.1a.55.55 0 0 1 .5-.3h.3 3 .7c1.1 0 2-.9 2-2v-6c0-1.3-.9-2.2-2-2.2zm.7 8.1a.68.68 0 0 1-.7.7H56h-2.9-.3c-.6 0-1.2.3-1.6.8L50 17.1l-1.2-1.5c-.4-.5-1-.8-1.6-.8h-.9H44h-.7c-.1 0-.2 0-.3-.1-.2-.1-.4-.3-.4-.6v-6c0-.3.2-.5.4-.6.1 0 .2-.1.3-.1h1 10.8 1.6a.68.68 0 0 1 .7.7v6.1zm-2.8-3.8h-9.1a.68.68 0 0 0-.7.7.68.68 0 0 0 .7.7h9.1a.68.68 0 0 0 .7-.7c-.1-.4-.4-.7-.7-.7z" fill="#444d54"/></svg>