<?xml version="1.0" encoding="utf-8"?>
<!-- Generator: Adobe Illustrator 24.0.0, SVG Export Plug-In . SVG Version: 6.00 Build 0)  -->
<svg version="1.1" id="Ebene_1" xmlns="http://www.w3.org/2000/svg" xmlns:xlink="http://www.w3.org/1999/xlink" x="0px" y="0px"
	 viewBox="0 0 99.8 99.8" style="enable-background:new 0 0 99.8 99.8;" xml:space="preserve">
<style type="text/css">
	.st0{fill:#3F3F3F;}
	.st1{fill:#DE9F27;}
	.st2{fill:#FFFFFF;}
	.st3{fill:url(#SVGID_1_);}
	.st4{fill:url(#SVGID_2_);}
	.st5{fill:#009ECB;}
	.st6{fill:url(#SVGID_3_);}
	.st7{fill:url(#SVGID_4_);}
	.st8{fill:url(#SVGID_5_);}
	.st9{fill:url(#SVGID_6_);}
	.st10{fill:url(#SVGID_7_);}
	.st11{fill:url(#SVGID_8_);}
	.st12{fill:url(#SVGID_9_);}
	.st13{fill:url(#SVGID_10_);}
	.st14{fill:url(#SVGID_11_);}
	.st15{fill:url(#SVGID_12_);}
</style>
<g>
	<path class="st2" d="M64,48.2c0-6.6-5.4-9.3-11.3-11.2c-5-1.7-7.4-2.7-7.4-5.2c0-2.2,2.3-3.7,5.7-3.7c3.4,0,5.8,1,7.2,1.9l1.1,0.7
		l2.1-5.7l-0.8-0.4c-2.6-1.5-6-2.3-9.5-2.3c-7.7,0-13,4.2-13,10.3c0.1,1.9,0.8,3.9,1.8,5.3c-2.7,2.1-4.2,4.8-4.2,7.7
		c0,6.6,5.9,9.2,12,11.2c6.1,2.1,7.2,3.5,7.2,5.7c0,3.1-3.2,4.3-6.2,4.3c-3.3,0-6.3-1.3-7.9-2.5l-1.1-0.8l-2.4,5.7l0.7,0.5
		c2.6,1.9,6.4,2.9,10.8,2.9c6.7,0,13.4-3.3,13.4-10.8c0-2.3-0.9-4.3-2-5.6C62.8,53.9,64,51.3,64,48.2z M57.1,49
		c0,1.5-0.5,2.8-1.5,3.7c-1.7-0.9-4.3-1.9-6.9-2.8c-5.5-2-6.2-3.8-6.2-5.2c0-1.5,0.6-2.7,2-3.8c1.7,0.9,4,1.7,6,2.5
		c0.5,0.2,1,0.4,1.5,0.6C56.6,45.6,57.1,47.6,57.1,49z"/>
	<path class="st2" d="M91.7,50.1c-1.7,0-3.4-0.4-5-1c-5.8,21.3-17.8,36.5-35.6,45.1l-0.3,0.2l-0.3-0.1C47.3,93,39.2,89.3,31,80.3
		c-9.3-10.2-15.7-23.9-19.2-40.8L11.7,39l0.4-0.3c1.5-1.3,2.3-3.1,2.3-5.1c0-3.8-3.1-6.8-6.8-6.8c-3.8,0-6.8,3.1-6.8,6.8
		c0,3.2,2.3,6.1,5.5,6.7l0.5,0.1l0.1,0.5c4.7,22.2,13.8,35.8,20.7,43.2c11.2,12.2,22.3,15.3,22.8,15.5l0.9,0.2l0.9-0.4
		c19.9-9.1,33.6-26.2,39.8-49.3C91.8,50.1,91.7,50.1,91.7,50.1z M7.6,38.1c-2.5,0-4.6-2-4.6-4.6c0-2.5,2-4.6,4.6-4.6
		c2.5,0,4.6,2,4.6,4.6C12.1,36.1,10.1,38.1,7.6,38.1z"/>
	<path class="st2" d="M96,31.8l-0.4-0.3l0-0.5c0.8-10,0.1-16.8,0-17.1l-0.1-1.3l-1.2-0.6c-2.7-1.5-5.4-2.8-8.1-4l-0.5-0.2l-7.3-2.8
		C69.1,1.6,59.4,0,49.7,0C41,0,32.3,1.3,23.8,3.9l-7.1,2.2l0.2,5.8c7.2-3.1,18.7-6.8,32.7-6.8c13.8,0,27.4,3.5,40.5,10.4l0.4,0.2
		l0,0.5c0.1,2.4,0.3,7.5-0.2,14l0,0.5L89.9,31c-2.7,1-4.6,3.6-4.6,6.4c0,3.8,3.1,6.8,6.8,6.8c3.8,0,6.8-3.1,6.8-6.8
		C99,35.2,97.9,33.1,96,31.8z M92.2,42c-2.5,0-4.5-2-4.5-4.5c0-2.5,2-4.5,4.5-4.5c2.5,0,4.5,2,4.5,4.5C96.7,40,94.7,42,92.2,42z"/>
</g>
</svg>
