<svg width="683" height="683" viewBox="0 0 683 683" fill="none" xmlns="http://www.w3.org/2000/svg">
<path d="M483.558 668.78C381.608 668.78 298.668 585.84 298.668 483.89C298.668 381.94 381.608 299 483.558 299C585.508 299 668.448 381.94 668.448 483.89C668.448 585.84 585.508 668.78 483.558 668.78Z" fill="#4CAF50"/>
<path d="M483.552 583.109C471.776 583.109 462.219 573.552 462.219 561.776V405.333C462.219 393.557 471.776 384 483.552 384C495.328 384 504.885 393.557 504.885 405.333V561.776C504.885 573.552 495.328 583.109 483.552 583.109Z" fill="white"/>
<path d="M561.776 504.885H405.333C393.557 504.885 384 495.328 384 483.552C384 471.776 393.557 462.219 405.333 462.219H561.776C573.552 462.219 583.109 471.776 583.109 483.552C583.109 495.328 573.552 504.885 561.776 504.885Z" fill="white"/>
<path d="M240.773 484.313C240.773 350.186 349.441 241.451 483.493 241.451C483.662 241.451 483.831 241.451 484.004 241.451V79.9538C484.004 35.7971 448.227 0 404.097 0H80.9068C36.7761 0 1 35.7971 1 79.9538V517.043C1 561.199 36.7761 596.996 80.9068 596.996H268.427C250.767 563.318 240.77 524.983 240.77 484.313H240.773Z" fill="#ECEEF0"/>
<mask id="mask0_5_103" style="mask-type:luminance" maskUnits="userSpaceOnUse" x="1" y="0" width="484" height="597">
<path d="M240.773 484.313C240.773 350.186 349.441 241.451 483.493 241.451C483.662 241.451 483.831 241.451 484.004 241.451V79.9538C484.004 35.7971 448.227 0 404.097 0H80.9068C36.7761 0 1 35.7971 1 79.9538V517.043C1 561.199 36.7761 596.996 80.9068 596.996H268.427C250.767 563.318 240.77 524.983 240.77 484.313H240.773Z" fill="white"/>
</mask>
<g mask="url(#mask0_5_103)">
<path d="M227.094 133.581H108.86C92.914 133.581 79.9871 146.514 79.9871 162.469C79.9871 178.424 92.914 191.357 108.86 191.357H227.094C243.041 191.357 255.967 178.424 255.967 162.469C255.967 146.514 243.041 133.581 227.094 133.581Z" fill="#91A0AA"/>
<path d="M376.136 247.033H108.86C92.914 247.033 79.9871 259.966 79.9871 275.921C79.9871 291.876 92.914 304.809 108.86 304.809H376.136C392.082 304.809 405.009 291.876 405.009 275.921C405.009 259.966 392.082 247.033 376.136 247.033Z" fill="#91A0AA"/>
<path d="M376.136 360.485H108.86C92.914 360.485 79.9871 373.418 79.9871 389.373C79.9871 405.328 92.914 418.261 108.86 418.261H376.136C392.082 418.261 405.009 405.328 405.009 389.373C405.009 373.418 392.082 360.485 376.136 360.485Z" fill="#91A0AA"/>
</g>
</svg>
