<svg width="683" height="683" viewBox="0 0 683 683" fill="none" xmlns="http://www.w3.org/2000/svg">
<path d="M658.776 481.885C658.776 584 576 666.776 473.885 666.776C371.776 666.776 289 584 289 481.885C289 379.776 371.776 297 473.885 297C576 297 658.776 379.776 658.776 481.885Z" fill="#4CAF50"/>
<path d="M240.773 484.313C240.773 350.186 349.441 241.451 483.493 241.451C483.662 241.451 483.831 241.451 484.004 241.451V79.9538C484.004 35.7971 448.227 0 404.097 0H80.9068C36.7761 0 1 35.7971 1 79.9538V517.043C1 561.199 36.7761 596.996 80.9068 596.996H268.427C250.767 563.318 240.77 524.983 240.77 484.313H240.773Z" fill="#ECEEF0"/>
<mask id="mask0_5_130" style="mask-type:luminance" maskUnits="userSpaceOnUse" x="1" y="0" width="484" height="597">
<path d="M240.773 484.313C240.773 350.186 349.441 241.451 483.493 241.451C483.662 241.451 483.831 241.451 484.004 241.451V79.9538C484.004 35.7971 448.227 0 404.097 0H80.9068C36.7761 0 1 35.7971 1 79.9538V517.043C1 561.199 36.7761 596.996 80.9068 596.996H268.427C250.767 563.318 240.77 524.983 240.77 484.313H240.773Z" fill="white"/>
</mask>
<g mask="url(#mask0_5_130)">
<path d="M227.094 133.581H108.86C92.9141 133.581 79.9872 146.514 79.9872 162.469C79.9872 178.424 92.9141 191.357 108.86 191.357H227.094C243.041 191.357 255.968 178.424 255.968 162.469C255.968 146.514 243.041 133.581 227.094 133.581Z" fill="#91A0AA"/>
<path d="M376.136 247.033H108.86C92.9141 247.033 79.9872 259.966 79.9872 275.921C79.9872 291.876 92.9141 304.809 108.86 304.809H376.136C392.082 304.809 405.009 291.876 405.009 275.921C405.009 259.966 392.082 247.033 376.136 247.033Z" fill="#91A0AA"/>
<path d="M376.136 360.485H108.86C92.9141 360.485 79.9872 373.418 79.9872 389.373C79.9872 405.328 92.9141 418.261 108.86 418.261H376.136C392.082 418.261 405.009 405.328 405.009 389.373C405.009 373.418 392.082 360.485 376.136 360.485Z" fill="#91A0AA"/>
</g>
<path d="M453.104 556.344C447.474 556.344 442.01 554.1 438.026 550.089L388.25 500.308C379.917 491.975 379.917 478.464 388.25 470.131C396.583 461.798 410.094 461.798 418.432 470.131L452.021 503.725L529.479 414.35C537.188 405.449 550.698 404.506 559.573 412.214C568.474 419.923 569.443 433.381 561.703 442.313L469.26 548.98C465.391 553.443 459.818 556.115 453.901 556.344C453.615 556.344 453.359 556.344 453.104 556.344Z" fill="white"/>
</svg>
