<svg width="683" height="683" viewBox="0 0 683 683" fill="none" xmlns="http://www.w3.org/2000/svg">
<path d="M483.558 668.448C381.608 668.448 298.668 585.508 298.668 483.558C298.668 381.608 381.608 298.668 483.558 298.668C585.508 298.668 668.448 381.608 668.448 483.558C668.448 585.508 585.508 668.448 483.558 668.448Z" fill="#F44336"/>
<path d="M561.776 505.667H405.333C393.557 505.667 384 496.109 384 484.333C384 472.557 393.557 463 405.333 463H561.776C573.552 463 583.109 472.557 583.109 484.333C583.109 496.109 573.552 505.667 561.776 505.667Z" fill="white"/>
<path d="M240.773 484.313C240.773 350.186 349.441 241.451 483.493 241.451C483.662 241.451 483.831 241.451 484.004 241.451V79.9538C484.004 35.7971 448.227 0 404.097 0H80.9068C36.7761 0 1 35.7971 1 79.9538V517.043C1 561.199 36.7761 596.996 80.9068 596.996H268.427C250.767 563.318 240.77 524.983 240.77 484.313H240.773Z" fill="#ECEEF0"/>
<mask id="mask0_5_121" style="mask-type:luminance" maskUnits="userSpaceOnUse" x="1" y="0" width="484" height="597">
<path d="M240.773 484.313C240.773 350.186 349.441 241.451 483.493 241.451C483.662 241.451 483.831 241.451 484.004 241.451V79.9538C484.004 35.7971 448.227 0 404.097 0H80.9068C36.7761 0 1 35.7971 1 79.9538V517.043C1 561.199 36.7761 596.996 80.9068 596.996H268.427C250.767 563.318 240.77 524.983 240.77 484.313H240.773Z" fill="white"/>
</mask>
<g mask="url(#mask0_5_121)">
<path d="M227.094 133.581H108.86C92.9141 133.581 79.9872 146.514 79.9872 162.469C79.9872 178.424 92.9141 191.357 108.86 191.357H227.094C243.041 191.357 255.968 178.424 255.968 162.469C255.968 146.514 243.041 133.581 227.094 133.581Z" fill="#91A0AA"/>
<path d="M376.136 247.033H108.86C92.9141 247.033 79.9872 259.966 79.9872 275.921C79.9872 291.876 92.9141 304.809 108.86 304.809H376.136C392.082 304.809 405.009 291.876 405.009 275.921C405.009 259.966 392.082 247.033 376.136 247.033Z" fill="#91A0AA"/>
<path d="M376.136 360.485H108.86C92.9141 360.485 79.9872 373.418 79.9872 389.373C79.9872 405.328 92.9141 418.261 108.86 418.261H376.136C392.082 418.261 405.009 405.328 405.009 389.373C405.009 373.418 392.082 360.485 376.136 360.485Z" fill="#91A0AA"/>
</g>
</svg>
