<svg width="683" height="683" viewBox="0 0 683 683" fill="none" xmlns="http://www.w3.org/2000/svg">
<path d="M483.558 668.78C381.608 668.78 298.668 585.84 298.668 483.89C298.668 381.94 381.608 299 483.558 299C585.508 299 668.448 381.94 668.448 483.89C668.448 585.84 585.508 668.78 483.558 668.78Z" fill="white" fill-opacity="0.3"/>
<path d="M240.773 484.313C240.773 350.186 349.441 241.451 483.493 241.451C483.662 241.451 483.831 241.451 484.004 241.451V79.9538C484.004 35.7971 448.227 0 404.097 0H80.9068C36.7761 0 1 35.7971 1 79.9538V517.043C1 561.199 36.7761 596.996 80.9068 596.996H268.427C250.767 563.318 240.77 524.983 240.77 484.313H240.773Z" fill="#ECEEF0" fill-opacity="0.2"/>
<path d="M437.489 461.181L470.59 428.371V529.604C470.59 537.003 476.641 543 484.105 543C491.569 543 497.62 537.003 497.62 529.604V428.371L531.116 461.573C533.757 464.19 537.208 465.489 540.681 465.489C544.153 465.489 547.397 464.252 549.996 461.8C555.506 456.585 555.215 447.559 549.829 442.221L494.272 387.173C488.659 381.609 479.552 381.609 473.917 387.173L417.965 442.633C412.58 447.971 412.684 456.668 418.256 461.861C423.641 466.89 432.249 466.375 437.468 461.181H437.489Z" fill="white" fill-opacity="0.6"/>
<path d="M569.627 493C562.253 493 556.275 498.936 556.275 506.259V543.61C556.275 551.811 547.956 558.481 537.706 558.481H430.274C420.044 558.481 411.704 551.811 411.704 543.61V506.259C411.704 498.936 405.726 493 398.352 493C390.978 493 385 498.936 385 506.259V543.61C385 566.437 405.316 585 430.274 585H537.726C562.684 585 583 566.437 583 543.61V506.259C583 498.936 577.022 493 569.648 493H569.627Z" fill="white" fill-opacity="0.6"/>
</svg>
