<svg width="683" height="683" viewBox="0 0 683 683" fill="none" xmlns="http://www.w3.org/2000/svg">
<path d="M240.773 484.313C240.773 350.186 349.441 241.451 483.493 241.451C483.662 241.451 483.831 241.451 484.004 241.451V79.9538C484.004 35.7971 448.227 0 404.097 0H80.9068C36.7761 0 1 35.7971 1 79.9538V517.043C1 561.199 36.7761 596.996 80.9068 596.996H268.427C250.767 563.318 240.77 524.983 240.77 484.313H240.773Z" fill="#ECEEF0" fill-opacity="0.2"/>
<path d="M483.89 667.78C381.94 667.78 299 584.84 299 482.89C299 380.94 381.94 298 483.89 298C585.84 298 668.78 380.94 668.78 482.89C668.78 584.84 585.84 667.78 483.89 667.78Z" fill="#4CAF50"/>
<path d="M483.552 583.109C471.776 583.109 462.219 573.552 462.219 561.776V405.333C462.219 393.557 471.776 384 483.552 384C495.328 384 504.885 393.557 504.885 405.333V561.776C504.885 573.552 495.328 583.109 483.552 583.109Z" fill="white"/>
<path d="M561.776 504.885H405.333C393.557 504.885 384 495.328 384 483.552C384 471.776 393.557 462.219 405.333 462.219H561.776C573.552 462.219 583.109 471.776 583.109 483.552C583.109 495.328 573.552 504.885 561.776 504.885Z" fill="white"/>
</svg>
