<svg width="683" height="683" viewBox="0 0 683 683" fill="none" xmlns="http://www.w3.org/2000/svg">
<g clip-path="url(#clip0_1_3)">
<path d="M455.109 64V274.203C441.458 276.766 428.089 280.745 415.573 285.865C330.526 318.865 270.224 401.349 270.224 497.776C270.224 522.526 274.203 546.703 281.885 568.891H64C28.8125 568.891 0 540.073 0 504.891V64C0 28.8125 28.8125 0 64 0H391.109C426.469 0 455.109 28.6458 455.109 64Z" fill="#ECEFF1"/>
<path d="M170.667 184.891C170.667 208.453 151.563 227.557 128 227.557C104.438 227.557 85.3334 208.453 85.3334 184.891C85.3334 161.323 104.438 142.224 128 142.224C151.563 142.224 170.667 161.323 170.667 184.891Z" fill="#FFC107"/>
<path d="M270.224 497.776C270.224 522.526 274.203 546.703 281.885 568.891H64C28.7292 568.891 0 540.161 0 504.891V410.74L64.2865 346.453C83.625 327.109 115.484 327.109 134.828 346.453L170.667 382.292L306.062 246.896C325.406 227.557 357.26 227.557 376.604 246.896L415.573 285.865C330.526 318.865 270.224 401.349 270.224 497.776Z" fill="#4CAF50"/>
<path d="M682.667 497.776C682.667 599.891 599.891 682.667 497.776 682.667C395.667 682.667 312.891 599.891 312.891 497.776C312.891 395.667 395.667 312.891 497.776 312.891C599.891 312.891 682.667 395.667 682.667 497.776Z" fill="#FFC107"/>
</g>
<defs>
<clipPath id="clip0_1_3">
<rect width="682.667" height="682.667" fill="white"/>
</clipPath>
</defs>
</svg>
