<svg width="683" height="683" viewBox="0 0 683 683" fill="none" xmlns="http://www.w3.org/2000/svg">
<g clip-path="url(#clip0_1_37)">
<path d="M455.109 64V274.203C441.458 276.766 428.089 280.745 415.573 285.865C330.526 318.865 270.224 401.349 270.224 497.776C270.224 522.526 274.203 546.703 281.885 568.891H64C28.8125 568.891 0 540.073 0 504.891V64C0 28.8125 28.8125 0 64 0H391.109C426.469 0 455.109 28.6458 455.109 64Z" fill="#ECEFF1"/>
<path d="M170.667 184.891C170.667 208.453 151.562 227.557 128 227.557C104.437 227.557 85.3333 208.453 85.3333 184.891C85.3333 161.323 104.437 142.224 128 142.224C151.562 142.224 170.667 161.323 170.667 184.891Z" fill="#FFC107"/>
<path d="M270.224 497.776C270.224 522.526 274.203 546.703 281.885 568.891H64C28.7292 568.891 0 540.161 0 504.891V410.74L64.2865 346.453C83.625 327.109 115.484 327.109 134.828 346.453L170.667 382.292L306.062 246.896C325.406 227.557 357.26 227.557 376.604 246.896L415.573 285.865C330.526 318.865 270.224 401.349 270.224 497.776Z" fill="#4CAF50"/>
<path d="M682.776 497.776C682.776 599.891 600 682.667 497.885 682.667C395.776 682.667 313 599.891 313 497.776C313 395.667 395.776 312.891 497.885 312.891C600 312.891 682.776 395.667 682.776 497.776Z" fill="#F44336"/>
<path d="M575.776 519.109H419.333C407.557 519.109 398 509.552 398 497.776C398 486 407.557 476.443 419.333 476.443H575.776C587.552 476.443 597.109 486 597.109 497.776C597.109 509.552 587.552 519.109 575.776 519.109Z" fill="white"/>
</g>
<defs>
<clipPath id="clip0_1_37">
<rect width="682.667" height="682.667" fill="white"/>
</clipPath>
</defs>
</svg>
