<svg width="683" height="683" viewBox="0 0 683 683" fill="none" xmlns="http://www.w3.org/2000/svg">
<g clip-path="url(#clip0_1_29)">
<path d="M455.109 64V274.203C441.458 276.766 428.089 280.745 415.573 285.865C330.526 318.865 270.224 401.349 270.224 497.776C270.224 522.526 274.203 546.703 281.885 568.891H64C28.8125 568.891 0 540.073 0 504.891V64C0 28.8125 28.8125 0 64 0H391.109C426.469 0 455.109 28.6458 455.109 64Z" fill="#ECEFF1"/>
<path d="M170.667 184.891C170.667 208.453 151.562 227.557 128 227.557C104.437 227.557 85.3333 208.453 85.3333 184.891C85.3333 161.323 104.437 142.224 128 142.224C151.562 142.224 170.667 161.323 170.667 184.891Z" fill="#FFC107"/>
<path d="M270.224 497.776C270.224 522.526 274.203 546.703 281.885 568.891H64C28.7292 568.891 0 540.161 0 504.891V410.74L64.2865 346.453C83.625 327.109 115.484 327.109 134.828 346.453L170.667 382.292L306.062 246.896C325.406 227.557 357.26 227.557 376.604 246.896L415.573 285.865C330.526 318.865 270.224 401.349 270.224 497.776Z" fill="#4CAF50"/>
<path d="M682.667 497.776C682.667 599.891 599.891 682.667 497.776 682.667C395.667 682.667 312.891 599.891 312.891 497.776C312.891 395.667 395.667 312.891 497.776 312.891C599.891 312.891 682.667 395.667 682.667 497.776Z" fill="#4CAF50"/>
<path d="M497.552 597.109C485.776 597.109 476.219 587.552 476.219 575.776V419.333C476.219 407.557 485.776 398 497.552 398C509.328 398 518.885 407.557 518.885 419.333V575.776C518.885 587.552 509.328 597.109 497.552 597.109Z" fill="white"/>
<path d="M575.776 518.885H419.333C407.557 518.885 398 509.328 398 497.552C398 485.776 407.557 476.219 419.333 476.219H575.776C587.552 476.219 597.109 485.776 597.109 497.552C597.109 509.328 587.552 518.885 575.776 518.885Z" fill="white"/>
</g>
<defs>
<clipPath id="clip0_1_29">
<rect width="682.667" height="682.667" fill="white"/>
</clipPath>
</defs>
</svg>
