<svg width="683" height="683" viewBox="0 0 683 683" fill="none" xmlns="http://www.w3.org/2000/svg">
<mask id="mask0_1_61" style="mask-type:luminance" maskUnits="userSpaceOnUse" x="0" y="0" width="683" height="683">
<path d="M682.667 0H0V682.667H682.667V0Z" fill="white"/>
</mask>
<g mask="url(#mask0_1_61)">
<path d="M384 533.333C384 494.964 407.526 461.995 440.891 448.057V448C440.891 426.099 446.292 406.214 455.109 388.865V64C455.109 28.6458 426.469 0 391.109 0H64C28.8125 0 0 28.8125 0 64V504.891C0 540.073 28.8125 568.891 64 568.891H384V533.333Z" fill="#ECEFF1"/>
<path d="M170.667 184.891C170.667 208.453 151.562 227.557 128 227.557C104.437 227.557 85.3333 208.453 85.3333 184.891C85.3333 161.323 104.437 142.224 128 142.224C151.562 142.224 170.667 161.323 170.667 184.891Z" fill="#FFC107"/>
<path d="M455.109 325.406V387.698C455.109 387.698 455.109 440.602 455.109 474.5C455.109 496.955 455.109 504.891 455.109 504.891C455.109 568.891 393.5 568.891 393.5 568.891H64C28.7292 568.891 0 540.162 0 504.891V410.74L64.2865 346.453C83.625 327.109 115.484 327.109 134.828 346.453L170.667 382.292L306.062 246.896C325.406 227.557 357.26 227.557 376.604 246.896L455.109 325.406Z" fill="#4CAF50"/>
</g>
</svg>
