<svg width="683" height="706" viewBox="0 0 683 706" fill="none" xmlns="http://www.w3.org/2000/svg">
<path d="M369.204 236.113C382.312 249.662 403.077 249.627 416.19 236.072L463.059 187.626C475.879 174.373 475.917 152.309 463.098 139.057C449.99 125.508 429.225 125.543 416.112 139.098L369.243 187.545C356.423 200.797 356.385 222.862 369.204 236.113ZM322.258 284.641C283.366 244.439 283.693 178.921 322.297 139.017L369.165 90.5702C408.079 50.3462 470.881 50.0479 510.045 90.5298C548.937 130.731 548.609 196.25 510.005 236.153L463.137 284.6C424.223 324.824 361.421 325.122 322.258 284.641Z" fill="#FAC14C"/>
<path d="M134.47 478.751C147.578 492.3 168.343 492.266 181.456 478.711L228.325 430.264C241.145 417.012 241.184 394.947 228.364 381.696C215.256 368.147 194.491 368.181 181.378 381.736L134.51 430.183C121.689 443.435 121.651 465.5 134.47 478.751ZM87.5237 527.279C48.6317 487.077 48.959 421.559 87.5628 381.656L134.431 333.209C173.345 292.985 236.148 292.686 275.311 333.168C314.203 373.37 313.875 438.888 275.272 478.792L228.403 527.239C189.489 567.463 126.687 567.761 87.5237 527.279Z" fill="#FAC14C"/>
<path fill-rule="evenodd" clip-rule="evenodd" d="M392.678 211.849C379.714 198.449 358.57 198.578 345.801 211.777L204.821 357.504C191.895 370.865 191.836 392.466 204.891 405.96C217.855 419.36 238.998 419.231 251.768 406.032L392.747 260.305C405.673 246.944 405.732 225.343 392.678 211.849Z" fill="#F8A700"/>
<path d="M675.776 499.885C675.776 602 593 684.776 490.885 684.776C388.776 684.776 306 602 306 499.885C306 397.776 388.776 315 490.885 315C593 315 675.776 397.776 675.776 499.885Z" fill="#4CAF50"/>
<path d="M490.552 599.109C478.776 599.109 469.219 589.552 469.219 577.776V421.333C469.219 409.557 478.776 400 490.552 400C502.328 400 511.885 409.557 511.885 421.333V577.776C511.885 589.552 502.328 599.109 490.552 599.109Z" fill="white"/>
<path d="M568.776 520.885H412.333C400.557 520.885 391 511.328 391 499.552C391 487.776 400.557 478.219 412.333 478.219H568.776C580.552 478.219 590.109 487.776 590.109 499.552C590.109 511.328 580.552 520.885 568.776 520.885Z" fill="white"/>
</svg>
