<svg width="683" height="706" viewBox="0 0 683 706" fill="none" xmlns="http://www.w3.org/2000/svg">
<path d="M369.204 236.113C382.312 249.662 403.077 249.627 416.19 236.072L463.059 187.626C475.879 174.373 475.917 152.309 463.098 139.057C449.99 125.508 429.225 125.543 416.112 139.098L369.243 187.545C356.423 200.797 356.385 222.862 369.204 236.113ZM322.257 284.641C283.365 244.439 283.693 178.921 322.297 139.017L369.165 90.5702C408.079 50.3462 470.881 50.0479 510.044 90.5298C548.936 130.731 548.609 196.25 510.005 236.153L463.137 284.6C424.223 324.824 361.421 325.122 322.257 284.641Z" fill="#FAC14C"/>
<path d="M134.47 478.751C147.578 492.3 168.343 492.266 181.456 478.711L228.325 430.264C241.145 417.012 241.183 394.947 228.364 381.696C215.256 368.147 194.491 368.181 181.378 381.736L134.509 430.183C121.689 443.435 121.651 465.5 134.47 478.751ZM87.5236 527.279C48.6316 487.077 48.959 421.559 87.5627 381.656L134.431 333.209C173.345 292.985 236.148 292.686 275.311 333.168C314.203 373.37 313.875 438.888 275.272 478.792L228.403 527.239C189.489 567.463 126.687 567.761 87.5236 527.279Z" fill="#FAC14C"/>
<path fill-rule="evenodd" clip-rule="evenodd" d="M392.678 211.849C379.714 198.449 358.57 198.578 345.801 211.777L204.821 357.504C191.895 370.865 191.836 392.466 204.891 405.96C217.855 419.36 238.998 419.231 251.768 406.032L392.747 260.305C405.673 246.944 405.732 225.343 392.678 211.849Z" fill="#F8A700"/>
<path d="M675.776 499.885C675.776 602 593 684.776 490.885 684.776C388.776 684.776 306 602 306 499.885C306 397.776 388.776 315 490.885 315C593 315 675.776 397.776 675.776 499.885Z" fill="#F44336"/>
<path d="M568.776 521.667H412.333C400.557 521.667 391 512.109 391 500.333C391 488.557 400.557 479 412.333 479H568.776C580.552 479 590.109 488.557 590.109 500.333C590.109 512.109 580.552 521.667 568.776 521.667Z" fill="white"/>
</svg>
