<?xml version="1.0" standalone="no"?><!DOCTYPE svg PUBLIC "-//W3C//DTD SVG 1.1//EN" "http://www.w3.org/Graphics/SVG/1.1/DTD/svg11.dtd"><svg t="1642577203083" class="icon" viewBox="0 0 3264 1024" version="1.1" xmlns="http://www.w3.org/2000/svg" p-id="11002" xmlns:xlink="http://www.w3.org/1999/xlink" width="637.5" height="200"><defs><style type="text/css">@font-face { font-family: element-icons; src: url("chrome-extension://moombeodfomdpjnpocobemoiaemednkg/fonts/element-icons.woff") format("woff"), url("chrome-extension://moombeodfomdpjnpocobemoiaemednkg/fonts/element-icons.ttf ") format("truetype"); }
</style></defs><path d="M1466.624 819.328a102.336 102.336 0 1 0 0 204.672 102.336 102.336 0 0 0 0-204.672zM1909.568 0h-204.672v1023.456h533.376l78.592-204.672h-407.296V0z m970.688 41.664c-21.664-55.52-100.16-55.52-121.824 0l-382.816 981.792h220.672l223.04-572.096 223.072 572.096h220.672L2880.256 41.664z m-1856.832 981.792h204.704V0h-204.704v1023.456zM818.752 0H0v204.672h737.472L818.752 0zM547.296 341.152H0v204.704h547.296a136.64 136.64 0 0 1 136.48 136.448 136.64 136.64 0 0 1-136.48 136.48H80.256L0 1023.456h547.296c188.16 0 341.184-153.024 341.184-341.12 0-188.16-153.024-341.184-341.184-341.184z" p-id="11003" fill="#1890ff"></path></svg>