<svg xmlns="http://www.w3.org/2000/svg" width="101.5" height="83.936" viewBox="0 0 101.5 83.936">
  <g id="customer-service" transform="translate(-5.232 -12.114)">
    <path id="path2" d="M57.289,12.136A39.931,39.931,0,0,0,17.6,40.9a6.483,6.483,0,0,0-2.573.237,13.161,13.161,0,0,0-7.888,6.886A23.3,23.3,0,0,0,5.524,61.11a19.931,19.931,0,0,0,5.324,11.284,8.965,8.965,0,0,0,8.322,2.674c4.275-.912,6.395-1.6,5.8-5.578l-2.9-19.307a33.964,33.964,0,0,1,67.823.046L87.865,63.734A33.932,33.932,0,0,1,59.172,85.888H50.537a4.013,4.013,0,0,0-4.022,4.02v2.121a4.014,4.014,0,0,0,4.022,4.021H61.424a4.007,4.007,0,0,0,4.014-4.021V90.92A40.081,40.081,0,0,0,89.308,74.143l3.488.925c2.838.736,5.763-.2,8.322-2.674a19.943,19.943,0,0,0,5.324-11.284,23.452,23.452,0,0,0-1.616-13.088c-1.642-3.557-4.089-5.815-6.913-6.626a14.8,14.8,0,0,0-3.568-.5A39.927,39.927,0,0,0,57.289,12.136Z" transform="translate(0)" fill="#fff" fill-rule="evenodd"/>
    <path id="path4" d="M65.029,44.2A5.218,5.218,0,1,1,59.8,49.417,5.222,5.222,0,0,1,65.029,44.2Zm-14.051,0a5.218,5.218,0,1,1-5.219,5.218A5.214,5.214,0,0,1,50.979,44.2Zm-14.045,0a5.218,5.218,0,1,1-5.218,5.218A5.218,5.218,0,0,1,36.933,44.2ZM50.979,21.787a27.325,27.325,0,0,0-27.631,27.63,27.486,27.486,0,0,0,7.5,19.1L29.2,75.91c-.544,2.432,1.143,4.068,3.329,2.851l7.218-4.026a28.12,28.12,0,0,0,11.234,2.312,27.315,27.315,0,0,0,27.629-27.63,27.319,27.319,0,0,0-27.629-27.63Z" transform="translate(5.003 2.671)" fill="#fff" fill-rule="evenodd"/>
  </g>
</svg>
