<svg id="multiple" xmlns="http://www.w3.org/2000/svg" width="77.5" height="77.5" viewBox="0 0 77.5 77.5">
  <path id="Path_20" data-name="Path 20" d="M46.823,68.9H8.073A8.083,8.083,0,0,1,0,60.823V22.073A8.083,8.083,0,0,1,8.073,14h38.75A8.083,8.083,0,0,1,54.9,22.073v38.75A8.083,8.083,0,0,1,46.823,68.9ZM8.073,17.229a4.844,4.844,0,0,0-4.844,4.844v38.75a4.844,4.844,0,0,0,4.844,4.844h38.75a4.844,4.844,0,0,0,4.844-4.844V22.073a4.844,4.844,0,0,0-4.844-4.844Z" transform="translate(0 8.604)" fill="#fff"/>
  <path id="Path_21" data-name="Path 21" d="M53.823,61.9H48.979a1.615,1.615,0,0,1,0-3.229h4.844a4.844,4.844,0,0,0,4.844-4.844V15.073a4.844,4.844,0,0,0-4.844-4.844H15.073a4.844,4.844,0,0,0-4.844,4.844v4.844a1.615,1.615,0,1,1-3.229,0V15.073A8.083,8.083,0,0,1,15.073,7h38.75A8.083,8.083,0,0,1,61.9,15.073v38.75A8.083,8.083,0,0,1,53.823,61.9Z" transform="translate(4.302 4.302)" fill="#fff"/>
  <path id="Path_22" data-name="Path 22" d="M60.823,54.9H55.979a1.615,1.615,0,1,1,0-3.229h4.844a4.844,4.844,0,0,0,4.844-4.844V8.073a4.844,4.844,0,0,0-4.844-4.844H22.073a4.844,4.844,0,0,0-4.844,4.844v4.844a1.615,1.615,0,0,1-3.229,0V8.073A8.083,8.083,0,0,1,22.073,0h38.75A8.083,8.083,0,0,1,68.9,8.073v38.75A8.083,8.083,0,0,1,60.823,54.9Z" transform="translate(8.604)" fill="#fff"/>
</svg>
