<svg xmlns="http://www.w3.org/2000/svg" width="72.268" height="79.718" viewBox="0 0 72.268 79.718">
  <g id="new-features" transform="translate(-29.77 -6)">
    <path id="Path_10" data-name="Path 10" d="M88.66,457.121l2.983-2.027a10.2,10.2,0,0,1,6.5-1.736l23.789,1.8a6.077,6.077,0,0,0,3.922-1.032l8.2-5.575" transform="translate(-48.09 -373.486)" fill="none" stroke="#fff" stroke-linecap="round" stroke-linejoin="round" stroke-width="3"/>
    <path id="Path_11" data-name="Path 11" d="M336.883,365.052l9.237-6.279a2.053,2.053,0,0,0,.544-2.852A5.514,5.514,0,0,0,339,354.459l-16.054,10.913a.027.027,0,0,1-.011.008" transform="translate(-246.481 -293.001)" fill="none" stroke="#fff" stroke-linecap="round" stroke-linejoin="round" stroke-width="3"/>
    <path id="Path_12" data-name="Path 12" d="M197.98,375.769l16.3,2.4a3.944,3.944,0,0,0,2.839-.668l.018-.012a3.96,3.96,0,0,0-1.523-7.125l-13.044-2.544" transform="translate(-140.664 -305.123)" fill="none" stroke="#fff" stroke-linecap="round" stroke-linejoin="round" stroke-width="3"/>
    <path id="Path_13" data-name="Path 13" d="M31.87,366.131l11.5-8.625a12.223,12.223,0,0,1,9.678-2.22l3.6.7" transform="translate(0 -294.318)" fill="none" stroke="#fff" stroke-linecap="round" stroke-linejoin="round" stroke-width="3"/>
    <path id="Path_14" data-name="Path 14" d="M114.128,17.835l-4.05,2.129.773-4.51-3.277-3.194L112.1,11.6l2.025-4.1,2.025,4.1,4.528.658L117.4,15.455l.773,4.51Z" transform="translate(-64.108)" fill="none" stroke="#fff" stroke-linecap="round" stroke-linejoin="round" stroke-width="3"/>
    <path id="Path_15" data-name="Path 15" d="M114.128,127.051l-4.05,2.129.773-4.51-3.277-3.194,4.528-.658,2.025-4.1,2.025,4.1,4.528.658-3.276,3.194.773,4.51Z" transform="translate(-64.108 -92.485)" fill="none" stroke="#fff" stroke-linecap="round" stroke-linejoin="round" stroke-width="3"/>
    <path id="Path_16" data-name="Path 16" d="M114.128,236.266l-4.05,2.129.773-4.51-3.277-3.194,4.528-.658,2.025-4.1,2.025,4.1,4.528.658-3.276,3.194.773,4.51Z" transform="translate(-64.108 -184.97)" fill="none" stroke="#fff" stroke-linecap="round" stroke-linejoin="round" stroke-width="3"/>
    <path id="Path_17" data-name="Path 17" d="M243.408,39.391h21.186a1.861,1.861,0,0,0,1.86-1.86V32.3a1.859,1.859,0,0,0-1.86-1.858H233.078A1.858,1.858,0,0,0,231.22,32.3v5.233a1.859,1.859,0,0,0,1.858,1.86h4.968" transform="translate(-168.812 -19.426)" fill="none" stroke="#fff" stroke-linecap="round" stroke-linejoin="round" stroke-width="3"/>
    <path id="Path_18" data-name="Path 18" d="M264.593,148.6H233.078a1.859,1.859,0,0,1-1.859-1.859v-5.233a1.859,1.859,0,0,1,1.859-1.859h31.515a1.859,1.859,0,0,1,1.859,1.859v5.233A1.859,1.859,0,0,1,264.593,148.6Z" transform="translate(-168.811 -111.909)" fill="none" stroke="#fff" stroke-linecap="round" stroke-linejoin="round" stroke-width="3"/>
    <path id="Path_19" data-name="Path 19" d="M256.684,248.87h7.909a1.859,1.859,0,0,1,1.86,1.858v5.233a1.86,1.86,0,0,1-1.86,1.86H233.078a1.858,1.858,0,0,1-1.858-1.86v-5.233a1.858,1.858,0,0,1,1.858-1.858h18.245" transform="translate(-168.812 -204.395)" fill="none" stroke="#fff" stroke-linecap="round" stroke-linejoin="round" stroke-width="3"/>
  </g>
</svg>
