<svg xmlns="http://www.w3.org/2000/svg" width="52.945" height="73.77" viewBox="0 0 52.945 73.77">
  <g id="tap" transform="translate(-72.267)">
    <g id="Group_21" data-name="Group 21" transform="translate(72.267)">
      <path id="Path_1" data-name="Path 1" d="M118.729,30.257a6.451,6.451,0,0,0-2.389.456A6.485,6.485,0,0,0,107.7,26.39a6.5,6.5,0,0,0-2.071-3.243A15.129,15.129,0,1,0,86.311,28.8V41.172l-1.136-1.135a7.564,7.564,0,1,0-10.7,10.7L86.654,62.908l4.159,9.562a2.161,2.161,0,0,0,1.982,1.3h25.943a2.161,2.161,0,0,0,2.051-1.479,88.511,88.511,0,0,0,4.424-27.6V36.74A6.491,6.491,0,0,0,118.729,30.257ZM86.311,15.128v8.645a10.806,10.806,0,1,1,15.128-2.162,6.456,6.456,0,0,0-2.161.37V15.128a6.484,6.484,0,0,0-12.967,0ZM120.89,44.687a84.4,84.4,0,0,1-3.727,24.76H94.211l-3.757-8.639A2.159,2.159,0,0,0,90,60.142L77.535,47.677a3.241,3.241,0,0,1,4.584-4.584l4.825,4.825a2.161,2.161,0,0,0,3.69-1.528V15.128a2.161,2.161,0,1,1,4.322,0V36.74a2.161,2.161,0,1,0,4.322,0V28.1a2.161,2.161,0,0,1,4.322,0V36.74a2.161,2.161,0,0,0,4.322,0V32.418a2.161,2.161,0,1,1,4.322,0V36.74a2.161,2.161,0,0,0,4.322,0,2.161,2.161,0,0,1,4.322,0v7.946Z" transform="translate(-72.267)" fill="#fff"/>
    </g>
  </g>
</svg>
