<svg xmlns="http://www.w3.org/2000/svg" width="84.66" height="78.102" viewBox="0 0 84.66 78.102">
  <g id="web-plugin" transform="translate(0 -19.674)">
    <path id="Path_9" data-name="Path 9" d="M10,28.007A1.667,1.667,0,1,1,8.333,26.34,1.666,1.666,0,0,1,10,28.007Zm7.5,0a1.667,1.667,0,1,1-1.667-1.667A1.666,1.666,0,0,1,17.5,28.007Zm7.5,0a1.667,1.667,0,1,1-1.667-1.667A1.666,1.666,0,0,1,25,28.007ZM35.83,79A1.667,1.667,0,1,0,37.5,80.669,1.668,1.668,0,0,0,35.83,79Zm-2.5-37.664v24.5A1.667,1.667,0,0,1,31.664,67.5H8.333a1.667,1.667,0,0,1-1.667-1.667v-24.5a1.667,1.667,0,0,1,1.667-1.667H31.664A1.667,1.667,0,0,1,33.33,41.339ZM30,43.005H10V64.17H30Zm8.333,1.167H55.5a1.667,1.667,0,0,0,0-3.333H38.33a1.667,1.667,0,0,0,0,3.333Zm0,6.666H52.162a1.667,1.667,0,1,0,0-3.333H38.33a1.667,1.667,0,1,0,0,3.333Zm-30,20a1.667,1.667,0,1,0,0,3.333H20a1.667,1.667,0,1,0,0-3.333Zm67.3-3.173a10.63,10.63,0,0,0,0,7.013,1.678,1.678,0,0,0,2.328.953l1.89-.88a3.324,3.324,0,0,1,4.81,2.988v7.1a3.333,3.333,0,0,1-3.333,3.333H71.909l.925,1.978a4.972,4.972,0,0,1-2.886,6.843,13.949,13.949,0,0,1-9.24,0,4.99,4.99,0,0,1-2.887-6.841l.925-1.979H49.329A3.337,3.337,0,0,1,46,84.835v-2.5H43.33a1.667,1.667,0,0,1,0-3.333H46V77.738a3.325,3.325,0,0,1,4.809-2.989l1.89.88a1.678,1.678,0,0,0,2.328-.952,10.638,10.638,0,0,0,0-7.014,1.692,1.692,0,0,0-2.282-.974l-2,.934a3.332,3.332,0,0,1-4.74-3.1V57.5a3.333,3.333,0,0,1,3.333-3.333h9.417l-.925-1.979a5.008,5.008,0,0,1,2.887-6.842,13.8,13.8,0,0,1,7.62-.462V36.339H3.333V79H28.271a1.707,1.707,0,0,1,1.722,1.551,1.669,1.669,0,0,1-1.663,1.782H1.666A1.666,1.666,0,0,1,0,80.669v-56a5,5,0,0,1,5-5H66.661a5,5,0,0,1,5,5V46.39a4.91,4.91,0,0,1,1.173,5.8l-.925,1.978h9.418A3.333,3.333,0,0,1,84.66,57.5v7.021a3.333,3.333,0,0,1-4.74,3.1l-2-.935a1.693,1.693,0,0,0-2.283.975Zm-7.3-34.657V24.674a1.668,1.668,0,0,0-1.667-1.667H5a1.668,1.668,0,0,0-1.667,1.667v8.333Zm4.161,33.546a5.015,5.015,0,0,1,6.833-2.885l2,.935V57.5H71.909a3.334,3.334,0,0,1-3.018-4.745l.925-1.98a1.673,1.673,0,0,0-.975-2.285,10.735,10.735,0,0,0-7.027,0,1.669,1.669,0,0,0-.974,2.286l.925,1.979A3.335,3.335,0,0,1,58.746,57.5H49.329v7.1l2-.934a5.013,5.013,0,0,1,6.832,2.884,13.815,13.815,0,0,1,0,9.237,5.011,5.011,0,0,1-6.832,2.884l-2-.934v7.1h9.417a3.333,3.333,0,0,1,3.019,4.745l-.925,1.979a1.66,1.66,0,0,0,.974,2.286,10.764,10.764,0,0,0,7.027,0,1.664,1.664,0,0,0,.975-2.285l-.925-1.98a3.332,3.332,0,0,1,3.018-4.745h9.418v-7.1l-2,.935a5.013,5.013,0,0,1-6.833-2.885A13.822,13.822,0,0,1,72.489,66.552Z" fill="#fff"/>
  </g>
</svg>
