<svg xmlns="http://www.w3.org/2000/svg" width="12" height="11.998" viewBox="0 0 12 11.998">
  <g id="noun-expand-1075469" transform="translate(-69.75 0.246)" opacity="0.8">
    <path id="Path_170298" data-name="Path 170298" d="M-5636.934-1288a.483.483,0,0,1-.483-.483v-.6a.5.5,0,0,1,.483-.483h2.368v-2.367a.482.482,0,0,1,.482-.482h.6a.5.5,0,0,1,.482.482v3.422a.483.483,0,0,1-.221.405.481.481,0,0,1-.291.107Zm-7.583,0a.5.5,0,0,1-.482-.483v-3.452a.5.5,0,0,1,.483-.482h.6a.482.482,0,0,1,.483.482v2.367h2.338a.5.5,0,0,1,.483.483v.6a.484.484,0,0,1-.483.483Zm10.432-7.611a.484.484,0,0,1-.481-.483v-2.337h-2.368a.5.5,0,0,1-.483-.483v-.6a.483.483,0,0,1,.483-.482h3.452a.484.484,0,0,1,.482.483v3.422a.5.5,0,0,1-.482.483Zm-10.432,0a.5.5,0,0,1-.483-.483v-3.442a.08.08,0,0,1,0-.015h0a.485.485,0,0,1,.463-.444h3.44a.484.484,0,0,1,.483.483v.6a.5.5,0,0,1-.483.483h-2.338v2.338a.483.483,0,0,1-.482.482Z" transform="translate(5714.75 1299.75)" fill="#323a45"/>
  </g>
</svg>
