<svg xmlns="http://www.w3.org/2000/svg" width="20" height="20" viewBox="0 0 20 20">
  <g id="Layer_2" data-name="Layer 2" transform="translate(-0.017 0.084)">
    <g id="Layer_1" data-name="Layer 1" transform="translate(0.017 -0.084)">
      <path id="Path_171728" data-name="Path 171728" d="M14.242,50.55a10.146,10.146,0,0,0-6.5,6.5.473.473,0,0,1-.9,0,10.083,10.083,0,0,0-2.468-4.03A10.1,10.1,0,0,0,.346,50.553a.472.472,0,0,1,0-.9,10.087,10.087,0,0,0,4.028-2.468,10.064,10.064,0,0,0,2.468-4.03.473.473,0,0,1,.9,0,10.112,10.112,0,0,0,6.5,6.5.473.473,0,0,1,0,.9Z" transform="translate(-0.017 -37.377)" fill="#32a958"/>
      <path id="Path_171730" data-name="Path 171730" d="M60.241,50.525a10.146,10.146,0,0,0-6.5,6.5.463.463,0,0,1-.411.325c0-.036-.011-14.41,0-14.55a.463.463,0,0,1,.411.324,10.112,10.112,0,0,0,6.5,6.5.473.473,0,0,1,0,.9Z" transform="translate(-46.061 -37.351)" fill="#fff" opacity="0.2"/>
      <g id="Group_106109" data-name="Group 106109" transform="translate(11.373 0)">
        <path id="Path_171729" data-name="Path 171729" d="M86.354,4.5a6,6,0,0,1,3.839,3.839.274.274,0,0,0,.531,0A6.009,6.009,0,0,1,94.562,4.5a.274.274,0,0,0,0-.532A5.948,5.948,0,0,1,92.182,2.5,5.969,5.969,0,0,1,90.73.121a.274.274,0,0,0-.531,0A6,6,0,0,1,88.738,2.5a5.952,5.952,0,0,1-2.384,1.462.274.274,0,0,0,0,.532Z" transform="translate(-86.143 0.084)" fill="#abacac"/>
        <path id="Path_171731" data-name="Path 171731" d="M117.811,4.57a6,6,0,0,1,3.839,3.839.274.274,0,0,0,.265.193V0a.274.274,0,0,0-.265.193,6,6,0,0,1-1.462,2.383A5.952,5.952,0,0,1,117.8,4.038a.274.274,0,0,0,.007.532Z" transform="translate(-117.6 0.012)" fill="rgba(0,0,0,0.2)"/>
      </g>
    </g>
  </g>
</svg>
