<svg xmlns="http://www.w3.org/2000/svg" width="13.999" height="14" viewBox="0 0 13.999 14">
  <g id="Group_106241" data-name="Group 106241" transform="translate(-8709.999 -2828)">
    <path id="Path_171729" data-name="Path 171729" d="M86.328,3.924a5.247,5.247,0,0,1,3.359,3.359.24.24,0,0,0,.464,0A5.258,5.258,0,0,1,93.51,3.924a.24.24,0,0,0,0-.465A5.2,5.2,0,0,1,91.427,2.18,5.223,5.223,0,0,1,90.157.095a.24.24,0,0,0-.464,0A5.247,5.247,0,0,1,88.414,2.18a5.208,5.208,0,0,1-2.086,1.279.24.24,0,0,0,0,.465Z" transform="translate(8630.307 2828.084)" fill="#abacac"/>
    <path id="Path_171731" data-name="Path 171731" d="M117.785,4a5.247,5.247,0,0,1,3.359,3.359.24.24,0,0,0,.232.169V0a.24.24,0,0,0-.232.169,5.247,5.247,0,0,1-1.279,2.085,5.207,5.207,0,0,1-2.086,1.279.24.24,0,0,0,.006.465Z" transform="translate(8598.851 2828.01)" fill="rgba(0,0,0,0.2)"/>
    <path id="Path_171740" data-name="Path 171740" d="M86.392,5.348A7.111,7.111,0,0,1,90.945,9.9a.325.325,0,0,0,.629,0,7.126,7.126,0,0,1,4.553-4.552.325.325,0,0,0,0-.631A7.054,7.054,0,0,1,93.3,2.984,7.077,7.077,0,0,1,91.583.159a.325.325,0,0,0-.629,0A7.111,7.111,0,0,1,89.22,2.984a7.059,7.059,0,0,1-2.828,1.733.325.325,0,0,0,0,.631Z" transform="translate(8623.855 2831.857)" fill="#abacac"/>
    <path id="Path_171741" data-name="Path 171741" d="M117.85,5.418A7.111,7.111,0,0,1,122.4,9.97a.325.325,0,0,0,.314.229V0a.325.325,0,0,0-.314.229,7.11,7.11,0,0,1-1.733,2.825,7.059,7.059,0,0,1-2.828,1.733.325.325,0,0,0,.008.631Z" transform="translate(8592.399 2831.786)" fill="rgba(0,0,0,0.2)"/>
  </g>
</svg>
