<svg xmlns="http://www.w3.org/2000/svg" viewBox="0 0 148.94 148.93"><defs><style>.cls-1{fill:#32a958;}.cls-2{fill:#abacac;}.cls-3,.cls-4{fill:#fff;}.cls-3{opacity:0.2;}</style></defs><g id="Layer_2" data-name="Layer 2"><g id="Layer_1-2" data-name="Layer 1"><path class="cls-1" d="M103.77,99.14a74,74,0,0,0-47.41,47.41,3.45,3.45,0,0,1-6.56,0,73.54,73.54,0,0,0-18-29.39,73.66,73.66,0,0,0-29.38-18,3.44,3.44,0,0,1,0-6.56,73.57,73.57,0,0,0,29.38-18,73.4,73.4,0,0,0,18-29.39,3.45,3.45,0,0,1,6.56,0,73.4,73.4,0,0,0,18,29.39,73.37,73.37,0,0,0,29.38,18A3.45,3.45,0,0,1,103.77,99.14Z"/><path class="cls-2" d="M147.53,33.33a43.74,43.74,0,0,0-28,28,2,2,0,0,1-3.87,0,43.83,43.83,0,0,0-28-28,2,2,0,0,1,0-3.88,43.38,43.38,0,0,0,17.36-10.66A43.54,43.54,0,0,0,115.61,1.41a2,2,0,0,1,3.87,0,43.74,43.74,0,0,0,10.66,17.38,43.41,43.41,0,0,0,17.39,10.66A2,2,0,0,1,147.53,33.33Z"/><path class="cls-3" d="M103.77,99.14a74,74,0,0,0-47.41,47.41,3.38,3.38,0,0,1-3,2.37c0-.26-.08-105.1,0-106.12a3.38,3.38,0,0,1,3,2.36,73.4,73.4,0,0,0,18,29.39,73.37,73.37,0,0,0,29.38,18A3.45,3.45,0,0,1,103.77,99.14Z"/><path class="cls-4" d="M147.53,33.33a43.74,43.74,0,0,0-28,28,2,2,0,0,1-1.93,1.41V0a2,2,0,0,1,1.93,1.41,43.74,43.74,0,0,0,10.66,17.38,43.41,43.41,0,0,0,17.39,10.66A2,2,0,0,1,147.53,33.33Z"/></g></g></svg>