<?xml version="1.0" encoding="utf-8"?>
<!-- Generator: Adobe Illustrator 25.2.1, SVG Export Plug-In . SVG Version: 6.00 Build 0)  -->
<svg version="1.1" id="Layer_1" xmlns="http://www.w3.org/2000/svg" xmlns:xlink="http://www.w3.org/1999/xlink" x="0px" y="0px"
	 viewBox="0 0 620.9 143.7" style="enable-background:new 0 0 620.9 143.7;" xml:space="preserve">
<style type="text/css">
	.st0{fill:#010101;}
	.st1{fill:#FFFFFF;}
	.st2{fill:#83A5B1;}
</style>
<path class="st0" d="M110.4,62.7h13.3l11.1,42.3h0.3l10.6-42.3h12.6l10.2,42.3h0.2l11.5-42.3h12.7l-17.8,56.7h-12.8l-10.5-42.1h-0.2
	l-10.4,42.1H128L110.4,62.7z"/>
<path class="st0" d="M201.7,62.7h11.8v7.7h0.2c1.6-3.1,4.2-5.6,7.4-7.1c3.2-1.4,6.7-2.2,10.2-2.1c4-0.1,8,0.7,11.7,2.4
	c3.2,1.5,6.1,3.7,8.3,6.5s3.9,6.1,4.9,9.6c1.1,3.8,1.7,7.8,1.6,11.7c0,3.7-0.5,7.5-1.5,11.1c-0.9,3.4-2.4,6.6-4.5,9.5
	c-4.3,5.9-11.2,9.2-18.5,9c-1.8,0-3.7-0.2-5.5-0.5s-3.6-0.9-5.3-1.6s-3.2-1.7-4.7-2.8c-1.4-1.1-2.6-2.5-3.6-4H214v28.3h-12.5
	L201.7,62.7z M245.4,91.1c0-2.5-0.3-5-1-7.5c-0.6-2.3-1.6-4.5-3-6.4c-1.3-1.8-3-3.4-4.9-4.5c-2.1-1.2-4.4-1.7-6.8-1.7
	c-5.3,0-9.2,1.8-11.9,5.5s-4,8.5-4,14.6c0,2.7,0.3,5.4,1,8c0.6,2.3,1.7,4.4,3.1,6.3c1.4,1.7,3.1,3.1,5,4.2c2.1,1.1,4.4,1.6,6.7,1.5
	c2.5,0.1,5-0.5,7.2-1.8c1.9-1.1,3.6-2.7,4.9-4.6c1.3-1.9,2.2-4.1,2.8-6.4C245,96,245.3,93.6,245.4,91.1z"/>
<path class="st0" d="M268.9,62.7h11.7v11h0.2c0.4-1.6,1.1-3.2,2.1-4.5c1.1-1.5,2.4-2.8,3.8-4c1.5-1.2,3.2-2.2,5-2.9s3.7-1.1,5.6-1.1
	c1,0,2,0,3,0.1l1.7,0.2v12.1c-0.9-0.1-1.8-0.3-2.7-0.4c-0.9-0.1-1.8-0.2-2.7-0.2c-2.1,0-4.1,0.4-6,1.3s-3.5,2.1-4.8,3.7
	c-1.5,1.8-2.6,3.9-3.3,6.1c-0.9,2.7-1.3,5.5-1.2,8.3v27h-12.5L268.9,62.7L268.9,62.7z"/>
<path class="st0" d="M315.9,94.3c0,2.2,0.3,4.3,0.9,6.4c0.6,2,1.5,3.8,2.8,5.4s2.9,2.8,4.7,3.7c2.1,1,4.5,1.4,6.8,1.4
	c3.1,0.2,6.2-0.7,8.8-2.4c2.4-1.8,4.1-4.2,5-7.1h11.9c-1.2,5.8-4.5,10.9-9.2,14.3c-2.3,1.7-4.9,2.9-7.6,3.7
	c-2.9,0.8-5.8,1.3-8.8,1.3c-4.1,0.1-8.1-0.7-11.8-2.2c-3.3-1.4-6.3-3.5-8.7-6.1c-2.4-2.7-4.3-5.9-5.4-9.4c-1.2-3.9-1.9-8-1.8-12.1
	c0-3.9,0.6-7.8,1.9-11.5c1.2-3.5,3.1-6.7,5.5-9.5c5-5.8,12.3-9.1,20-8.9c4.2-0.1,8.3,0.9,12,2.8c3.4,1.8,6.5,4.3,8.8,7.4
	c2.4,3.2,4.1,6.8,5.1,10.6c1.1,4,1.3,8.2,0.8,12.3L315.9,94.3z M345,86.1c-0.1-2-0.6-3.9-1.3-5.7c-0.6-1.8-1.6-3.4-2.9-4.8
	c-1.2-1.4-2.7-2.5-4.4-3.3c-1.8-0.9-3.7-1.3-5.7-1.3c-2.1,0-4.1,0.4-6,1.2c-1.7,0.7-3.3,1.8-4.6,3.2c-1.3,1.4-2.3,3-3.1,4.8
	c-0.8,1.9-1.2,3.9-1.3,5.9L345,86.1z"/>
<path class="st0" d="M367.6,62.7h11.8v7.9h0.3c0.9-1.4,2-2.6,3.1-3.8c1.1-1.2,2.3-2.2,3.7-3c1.5-0.8,3-1.5,4.7-1.9
	c2-0.5,4-0.7,6-0.7c3.3,0,6.6,0.8,9.6,2.3c2.9,1.5,5.2,4,6.3,7.1c2-2.8,4.5-5.1,7.4-6.9c3.2-1.8,6.8-2.7,10.4-2.5
	c6,0,10.7,1.5,14,4.4s5,7.8,5,14.7v39.1h-12.5V86.3c0-2.3-0.1-4.3-0.2-6.2c-0.1-1.7-0.5-3.3-1.3-4.8c-0.7-1.3-1.8-2.4-3.1-3.1
	c-1.8-0.8-3.7-1.2-5.7-1.1c-4.2,0-7.3,1.3-9.2,4c-1.9,2.7-2.9,6.4-2.9,11.1v33.2h-12.5V83c0-3.9-0.7-6.9-2.1-8.9s-4-3-7.8-3
	c-1.6,0-3.2,0.3-4.7,1s-2.9,1.6-4,2.8c-1.2,1.3-2.1,2.9-2.7,4.6c-0.7,2-1,4.1-1,6.2v33.7h-12.5L367.6,62.7L367.6,62.7z"/>
<path class="st0" d="M489.5,120.9c-4.1,0.1-8.3-0.7-12.1-2.2c-3.4-1.4-6.5-3.5-9-6.2s-4.4-5.9-5.6-9.4c-1.3-3.9-2-8-1.9-12
	c0-4.1,0.6-8.1,1.9-12c1.2-3.5,3.1-6.7,5.6-9.4c2.5-2.7,5.6-4.8,9-6.2c7.8-3,16.4-3,24.2,0c3.4,1.4,6.5,3.5,9,6.2
	c2.5,2.7,4.4,5.9,5.6,9.4c1.3,3.9,2,7.9,1.9,12c0,4.1-0.6,8.2-1.9,12.1c-1.2,3.5-3.1,6.7-5.6,9.4c-2.5,2.7-5.6,4.8-9,6.2
	C497.8,120.2,493.7,121,489.5,120.9z M489.5,111c2.5,0.1,5-0.5,7.2-1.8c2-1.1,3.7-2.7,5-4.6s2.3-4.1,2.9-6.4c1.2-4.8,1.2-9.8,0-14.5
	c-0.6-2.3-1.6-4.5-2.9-6.4s-3-3.4-5-4.6c-4.5-2.3-9.9-2.3-14.5,0c-2,1.1-3.7,2.7-5,4.6s-2.3,4.1-2.9,6.4c-1.2,4.8-1.2,9.8,0,14.5
	c0.6,2.3,1.6,4.5,2.9,6.4s3,3.5,5,4.6C484.5,110.5,487,111.1,489.5,111z"/>
<path class="st0" d="M523.4,62.7h9.4v-17h12.5v17h11.3V72h-11.3v30.3c0,1.1,0,2.3,0.2,3.4c0.1,0.8,0.3,1.7,0.8,2.4
	c0.4,0.7,1.1,1.2,1.8,1.5c1.1,0.4,2.2,0.5,3.3,0.5c0.9,0,1.8,0,2.6,0c0.9,0,1.8-0.2,2.6-0.4v9.7l-4.1,0.4c-1.3,0.1-2.7,0.2-4.1,0.2
	c-2.7,0.1-5.4-0.2-8-0.9c-1.8-0.5-3.4-1.4-4.7-2.7c-1.2-1.3-2-2.9-2.3-4.6c-0.4-2.1-0.7-4.1-0.7-6.2V72h-9.4v-9.3H523.4z"/>
<path class="st0" d="M575.9,94.3c0,2.2,0.3,4.3,0.9,6.4c0.6,2,1.5,3.8,2.8,5.4s2.9,2.8,4.7,3.7c2.1,1,4.5,1.4,6.8,1.4
	c3.1,0.2,6.2-0.7,8.8-2.4c2.4-1.8,4.1-4.2,5-7.1h11.8c-1.2,5.8-4.5,10.9-9.2,14.3c-2.3,1.7-4.9,2.9-7.6,3.7
	c-2.9,0.8-5.8,1.3-8.8,1.3c-4.1,0.1-8.1-0.7-11.8-2.2c-3.3-1.4-6.3-3.5-8.7-6.1c-2.4-2.7-4.3-5.9-5.4-9.4c-1.2-3.9-1.9-8-1.8-12.1
	c0-3.9,0.6-7.8,1.9-11.5c1.2-3.5,3.1-6.7,5.5-9.5c5-5.8,12.3-9.1,20-8.9c4.2-0.1,8.3,0.9,12,2.8c3.5,1.8,6.5,4.3,8.8,7.4
	c2.4,3.2,4.1,6.8,5.1,10.6c1.1,4,1.3,8.2,0.8,12.3L575.9,94.3z M605.1,86.1c-0.1-2-0.6-3.9-1.3-5.7c-0.7-1.7-1.6-3.4-2.8-4.8
	s-2.7-2.5-4.4-3.3c-1.8-0.9-3.8-1.3-5.8-1.3c-2.1,0-4.1,0.4-6,1.2c-1.7,0.7-3.3,1.8-4.6,3.2c-1.3,1.4-2.3,3-3.1,4.8
	c-0.8,1.9-1.2,3.9-1.3,5.9L605.1,86.1z"/>
<path class="st1" d="M55,2.2c0,0.1,0.1,0.1,0,0.2h-5.3V2.2H55z"/>
<path class="st0" d="M49.8,2.3h5.3c16.3,1.2,28.8,9,37.3,22.9c4.1,6.9,6.3,14.7,6.2,22.8c0.2,3.9-2.6,7.3-6.5,7.7
	c-3.7,0.5-7.1-1.9-7.9-5.6c-0.2-1.1-0.3-2.2-0.3-3.3C83,29.4,68.2,16,50.8,17c-14.7,0.8-27,11.6-29.4,26.2C21.1,44.8,21,46.4,21,48
	c0.2,4.1-3,7.5-7.1,7.7c-0.1,0-0.2,0-0.3,0c-4,0-7.3-3.2-7.3-7.2c0-0.2,0-0.4,0-0.7c0-9.6,3.2-18.8,8.9-26.5
	c8.2-11.1,19.3-17.4,33-18.9L49.8,2.3z"/>
<path class="st0" d="M63.1,121H35.9c-4.2,0-7.1-2.3-8.1-6c-1-4.1,1.6-8.3,5.7-9.3c0.4-0.1,0.8-0.2,1.3-0.2h55.5c4,0,6.9,2,7.9,5.6
	c1.2,4-1,8.3-5.1,9.5c-0.6,0.2-1.3,0.3-1.9,0.3c-8,0.1-16.1,0.1-24.1,0.1H63.1z"/>
<path class="st0" d="M63,99.1H35.4c-3.6,0-6.8-2.5-7.6-6.1c-0.8-3.5,1-7.1,4.3-8.7c1-0.5,2.1-0.8,3.2-0.8H91c4.3,0.2,7.6,3.7,7.5,8
	c-0.1,4.1-3.4,7.3-7.5,7.5C81.6,99.1,72.3,99.1,63,99.1z"/>
<path class="st0" d="M63,77.2H35.5c-4.3,0.1-7.8-3.4-7.9-7.7c0,0,0,0,0-0.1c0-4.2,3.4-7.7,7.6-7.7c0.1,0,0.2,0,0.2,0h55.3
	c4.3,0,7.7,3.5,7.7,7.7c0,3.6-2.5,6.7-6,7.5c-0.6,0.1-1.2,0.2-1.8,0.2L63,77.2z"/>
<path class="st2" d="M13.6,84.1c4.2,0,7.6,3.3,7.6,7.5l0,0c0,4.2-3.4,7.6-7.6,7.7c-4.2,0-7.6-3.5-7.6-7.6C6,87.4,9.4,84.1,13.6,84.1
	z"/>
<path class="st2" d="M13.6,62.2c4.1,0,7.5,3.3,7.6,7.5c0,4.2-3.4,7.6-7.6,7.7C9.4,77.4,6,74,6,69.8S9.5,62.2,13.6,62.2L13.6,62.2z"
	/>
<path class="st2" d="M13.6,106c4.2,0,7.6,3.4,7.6,7.6s-3.4,7.6-7.6,7.6c-4.2-0.1-7.6-3.5-7.6-7.7C6,109.3,9.5,106,13.6,106L13.6,106
	z"/>
</svg>
