<svg width="3271" height="492" xmlns="http://www.w3.org/2000/svg"><g id="Page-1" stroke="none" stroke-width="1" fill="none" fill-rule="evenodd"><g id="Logos-SVG-Export" transform="translate(-365 -754)"><g id="Logo" transform="translate(365 754)"><path d="M50.193 216.755c4.563 0 8.863-.849 12.9-2.545 4.036-1.697 7.575-3.978 10.617-6.845a32.105 32.105 0 0 0 7.196-10.003c1.754-3.803 2.632-7.868 2.632-12.197 0-4.446-.877-8.6-2.632-12.461a32.85 32.85 0 0 0-7.196-10.179c-3.042-2.925-6.581-5.207-10.618-6.845-4.036-1.638-8.336-2.457-12.899-2.457-4.446 0-8.6.82-12.46 2.457a32.875 32.875 0 0 0-10.267 6.845 32.333 32.333 0 0 0-7.02 10.179c-1.697 3.861-2.545 8.014-2.545 12.46 0 4.33.848 8.395 2.545 12.198a31.586 31.586 0 0 0 7.02 10.003c2.983 2.867 6.405 5.148 10.267 6.845 3.86 1.696 8.014 2.544 12.46 2.544ZM77.22 417V235.006H22.815V417H77.22Zm89.28 0V287.305c4.797-4.329 9.828-7.78 15.093-10.354 5.265-2.574 10.881-3.861 16.848-3.861 7.956 0 13.982 2.486 18.077 7.459 4.095 4.972 6.142 11.905 6.142 20.797V417h54.405V301.346c0-9.945-1.346-19.16-4.036-27.642-2.692-8.482-6.67-15.795-11.935-21.937-5.264-6.143-11.729-10.94-19.392-14.391-7.664-3.452-16.468-5.178-26.413-5.178-5.85 0-11.261.556-16.234 1.668-4.972 1.111-9.594 2.632-13.864 4.563a63.725 63.725 0 0 0-12.022 7.107 132.18 132.18 0 0 0-10.881 9.126l-3.159-10.53c-.936-3.042-2.545-5.323-4.826-6.844-2.282-1.521-5.119-2.282-8.512-2.282h-33.696V417H166.5Zm193.878 2.808c6.201 0 11.963-.614 17.287-1.843 5.323-1.228 10.296-2.983 14.917-5.265a71.742 71.742 0 0 0 12.9-8.16 106.69 106.69 0 0 0 11.407-10.53l4.212 13.864c.936 3.042 2.545 5.323 4.826 6.844 2.282 1.522 5.119 2.282 8.512 2.282h33.696V154.276H413.73v92.138c-5.265-4.446-11.144-8.044-17.638-10.793-6.493-2.75-14.42-4.125-23.78-4.125-11.583 0-22.172 2.399-31.766 7.196-9.594 4.797-17.813 11.437-24.657 19.92-6.845 8.482-12.139 18.544-15.883 30.185-3.744 11.642-5.616 24.248-5.616 37.82 0 14.743 1.667 27.876 5.002 39.4 3.334 11.525 7.926 21.265 13.776 29.221 5.85 7.956 12.812 14.04 20.885 18.252 8.073 4.212 16.848 6.318 26.325 6.318Zm18.954-41.769c-4.329 0-8.248-.877-11.758-2.632-3.51-1.755-6.523-4.651-9.039-8.688-2.515-4.036-4.475-9.33-5.879-15.882-1.404-6.553-2.106-14.625-2.106-24.22 0-9.945.877-18.427 2.632-25.447 1.755-7.02 4.183-12.724 7.284-17.111 3.1-4.388 6.757-7.576 10.969-9.565 4.212-1.989 8.833-2.984 13.864-2.984 5.265 0 10.267.907 15.005 2.72 4.739 1.814 9.214 5.002 13.426 9.565v77.22c-2.34 2.809-4.71 5.266-7.108 7.372-2.398 2.106-4.943 3.86-7.634 5.264-2.691 1.404-5.645 2.487-8.863 3.247-3.217.76-6.815 1.141-10.793 1.141Zm202.302 41.769c6.201 0 12.724-.439 19.568-1.316 6.845-.878 13.69-2.457 20.534-4.739 6.844-2.281 13.513-5.44 20.007-9.477 6.493-4.036 12.548-9.272 18.164-15.707l-15.795-19.48c-2.223-3.16-5.499-4.739-9.828-4.739-3.276 0-6.406.76-9.39 2.281a954.84 954.84 0 0 0-9.827 5.09c-3.569 1.872-7.635 3.568-12.197 5.09-4.563 1.52-10.004 2.281-16.322 2.281-11.817 0-21.47-3.422-28.957-10.267-7.489-6.844-12.11-17.871-13.865-33.082h104.949c2.457 0 4.475-.292 6.055-.877s2.837-1.638 3.773-3.159c.936-1.521 1.58-3.568 1.93-6.142.351-2.575.527-5.909.527-10.004 0-13.104-2.018-24.833-6.055-35.188-4.036-10.354-9.652-19.1-16.848-26.237-7.195-7.137-15.795-12.577-25.798-16.321-10.004-3.744-21.031-5.617-33.082-5.617-13.923 0-26.413 2.399-37.47 7.196-11.056 4.797-20.474 11.29-28.255 19.48-7.78 8.19-13.747 17.726-17.9 28.607-4.154 10.881-6.231 22.406-6.231 34.574 0 16.145 2.428 30.303 7.283 42.47 4.856 12.168 11.466 22.348 19.832 30.538 8.365 8.19 18.135 14.361 29.308 18.515 11.174 4.153 23.137 6.23 35.89 6.23Zm30.537-115.654h-67.918c1.871-11.115 5.732-19.627 11.582-25.536 5.85-5.908 13.982-8.863 24.395-8.863 5.85 0 10.822.995 14.918 2.984 4.094 1.989 7.4 4.592 9.915 7.81 2.516 3.217 4.33 6.874 5.44 10.969a48.023 48.023 0 0 1 1.668 12.636ZM737.604 474.74v-69.85a64.8 64.8 0 0 0 17.55 10.882c6.435 2.69 14.391 4.036 23.868 4.036 11.583 0 22.142-2.399 31.678-7.195 9.535-4.798 17.725-11.466 24.57-20.007 6.844-8.541 12.168-18.603 15.97-30.186 3.803-11.584 5.704-24.22 5.704-37.909 0-14.625-1.667-27.7-5.002-39.224-3.334-11.524-7.927-21.264-13.777-29.22-5.85-7.957-12.811-14.04-20.884-18.252-8.073-4.213-16.848-6.319-26.325-6.319-6.318 0-12.139.644-17.462 1.931-5.324 1.287-10.296 3.071-14.918 5.353a74.583 74.583 0 0 0-12.987 8.16 91.467 91.467 0 0 0-11.32 10.53l-4.036-13.338c-.936-3.042-2.545-5.323-4.826-6.844-2.282-1.521-5.119-2.282-8.512-2.282h-33.696V474.74h54.405Zm28.431-94.946c-5.265 0-10.296-.907-15.093-2.72-4.797-1.814-9.243-5.002-13.338-9.565v-77.22c2.34-2.808 4.68-5.294 7.02-7.459a33.941 33.941 0 0 1 7.634-5.352c2.75-1.404 5.733-2.487 8.95-3.247 3.218-.76 6.816-1.141 10.794-1.141 4.329 0 8.249.877 11.759 2.633 3.51 1.755 6.522 4.65 9.038 8.687 2.515 4.036 4.475 9.33 5.879 15.882 1.404 6.553 2.106 14.626 2.106 24.22 0 10.062-.877 18.603-2.632 25.623-1.756 7.02-4.183 12.723-7.284 17.11-3.1 4.388-6.757 7.577-10.969 9.565-4.212 1.99-8.833 2.984-13.864 2.984Zm191.421 40.014c6.201 0 12.724-.439 19.568-1.316 6.845-.878 13.69-2.457 20.534-4.739 6.844-2.281 13.513-5.44 20.007-9.477 6.493-4.036 12.548-9.272 18.164-15.707l-15.795-19.48c-2.223-3.16-5.499-4.739-9.828-4.739-3.276 0-6.406.76-9.39 2.281a954.84 954.84 0 0 0-9.827 5.09c-3.569 1.872-7.635 3.568-12.197 5.09-4.563 1.52-10.004 2.281-16.322 2.281-11.817 0-21.47-3.422-28.957-10.267-7.489-6.844-12.11-17.871-13.865-33.082h104.949c2.457 0 4.475-.292 6.055-.877s2.837-1.638 3.773-3.159c.936-1.521 1.58-3.568 1.93-6.142.351-2.575.527-5.909.527-10.004 0-13.104-2.018-24.833-6.055-35.188-4.036-10.354-9.652-19.1-16.848-26.237-7.195-7.137-15.795-12.577-25.798-16.321-10.004-3.744-21.031-5.617-33.082-5.617-13.923 0-26.413 2.399-37.47 7.196-11.056 4.797-20.474 11.29-28.255 19.48-7.78 8.19-13.747 17.726-17.9 28.607-4.154 10.881-6.231 22.406-6.231 34.574 0 16.145 2.428 30.303 7.283 42.47 4.856 12.168 11.466 22.348 19.832 30.538 8.365 8.19 18.135 14.361 29.308 18.515 11.174 4.153 23.137 6.23 35.89 6.23Zm30.537-115.654h-67.919c1.873-11.115 5.734-19.627 11.584-25.536 5.85-5.908 13.981-8.863 24.394-8.863 5.85 0 10.822.995 14.918 2.984 4.094 1.989 7.4 4.592 9.915 7.81 2.516 3.217 4.33 6.874 5.44 10.969a48.023 48.023 0 0 1 1.668 12.636ZM1113.426 417V287.305c4.797-4.329 9.828-7.78 15.093-10.354 5.265-2.574 10.881-3.861 16.848-3.861 7.956 0 13.982 2.486 18.077 7.459 4.095 4.972 6.142 11.905 6.142 20.797V417h54.405V301.346c0-9.945-1.345-19.16-4.036-27.642s-6.67-15.795-11.934-21.937c-5.265-6.143-11.73-10.94-19.393-14.391-7.664-3.452-16.468-5.178-26.413-5.178-5.85 0-11.261.556-16.234 1.668-4.972 1.111-9.594 2.632-13.864 4.563a63.725 63.725 0 0 0-12.022 7.107 132.18 132.18 0 0 0-10.881 9.126l-3.159-10.53c-.936-3.042-2.545-5.323-4.826-6.844-2.282-1.521-5.119-2.282-8.512-2.282h-33.696V417h54.405Zm193.878 2.808c6.201 0 11.963-.614 17.287-1.843 5.323-1.228 10.296-2.983 14.917-5.265a71.742 71.742 0 0 0 12.9-8.16 106.69 106.69 0 0 0 11.407-10.53l4.212 13.864c.936 3.042 2.545 5.323 4.826 6.844 2.282 1.522 5.119 2.282 8.512 2.282h33.696V154.276h-54.405v92.138c-5.265-4.446-11.144-8.044-17.638-10.793-6.493-2.75-14.42-4.125-23.78-4.125-11.583 0-22.172 2.399-31.765 7.196-9.594 4.797-17.814 11.437-24.658 19.92-6.845 8.482-12.139 18.544-15.883 30.185-3.744 11.642-5.616 24.248-5.616 37.82 0 14.743 1.667 27.876 5.002 39.4 3.334 11.525 7.927 21.265 13.776 29.221 5.85 7.956 12.812 14.04 20.885 18.252 8.073 4.212 16.848 6.318 26.325 6.318Zm18.954-41.769c-4.329 0-8.249-.877-11.759-2.632-3.51-1.755-6.522-4.651-9.038-8.688-2.515-4.036-4.475-9.33-5.879-15.882-1.404-6.553-2.106-14.625-2.106-24.22 0-9.945.877-18.427 2.632-25.447 1.755-7.02 4.183-12.724 7.284-17.111 3.1-4.388 6.756-7.576 10.968-9.565 4.213-1.989 8.834-2.984 13.865-2.984 5.265 0 10.267.907 15.005 2.72 4.739 1.814 9.214 5.002 13.426 9.565v77.22c-2.34 2.809-4.71 5.266-7.108 7.372-2.398 2.106-4.943 3.86-7.634 5.264-2.691 1.404-5.645 2.487-8.863 3.247-3.217.76-6.815 1.141-10.793 1.141Zm202.302 41.769c6.201 0 12.724-.439 19.568-1.316 6.845-.878 13.69-2.457 20.534-4.739 6.844-2.281 13.513-5.44 20.007-9.477 6.493-4.036 12.548-9.272 18.164-15.707l-15.795-19.48c-2.223-3.16-5.499-4.739-9.828-4.739-3.276 0-6.406.76-9.39 2.281a954.84 954.84 0 0 0-9.827 5.09c-3.569 1.872-7.634 3.568-12.197 5.09-4.563 1.52-10.004 2.281-16.322 2.281-11.817 0-21.47-3.422-28.957-10.267-7.489-6.844-12.11-17.871-13.865-33.082h104.949c2.457 0 4.475-.292 6.055-.877s2.837-1.638 3.773-3.159c.936-1.521 1.58-3.568 1.93-6.142.351-2.575.527-5.909.527-10.004 0-13.104-2.018-24.833-6.055-35.188-4.036-10.354-9.652-19.1-16.848-26.237-7.195-7.137-15.795-12.577-25.798-16.321-10.004-3.744-21.031-5.617-33.082-5.617-13.923 0-26.413 2.399-37.47 7.196-11.056 4.797-20.474 11.29-28.255 19.48-7.78 8.19-13.747 17.726-17.9 28.607-4.154 10.881-6.231 22.406-6.231 34.574 0 16.145 2.428 30.303 7.283 42.47 4.856 12.168 11.466 22.348 19.832 30.538 8.365 8.19 18.135 14.361 29.308 18.515 11.174 4.153 23.137 6.23 35.89 6.23Zm30.537-115.654h-67.918c1.871-11.115 5.732-19.627 11.582-25.536 5.85-5.908 13.982-8.863 24.395-8.863 5.85 0 10.822.995 14.918 2.984 4.094 1.989 7.4 4.592 9.915 7.81 2.516 3.217 4.33 6.874 5.44 10.969a48.023 48.023 0 0 1 1.668 12.636ZM1684.53 417V287.305c4.797-4.329 9.828-7.78 15.093-10.354 5.265-2.574 10.881-3.861 16.848-3.861 7.956 0 13.982 2.486 18.076 7.459 4.095 4.972 6.143 11.905 6.143 20.797V417h54.405V301.346c0-9.945-1.346-19.16-4.036-27.642-2.691-8.482-6.67-15.795-11.935-21.937-5.264-6.143-11.729-10.94-19.392-14.391-7.664-3.452-16.468-5.178-26.413-5.178-5.85 0-11.261.556-16.234 1.668-4.972 1.111-9.594 2.632-13.864 4.563a63.725 63.725 0 0 0-12.022 7.107 132.18 132.18 0 0 0-10.881 9.126l-3.159-10.53c-.936-3.042-2.545-5.323-4.826-6.844-2.282-1.521-5.119-2.282-8.512-2.282h-33.696V417h54.405Zm204.057 2.808c9.36 0 18.428-1.316 27.203-3.949 8.774-2.632 16.672-6.581 23.692-11.846l-16.497-25.798c-1.053-1.638-2.077-2.838-3.071-3.598-.995-.76-2.311-1.141-3.949-1.141-1.17 0-2.194.205-3.071.614a62.71 62.71 0 0 0-2.808 1.404c-.995.527-2.165.995-3.51 1.404-1.346.41-3.013.614-5.002.614-3.861 0-6.815-1.374-8.863-4.124-2.047-2.75-3.071-6.23-3.071-10.442v-90.383h44.226v-37.206h-44.226v-53.176h-28.431c-6.552 0-10.53 2.808-11.934 8.424l-10.706 44.401-28.957 5.617v21.235c0 3.51.995 6.172 2.983 7.985 1.99 1.814 4.388 2.72 7.196 2.72h15.444v94.069c0 8.072 1.17 15.385 3.51 21.937 2.34 6.552 5.762 12.139 10.267 16.76 4.504 4.622 10.062 8.19 16.672 10.706 6.61 2.515 14.245 3.773 22.903 3.773Zm171.014 0c6.785 0 12.957-.585 18.515-1.755 5.557-1.17 10.793-2.896 15.707-5.177a78.344 78.344 0 0 0 14.04-8.424c4.446-3.335 9.009-7.108 13.689-11.32l3.51 16.497c.585 3.042 1.814 5.031 3.686 5.967 1.871.936 4.329 1.404 7.37 1.404h13.865V303.276c0-9.945-1.346-19.071-4.037-27.378-2.69-8.307-6.668-15.386-11.934-21.236-5.265-5.85-11.758-10.412-19.48-13.689-7.722-3.276-16.555-4.913-26.5-4.913-13.807 0-26.384 2.34-37.733 7.02-11.349 4.68-21.938 11.758-31.765 21.235l5.615 10.003a12.702 12.702 0 0 0 3.774 4.125c1.58 1.111 3.422 1.667 5.528 1.667 2.691 0 5.411-.965 8.16-2.896 2.75-1.93 6.026-4.095 9.829-6.493 3.802-2.399 8.307-4.563 13.513-6.494 5.207-1.93 11.613-2.895 19.218-2.895 11.582 0 20.328 3.539 26.237 10.617 5.908 7.079 8.863 17.521 8.863 31.327v13.864c-20.125.469-37.148 2.311-51.071 5.529-13.923 3.217-25.184 7.341-33.784 12.373-8.6 5.03-14.83 10.793-18.69 17.286-3.862 6.494-5.792 13.25-5.792 20.27 0 8.073 1.316 15.064 3.949 20.973 2.632 5.908 6.171 10.793 10.618 14.654 4.446 3.861 9.681 6.757 15.707 8.687 6.025 1.93 12.49 2.896 19.392 2.896Zm9.301-21.938c-4.095 0-7.898-.497-11.408-1.491-3.51-.995-6.552-2.574-9.126-4.739-2.573-2.164-4.621-4.943-6.142-8.336-1.521-3.393-2.282-7.43-2.282-12.11 0-4.913 1.434-9.36 4.3-13.338 2.867-3.978 7.459-7.429 13.777-10.354 6.318-2.925 14.508-5.294 24.57-7.108 10.062-1.813 22.289-2.954 36.68-3.422v37.03c-3.51 3.745-7.108 7.079-10.794 10.004-3.685 2.925-7.546 5.411-11.583 7.459-4.036 2.047-8.336 3.627-12.899 4.738-4.563 1.112-9.594 1.668-15.093 1.668ZM2219.607 417V286.077c6.786-7.605 14.186-13.63 22.2-18.077 8.015-4.445 16.644-6.668 25.887-6.668 12.636 0 22.025 3.714 28.168 11.144 6.142 7.43 9.213 17.872 9.213 31.327V417h31.24V303.803c0-10.063-1.287-19.247-3.861-27.554-2.575-8.307-6.348-15.415-11.32-21.323-4.973-5.909-11.174-10.472-18.603-13.69-7.43-3.217-16-4.825-25.711-4.825-12.519 0-23.546 2.632-33.082 7.897-9.535 5.265-18.164 12.168-25.886 20.709l-2.457-19.305c-1.17-4.329-3.978-6.493-8.424-6.493h-18.603V417h31.239Zm195.106 2.808c6.786 0 12.958-.585 18.516-1.755 5.557-1.17 10.793-2.896 15.707-5.177a78.344 78.344 0 0 0 14.04-8.424c4.446-3.335 9.009-7.108 13.689-11.32l3.51 16.497c.585 3.042 1.813 5.031 3.685 5.967 1.872.936 4.33 1.404 7.371 1.404h13.865V303.276c0-9.945-1.345-19.071-4.037-27.378-2.69-8.307-6.669-15.386-11.934-21.236-5.265-5.85-11.758-10.412-19.48-13.689-7.722-3.276-16.555-4.913-26.5-4.913-13.807 0-26.384 2.34-37.733 7.02-11.349 4.68-21.938 11.758-31.765 21.235l5.615 10.003a12.702 12.702 0 0 0 3.774 4.125c1.58 1.111 3.422 1.667 5.528 1.667 2.691 0 5.411-.965 8.16-2.896 2.75-1.93 6.026-4.095 9.829-6.493 3.802-2.399 8.307-4.563 13.513-6.494 5.207-1.93 11.613-2.895 19.218-2.895 11.582 0 20.328 3.539 26.237 10.617 5.908 7.079 8.862 17.521 8.862 31.327v13.864c-20.123.469-37.147 2.311-51.07 5.529-13.923 3.217-25.184 7.341-33.784 12.373-8.6 5.03-14.83 10.793-18.69 17.286-3.861 6.494-5.792 13.25-5.792 20.27 0 8.073 1.316 15.064 3.949 20.973 2.632 5.908 6.171 10.793 10.617 14.654 4.447 3.861 9.682 6.757 15.708 8.687 6.025 1.93 12.49 2.896 19.392 2.896Zm9.302-21.938c-4.095 0-7.898-.497-11.407-1.491-3.51-.995-6.553-2.574-9.127-4.739-2.574-2.164-4.621-4.943-6.142-8.336-1.521-3.393-2.282-7.43-2.282-12.11 0-4.913 1.434-9.36 4.3-13.338 2.867-3.978 7.459-7.429 13.777-10.354 6.318-2.925 14.508-5.294 24.57-7.108 10.062-1.813 22.288-2.954 36.68-3.422v37.03c-3.51 3.745-7.108 7.079-10.794 10.004-3.685 2.925-7.546 5.411-11.583 7.459-4.036 2.047-8.336 3.627-12.899 4.738-4.563 1.112-9.594 1.668-15.093 1.668ZM2578.23 417V158.488h-31.239V417h31.239Zm86.999 60.197c3.276 0 5.703-.702 7.283-2.106s2.895-3.276 3.948-5.617l99.158-230.255h-24.921c-1.989 0-3.832.614-5.528 1.842-1.697 1.229-2.896 2.779-3.598 4.651l-46.157 111.793a129.18 129.18 0 0 0-2.808 7.898 655.997 655.997 0 0 0-2.457 7.897 111.326 111.326 0 0 0-2.018-7.897 81.033 81.033 0 0 0-2.72-7.722l-47.56-111.969c-.703-1.638-1.814-3.13-3.335-4.475-1.521-1.346-3.627-2.018-6.318-2.018h-27.027l73.359 167.427-32.468 70.55h23.167Zm183.698-57.389c8.073 0 15.912-1.433 23.517-4.3 7.606-2.866 14.099-6.815 19.481-11.846l-9.126-14.917c-1.287-1.99-2.75-2.984-4.387-2.984-.936 0-2.019.439-3.247 1.316-1.229.878-2.72 1.843-4.476 2.896-1.755 1.053-3.831 2.018-6.23 2.896-2.398.877-5.235 1.316-8.511 1.316-5.733 0-10.413-1.813-14.04-5.44-3.628-3.627-5.441-9.185-5.441-16.673V265.368h50.895v-22.64h-50.895V181.48h-15.795c-1.989 0-3.627.556-4.914 1.667-1.287 1.112-2.047 2.545-2.281 4.3l-7.196 54.931-29.133 3.686v12.46c0 2.34.643 4.066 1.93 5.178 1.287 1.111 2.867 1.667 4.739 1.667h21.411v108.81c0 14.742 3.773 26.033 11.32 33.872 7.546 7.839 18.34 11.758 32.38 11.758Zm87.35-214.285c3.042 0 5.909-.585 8.6-1.755a22.83 22.83 0 0 0 7.107-4.827 24.508 24.508 0 0 0 4.914-7.02c1.229-2.632 1.843-5.47 1.843-8.511a21.06 21.06 0 0 0-1.843-8.688c-1.228-2.75-2.866-5.148-4.914-7.195a22.83 22.83 0 0 0-7.108-4.826c-2.69-1.17-5.557-1.755-8.599-1.755s-5.88.584-8.512 1.755a23.138 23.138 0 0 0-7.02 4.826c-2.047 2.047-3.656 4.446-4.826 7.195a21.958 21.958 0 0 0-1.755 8.688c0 3.042.585 5.879 1.755 8.511a23.138 23.138 0 0 0 4.826 7.02 23.138 23.138 0 0 0 7.02 4.827c2.633 1.17 5.47 1.755 8.512 1.755ZM2951.721 417V239.219h-31.239V417h31.239Zm111.92 2.457c12.87 0 25.096-2.194 36.679-6.581 11.583-4.388 21.235-11.32 28.957-20.797l-8.774-11.408c-1.288-1.988-3.276-2.983-5.968-2.983-2.105 0-4.211.907-6.317 2.72-2.106 1.814-4.797 3.832-8.073 6.055-3.276 2.223-7.372 4.241-12.285 6.055-4.915 1.813-11.174 2.72-18.779 2.72-7.956 0-15.122-1.492-21.499-4.475-6.376-2.984-11.787-7.313-16.233-12.987-4.447-5.675-7.898-12.695-10.355-21.06-2.457-8.366-3.686-17.93-3.686-28.695 0-10.296 1.141-19.597 3.423-27.904 2.281-8.307 5.674-15.386 10.179-21.236 4.504-5.85 10.091-10.325 16.76-13.425 6.669-3.1 14.332-4.651 22.99-4.651 6.553 0 12.08.731 16.585 2.194 4.505 1.462 8.336 3.071 11.495 4.826 3.16 1.755 5.763 3.364 7.81 4.826 2.048 1.463 3.949 2.194 5.704 2.194s3.1-.351 4.037-1.053c.936-.702 1.871-1.696 2.807-2.983l8.249-11.233c-7.371-7.37-15.854-13.074-25.448-17.11-9.593-4.037-20.591-6.055-32.994-6.055-13.455 0-25.389 2.281-35.802 6.844-10.412 4.563-19.158 10.91-26.237 19.042-7.078 8.131-12.46 17.813-16.146 29.045-3.685 11.232-5.528 23.459-5.528 36.68 0 14.507 2.018 27.436 6.055 38.785 4.036 11.349 9.564 20.914 16.584 28.694 7.02 7.78 15.298 13.719 24.834 17.814 9.535 4.094 19.86 6.142 30.976 6.142Zm133.681.351c10.881 0 20.475-1.462 28.782-4.387 8.307-2.925 15.327-6.933 21.06-12.022 5.733-5.09 10.062-11.115 12.987-18.077 2.925-6.961 4.388-14.537 4.388-22.727 0-7.137-1.317-13.25-3.95-18.34-2.632-5.09-6.112-9.389-10.441-12.899-4.33-3.51-9.244-6.435-14.743-8.775a224.72 224.72 0 0 0-16.935-6.406 790.945 790.945 0 0 0-16.936-5.44c-5.499-1.697-10.413-3.656-14.742-5.88-4.329-2.223-7.81-4.855-10.442-7.897-2.633-3.042-3.949-6.845-3.949-11.408 0-3.627.79-6.99 2.37-10.09 1.579-3.101 3.86-5.821 6.844-8.161 2.983-2.34 6.581-4.183 10.793-5.529 4.212-1.345 8.95-2.018 14.216-2.018 6.084 0 11.349.673 15.795 2.018 4.446 1.346 8.277 2.808 11.495 4.388 3.217 1.58 5.938 3.012 8.16 4.3 2.224 1.286 4.213 1.93 5.967 1.93 2.925 0 5.09-1.287 6.494-3.861l7.02-11.407c-6.786-6.435-14.83-11.496-24.131-15.181-9.302-3.686-19.802-5.528-31.503-5.528-10.061 0-19.012 1.404-26.851 4.212-7.839 2.808-14.45 6.58-19.832 11.32-5.381 4.738-9.476 10.237-12.284 16.496-2.809 6.26-4.213 12.782-4.213 19.568 0 7.606 1.317 14.07 3.95 19.393 2.632 5.324 6.113 9.799 10.442 13.426 4.329 3.627 9.272 6.64 14.83 9.038a191.835 191.835 0 0 0 17.023 6.406 1091.623 1091.623 0 0 0 17.023 5.353c5.558 1.696 10.501 3.685 14.83 5.967 4.329 2.281 7.81 5.03 10.442 8.248 2.633 3.218 3.949 7.284 3.949 12.197 0 3.978-.731 7.722-2.194 11.232-1.462 3.51-3.715 6.611-6.756 9.302-3.043 2.691-6.845 4.826-11.408 6.406s-9.887 2.369-15.97 2.369c-7.137 0-13.075-.819-17.814-2.457-4.738-1.638-8.775-3.452-12.11-5.44-3.334-1.99-6.171-3.803-8.511-5.441-2.34-1.638-4.563-2.457-6.669-2.457s-3.802.41-5.09 1.228c-1.287.82-2.398 1.99-3.334 3.51l-7.371 11.935c7.02 6.317 15.561 11.495 25.623 15.531 10.062 4.037 21.294 6.055 33.696 6.055Z" id="independentanalytics" fill="#5123A0" fill-rule="nonzero"/><g id="Icon" transform="translate(13.5)"><path id="Neck-3" fill="#5123A0" transform="rotate(45 346.161 93.339)" d="M336.161 48.339h20v90h-20z"/><path id="Neck-2" fill="#5123A0" transform="rotate(-60 220 108)" d="M210 63h20v90h-20z"/><path id="Neck-1" fill="#5123A0" transform="rotate(45 94.161 124.339)" d="M84.161 79.339h20v90h-20z"/><circle id="Point-4" stroke="#5123A0" stroke-width="12" cx="403" cy="37" r="31"/><circle id="Point-3" stroke="#5123A0" stroke-width="12" cx="289" cy="149" r="31"/><circle id="Point-2" stroke="#5123A0" stroke-width="12" cx="151" cy="68" r="31"/><circle id="Point-1" fill="#5123A0" cx="37" cy="181" r="37"/></g></g></g></g></svg>