<svg width="144" height="26" viewBox="0 0 144 26" fill="none" xmlns="http://www.w3.org/2000/svg">
<path d="M12.6016 10.4375H18.1562C18.5547 10.4609 18.8242 10.6484 18.9648 11C19.0586 11.375 18.9648 11.6914 18.6836 11.9492L14.0781 15.5352L15.8711 21.1602C15.9648 21.5352 15.8594 21.8516 15.5547 22.1094C15.2031 22.3203 14.8633 22.3086 14.5352 22.0742L10 18.5234L5.46484 22.0742C5.13672 22.3086 4.79688 22.3203 4.44531 22.1094C4.14062 21.8516 4.03516 21.5352 4.12891 21.1602L5.92188 15.5352L1.31641 11.9492C1.03516 11.6914 0.941406 11.375 1.03516 11C1.17578 10.6484 1.44531 10.4609 1.84375 10.4375H7.43359L9.19141 4.84766C9.33203 4.47266 9.60156 4.27344 10 4.25C10.3984 4.27344 10.668 4.47266 10.8086 4.84766L12.6016 10.4375Z" fill="#FFB84F"/>
<path d="M43.6016 10.4375H49.1562C49.5547 10.4609 49.8242 10.6484 49.9648 11C50.0586 11.375 49.9648 11.6914 49.6836 11.9492L45.0781 15.5352L46.8711 21.1602C46.9648 21.5352 46.8594 21.8516 46.5547 22.1094C46.2031 22.3203 45.8633 22.3086 45.5352 22.0742L41 18.5234L36.4648 22.0742C36.1367 22.3086 35.7969 22.3203 35.4453 22.1094C35.1406 21.8516 35.0352 21.5352 35.1289 21.1602L36.9219 15.5352L32.3164 11.9492C32.0352 11.6914 31.9414 11.375 32.0352 11C32.1758 10.6484 32.4453 10.4609 32.8438 10.4375H38.4336L40.1914 4.84766C40.332 4.47266 40.6016 4.27344 41 4.25C41.3984 4.27344 41.668 4.47266 41.8086 4.84766L43.6016 10.4375Z" fill="#FFB84F"/>
<path d="M74.6016 10.4375H80.1562C80.5547 10.4609 80.8242 10.6484 80.9648 11C81.0586 11.375 80.9648 11.6914 80.6836 11.9492L76.0781 15.5352L77.8711 21.1602C77.9648 21.5352 77.8594 21.8516 77.5547 22.1094C77.2031 22.3203 76.8633 22.3086 76.5352 22.0742L72 18.5234L67.4648 22.0742C67.1367 22.3086 66.7969 22.3203 66.4453 22.1094C66.1406 21.8516 66.0352 21.5352 66.1289 21.1602L67.9219 15.5352L63.3164 11.9492C63.0352 11.6914 62.9414 11.375 63.0352 11C63.1758 10.6484 63.4453 10.4609 63.8438 10.4375H69.4336L71.1914 4.84766C71.332 4.47266 71.6016 4.27344 72 4.25C72.3984 4.27344 72.668 4.47266 72.8086 4.84766L74.6016 10.4375Z" fill="#FFB84F"/>
<path d="M105.602 10.4375H111.156C111.555 10.4609 111.824 10.6484 111.965 11C112.059 11.375 111.965 11.6914 111.684 11.9492L107.078 15.5352L108.871 21.1602C108.965 21.5352 108.859 21.8516 108.555 22.1094C108.203 22.3203 107.863 22.3086 107.535 22.0742L103 18.5234L98.4648 22.0742C98.1367 22.3086 97.7969 22.3203 97.4453 22.1094C97.1406 21.8516 97.0352 21.5352 97.1289 21.1602L98.9219 15.5352L94.3164 11.9492C94.0352 11.6914 93.9414 11.375 94.0352 11C94.1758 10.6484 94.4453 10.4609 94.8438 10.4375H100.434L102.191 4.84766C102.332 4.47266 102.602 4.27344 103 4.25C103.398 4.27344 103.668 4.47266 103.809 4.84766L105.602 10.4375Z" fill="#FFB84F"/>
<path d="M136.602 10.4375H142.156C142.555 10.4609 142.824 10.6484 142.965 11C143.059 11.375 142.965 11.6914 142.684 11.9492L138.078 15.5352L139.871 21.1602C139.965 21.5352 139.859 21.8516 139.555 22.1094C139.203 22.3203 138.863 22.3086 138.535 22.0742L134 18.5234L129.465 22.0742C129.137 22.3086 128.797 22.3203 128.445 22.1094C128.141 21.8516 128.035 21.5352 128.129 21.1602L129.922 15.5352L125.316 11.9492C125.035 11.6914 124.941 11.375 125.035 11C125.176 10.6484 125.445 10.4609 125.844 10.4375H131.434L133.191 4.84766C133.332 4.47266 133.602 4.27344 134 4.25C134.398 4.27344 134.668 4.47266 134.809 4.84766L136.602 10.4375Z" fill="#FFB84F"/>
</svg>
