<svg width="132" height="22" viewBox="0 0 132 22" fill="none" xmlns="http://www.w3.org/2000/svg">
<rect width="132" height="22" fill="#1E1E1E"/>
<g id="ADMIN: Payment integration">
<path d="M-7057 -603C-7057 -604.105 -7056.1 -605 -7055 -605H7119C7120.1 -605 7121 -604.105 7121 -603V2181C7121 2182.1 7120.1 2183 7119 2183H-7055C-7056.1 2183 -7057 2182.1 -7057 2181V-603Z" fill="#4B4B55"/>
<path d="M-7055 -604H7119V-606H-7055V-604ZM7120 -603V2181H7122V-603H7120ZM7119 2182H-7055V2184H7119V2182ZM-7056 2181V-603H-7058V2181H-7056ZM-7055 2182C-7055.55 2182 -7056 2181.55 -7056 2181H-7058C-7058 2182.66 -7056.66 2184 -7055 2184V2182ZM7120 2181C7120 2181.55 7119.55 2182 7119 2182V2184C7120.66 2184 7122 2182.66 7122 2181H7120ZM7119 -604C7119.55 -604 7120 -603.552 7120 -603H7122C7122 -604.657 7120.66 -606 7119 -606V-604ZM-7055 -606C-7056.66 -606 -7058 -604.657 -7058 -603H-7056C-7056 -603.552 -7055.55 -604 -7055 -604V-606Z" fill="white" fill-opacity="0.1"/>
<g id="settings" clip-path="url(#clip0_4860_28903)">
<rect width="1440" height="1099" transform="translate(-643 -309)" fill="#D2D8E5"/>
<g id="bg">
</g>
<g id="Container">
<rect x="-463" y="-258" width="1240" height="1017" rx="8" fill="#EEF1F7"/>
<g id="Frame 8896">
<g id="Payment-gateway">
<rect x="-203" y="-24" width="951" height="320" rx="6" fill="white"/>
<g id="Frame 9005">
<g id="Mastercard">
<path id="Left" fill-rule="evenodd" clip-rule="evenodd" d="M65.954 17.7833C64.3701 19.1186 62.3155 19.9246 60.0703 19.9246C55.0609 19.9246 51 15.9121 51 10.9623C51 6.01257 55.0609 2 60.0703 2C62.3155 2 64.3701 2.80607 65.954 4.1413C67.538 2.80607 69.5926 2 71.8378 2C76.8472 2 80.9081 6.01257 80.9081 10.9623C80.9081 15.9121 76.8472 19.9246 71.8378 19.9246C69.5926 19.9246 67.538 19.1186 65.954 17.7833Z" fill="#ED0006"/>
<path id="Right" fill-rule="evenodd" clip-rule="evenodd" d="M65.9551 17.7842C67.9056 16.1403 69.1425 13.694 69.1425 10.9623C69.1425 8.2306 67.9056 5.78434 65.9551 4.14048C67.5389 2.80574 69.5931 2 71.8379 2C76.8473 2 80.9081 6.01257 80.9081 10.9623C80.9081 15.9121 76.8473 19.9246 71.8379 19.9246C69.5931 19.9246 67.5389 19.1189 65.9551 17.7842Z" fill="#F9A000"/>
<path id="Middle" fill-rule="evenodd" clip-rule="evenodd" d="M65.9521 17.7807C67.9021 16.1369 69.1386 13.691 69.1386 10.9597C69.1386 8.22843 67.9021 5.78252 65.9521 4.13867C64.0021 5.78252 62.7656 8.22843 62.7656 10.9597C62.7656 13.691 64.0021 16.1369 65.9521 17.7807Z" fill="#FF5E00"/>
</g>
<path id="visa-logo" fill-rule="evenodd" clip-rule="evenodd" d="M12.2506 17.899H8.70225L6.04142 7.81395C5.91512 7.35004 5.64696 6.93992 5.25251 6.74662C4.26811 6.26086 3.18336 5.87427 2 5.67929V5.29102H7.71612C8.50502 5.29102 9.0967 5.87427 9.19532 6.55164L10.5759 13.8263L14.1225 5.29102H17.5723L12.2506 17.899ZM19.5445 17.899H16.1934L18.9528 5.29102H22.3039L19.5445 17.899ZM26.6391 8.78357C26.7377 8.10451 27.3294 7.71623 28.0197 7.71623C29.1045 7.61875 30.2861 7.81372 31.2722 8.2978L31.8639 5.58325C30.8778 5.19498 29.793 5 28.8086 5C25.5561 5 23.1894 6.74639 23.1894 9.17016C23.1894 11.014 24.8658 11.9822 26.0492 12.5655C27.3294 13.147 27.8225 13.5353 27.7239 14.1169C27.7239 14.9892 26.7377 15.3775 25.7533 15.3775C24.57 15.3775 23.3866 15.0867 22.3036 14.6009L21.7119 17.3172C22.8953 17.8013 24.1755 17.9962 25.3589 17.9962C29.0058 18.092 31.2722 16.3473 31.2722 13.7286C31.2722 10.4308 26.6391 10.2375 26.6391 8.78357ZM42.9995 17.899L40.3387 5.29102H37.4807C36.889 5.29102 36.2973 5.67929 36.1001 6.26086L31.1729 17.899H34.6226L35.3112 16.0568H39.5498L39.9443 17.899H42.9995ZM37.9745 8.68567L38.9589 13.4374H36.1994L37.9745 8.68567Z" fill="#172B85"/>
<g id="Group 469270">
<path id="Vector" d="M129.701 13.7777H128.412C128.146 13.7777 127.923 13.6011 127.923 13.3804C127.923 13.1156 128.146 12.9831 128.412 12.9831H130.767L131.301 11.7922H128.412C127.213 11.7922 126.546 12.4976 126.546 13.4246C126.546 14.3515 127.213 14.9686 128.235 14.9686H129.523C129.79 14.9686 130.012 15.1451 130.012 15.3659C130.012 15.5866 129.834 15.7631 129.523 15.7631H126.679V16.954H129.523C130.723 16.954 131.39 16.2487 131.39 15.2776C131.39 14.3065 130.767 13.7777 129.701 13.7777ZM124.502 13.7777H123.213C122.947 13.7777 122.724 13.6011 122.724 13.3804C122.724 13.1156 122.947 12.9831 123.213 12.9831H125.568L126.102 11.7922H123.213C122.014 11.7922 121.348 12.4976 121.348 13.4246C121.348 14.3515 122.014 14.9686 123.037 14.9686H124.325C124.592 14.9686 124.814 15.1451 124.814 15.3659C124.814 15.5866 124.636 15.7631 124.325 15.7631H121.481V16.954H124.325C125.525 16.954 126.191 16.2487 126.191 15.2776C126.235 14.3074 125.614 13.7777 124.502 13.7777ZM116.282 16.9972H120.726V15.8063H117.704V14.9686H120.682V13.7777H117.704V12.9399H120.726V11.749H116.282V16.9982V16.9972ZM113.527 13.9984H112.061V12.9399H113.527C113.927 12.9399 114.15 13.2048 114.15 13.4696C114.15 13.7786 113.927 13.9993 113.527 13.9993M115.571 13.4255C115.571 12.4111 114.859 11.749 113.704 11.749H110.638V16.9982H112.06V15.1902H112.593L114.193 16.9982H115.882L114.149 15.1019C115.037 14.8812 115.571 14.2642 115.571 13.4255ZM107.973 14.0876H106.462V12.9408H107.973C108.373 12.9408 108.595 13.2057 108.595 13.5147C108.595 13.8237 108.417 14.0885 107.973 14.0885M108.15 11.7509H105.084V17H106.506V15.2794H108.15C109.35 15.2794 110.062 14.5299 110.062 13.5147C110.017 12.4562 109.307 11.7499 108.15 11.7499M104.818 11.7499H102.997L101.664 13.3381L100.286 11.7499H98.4196L100.774 14.3524L98.3751 16.9991H100.196L101.618 15.3226L103.04 16.9991H104.906L102.507 14.3083L104.817 11.7499H104.818ZM93.7543 16.9991H98.1973V15.8082H95.1309V14.9704H98.1083V13.7795H95.1309V12.9418H98.1973V11.7509H93.7543V17V16.9991ZM129.167 8.21956L126.99 5.04414H125.213V10.2491H126.635V6.94038L128.856 10.2482H130.545V5.04414H129.167V8.22048V8.21956ZM120.991 8.04299L121.746 6.27826L122.501 8.04299H120.99H120.991ZM120.813 5.04322L118.503 10.2924H120.058L120.503 9.23389H122.947L123.391 10.2924H124.991L122.636 5.04414H120.814L120.813 5.04322ZM116.192 7.68986V7.60158C116.192 6.80795 116.637 6.27826 117.525 6.27826H119.081V5H117.392C115.659 5 114.77 6.10261 114.77 7.55836V7.64664C114.77 9.27895 115.792 10.205 117.348 10.205H117.837L118.414 9.0141H117.57C116.726 9.05824 116.192 8.57269 116.192 7.69078M112.638 10.2491H114.06V5.04414H112.638V10.2491ZM109.883 7.24937H108.416V6.1909H109.883C110.283 6.1909 110.505 6.45574 110.505 6.72059C110.505 7.02958 110.283 7.25029 109.883 7.25029M111.926 6.72059C111.926 5.70626 111.215 5.04414 110.061 5.04414H106.994V10.2933H108.416V8.44118H108.95L110.55 10.2501H112.283L110.506 8.35382C111.395 8.17725 111.928 7.51605 111.928 6.72151M101.619 10.2501H106.062V9.05916H103.04V8.2214H105.973V7.0305H103.04V6.19274H106.062V5.04414H101.619V10.2491V10.2501ZM97.1319 8.30876L95.9313 5.04414H93.7543V10.2491H95.1318V6.49988L96.5094 10.2491H97.7535L99.1311 6.49988V10.2491H100.553V5.04414H98.3316L97.1319 8.30784V8.30876ZM89.4892 8.04391L90.2442 6.27918L90.9992 8.04391H89.4883H89.4892ZM89.3104 5.04414L87 10.2491H88.5554L89.0001 9.19067H91.4439L91.8886 10.2491H93.4884L91.1326 5.04414H89.3104Z" fill="#006FCF"/>
</g>
</g>
</g>
</g>
</g>
</g>
</g>
<defs>
<clipPath id="clip0_4860_28903">
<rect width="1440" height="1099" fill="white" transform="translate(-643 -309)"/>
</clipPath>
</defs>
</svg>
