<svg width="18" height="18" viewBox="0 0 18 18" fill="none" xmlns="http://www.w3.org/2000/svg">
<g id="Edit Pencil">
<path id="Edit Pencil_2" d="M16.6343 4.14726L13.8086 1.31134C13.4398 0.963682 12.9566 0.764198 12.4508 0.750839C11.945 0.73748 11.4519 0.911179 11.0654 1.23889L1.78399 10.554C1.45065 10.8913 1.2431 11.3335 1.19617 11.8063L0.752721 16.1223C0.739795 16.2658 0.756883 16.4105 0.80289 16.547C0.848896 16.6836 0.922808 16.8089 1.01989 16.9151C1.11697 17.0213 1.23509 17.106 1.36666 17.1638C1.49824 17.2215 1.64039 17.251 1.78399 17.2504H1.87681L6.17721 16.8571C6.64829 16.81 7.08888 16.6017 7.42504 16.2672L16.7065 6.95213C17.0667 6.57018 17.2614 6.06048 17.2479 5.53473C17.2343 5.00897 17.0137 4.51004 16.6343 4.14726ZM13.128 7.60418L10.3642 4.83037L12.3751 2.76035L15.1939 5.58937L13.128 7.60418Z" fill="#1AB163"/>
</g>
</svg>
