<svg xmlns="http://www.w3.org/2000/svg" fill="none" viewBox="0 0 18 18">
  <rect width="17" height="17" x=".5" y=".5" fill="#fff" fill-opacity=".8" rx="8.5"/>
  <path fill="#F99417" d="M9.909 11.782a.66.66 0 0 1-.399-.09.414.414 0 0 1-.114-.34c.003-.104.015-.207.037-.309.02-.117.047-.232.08-.346l.365-1.255a1.9 1.9 0 0 0 .074-.38c0-.14.019-.235.019-.29a.813.813 0 0 0-.288-.647 1.209 1.209 0 0 0-.816-.247c-.21.003-.418.037-.618.102-.219.068-.448.15-.69.244l-.104.408c.07-.025.157-.052.256-.083.094-.028.192-.043.29-.044a.593.593 0 0 1 .393.096.448.448 0 0 1 .102.337c0 .104-.012.208-.034.31a4.8 4.8 0 0 1-.083.342l-.368 1.261c-.03.118-.053.236-.071.356a2.207 2.207 0 0 0-.022.309.807.807 0 0 0 .31.64c.236.181.53.271.828.253.21.005.418-.026.618-.09a22.8 22.8 0 0 0 .701-.256l.1-.39c-.08.033-.162.06-.245.08a1.174 1.174 0 0 1-.321.029Zm.386-5.95a.88.88 0 0 0-.618-.232.887.887 0 0 0-.618.232.739.739 0 0 0 0 1.119.927.927 0 0 0 1.236 0 .742.742 0 0 0 0-1.12Z"/>
  <path fill="#F99417" d="M9 2.2a6.8 6.8 0 1 0 0 13.6A6.8 6.8 0 0 0 9 2.2Zm0 12.982A6.182 6.182 0 1 1 9 2.818a6.182 6.182 0 0 1 0 12.364Z"/>
</svg>