<svg xmlns="http://www.w3.org/2000/svg" fill="none" viewBox="0 0 177 49">
  <path fill="#822ABB" d="M41.264 31.654c-.03.996.11 5.936-.167 6.796-.524 2.006-2.122 3.552-3.792 4.677-8.426 5.478-24.525 5.487-33.038.17C2.549 42.189.887 40.67.272 38.66c-.41-.983-.155-6.091-.23-7.195h.011c.016.339.067.676.153 1.004 4.023 11.522 33.981 11.343 40.125 1.789a6.11 6.11 0 0 0 .933-2.604Zm.046-21.722c-.522 6.494-9.779 8.89-15.148 9.644-7.236.867-14.984.288-21.472-3.275C2.36 14.98.02 12.821 0 9.971 1.44-3.293 39.819-3.341 41.31 9.932Z"/>
  <path fill="#822ABB" d="M41.304 13.14c-.082 1.361.24 7.375-.338 8.548-2.223 5.341-9.603 7.168-14.81 7.947-8.057.898-17.679.288-24.077-5.236-.952-.942-1.68-2.072-1.953-3.376-.21-.542-.08-7.018-.12-7.737.669 6.572 10.871 8.952 16.302 9.525 7 .95 24.027-.755 24.996-9.671Z"/>
  <path fill="#822ABB" d="M41.282 23.25c-.121 4.67.888 7.343-3.448 10.525-7.23 4.954-18.26 5.337-26.584 3.379C7.035 35.978 1.595 34.09.196 29.472-.118 28.41.09 24.045.027 22.887h.004c0 .088.005.175.01.264.056.838.339 1.65.758 2.374.471.816 1.104 1.532 1.805 2.159 8.005 6.565 24.004 6.51 33.037 2.067 2.608-1.295 5.288-3.421 5.64-6.502Z"/>
  <rect width="14.532" height="14.532" x="32.468" y="33.621" fill="url(#a)" rx="7.266"/>
  <path fill="#FCFEFF" d="M39.755 37.06v-1.29l-2.33 2.33 2.33 2.33v-1.29a2.395 2.395 0 0 1 2.371 2.392 2.395 2.395 0 0 1-2.392 2.392 2.395 2.395 0 0 1-2.392-2.392h-2.08a4.477 4.477 0 0 0 4.472 4.472 4.477 4.477 0 0 0 4.472-4.472 4.476 4.476 0 0 0-4.451-4.472Z"/>
  <path fill="#822ABB" d="M62.274 16.92h-5.088l-.976 2.656h-1.184l4.08-11.04h1.264l4.064 11.04H63.25l-.976-2.656Zm-.336-.928L59.73 9.944l-2.208 6.048h4.416Zm3.782-.8c0-.896.181-1.68.544-2.352a3.84 3.84 0 0 1 1.488-1.568c.64-.373 1.36-.56 2.16-.56.768 0 1.461.187 2.08.56.618.374 1.072.859 1.36 1.456V7.736h1.12v11.84h-1.12v-1.952c-.267.608-.704 1.11-1.312 1.504-.608.384-1.323.576-2.144.576-.8 0-1.52-.186-2.16-.56a3.95 3.95 0 0 1-1.488-1.584c-.352-.682-.528-1.472-.528-2.368Zm7.632.016c0-.704-.144-1.322-.432-1.856a3.066 3.066 0 0 0-1.184-1.232 3.165 3.165 0 0 0-1.632-.432c-.619 0-1.174.139-1.664.416a3 3 0 0 0-1.168 1.216c-.278.523-.416 1.147-.416 1.872 0 .715.138 1.344.416 1.888a3.1 3.1 0 0 0 1.168 1.232c.49.278 1.045.416 1.664.416.597 0 1.141-.144 1.632-.432a3.066 3.066 0 0 0 1.184-1.232c.288-.533.432-1.152.432-1.856Zm6.78 3.28 2.945-7.648h1.184l-3.504 8.736h-1.264l-3.504-8.736h1.2l2.944 7.648Zm5.135-3.296c0-.896.176-1.68.528-2.352a3.84 3.84 0 0 1 1.488-1.568c.64-.373 1.36-.56 2.16-.56.832 0 1.546.192 2.144.576.608.384 1.045.875 1.312 1.472v-1.92h1.12v8.736h-1.12V17.64c-.278.598-.72 1.094-1.328 1.488-.598.384-1.312.576-2.144.576-.79 0-1.504-.186-2.144-.56a3.95 3.95 0 0 1-1.488-1.584c-.352-.682-.528-1.472-.528-2.368Zm7.632.016c0-.704-.144-1.322-.432-1.856a3.066 3.066 0 0 0-1.184-1.232 3.165 3.165 0 0 0-1.632-.432c-.619 0-1.174.139-1.664.416-.491.278-.88.683-1.168 1.216-.278.523-.416 1.147-.416 1.872 0 .715.138 1.344.416 1.888a3.1 3.1 0 0 0 1.168 1.232c.49.278 1.045.416 1.664.416.597 0 1.141-.144 1.632-.432a3.066 3.066 0 0 0 1.184-1.232c.288-.533.432-1.152.432-1.856Zm7.773-4.528c1.045 0 1.898.326 2.56.976.661.64.992 1.574.992 2.8v5.12h-1.104v-4.992c0-.949-.24-1.674-.72-2.176-.47-.501-1.115-.752-1.936-.752-.843 0-1.515.267-2.016.8-.502.534-.752 1.318-.752 2.352v4.768h-1.12V10.84h1.12v1.488a2.812 2.812 0 0 1 1.2-1.216c.522-.288 1.114-.432 1.776-.432Zm5.517 4.528c0-.906.181-1.696.544-2.368a3.806 3.806 0 0 1 1.504-1.568c.64-.373 1.37-.56 2.192-.56 1.077 0 1.962.267 2.656.8.704.534 1.157 1.259 1.36 2.176h-1.2c-.15-.629-.475-1.12-.976-1.472-.491-.362-1.104-.544-1.84-.544-.587 0-1.115.134-1.584.4-.47.267-.843.667-1.12 1.2-.267.523-.4 1.168-.4 1.936s.133 1.419.4 1.952c.277.534.65.934 1.12 1.2.469.267.997.4 1.584.4.736 0 1.349-.176 1.84-.528.501-.362.826-.864.976-1.504h1.2c-.203.896-.656 1.616-1.36 2.16-.704.544-1.59.816-2.656.816-.822 0-1.552-.181-2.192-.544a3.939 3.939 0 0 1-1.504-1.568c-.363-.682-.544-1.477-.544-2.384Zm18.228-.448c0 .384-.011.678-.032.88h-7.248c.032.662.192 1.227.48 1.696.288.47.667.827 1.136 1.072a3.38 3.38 0 0 0 1.536.352c.725 0 1.333-.176 1.824-.528.501-.352.832-.826.992-1.424h1.184a3.72 3.72 0 0 1-1.376 2.096c-.693.534-1.568.8-2.624.8-.821 0-1.557-.181-2.208-.544a4.016 4.016 0 0 1-1.536-1.568c-.363-.682-.544-1.477-.544-2.384 0-.906.181-1.701.544-2.384a3.781 3.781 0 0 1 1.52-1.568c.651-.362 1.392-.544 2.224-.544.832 0 1.557.182 2.176.544a3.679 3.679 0 0 1 1.44 1.472c.341.608.512 1.286.512 2.032Zm-1.136-.032c.011-.65-.123-1.205-.4-1.664a2.6 2.6 0 0 0-1.104-1.04 3.384 3.384 0 0 0-1.536-.352c-.832 0-1.541.267-2.128.8-.587.534-.912 1.286-.976 2.256h6.144Zm2.673.464c0-.896.181-1.68.544-2.352.363-.682.859-1.205 1.488-1.568.64-.373 1.36-.56 2.16-.56.768 0 1.461.187 2.08.56.619.374 1.072.859 1.36 1.456V7.736h1.12v11.84h-1.12v-1.952c-.267.608-.704 1.11-1.312 1.504-.608.384-1.323.576-2.144.576-.8 0-1.52-.186-2.16-.56a3.956 3.956 0 0 1-1.488-1.584c-.352-.682-.528-1.472-.528-2.368Zm7.632.016c0-.704-.144-1.322-.432-1.856a3.068 3.068 0 0 0-1.184-1.232 3.166 3.166 0 0 0-1.632-.432c-.619 0-1.173.139-1.664.416-.491.278-.88.683-1.168 1.216-.277.523-.416 1.147-.416 1.872 0 .715.139 1.344.416 1.888.288.534.677.944 1.168 1.232a3.322 3.322 0 0 0 1.664.416c.597 0 1.141-.144 1.632-.432a3.068 3.068 0 0 0 1.184-1.232c.288-.533.432-1.152.432-1.856Zm-53.02 12.22-5.07 18.148h-4.29L67.8 32.654l-3.562 12.922-4.264.026-4.888-18.174h3.9l3.198 14.092 3.692-14.092h4.056l3.484 14.014 3.224-14.014h3.926Zm15.611 5.616c0 .971-.234 1.881-.702 2.73-.45.85-1.17 1.534-2.158 2.054-.97.52-2.201.78-3.692.78h-3.042v6.968h-3.64V27.428h6.682c1.404 0 2.6.243 3.588.728.988.486 1.725 1.153 2.21 2.002.503.85.754 1.812.754 2.886Zm-6.708 2.626c1.005 0 1.75-.225 2.236-.676.485-.468.728-1.118.728-1.95 0-1.768-.988-2.652-2.964-2.652h-2.886v5.278h2.886Zm24.848 9.906-4.004-7.072h-1.716v7.072h-3.64V27.428h6.812c1.404 0 2.6.252 3.588.754.988.486 1.724 1.153 2.21 2.002.502.832.754 1.768.754 2.808 0 1.196-.347 2.28-1.04 3.25-.694.954-1.725 1.612-3.094 1.976l4.342 7.358h-4.212Zm-5.72-9.802h3.042c.988 0 1.724-.234 2.21-.702.485-.485.728-1.152.728-2.002 0-.832-.243-1.473-.728-1.924-.486-.468-1.222-.702-2.21-.702h-3.042v5.33Zm26.406 2.288c0 .52-.035.988-.104 1.404h-10.53c.087 1.04.451 1.855 1.092 2.444.641.59 1.43.884 2.366.884 1.352 0 2.314-.58 2.886-1.742h3.926c-.416 1.387-1.213 2.531-2.392 3.432-1.179.884-2.626 1.326-4.342 1.326-1.387 0-2.635-.303-3.744-.91a6.697 6.697 0 0 1-2.574-2.626c-.607-1.126-.91-2.426-.91-3.9 0-1.49.303-2.799.91-3.926a6.352 6.352 0 0 1 2.548-2.6c1.092-.606 2.349-.91 3.77-.91 1.369 0 2.591.295 3.666.884a6.096 6.096 0 0 1 2.522 2.522c.607 1.075.91 2.314.91 3.718Zm-3.77-1.04c-.017-.936-.355-1.681-1.014-2.236-.659-.572-1.465-.858-2.418-.858-.901 0-1.664.278-2.288.832-.607.538-.979 1.292-1.118 2.262h6.838Zm11.939 8.788c-1.179 0-2.236-.208-3.172-.624-.936-.433-1.681-1.014-2.236-1.742a4.435 4.435 0 0 1-.884-2.418h3.666c.069.555.338 1.014.806 1.378.485.364 1.083.546 1.794.546.693 0 1.231-.138 1.612-.416.399-.277.598-.632.598-1.066 0-.468-.243-.814-.728-1.04-.468-.242-1.222-.502-2.262-.78-1.075-.26-1.959-.528-2.652-.806a4.716 4.716 0 0 1-1.768-1.274c-.485-.572-.728-1.343-.728-2.314 0-.797.225-1.525.676-2.184.468-.658 1.127-1.178 1.976-1.56.867-.381 1.881-.572 3.042-.572 1.716 0 3.085.434 4.108 1.3 1.023.85 1.586 2.002 1.69 3.458h-3.484c-.052-.572-.295-1.022-.728-1.352-.416-.346-.979-.52-1.69-.52-.659 0-1.17.122-1.534.364-.347.243-.52.581-.52 1.014 0 .486.243.858.728 1.118.485.243 1.239.494 2.262.754 1.04.26 1.898.529 2.574.806a4.39 4.39 0 0 1 1.742 1.3c.503.572.763 1.335.78 2.288 0 .832-.234 1.578-.702 2.236-.451.659-1.109 1.179-1.976 1.56-.849.364-1.846.546-2.99.546Zm22.046-7.748c0 .52-.035.988-.104 1.404h-10.53c.086 1.04.45 1.855 1.092 2.444.641.59 1.43.884 2.366.884 1.352 0 2.314-.58 2.886-1.742h3.926c-.416 1.387-1.214 2.531-2.392 3.432-1.179.884-2.626 1.326-4.342 1.326-1.387 0-2.635-.303-3.744-.91a6.697 6.697 0 0 1-2.574-2.626c-.607-1.126-.91-2.426-.91-3.9 0-1.49.303-2.799.91-3.926a6.345 6.345 0 0 1 2.548-2.6c1.092-.606 2.348-.91 3.77-.91 1.369 0 2.591.295 3.666.884a6.102 6.102 0 0 1 2.522 2.522c.606 1.075.91 2.314.91 3.718Zm-3.77-1.04c-.018-.936-.356-1.681-1.014-2.236-.659-.572-1.465-.858-2.418-.858-.902 0-1.664.278-2.288.832-.607.538-.98 1.292-1.118 2.262h6.838Zm10.665-2.86v6.968c0 .486.112.841.338 1.066.242.208.641.312 1.196.312h1.69v3.068h-2.288c-3.068 0-4.602-1.49-4.602-4.472v-6.942h-1.716v-2.99h1.716V27.61h3.666v3.562h3.224v2.99h-3.224Z"/>
  <defs>
    <linearGradient id="a" x1="36.984" x2="42.434" y1="49.427" y2="33.987" gradientUnits="userSpaceOnUse">
      <stop stop-color="#F98972"/>
      <stop offset="1" stop-color="#FEB67B"/>
    </linearGradient>
  </defs>
</svg>
